<?xml version="1.0" encoding="UTF-8" standalone="no"?>
<!-- Created with Inkscape (http://www.inkscape.org/) -->

<svg
   xmlns:dc="http://purl.org/dc/elements/1.1/"
   xmlns:cc="http://creativecommons.org/ns#"
   xmlns:rdf="http://www.w3.org/1999/02/22-rdf-syntax-ns#"
   xmlns:svg="http://www.w3.org/2000/svg"
   xmlns="http://www.w3.org/2000/svg"
   xmlns:sodipodi="http://sodipodi.sourceforge.net/DTD/sodipodi-0.dtd"
   xmlns:inkscape="http://www.inkscape.org/namespaces/inkscape"
   version="1.1"
   id="svg834"
   xml:space="preserve"
   width="3178.6667"
   height="2245.3333"
   viewBox="0 0 3178.6667 2245.3333"
   sodipodi:docname="CorkBottom.svg"
   inkscape:version="0.92.2 5c3e80d, 2017-08-06"><metadata
     id="metadata840"><rdf:RDF><cc:Work
         rdf:about=""><dc:format>image/svg+xml</dc:format><dc:type
           rdf:resource="http://purl.org/dc/dcmitype/StillImage" /><dc:title></dc:title></cc:Work></rdf:RDF></metadata><defs
     id="defs838"><clipPath
       clipPathUnits="userSpaceOnUse"
       id="clipPath850"><path
         d="M 3666,11714 H 36782 V 24987 H 3666 V 11714"
         id="path848"
         inkscape:connector-curvature="0" /></clipPath></defs><sodipodi:namedview
     pagecolor="#ffffff"
     bordercolor="#666666"
     borderopacity="1"
     objecttolerance="10"
     gridtolerance="10"
     guidetolerance="10"
     inkscape:pageopacity="0"
     inkscape:pageshadow="2"
     inkscape:window-width="1440"
     inkscape:window-height="801"
     id="namedview836"
     showgrid="false"
     inkscape:zoom="0.26187649"
     inkscape:cx="1589.3334"
     inkscape:cy="1122.6666"
     inkscape:window-x="0"
     inkscape:window-y="1"
     inkscape:window-maximized="1"
     inkscape:current-layer="g842" /><g
     id="g842"
     inkscape:groupmode="layer"
     inkscape:label="CorkBottom"
     transform="matrix(0.08,0,0,-0.08,0,2245.3333)"><g
       id="g844"><g
         id="g846"
         clip-path="url(#clipPath850)"><path
           d="m 30713,12716.5 c 0,312.869 -253.631,566.5 -566.5,566.5 -312.869,0 -566.5,-253.631 -566.5,-566.5 0,-312.869 253.631,-566.5 566.5,-566.5 312.869,0 566.5,253.631 566.5,566.5"
           style="fill:none;stroke:#000000;stroke-width:24;stroke-linecap:round;stroke-linejoin:round;stroke-miterlimit:10;stroke-dasharray:none;stroke-opacity:1"
           id="path852"
           inkscape:connector-curvature="0" /><path
           d="m 17484,12716.5 c 0,312.869 -253.631,566.5 -566.5,566.5 -312.869,0 -566.5,-253.631 -566.5,-566.5 0,-312.869 253.631,-566.5 566.5,-566.5 312.869,0 566.5,253.631 566.5,566.5"
           style="fill:none;stroke:#000000;stroke-width:24;stroke-linecap:round;stroke-linejoin:round;stroke-miterlimit:10;stroke-dasharray:none;stroke-opacity:1"
           id="path854"
           inkscape:connector-curvature="0" /><path
           d="m 14177,23985.5 c 0,312.869 -253.631,566.5 -566.5,566.5 -312.869,0 -566.5,-253.631 -566.5,-566.5 0,-312.869 253.631,-566.5 566.5,-566.5 312.869,0 566.5,253.631 566.5,566.5"
           style="fill:none;stroke:#000000;stroke-width:24;stroke-linecap:round;stroke-linejoin:round;stroke-miterlimit:10;stroke-dasharray:none;stroke-opacity:1"
           id="path856"
           inkscape:connector-curvature="0" /><path
           d="m 20791,23985.5 c 0,312.869 -253.631,566.5 -566.5,566.5 -312.869,0 -566.5,-253.631 -566.5,-566.5 0,-312.869 253.631,-566.5 566.5,-566.5 312.869,0 566.5,253.631 566.5,566.5"
           style="fill:none;stroke:#000000;stroke-width:24;stroke-linecap:round;stroke-linejoin:round;stroke-miterlimit:10;stroke-dasharray:none;stroke-opacity:1"
           id="path858"
           inkscape:connector-curvature="0" /><path
           d="m 34447,19391.5 c 0,312.869 -253.629,566.5 -566.5,566.5 -312.871,0 -566.5,-253.631 -566.5,-566.5 0,-312.869 253.629,-566.5 566.5,-566.5 312.871,0 566.5,253.631 566.5,566.5"
           style="fill:none;stroke:#000000;stroke-width:24;stroke-linecap:round;stroke-linejoin:round;stroke-miterlimit:10;stroke-dasharray:none;stroke-opacity:1"
           id="path860"
           inkscape:connector-curvature="0" /><path
           d="m 24098,12716.5 c 0,312.869 -253.631,566.5 -566.5,566.5 -312.869,0 -566.5,-253.631 -566.5,-566.5 0,-312.869 253.631,-566.5 566.5,-566.5 312.869,0 566.5,253.631 566.5,566.5"
           style="fill:none;stroke:#000000;stroke-width:24;stroke-linecap:round;stroke-linejoin:round;stroke-miterlimit:10;stroke-dasharray:none;stroke-opacity:1"
           id="path862"
           inkscape:connector-curvature="0" /><path
           d="m 10869,12716.5 c 0,312.869 -253.631,566.5 -566.5,566.5 -312.8691,0 -566.5,-253.631 -566.5,-566.5 0,-312.869 253.6309,-566.5 566.5,-566.5 312.869,0 566.5,253.631 566.5,566.5"
           style="fill:none;stroke:#000000;stroke-width:24;stroke-linecap:round;stroke-linejoin:round;stroke-miterlimit:10;stroke-dasharray:none;stroke-opacity:1"
           id="path864"
           inkscape:connector-curvature="0" /><path
           d="m 7135,19391.5 c 0,312.869 -253.6309,566.5 -566.5,566.5 -312.8691,0 -566.5,-253.631 -566.5,-566.5 0,-312.869 253.6309,-566.5 566.5,-566.5 312.8691,0 566.5,253.631 566.5,566.5"
           style="fill:none;stroke:#000000;stroke-width:24;stroke-linecap:round;stroke-linejoin:round;stroke-miterlimit:10;stroke-dasharray:none;stroke-opacity:1"
           id="path866"
           inkscape:connector-curvature="0" /><path
           d="m 27405,23985.5 c 0,312.869 -253.631,566.5 -566.5,566.5 -312.869,0 -566.5,-253.631 -566.5,-566.5 0,-312.869 253.631,-566.5 566.5,-566.5 312.869,0 566.5,253.631 566.5,566.5"
           style="fill:none;stroke:#000000;stroke-width:24;stroke-linecap:round;stroke-linejoin:round;stroke-miterlimit:10;stroke-dasharray:none;stroke-opacity:1"
           id="path868"
           inkscape:connector-curvature="0" /><path
           d="m 36295,16464 -3308,6615"
           style="fill:none;stroke:#000000;stroke-width:24;stroke-linecap:round;stroke-linejoin:round;stroke-miterlimit:10;stroke-dasharray:none;stroke-opacity:1"
           id="path870"
           inkscape:connector-curvature="0" /><g
           id="g872"
           transform="matrix(-0.89443,-0.44721,0.44721,-0.89443,33453.5,15043.5)"><path
             d="M 1421.0158,2842.0452 C 436.02756,3334.5369 -733.73523,3281.9033 -1670.5132,2702.9414 -2607.2913,2123.9795 -3177.5,1101.2493 -3177.5,0"
             style="fill:none;stroke:#000000;stroke-width:24;stroke-linecap:round;stroke-linejoin:round;stroke-miterlimit:10;stroke-dasharray:none;stroke-opacity:1"
             id="path874"
             inkscape:connector-curvature="0" /></g><path
           d="M 6995,11866 H 33453"
           style="fill:none;stroke:#000000;stroke-width:24;stroke-linecap:round;stroke-linejoin:round;stroke-miterlimit:10;stroke-dasharray:none;stroke-opacity:1"
           id="path876"
           inkscape:connector-curvature="0" /><g
           id="g878"
           transform="rotate(90,-4024,11019.5)"><path
             d="M 1421.0158,2842.0452 C 436.02756,3334.5369 -733.73523,3281.9033 -1670.5132,2702.9414 -2607.2913,2123.9795 -3177.5,1101.2493 -3177.5,0"
             style="fill:none;stroke:#000000;stroke-width:24;stroke-linecap:round;stroke-linejoin:round;stroke-miterlimit:10;stroke-dasharray:none;stroke-opacity:1"
             id="path880"
             inkscape:connector-curvature="0" /></g><path
           d="M 7461,23079 4153,16464"
           style="fill:none;stroke:#000000;stroke-width:24;stroke-linecap:round;stroke-linejoin:round;stroke-miterlimit:10;stroke-dasharray:none;stroke-opacity:1"
           id="path882"
           inkscape:connector-curvature="0" /><g
           id="g884"
           transform="matrix(0.89443,-0.44721,0.44721,0.89443,10302.5,21658.5)"><path
             d="M -1421.0158,2842.0452 C -2497.5051,2303.803 -3177.5,1203.5504 -3177.5,0"
             style="fill:none;stroke:#000000;stroke-width:24;stroke-linecap:round;stroke-linejoin:round;stroke-miterlimit:10;stroke-dasharray:none;stroke-opacity:1"
             id="path886"
             inkscape:connector-curvature="0" /></g><path
           d="M 30146,24835 H 10302"
           style="fill:none;stroke:#000000;stroke-width:24;stroke-linecap:round;stroke-linejoin:round;stroke-miterlimit:10;stroke-dasharray:none;stroke-opacity:1"
           id="path888"
           inkscape:connector-curvature="0" /><g
           id="g890"
           transform="rotate(-90,25902.5,-4244)"><path
             d="M -1421.0158,2842.0452 C -2497.5051,2303.803 -3177.5,1203.5504 -3177.5,0"
             style="fill:none;stroke:#000000;stroke-width:24;stroke-linecap:round;stroke-linejoin:round;stroke-miterlimit:10;stroke-dasharray:none;stroke-opacity:1"
             id="path892"
             inkscape:connector-curvature="0" /></g></g></g></g></svg>