  0
SECTION
  2
HEADER
  9
$ACADVER
  1
AC1014
  9
$HANDSEED
  5
FFFF
  9
$MEASUREMENT
 70
     1
  0
ENDSEC
  0
SECTION
  2
TABLES
  0
TABLE
  2
VPORT
  5
8
330
0
100
AcDbSymbolTable
 70
     4
  0
VPORT
  5
2E
330
8
100
AcDbSymbolTableRecord
100
AcDbViewportTableRecord
  2
*ACTIVE
 70
     0
 10
0.0
 20
0.0
 11
1.0
 21
1.0
 12
210.0
 22
148.5
 13
0.0
 23
0.0
 14
10.0
 24
10.0
 15
10.0
 25
10.0
 16
0.0
 26
0.0
 36
1.0
 17
0.0
 27
0.0
 37
0.0
 40
341.0
 41
1.24
 42
50.0
 43
0.0
 44
0.0
 50
0.0
 51
0.0
 71
     0
 72
   100
 73
     1
 74
     3
 75
     0
 76
     0
 77
     0
 78
     0
  0
ENDTAB
  0
TABLE
  2
LTYPE
  5
5
330
0
100
AcDbSymbolTable
 70
     1
  0
LTYPE
  5
14
330
5
100
AcDbSymbolTableRecord
100
AcDbLinetypeTableRecord
  2
BYBLOCK
 70
     0
  3

 72
    65
 73
     0
 40
0.0
  0
LTYPE
  5
15
330
5
100
AcDbSymbolTableRecord
100
AcDbLinetypeTableRecord
  2
BYLAYER
 70
     0
  3

 72
    65
 73
     0
 40
0.0
  0
LTYPE
  5
16
330
5
100
AcDbSymbolTableRecord
100
AcDbLinetypeTableRecord
  2
CONTINUOUS
 70
     0
  3
Solid line
 72
    65
 73
     0
 40
0.0
  0
ENDTAB
  0
TABLE
  2
LAYER
  5
2
100
AcDbSymbolTable
 70
2
  0
LAYER
  5
50
100
AcDbSymbolTableRecord
100
AcDbLayerTableRecord
  2
0
 70
0
  6
CONTINUOUS
  0
LAYER
  5
51
100
AcDbSymbolTableRecord
100
AcDbLayerTableRecord
  2
CorkBottom
 70
0
  6
CONTINUOUS
  0
ENDTAB
  0
TABLE
  2
STYLE
  5
3
330
0
100
AcDbSymbolTable
 70
     1
  0
STYLE
  5
11
330
3
100
AcDbSymbolTableRecord
100
AcDbTextStyleTableRecord
  2
STANDARD
 70
     0
 40
0.0
 41
1.0
 50
0.0
 71
     0
 42
2.5
  3
txt
  4

  0
ENDTAB
  0
TABLE
  2
VIEW
  5
6
330
0
100
AcDbSymbolTable
 70
     0
  0
ENDTAB
  0
TABLE
  2
UCS
  5
7
330
0
100
AcDbSymbolTable
 70
     0
  0
ENDTAB
  0
TABLE
  2
APPID
  5
9
330
0
100
AcDbSymbolTable
 70
     2
  0
APPID
  5
12
330
9
100
AcDbSymbolTableRecord
100
AcDbRegAppTableRecord
  2
ACAD
 70
     0
  0
ENDTAB
  0
TABLE
  2
DIMSTYLE
  5
A
330
0
100
AcDbSymbolTable
 70
     1
  0
DIMSTYLE
105
27
330
A
100
AcDbSymbolTableRecord
100
AcDbDimStyleTableRecord
  2
ISO-25
 70
     0
  3

  4

  5

  6

  7

 40
1.0
 41
2.5
 42
0.625
 43
3.75
 44
1.25
 45
0.0
 46
0.0
 47
0.0
 48
0.0
140
2.5
141
2.5
142
0.0
143
0.03937007874016
144
1.0
145
0.0
146
1.0
147
0.625
 71
     0
 72
     0
 73
     0
 74
     0
 75
     0
 76
     0
 77
     1
 78
     8
170
     0
171
     3
172
     1
173
     0
174
     0
175
     0
176
     0
177
     0
178
     0
270
     2
271
     2
272
     2
273
     2
274
     3
340
11
275
     0
280
     0
281
     0
282
     0
283
     0
284
     8
285
     0
286
     0
287
     3
288
     0
  0
ENDTAB
  0
TABLE
  2
BLOCK_RECORD
  5
1
330
0
100
AcDbSymbolTable
 70
     1
  0
BLOCK_RECORD
  5
1F
330
1
100
AcDbSymbolTableRecord
100
AcDbBlockTableRecord
  2
*MODEL_SPACE
  0
BLOCK_RECORD
  5
1B
330
1
100
AcDbSymbolTableRecord
100
AcDbBlockTableRecord
  2
*PAPER_SPACE
  0
ENDTAB
  0
ENDSEC
  0
SECTION
  2
BLOCKS
  0
BLOCK
  5
20
330
1F
100
AcDbEntity
  8
0
100
AcDbBlockBegin
  2
*MODEL_SPACE
 70
     0
 10
0.0
 20
0.0
 30
0.0
  3
*MODEL_SPACE
  1

  0
ENDBLK
  5
21
330
1F
100
AcDbEntity
  8
0
100
AcDbBlockEnd
  0
BLOCK
  5
1C
330
1B
100
AcDbEntity
 67
     1
  8
0
100
AcDbBlockBegin
  2
*PAPER_SPACE
  1

  0
ENDBLK
  5
1D
330
1B
100
AcDbEntity
 67
     1
  8
0
100
AcDbBlockEnd
  0
ENDSEC
  0
SECTION
  2
ENTITIES
  0
SPLINE
  5
100
100
AcDbEntity
  8
CorkBottom
 62
7
100
AcDbSpline
 70
8
 71
3
 72
8
 73
4
 74
0
 40
0
 40
0
 40
0
 40
0
 40
1
 40
1
 40
1
 40
1
 10
650.091833
 20
269.165917
 30
0.0
 10
650.091833
 20
275.788311
 30
0.0
 10
644.723311
 20
281.156833
 30
0.0
 10
638.100917
 20
281.156833
 30
0.0
  0
SPLINE
  5
101
100
AcDbEntity
  8
CorkBottom
 62
7
100
AcDbSpline
 70
8
 71
3
 72
8
 73
4
 74
0
 40
0
 40
0
 40
0
 40
0
 40
1
 40
1
 40
1
 40
1
 10
638.100917
 20
281.156833
 30
0.0
 10
631.478523
 20
281.156833
 30
0.0
 10
626.110000
 20
275.788311
 30
0.0
 10
626.110000
 20
269.165917
 30
0.0
  0
SPLINE
  5
102
100
AcDbEntity
  8
CorkBottom
 62
7
100
AcDbSpline
 70
8
 71
3
 72
8
 73
4
 74
0
 40
0
 40
0
 40
0
 40
0
 40
1
 40
1
 40
1
 40
1
 10
626.110000
 20
269.165917
 30
0.0
 10
626.110000
 20
262.543523
 30
0.0
 10
631.478523
 20
257.175000
 30
0.0
 10
638.100917
 20
257.175000
 30
0.0
  0
SPLINE
  5
103
100
AcDbEntity
  8
CorkBottom
 62
7
100
AcDbSpline
 70
8
 71
3
 72
8
 73
4
 74
0
 40
0
 40
0
 40
0
 40
0
 40
1
 40
1
 40
1
 40
1
 10
638.100917
 20
257.175000
 30
0.0
 10
644.723311
 20
257.175000
 30
0.0
 10
650.091833
 20
262.543523
 30
0.0
 10
650.091833
 20
269.165917
 30
0.0
  0
SPLINE
  5
104
100
AcDbEntity
  8
CorkBottom
 62
7
100
AcDbSpline
 70
8
 71
3
 72
8
 73
4
 74
0
 40
0
 40
0
 40
0
 40
0
 40
1
 40
1
 40
1
 40
1
 10
370.078000
 20
269.165917
 30
0.0
 10
370.078000
 20
275.788311
 30
0.0
 10
364.709477
 20
281.156833
 30
0.0
 10
358.087083
 20
281.156833
 30
0.0
  0
SPLINE
  5
105
100
AcDbEntity
  8
CorkBottom
 62
7
100
AcDbSpline
 70
8
 71
3
 72
8
 73
4
 74
0
 40
0
 40
0
 40
0
 40
0
 40
1
 40
1
 40
1
 40
1
 10
358.087083
 20
281.156833
 30
0.0
 10
351.464690
 20
281.156833
 30
0.0
 10
346.096167
 20
275.788311
 30
0.0
 10
346.096167
 20
269.165917
 30
0.0
  0
SPLINE
  5
106
100
AcDbEntity
  8
CorkBottom
 62
7
100
AcDbSpline
 70
8
 71
3
 72
8
 73
4
 74
0
 40
0
 40
0
 40
0
 40
0
 40
1
 40
1
 40
1
 40
1
 10
346.096167
 20
269.165917
 30
0.0
 10
346.096167
 20
262.543523
 30
0.0
 10
351.464690
 20
257.175000
 30
0.0
 10
358.087083
 20
257.175000
 30
0.0
  0
SPLINE
  5
107
100
AcDbEntity
  8
CorkBottom
 62
7
100
AcDbSpline
 70
8
 71
3
 72
8
 73
4
 74
0
 40
0
 40
0
 40
0
 40
0
 40
1
 40
1
 40
1
 40
1
 10
358.087083
 20
257.175000
 30
0.0
 10
364.709477
 20
257.175000
 30
0.0
 10
370.078000
 20
262.543523
 30
0.0
 10
370.078000
 20
269.165917
 30
0.0
  0
SPLINE
  5
108
100
AcDbEntity
  8
CorkBottom
 62
7
100
AcDbSpline
 70
8
 71
3
 72
8
 73
4
 74
0
 40
0
 40
0
 40
0
 40
0
 40
1
 40
1
 40
1
 40
1
 10
300.079833
 20
507.693083
 30
0.0
 10
300.079833
 20
514.315477
 30
0.0
 10
294.711311
 20
519.684000
 30
0.0
 10
288.088917
 20
519.684000
 30
0.0
  0
SPLINE
  5
109
100
AcDbEntity
  8
CorkBottom
 62
7
100
AcDbSpline
 70
8
 71
3
 72
8
 73
4
 74
0
 40
0
 40
0
 40
0
 40
0
 40
1
 40
1
 40
1
 40
1
 10
288.088917
 20
519.684000
 30
0.0
 10
281.466523
 20
519.684000
 30
0.0
 10
276.098000
 20
514.315477
 30
0.0
 10
276.098000
 20
507.693083
 30
0.0
  0
SPLINE
  5
10a
100
AcDbEntity
  8
CorkBottom
 62
7
100
AcDbSpline
 70
8
 71
3
 72
8
 73
4
 74
0
 40
0
 40
0
 40
0
 40
0
 40
1
 40
1
 40
1
 40
1
 10
276.098000
 20
507.693083
 30
0.0
 10
276.098000
 20
501.070690
 30
0.0
 10
281.466523
 20
495.702167
 30
0.0
 10
288.088917
 20
495.702167
 30
0.0
  0
SPLINE
  5
10b
100
AcDbEntity
  8
CorkBottom
 62
7
100
AcDbSpline
 70
8
 71
3
 72
8
 73
4
 74
0
 40
0
 40
0
 40
0
 40
0
 40
1
 40
1
 40
1
 40
1
 10
288.088917
 20
495.702167
 30
0.0
 10
294.711311
 20
495.702167
 30
0.0
 10
300.079833
 20
501.070690
 30
0.0
 10
300.079833
 20
507.693083
 30
0.0
  0
SPLINE
  5
10c
100
AcDbEntity
  8
CorkBottom
 62
7
100
AcDbSpline
 70
8
 71
3
 72
8
 73
4
 74
0
 40
0
 40
0
 40
0
 40
0
 40
1
 40
1
 40
1
 40
1
 10
440.076167
 20
507.693083
 30
0.0
 10
440.076167
 20
514.315477
 30
0.0
 10
434.707644
 20
519.684000
 30
0.0
 10
428.085250
 20
519.684000
 30
0.0
  0
SPLINE
  5
10d
100
AcDbEntity
  8
CorkBottom
 62
7
100
AcDbSpline
 70
8
 71
3
 72
8
 73
4
 74
0
 40
0
 40
0
 40
0
 40
0
 40
1
 40
1
 40
1
 40
1
 10
428.085250
 20
519.684000
 30
0.0
 10
421.462856
 20
519.684000
 30
0.0
 10
416.094333
 20
514.315477
 30
0.0
 10
416.094333
 20
507.693083
 30
0.0
  0
SPLINE
  5
10e
100
AcDbEntity
  8
CorkBottom
 62
7
100
AcDbSpline
 70
8
 71
3
 72
8
 73
4
 74
0
 40
0
 40
0
 40
0
 40
0
 40
1
 40
1
 40
1
 40
1
 10
416.094333
 20
507.693083
 30
0.0
 10
416.094333
 20
501.070690
 30
0.0
 10
421.462856
 20
495.702167
 30
0.0
 10
428.085250
 20
495.702167
 30
0.0
  0
SPLINE
  5
10f
100
AcDbEntity
  8
CorkBottom
 62
7
100
AcDbSpline
 70
8
 71
3
 72
8
 73
4
 74
0
 40
0
 40
0
 40
0
 40
0
 40
1
 40
1
 40
1
 40
1
 10
428.085250
 20
495.702167
 30
0.0
 10
434.707644
 20
495.702167
 30
0.0
 10
440.076167
 20
501.070690
 30
0.0
 10
440.076167
 20
507.693083
 30
0.0
  0
SPLINE
  5
110
100
AcDbEntity
  8
CorkBottom
 62
7
100
AcDbSpline
 70
8
 71
3
 72
8
 73
4
 74
0
 40
0
 40
0
 40
0
 40
0
 40
1
 40
1
 40
1
 40
1
 10
729.128167
 20
410.453417
 30
0.0
 10
729.128167
 20
417.075810
 30
0.0
 10
723.759686
 20
422.444333
 30
0.0
 10
717.137250
 20
422.444333
 30
0.0
  0
SPLINE
  5
111
100
AcDbEntity
  8
CorkBottom
 62
7
100
AcDbSpline
 70
8
 71
3
 72
8
 73
4
 74
0
 40
0
 40
0
 40
0
 40
0
 40
1
 40
1
 40
1
 40
1
 10
717.137250
 20
422.444333
 30
0.0
 10
710.514814
 20
422.444333
 30
0.0
 10
705.146333
 20
417.075810
 30
0.0
 10
705.146333
 20
410.453417
 30
0.0
  0
SPLINE
  5
112
100
AcDbEntity
  8
CorkBottom
 62
7
100
AcDbSpline
 70
8
 71
3
 72
8
 73
4
 74
0
 40
0
 40
0
 40
0
 40
0
 40
1
 40
1
 40
1
 40
1
 10
705.146333
 20
410.453417
 30
0.0
 10
705.146333
 20
403.831023
 30
0.0
 10
710.514814
 20
398.462500
 30
0.0
 10
717.137250
 20
398.462500
 30
0.0
  0
SPLINE
  5
113
100
AcDbEntity
  8
CorkBottom
 62
7
100
AcDbSpline
 70
8
 71
3
 72
8
 73
4
 74
0
 40
0
 40
0
 40
0
 40
0
 40
1
 40
1
 40
1
 40
1
 10
717.137250
 20
398.462500
 30
0.0
 10
723.759686
 20
398.462500
 30
0.0
 10
729.128167
 20
403.831023
 30
0.0
 10
729.128167
 20
410.453417
 30
0.0
  0
SPLINE
  5
114
100
AcDbEntity
  8
CorkBottom
 62
7
100
AcDbSpline
 70
8
 71
3
 72
8
 73
4
 74
0
 40
0
 40
0
 40
0
 40
0
 40
1
 40
1
 40
1
 40
1
 10
510.074333
 20
269.165917
 30
0.0
 10
510.074333
 20
275.788311
 30
0.0
 10
504.705810
 20
281.156833
 30
0.0
 10
498.083417
 20
281.156833
 30
0.0
  0
SPLINE
  5
115
100
AcDbEntity
  8
CorkBottom
 62
7
100
AcDbSpline
 70
8
 71
3
 72
8
 73
4
 74
0
 40
0
 40
0
 40
0
 40
0
 40
1
 40
1
 40
1
 40
1
 10
498.083417
 20
281.156833
 30
0.0
 10
491.461023
 20
281.156833
 30
0.0
 10
486.092500
 20
275.788311
 30
0.0
 10
486.092500
 20
269.165917
 30
0.0
  0
SPLINE
  5
116
100
AcDbEntity
  8
CorkBottom
 62
7
100
AcDbSpline
 70
8
 71
3
 72
8
 73
4
 74
0
 40
0
 40
0
 40
0
 40
0
 40
1
 40
1
 40
1
 40
1
 10
486.092500
 20
269.165917
 30
0.0
 10
486.092500
 20
262.543523
 30
0.0
 10
491.461023
 20
257.175000
 30
0.0
 10
498.083417
 20
257.175000
 30
0.0
  0
SPLINE
  5
117
100
AcDbEntity
  8
CorkBottom
 62
7
100
AcDbSpline
 70
8
 71
3
 72
8
 73
4
 74
0
 40
0
 40
0
 40
0
 40
0
 40
1
 40
1
 40
1
 40
1
 10
498.083417
 20
257.175000
 30
0.0
 10
504.705810
 20
257.175000
 30
0.0
 10
510.074333
 20
262.543523
 30
0.0
 10
510.074333
 20
269.165917
 30
0.0
  0
SPLINE
  5
118
100
AcDbEntity
  8
CorkBottom
 62
7
100
AcDbSpline
 70
8
 71
3
 72
8
 73
4
 74
0
 40
0
 40
0
 40
0
 40
0
 40
1
 40
1
 40
1
 40
1
 10
230.060500
 20
269.165917
 30
0.0
 10
230.060500
 20
275.788311
 30
0.0
 10
224.691977
 20
281.156833
 30
0.0
 10
218.069583
 20
281.156833
 30
0.0
  0
SPLINE
  5
119
100
AcDbEntity
  8
CorkBottom
 62
7
100
AcDbSpline
 70
8
 71
3
 72
8
 73
4
 74
0
 40
0
 40
0
 40
0
 40
0
 40
1
 40
1
 40
1
 40
1
 10
218.069583
 20
281.156833
 30
0.0
 10
211.447187
 20
281.156833
 30
0.0
 10
206.078667
 20
275.788311
 30
0.0
 10
206.078667
 20
269.165917
 30
0.0
  0
SPLINE
  5
11a
100
AcDbEntity
  8
CorkBottom
 62
7
100
AcDbSpline
 70
8
 71
3
 72
8
 73
4
 74
0
 40
0
 40
0
 40
0
 40
0
 40
1
 40
1
 40
1
 40
1
 10
206.078667
 20
269.165917
 30
0.0
 10
206.078667
 20
262.543523
 30
0.0
 10
211.447187
 20
257.175000
 30
0.0
 10
218.069583
 20
257.175000
 30
0.0
  0
SPLINE
  5
11b
100
AcDbEntity
  8
CorkBottom
 62
7
100
AcDbSpline
 70
8
 71
3
 72
8
 73
4
 74
0
 40
0
 40
0
 40
0
 40
0
 40
1
 40
1
 40
1
 40
1
 10
218.069583
 20
257.175000
 30
0.0
 10
224.691977
 20
257.175000
 30
0.0
 10
230.060500
 20
262.543523
 30
0.0
 10
230.060500
 20
269.165917
 30
0.0
  0
SPLINE
  5
11c
100
AcDbEntity
  8
CorkBottom
 62
7
100
AcDbSpline
 70
8
 71
3
 72
8
 73
4
 74
0
 40
0
 40
0
 40
0
 40
0
 40
1
 40
1
 40
1
 40
1
 10
151.024167
 20
410.453417
 30
0.0
 10
151.024167
 20
417.075810
 30
0.0
 10
145.655646
 20
422.444333
 30
0.0
 10
139.033250
 20
422.444333
 30
0.0
  0
SPLINE
  5
11d
100
AcDbEntity
  8
CorkBottom
 62
7
100
AcDbSpline
 70
8
 71
3
 72
8
 73
4
 74
0
 40
0
 40
0
 40
0
 40
0
 40
1
 40
1
 40
1
 40
1
 10
139.033250
 20
422.444333
 30
0.0
 10
132.410854
 20
422.444333
 30
0.0
 10
127.042333
 20
417.075810
 30
0.0
 10
127.042333
 20
410.453417
 30
0.0
  0
SPLINE
  5
11e
100
AcDbEntity
  8
CorkBottom
 62
7
100
AcDbSpline
 70
8
 71
3
 72
8
 73
4
 74
0
 40
0
 40
0
 40
0
 40
0
 40
1
 40
1
 40
1
 40
1
 10
127.042333
 20
410.453417
 30
0.0
 10
127.042333
 20
403.831023
 30
0.0
 10
132.410854
 20
398.462500
 30
0.0
 10
139.033250
 20
398.462500
 30
0.0
  0
SPLINE
  5
11f
100
AcDbEntity
  8
CorkBottom
 62
7
100
AcDbSpline
 70
8
 71
3
 72
8
 73
4
 74
0
 40
0
 40
0
 40
0
 40
0
 40
1
 40
1
 40
1
 40
1
 10
139.033250
 20
398.462500
 30
0.0
 10
145.655646
 20
398.462500
 30
0.0
 10
151.024167
 20
403.831023
 30
0.0
 10
151.024167
 20
410.453417
 30
0.0
  0
SPLINE
  5
120
100
AcDbEntity
  8
CorkBottom
 62
7
100
AcDbSpline
 70
8
 71
3
 72
8
 73
4
 74
0
 40
0
 40
0
 40
0
 40
0
 40
1
 40
1
 40
1
 40
1
 10
580.072500
 20
507.693083
 30
0.0
 10
580.072500
 20
514.315477
 30
0.0
 10
574.703977
 20
519.684000
 30
0.0
 10
568.081583
 20
519.684000
 30
0.0
  0
SPLINE
  5
121
100
AcDbEntity
  8
CorkBottom
 62
7
100
AcDbSpline
 70
8
 71
3
 72
8
 73
4
 74
0
 40
0
 40
0
 40
0
 40
0
 40
1
 40
1
 40
1
 40
1
 10
568.081583
 20
519.684000
 30
0.0
 10
561.459189
 20
519.684000
 30
0.0
 10
556.090667
 20
514.315477
 30
0.0
 10
556.090667
 20
507.693083
 30
0.0
  0
SPLINE
  5
122
100
AcDbEntity
  8
CorkBottom
 62
7
100
AcDbSpline
 70
8
 71
3
 72
8
 73
4
 74
0
 40
0
 40
0
 40
0
 40
0
 40
1
 40
1
 40
1
 40
1
 10
556.090667
 20
507.693083
 30
0.0
 10
556.090667
 20
501.070690
 30
0.0
 10
561.459189
 20
495.702167
 30
0.0
 10
568.081583
 20
495.702167
 30
0.0
  0
SPLINE
  5
123
100
AcDbEntity
  8
CorkBottom
 62
7
100
AcDbSpline
 70
8
 71
3
 72
8
 73
4
 74
0
 40
0
 40
0
 40
0
 40
0
 40
1
 40
1
 40
1
 40
1
 10
568.081583
 20
495.702167
 30
0.0
 10
574.703977
 20
495.702167
 30
0.0
 10
580.072500
 20
501.070690
 30
0.0
 10
580.072500
 20
507.693083
 30
0.0
  0
SPLINE
  5
124
100
AcDbEntity
  8
CorkBottom
 62
7
100
AcDbSpline
 70
8
 71
3
 72
8
 73
4
 74
0
 40
0
 40
0
 40
0
 40
0
 40
1
 40
1
 40
1
 40
1
 10
708.098911
 20
251.163604
 30
0.0
 10
731.408708
 20
251.163545
 30
0.0
 10
753.056549
 20
263.232920
 30
0.0
 10
765.311304
 20
283.061375
 30
0.0
  0
SPLINE
  5
125
100
AcDbEntity
  8
CorkBottom
 62
7
100
AcDbSpline
 70
8
 71
3
 72
8
 73
4
 74
0
 40
0
 40
0
 40
0
 40
0
 40
1
 40
1
 40
1
 40
1
 10
765.311304
 20
283.061375
 30
0.0
 10
777.566060
 20
302.889830
 30
0.0
 10
778.680202
 20
327.649827
 30
0.0
 10
768.255836
 20
348.498790
 30
0.0
  0
LWPOLYLINE
  5
126
100
AcDbEntity
  8
CorkBottom
 62
7
100
AcDbPolyline
 90
2
 70
0
 10
768.244167
 20
348.488000
 30
0.0
 10
698.224833
 20
488.505500
 30
0.0
  0
SPLINE
  5
127
100
AcDbEntity
  8
CorkBottom
 62
7
100
AcDbSpline
 70
8
 71
3
 72
8
 73
4
 74
0
 40
0
 40
0
 40
0
 40
0
 40
1
 40
1
 40
1
 40
1
 10
87.914793
 20
348.498918
 30
0.0
 10
77.490386
 20
327.650000
 30
0.0
 10
78.604463
 20
302.890021
 30
0.0
 10
90.859157
 20
283.061554
 30
0.0
  0
SPLINE
  5
128
100
AcDbEntity
  8
CorkBottom
 62
7
100
AcDbSpline
 70
8
 71
3
 72
8
 73
4
 74
0
 40
0
 40
0
 40
0
 40
0
 40
1
 40
1
 40
1
 40
1
 10
90.859157
 20
283.061554
 30
0.0
 10
103.113851
 20
263.233084
 30
0.0
 10
124.761640
 20
251.163667
 30
0.0
 10
148.071417
 20
251.163667
 30
0.0
  0
LWPOLYLINE
  5
129
100
AcDbEntity
  8
CorkBottom
 62
7
100
AcDbPolyline
 90
2
 70
0
 10
148.060833
 20
251.163667
 30
0.0
 10
708.088500
 20
251.163667
 30
0.0
  0
SPLINE
  5
12a
100
AcDbEntity
  8
CorkBottom
 62
7
100
AcDbSpline
 70
8
 71
3
 72
8
 73
4
 74
0
 40
0
 40
0
 40
0
 40
0
 40
1
 40
1
 40
1
 40
1
 10
218.069411
 20
525.695396
 30
0.0
 10
192.594235
 20
525.695329
 30
0.0
 10
169.305572
 20
511.302029
 30
0.0
 10
157.912830
 20
488.516290
 30
0.0
  0
LWPOLYLINE
  5
12b
100
AcDbEntity
  8
CorkBottom
 62
7
100
AcDbPolyline
 90
2
 70
0
 10
157.924500
 20
488.505500
 30
0.0
 10
87.905167
 20
348.488000
 30
0.0
  0
SPLINE
  5
12c
100
AcDbEntity
  8
CorkBottom
 62
7
100
AcDbSpline
 70
8
 71
3
 72
8
 73
4
 74
0
 40
0
 40
0
 40
0
 40
0
 40
1
 40
1
 40
1
 40
1
 10
698.257540
 20
488.516418
 30
0.0
 10
686.864747
 20
511.302108
 30
0.0
 10
663.576067
 20
525.695333
 30
0.0
 10
638.100917
 20
525.695333
 30
0.0
  0
LWPOLYLINE
  5
12d
100
AcDbEntity
  8
CorkBottom
 62
7
100
AcDbPolyline
 90
2
 70
0
 10
638.090333
 20
525.674167
 30
0.0
 10
218.059000
 20
525.674167
 30
0.0
  0
ENDSEC
  0
SECTION
  2
OBJECTS
  0
DICTIONARY
  5
C
330
0
100
AcDbDictionary
  3
ACAD_GROUP
350
D
  3
ACAD_MLINESTYLE
350
17
  0
DICTIONARY
  5
D
330
C
100
AcDbDictionary
  0
DICTIONARY
  5
1A
330
C
100
AcDbDictionary
  0
DICTIONARY
  5
17
330
C
100
AcDbDictionary
  3
STANDARD
350
18
  0
DICTIONARY
  5
19
330
C
100
AcDbDictionary
  0
ENDSEC
  0
EOF
