  0
SECTION
  2
HEADER
  9
$ACADVER
  1
AC1014
  9
$HANDSEED
  5
FFFF
  9
$MEASUREMENT
 70
     1
  0
ENDSEC
  0
SECTION
  2
TABLES
  0
TABLE
  2
VPORT
  5
8
330
0
100
AcDbSymbolTable
 70
     4
  0
VPORT
  5
2E
330
8
100
AcDbSymbolTableRecord
100
AcDbViewportTableRecord
  2
*ACTIVE
 70
     0
 10
0.0
 20
0.0
 11
1.0
 21
1.0
 12
210.0
 22
148.5
 13
0.0
 23
0.0
 14
10.0
 24
10.0
 15
10.0
 25
10.0
 16
0.0
 26
0.0
 36
1.0
 17
0.0
 27
0.0
 37
0.0
 40
341.0
 41
1.24
 42
50.0
 43
0.0
 44
0.0
 50
0.0
 51
0.0
 71
     0
 72
   100
 73
     1
 74
     3
 75
     0
 76
     0
 77
     0
 78
     0
  0
ENDTAB
  0
TABLE
  2
LTYPE
  5
5
330
0
100
AcDbSymbolTable
 70
     1
  0
LTYPE
  5
14
330
5
100
AcDbSymbolTableRecord
100
AcDbLinetypeTableRecord
  2
BYBLOCK
 70
     0
  3

 72
    65
 73
     0
 40
0.0
  0
LTYPE
  5
15
330
5
100
AcDbSymbolTableRecord
100
AcDbLinetypeTableRecord
  2
BYLAYER
 70
     0
  3

 72
    65
 73
     0
 40
0.0
  0
LTYPE
  5
16
330
5
100
AcDbSymbolTableRecord
100
AcDbLinetypeTableRecord
  2
CONTINUOUS
 70
     0
  3
Solid line
 72
    65
 73
     0
 40
0.0
  0
ENDTAB
  0
TABLE
  2
LAYER
  5
2
100
AcDbSymbolTable
 70
2
  0
LAYER
  5
50
100
AcDbSymbolTableRecord
100
AcDbLayerTableRecord
  2
0
 70
0
  6
CONTINUOUS
  0
LAYER
  5
51
100
AcDbSymbolTableRecord
100
AcDbLayerTableRecord
  2
Layer_1
 70
0
  6
CONTINUOUS
  0
ENDTAB
  0
TABLE
  2
STYLE
  5
3
330
0
100
AcDbSymbolTable
 70
     1
  0
STYLE
  5
11
330
3
100
AcDbSymbolTableRecord
100
AcDbTextStyleTableRecord
  2
STANDARD
 70
     0
 40
0.0
 41
1.0
 50
0.0
 71
     0
 42
2.5
  3
txt
  4

  0
ENDTAB
  0
TABLE
  2
VIEW
  5
6
330
0
100
AcDbSymbolTable
 70
     0
  0
ENDTAB
  0
TABLE
  2
UCS
  5
7
330
0
100
AcDbSymbolTable
 70
     0
  0
ENDTAB
  0
TABLE
  2
APPID
  5
9
330
0
100
AcDbSymbolTable
 70
     2
  0
APPID
  5
12
330
9
100
AcDbSymbolTableRecord
100
AcDbRegAppTableRecord
  2
ACAD
 70
     0
  0
ENDTAB
  0
TABLE
  2
DIMSTYLE
  5
A
330
0
100
AcDbSymbolTable
 70
     1
  0
DIMSTYLE
105
27
330
A
100
AcDbSymbolTableRecord
100
AcDbDimStyleTableRecord
  2
ISO-25
 70
     0
  3

  4

  5

  6

  7

 40
1.0
 41
2.5
 42
0.625
 43
3.75
 44
1.25
 45
0.0
 46
0.0
 47
0.0
 48
0.0
140
2.5
141
2.5
142
0.0
143
0.03937007874016
144
1.0
145
0.0
146
1.0
147
0.625
 71
     0
 72
     0
 73
     0
 74
     0
 75
     0
 76
     0
 77
     1
 78
     8
170
     0
171
     3
172
     1
173
     0
174
     0
175
     0
176
     0
177
     0
178
     0
270
     2
271
     2
272
     2
273
     2
274
     3
340
11
275
     0
280
     0
281
     0
282
     0
283
     0
284
     8
285
     0
286
     0
287
     3
288
     0
  0
ENDTAB
  0
TABLE
  2
BLOCK_RECORD
  5
1
330
0
100
AcDbSymbolTable
 70
     1
  0
BLOCK_RECORD
  5
1F
330
1
100
AcDbSymbolTableRecord
100
AcDbBlockTableRecord
  2
*MODEL_SPACE
  0
BLOCK_RECORD
  5
1B
330
1
100
AcDbSymbolTableRecord
100
AcDbBlockTableRecord
  2
*PAPER_SPACE
  0
ENDTAB
  0
ENDSEC
  0
SECTION
  2
BLOCKS
  0
BLOCK
  5
20
330
1F
100
AcDbEntity
  8
0
100
AcDbBlockBegin
  2
*MODEL_SPACE
 70
     0
 10
0.0
 20
0.0
 30
0.0
  3
*MODEL_SPACE
  1

  0
ENDBLK
  5
21
330
1F
100
AcDbEntity
  8
0
100
AcDbBlockEnd
  0
BLOCK
  5
1C
330
1B
100
AcDbEntity
 67
     1
  8
0
100
AcDbBlockBegin
  2
*PAPER_SPACE
  1

  0
ENDBLK
  5
1D
330
1B
100
AcDbEntity
 67
     1
  8
0
100
AcDbBlockEnd
  0
ENDSEC
  0
SECTION
  2
ENTITIES
  0
SPLINE
  5
100
100
AcDbEntity
  8
Layer_1
 62
7
100
AcDbSpline
 70
8
 71
3
 72
8
 73
4
 74
0
 40
0
 40
0
 40
0
 40
0
 40
1
 40
1
 40
1
 40
1
 10
105.778917
 20
417.427872
 30
0.0
 10
105.778917
 20
415.224316
 30
0.0
 10
107.565278
 20
413.437955
 30
0.0
 10
109.768834
 20
413.437955
 30
0.0
  0
SPLINE
  5
101
100
AcDbEntity
  8
Layer_1
 62
7
100
AcDbSpline
 70
8
 71
3
 72
8
 73
4
 74
0
 40
0
 40
0
 40
0
 40
0
 40
1
 40
1
 40
1
 40
1
 10
109.768834
 20
413.437955
 30
0.0
 10
111.972391
 20
413.437955
 30
0.0
 10
113.758752
 20
415.224316
 30
0.0
 10
113.758752
 20
417.427872
 30
0.0
  0
SPLINE
  5
102
100
AcDbEntity
  8
Layer_1
 62
7
100
AcDbSpline
 70
8
 71
3
 72
8
 73
4
 74
0
 40
0
 40
0
 40
0
 40
0
 40
1
 40
1
 40
1
 40
1
 10
113.758752
 20
417.427872
 30
0.0
 10
113.758752
 20
419.631428
 30
0.0
 10
111.972391
 20
421.417789
 30
0.0
 10
109.768834
 20
421.417789
 30
0.0
  0
SPLINE
  5
103
100
AcDbEntity
  8
Layer_1
 62
7
100
AcDbSpline
 70
8
 71
3
 72
8
 73
4
 74
0
 40
0
 40
0
 40
0
 40
0
 40
1
 40
1
 40
1
 40
1
 10
109.768834
 20
421.417789
 30
0.0
 10
107.565278
 20
421.417789
 30
0.0
 10
105.778917
 20
419.631428
 30
0.0
 10
105.778917
 20
417.427872
 30
0.0
  0
SPLINE
  5
104
100
AcDbEntity
  8
Layer_1
 62
7
100
AcDbSpline
 70
8
 71
3
 72
8
 73
4
 74
0
 40
0
 40
0
 40
0
 40
0
 40
1
 40
1
 40
1
 40
1
 10
-174.234960
 20
417.427872
 30
0.0
 10
-174.234960
 20
415.224316
 30
0.0
 10
-172.448599
 20
413.437955
 30
0.0
 10
-170.245043
 20
413.437955
 30
0.0
  0
SPLINE
  5
105
100
AcDbEntity
  8
Layer_1
 62
7
100
AcDbSpline
 70
8
 71
3
 72
8
 73
4
 74
0
 40
0
 40
0
 40
0
 40
0
 40
1
 40
1
 40
1
 40
1
 10
-170.245043
 20
413.437955
 30
0.0
 10
-168.041487
 20
413.437955
 30
0.0
 10
-166.255126
 20
415.224316
 30
0.0
 10
-166.255126
 20
417.427872
 30
0.0
  0
SPLINE
  5
106
100
AcDbEntity
  8
Layer_1
 62
7
100
AcDbSpline
 70
8
 71
3
 72
8
 73
4
 74
0
 40
0
 40
0
 40
0
 40
0
 40
1
 40
1
 40
1
 40
1
 10
-166.255126
 20
417.427872
 30
0.0
 10
-166.255126
 20
419.631428
 30
0.0
 10
-168.041487
 20
421.417789
 30
0.0
 10
-170.245043
 20
421.417789
 30
0.0
  0
SPLINE
  5
107
100
AcDbEntity
  8
Layer_1
 62
7
100
AcDbSpline
 70
8
 71
3
 72
8
 73
4
 74
0
 40
0
 40
0
 40
0
 40
0
 40
1
 40
1
 40
1
 40
1
 10
-170.245043
 20
421.417789
 30
0.0
 10
-172.448599
 20
421.417789
 30
0.0
 10
-174.234960
 20
419.631428
 30
0.0
 10
-174.234960
 20
417.427872
 30
0.0
  0
SPLINE
  5
108
100
AcDbEntity
  8
Layer_1
 62
7
100
AcDbSpline
 70
8
 71
3
 72
8
 73
4
 74
0
 40
0
 40
0
 40
0
 40
0
 40
1
 40
1
 40
1
 40
1
 10
-361.983323
 20
228.176675
 30
0.0
 10
-361.983323
 20
199.600380
 30
0.0
 10
-338.817675
 20
176.434751
 30
0.0
 10
-310.241398
 20
176.434751
 30
0.0
  0
SPLINE
  5
109
100
AcDbEntity
  8
Layer_1
 62
7
100
AcDbSpline
 70
8
 71
3
 72
8
 73
4
 74
0
 40
0
 40
0
 40
0
 40
0
 40
1
 40
1
 40
1
 40
1
 10
-310.241398
 20
176.434751
 30
0.0
 10
-281.665111
 20
176.434751
 30
0.0
 10
-258.499474
 20
199.600380
 30
0.0
 10
-258.499474
 20
228.176675
 30
0.0
  0
SPLINE
  5
10a
100
AcDbEntity
  8
Layer_1
 62
7
100
AcDbSpline
 70
8
 71
3
 72
8
 73
4
 74
0
 40
0
 40
0
 40
0
 40
0
 40
1
 40
1
 40
1
 40
1
 10
-258.499474
 20
228.176675
 30
0.0
 10
-258.499474
 20
256.752971
 30
0.0
 10
-281.665111
 20
279.918600
 30
0.0
 10
-310.241398
 20
279.918600
 30
0.0
  0
SPLINE
  5
10b
100
AcDbEntity
  8
Layer_1
 62
7
100
AcDbSpline
 70
8
 71
3
 72
8
 73
4
 74
0
 40
0
 40
0
 40
0
 40
0
 40
1
 40
1
 40
1
 40
1
 10
-310.241398
 20
279.918600
 30
0.0
 10
-338.817675
 20
279.918600
 30
0.0
 10
-361.983323
 20
256.752971
 30
0.0
 10
-361.983323
 20
228.176675
 30
0.0
  0
SPLINE
  5
10c
100
AcDbEntity
  8
Layer_1
 62
7
100
AcDbSpline
 70
8
 71
3
 72
8
 73
4
 74
0
 40
0
 40
0
 40
0
 40
0
 40
1
 40
1
 40
1
 40
1
 10
198.023265
 20
228.176675
 30
0.0
 10
198.023265
 20
199.600380
 30
0.0
 10
221.188894
 20
176.434751
 30
0.0
 10
249.765190
 20
176.434751
 30
0.0
  0
SPLINE
  5
10d
100
AcDbEntity
  8
Layer_1
 62
7
100
AcDbSpline
 70
8
 71
3
 72
8
 73
4
 74
0
 40
0
 40
0
 40
0
 40
0
 40
1
 40
1
 40
1
 40
1
 10
249.765190
 20
176.434751
 30
0.0
 10
278.341443
 20
176.434751
 30
0.0
 10
301.507115
 20
199.600380
 30
0.0
 10
301.507115
 20
228.176675
 30
0.0
  0
SPLINE
  5
10e
100
AcDbEntity
  8
Layer_1
 62
7
100
AcDbSpline
 70
8
 71
3
 72
8
 73
4
 74
0
 40
0
 40
0
 40
0
 40
0
 40
1
 40
1
 40
1
 40
1
 10
301.507115
 20
228.176675
 30
0.0
 10
301.507115
 20
256.752971
 30
0.0
 10
278.341443
 20
279.918600
 30
0.0
 10
249.765190
 20
279.918600
 30
0.0
  0
SPLINE
  5
10f
100
AcDbEntity
  8
Layer_1
 62
7
100
AcDbSpline
 70
8
 71
3
 72
8
 73
4
 74
0
 40
0
 40
0
 40
0
 40
0
 40
1
 40
1
 40
1
 40
1
 10
249.765190
 20
279.918600
 30
0.0
 10
221.188894
 20
279.918600
 30
0.0
 10
198.023265
 20
256.752971
 30
0.0
 10
198.023265
 20
228.176675
 30
0.0
  0
SPLINE
  5
110
100
AcDbEntity
  8
Layer_1
 62
7
100
AcDbSpline
 70
8
 71
3
 72
8
 73
4
 74
0
 40
0
 40
0
 40
0
 40
0
 40
1
 40
1
 40
1
 40
1
 10
254.834607
 20
320.188190
 30
0.0
 10
254.834607
 20
317.984634
 30
0.0
 10
256.620968
 20
316.198273
 30
0.0
 10
258.824525
 20
316.198273
 30
0.0
  0
SPLINE
  5
111
100
AcDbEntity
  8
Layer_1
 62
7
100
AcDbSpline
 70
8
 71
3
 72
8
 73
4
 74
0
 40
0
 40
0
 40
0
 40
0
 40
1
 40
1
 40
1
 40
1
 10
258.824525
 20
316.198273
 30
0.0
 10
261.028081
 20
316.198273
 30
0.0
 10
262.814442
 20
317.984634
 30
0.0
 10
262.814442
 20
320.188190
 30
0.0
  0
SPLINE
  5
112
100
AcDbEntity
  8
Layer_1
 62
7
100
AcDbSpline
 70
8
 71
3
 72
8
 73
4
 74
0
 40
0
 40
0
 40
0
 40
0
 40
1
 40
1
 40
1
 40
1
 10
262.814442
 20
320.188190
 30
0.0
 10
262.814442
 20
322.391746
 30
0.0
 10
261.028081
 20
324.178107
 30
0.0
 10
258.824525
 20
324.178107
 30
0.0
  0
SPLINE
  5
113
100
AcDbEntity
  8
Layer_1
 62
7
100
AcDbSpline
 70
8
 71
3
 72
8
 73
4
 74
0
 40
0
 40
0
 40
0
 40
0
 40
1
 40
1
 40
1
 40
1
 10
258.824525
 20
324.178107
 30
0.0
 10
256.620968
 20
324.178107
 30
0.0
 10
254.834607
 20
322.391746
 30
0.0
 10
254.834607
 20
320.188190
 30
0.0
  0
SPLINE
  5
114
100
AcDbEntity
  8
Layer_1
 62
7
100
AcDbSpline
 70
8
 71
3
 72
8
 73
4
 74
0
 40
0
 40
0
 40
0
 40
0
 40
1
 40
1
 40
1
 40
1
 10
-291.985146
 20
368.173031
 30
0.0
 10
-291.985146
 20
339.596735
 30
0.0
 10
-268.819506
 20
316.431106
 30
0.0
 10
-240.243221
 20
316.431106
 30
0.0
  0
SPLINE
  5
115
100
AcDbEntity
  8
Layer_1
 62
7
100
AcDbSpline
 70
8
 71
3
 72
8
 73
4
 74
0
 40
0
 40
0
 40
0
 40
0
 40
1
 40
1
 40
1
 40
1
 10
-240.243221
 20
316.431106
 30
0.0
 10
-211.666925
 20
316.431106
 30
0.0
 10
-188.501296
 20
339.596735
 30
0.0
 10
-188.501296
 20
368.173031
 30
0.0
  0
SPLINE
  5
116
100
AcDbEntity
  8
Layer_1
 62
7
100
AcDbSpline
 70
8
 71
3
 72
8
 73
4
 74
0
 40
0
 40
0
 40
0
 40
0
 40
1
 40
1
 40
1
 40
1
 10
-188.501296
 20
368.173031
 30
0.0
 10
-188.501296
 20
396.749327
 30
0.0
 10
-211.666925
 20
419.914956
 30
0.0
 10
-240.243221
 20
419.914956
 30
0.0
  0
SPLINE
  5
117
100
AcDbEntity
  8
Layer_1
 62
7
100
AcDbSpline
 70
8
 71
3
 72
8
 73
4
 74
0
 40
0
 40
0
 40
0
 40
0
 40
1
 40
1
 40
1
 40
1
 10
-240.243221
 20
419.914956
 30
0.0
 10
-268.819506
 20
419.914956
 30
0.0
 10
-291.985146
 20
396.749327
 30
0.0
 10
-291.985146
 20
368.173031
 30
0.0
  0
SPLINE
  5
118
100
AcDbEntity
  8
Layer_1
 62
7
100
AcDbSpline
 70
8
 71
3
 72
8
 73
4
 74
0
 40
0
 40
0
 40
0
 40
0
 40
1
 40
1
 40
1
 40
1
 10
-151.988790
 20
368.173031
 30
0.0
 10
-151.988790
 20
339.596735
 30
0.0
 10
-128.823161
 20
316.431106
 30
0.0
 10
-100.246865
 20
316.431106
 30
0.0
  0
SPLINE
  5
119
100
AcDbEntity
  8
Layer_1
 62
7
100
AcDbSpline
 70
8
 71
3
 72
8
 73
4
 74
0
 40
0
 40
0
 40
0
 40
0
 40
1
 40
1
 40
1
 40
1
 10
-100.246865
 20
316.431106
 30
0.0
 10
-71.670570
 20
316.431106
 30
0.0
 10
-48.504941
 20
339.596735
 30
0.0
 10
-48.504941
 20
368.173031
 30
0.0
  0
SPLINE
  5
11a
100
AcDbEntity
  8
Layer_1
 62
7
100
AcDbSpline
 70
8
 71
3
 72
8
 73
4
 74
0
 40
0
 40
0
 40
0
 40
0
 40
1
 40
1
 40
1
 40
1
 10
-48.504941
 20
368.173031
 30
0.0
 10
-48.504941
 20
396.749327
 30
0.0
 10
-71.670570
 20
419.914956
 30
0.0
 10
-100.246865
 20
419.914956
 30
0.0
  0
SPLINE
  5
11b
100
AcDbEntity
  8
Layer_1
 62
7
100
AcDbSpline
 70
8
 71
3
 72
8
 73
4
 74
0
 40
0
 40
0
 40
0
 40
0
 40
1
 40
1
 40
1
 40
1
 10
-100.246865
 20
419.914956
 30
0.0
 10
-128.823161
 20
419.914956
 30
0.0
 10
-151.988790
 20
396.749327
 30
0.0
 10
-151.988790
 20
368.173031
 30
0.0
  0
SPLINE
  5
11c
100
AcDbEntity
  8
Layer_1
 62
7
100
AcDbSpline
 70
8
 71
3
 72
8
 73
4
 74
0
 40
0
 40
0
 40
0
 40
0
 40
1
 40
1
 40
1
 40
1
 10
35.780739
 20
178.921834
 30
0.0
 10
35.780739
 20
176.718278
 30
0.0
 10
37.567100
 20
174.931917
 30
0.0
 10
39.770657
 20
174.931917
 30
0.0
  0
SPLINE
  5
11d
100
AcDbEntity
  8
Layer_1
 62
7
100
AcDbSpline
 70
8
 71
3
 72
8
 73
4
 74
0
 40
0
 40
0
 40
0
 40
0
 40
1
 40
1
 40
1
 40
1
 10
39.770657
 20
174.931917
 30
0.0
 10
41.974213
 20
174.931917
 30
0.0
 10
43.760574
 20
176.718278
 30
0.0
 10
43.760574
 20
178.921834
 30
0.0
  0
SPLINE
  5
11e
100
AcDbEntity
  8
Layer_1
 62
7
100
AcDbSpline
 70
8
 71
3
 72
8
 73
4
 74
0
 40
0
 40
0
 40
0
 40
0
 40
1
 40
1
 40
1
 40
1
 10
43.760574
 20
178.921834
 30
0.0
 10
43.760574
 20
181.125391
 30
0.0
 10
41.974213
 20
182.911752
 30
0.0
 10
39.770657
 20
182.911752
 30
0.0
  0
SPLINE
  5
11f
100
AcDbEntity
  8
Layer_1
 62
7
100
AcDbSpline
 70
8
 71
3
 72
8
 73
4
 74
0
 40
0
 40
0
 40
0
 40
0
 40
1
 40
1
 40
1
 40
1
 10
39.770657
 20
182.911752
 30
0.0
 10
37.567100
 20
182.911752
 30
0.0
 10
35.780739
 20
181.125391
 30
0.0
 10
35.780739
 20
178.921834
 30
0.0
  0
SPLINE
  5
120
100
AcDbEntity
  8
Layer_1
 62
7
100
AcDbSpline
 70
8
 71
3
 72
8
 73
4
 74
0
 40
0
 40
0
 40
0
 40
0
 40
1
 40
1
 40
1
 40
1
 10
175.777095
 20
178.921834
 30
0.0
 10
175.777095
 20
176.718278
 30
0.0
 10
177.563456
 20
174.931917
 30
0.0
 10
179.767012
 20
174.931917
 30
0.0
  0
SPLINE
  5
121
100
AcDbEntity
  8
Layer_1
 62
7
100
AcDbSpline
 70
8
 71
3
 72
8
 73
4
 74
0
 40
0
 40
0
 40
0
 40
0
 40
1
 40
1
 40
1
 40
1
 10
179.767012
 20
174.931917
 30
0.0
 10
181.970568
 20
174.931917
 30
0.0
 10
183.756929
 20
176.718278
 30
0.0
 10
183.756929
 20
178.921834
 30
0.0
  0
SPLINE
  5
122
100
AcDbEntity
  8
Layer_1
 62
7
100
AcDbSpline
 70
8
 71
3
 72
8
 73
4
 74
0
 40
0
 40
0
 40
0
 40
0
 40
1
 40
1
 40
1
 40
1
 10
183.756929
 20
178.921834
 30
0.0
 10
183.756929
 20
181.125391
 30
0.0
 10
181.970568
 20
182.911752
 30
0.0
 10
179.767012
 20
182.911752
 30
0.0
  0
SPLINE
  5
123
100
AcDbEntity
  8
Layer_1
 62
7
100
AcDbSpline
 70
8
 71
3
 72
8
 73
4
 74
0
 40
0
 40
0
 40
0
 40
0
 40
1
 40
1
 40
1
 40
1
 10
179.767012
 20
182.911752
 30
0.0
 10
177.563456
 20
182.911752
 30
0.0
 10
175.777095
 20
181.125391
 30
0.0
 10
175.777095
 20
178.921834
 30
0.0
  0
SPLINE
  5
124
100
AcDbEntity
  8
Layer_1
 62
7
100
AcDbSpline
 70
8
 71
3
 72
8
 73
4
 74
0
 40
0
 40
0
 40
0
 40
0
 40
1
 40
1
 40
1
 40
1
 10
-104.236783
 20
178.921834
 30
0.0
 10
-104.236783
 20
176.718278
 30
0.0
 10
-102.450422
 20
174.931917
 30
0.0
 10
-100.246865
 20
174.931917
 30
0.0
  0
SPLINE
  5
125
100
AcDbEntity
  8
Layer_1
 62
7
100
AcDbSpline
 70
8
 71
3
 72
8
 73
4
 74
0
 40
0
 40
0
 40
0
 40
0
 40
1
 40
1
 40
1
 40
1
 10
-100.246865
 20
174.931917
 30
0.0
 10
-98.043309
 20
174.931917
 30
0.0
 10
-96.256948
 20
176.718278
 30
0.0
 10
-96.256948
 20
178.921834
 30
0.0
  0
SPLINE
  5
126
100
AcDbEntity
  8
Layer_1
 62
7
100
AcDbSpline
 70
8
 71
3
 72
8
 73
4
 74
0
 40
0
 40
0
 40
0
 40
0
 40
1
 40
1
 40
1
 40
1
 10
-96.256948
 20
178.921834
 30
0.0
 10
-96.256948
 20
181.125391
 30
0.0
 10
-98.043309
 20
182.911752
 30
0.0
 10
-100.246865
 20
182.911752
 30
0.0
  0
SPLINE
  5
127
100
AcDbEntity
  8
Layer_1
 62
7
100
AcDbSpline
 70
8
 71
3
 72
8
 73
4
 74
0
 40
0
 40
0
 40
0
 40
0
 40
1
 40
1
 40
1
 40
1
 10
-100.246865
 20
182.911752
 30
0.0
 10
-102.450422
 20
182.911752
 30
0.0
 10
-104.236783
 20
181.125391
 30
0.0
 10
-104.236783
 20
178.921834
 30
0.0
  0
SPLINE
  5
128
100
AcDbEntity
  8
Layer_1
 62
7
100
AcDbSpline
 70
8
 71
3
 72
8
 73
4
 74
0
 40
0
 40
0
 40
0
 40
0
 40
1
 40
1
 40
1
 40
1
 10
-323.290651
 20
320.188190
 30
0.0
 10
-323.290651
 20
317.984634
 30
0.0
 10
-321.504300
 20
316.198273
 30
0.0
 10
-319.300733
 20
316.198273
 30
0.0
  0
SPLINE
  5
129
100
AcDbEntity
  8
Layer_1
 62
7
100
AcDbSpline
 70
8
 71
3
 72
8
 73
4
 74
0
 40
0
 40
0
 40
0
 40
0
 40
1
 40
1
 40
1
 40
1
 10
-319.300733
 20
316.198273
 30
0.0
 10
-317.097166
 20
316.198273
 30
0.0
 10
-315.310816
 20
317.984634
 30
0.0
 10
-315.310816
 20
320.188190
 30
0.0
  0
SPLINE
  5
12a
100
AcDbEntity
  8
Layer_1
 62
7
100
AcDbSpline
 70
8
 71
3
 72
8
 73
4
 74
0
 40
0
 40
0
 40
0
 40
0
 40
1
 40
1
 40
1
 40
1
 10
-315.310816
 20
320.188190
 30
0.0
 10
-315.310816
 20
322.391746
 30
0.0
 10
-317.097166
 20
324.178107
 30
0.0
 10
-319.300733
 20
324.178107
 30
0.0
  0
SPLINE
  5
12b
100
AcDbEntity
  8
Layer_1
 62
7
100
AcDbSpline
 70
8
 71
3
 72
8
 73
4
 74
0
 40
0
 40
0
 40
0
 40
0
 40
1
 40
1
 40
1
 40
1
 10
-319.300733
 20
324.178107
 30
0.0
 10
-321.504300
 20
324.178107
 30
0.0
 10
-323.290651
 20
322.391746
 30
0.0
 10
-323.290651
 20
320.188190
 30
0.0
  0
SPLINE
  5
12c
100
AcDbEntity
  8
Layer_1
 62
7
100
AcDbSpline
 70
8
 71
3
 72
8
 73
4
 74
0
 40
0
 40
0
 40
0
 40
0
 40
1
 40
1
 40
1
 40
1
 10
-34.217438
 20
417.427872
 30
0.0
 10
-34.217438
 20
415.224316
 30
0.0
 10
-32.431077
 20
413.437955
 30
0.0
 10
-30.227521
 20
413.437955
 30
0.0
  0
SPLINE
  5
12d
100
AcDbEntity
  8
Layer_1
 62
7
100
AcDbSpline
 70
8
 71
3
 72
8
 73
4
 74
0
 40
0
 40
0
 40
0
 40
0
 40
1
 40
1
 40
1
 40
1
 10
-30.227521
 20
413.437955
 30
0.0
 10
-28.023965
 20
413.437955
 30
0.0
 10
-26.237604
 20
415.224316
 30
0.0
 10
-26.237604
 20
417.427872
 30
0.0
  0
SPLINE
  5
12e
100
AcDbEntity
  8
Layer_1
 62
7
100
AcDbSpline
 70
8
 71
3
 72
8
 73
4
 74
0
 40
0
 40
0
 40
0
 40
0
 40
1
 40
1
 40
1
 40
1
 10
-26.237604
 20
417.427872
 30
0.0
 10
-26.237604
 20
419.631428
 30
0.0
 10
-28.023965
 20
421.417789
 30
0.0
 10
-30.227521
 20
421.417789
 30
0.0
  0
SPLINE
  5
12f
100
AcDbEntity
  8
Layer_1
 62
7
100
AcDbSpline
 70
8
 71
3
 72
8
 73
4
 74
0
 40
0
 40
0
 40
0
 40
0
 40
1
 40
1
 40
1
 40
1
 10
-30.227521
 20
421.417789
 30
0.0
 10
-32.431077
 20
421.417789
 30
0.0
 10
-34.217438
 20
419.631428
 30
0.0
 10
-34.217438
 20
417.427872
 30
0.0
  0
SPLINE
  5
130
100
AcDbEntity
  8
Layer_1
 62
7
100
AcDbSpline
 70
8
 71
3
 72
8
 73
4
 74
0
 40
0
 40
0
 40
0
 40
0
 40
1
 40
1
 40
1
 40
1
 10
-11.971268
 20
368.173031
 30
0.0
 10
-11.971268
 20
339.596735
 30
0.0
 10
11.194361
 20
316.431106
 30
0.0
 10
39.770657
 20
316.431106
 30
0.0
  0
SPLINE
  5
131
100
AcDbEntity
  8
Layer_1
 62
7
100
AcDbSpline
 70
8
 71
3
 72
8
 73
4
 74
0
 40
0
 40
0
 40
0
 40
0
 40
1
 40
1
 40
1
 40
1
 10
39.770657
 20
316.431106
 30
0.0
 10
68.346952
 20
316.431106
 30
0.0
 10
91.512581
 20
339.596735
 30
0.0
 10
91.512581
 20
368.173031
 30
0.0
  0
SPLINE
  5
132
100
AcDbEntity
  8
Layer_1
 62
7
100
AcDbSpline
 70
8
 71
3
 72
8
 73
4
 74
0
 40
0
 40
0
 40
0
 40
0
 40
1
 40
1
 40
1
 40
1
 10
91.512581
 20
368.173031
 30
0.0
 10
91.512581
 20
396.749327
 30
0.0
 10
68.346952
 20
419.914956
 30
0.0
 10
39.770657
 20
419.914956
 30
0.0
  0
SPLINE
  5
133
100
AcDbEntity
  8
Layer_1
 62
7
100
AcDbSpline
 70
8
 71
3
 72
8
 73
4
 74
0
 40
0
 40
0
 40
0
 40
0
 40
1
 40
1
 40
1
 40
1
 10
39.770657
 20
419.914956
 30
0.0
 10
11.194361
 20
419.914956
 30
0.0
 10
-11.971268
 20
396.749327
 30
0.0
 10
-11.971268
 20
368.173031
 30
0.0
  0
SPLINE
  5
134
100
AcDbEntity
  8
Layer_1
 62
7
100
AcDbSpline
 70
8
 71
3
 72
8
 73
4
 74
0
 40
0
 40
0
 40
0
 40
0
 40
1
 40
1
 40
1
 40
1
 10
128.025087
 20
368.173031
 30
0.0
 10
128.025087
 20
339.596735
 30
0.0
 10
151.190716
 20
316.431106
 30
0.0
 10
179.767012
 20
316.431106
 30
0.0
  0
SPLINE
  5
135
100
AcDbEntity
  8
Layer_1
 62
7
100
AcDbSpline
 70
8
 71
3
 72
8
 73
4
 74
0
 40
0
 40
0
 40
0
 40
0
 40
1
 40
1
 40
1
 40
1
 10
179.767012
 20
316.431106
 30
0.0
 10
208.343308
 20
316.431106
 30
0.0
 10
231.508937
 20
339.596735
 30
0.0
 10
231.508937
 20
368.173031
 30
0.0
  0
SPLINE
  5
136
100
AcDbEntity
  8
Layer_1
 62
7
100
AcDbSpline
 70
8
 71
3
 72
8
 73
4
 74
0
 40
0
 40
0
 40
0
 40
0
 40
1
 40
1
 40
1
 40
1
 10
231.508937
 20
368.173031
 30
0.0
 10
231.508937
 20
396.749327
 30
0.0
 10
208.343308
 20
419.914956
 30
0.0
 10
179.767012
 20
419.914956
 30
0.0
  0
SPLINE
  5
137
100
AcDbEntity
  8
Layer_1
 62
7
100
AcDbSpline
 70
8
 71
3
 72
8
 73
4
 74
0
 40
0
 40
0
 40
0
 40
0
 40
1
 40
1
 40
1
 40
1
 10
179.767012
 20
419.914956
 30
0.0
 10
151.190716
 20
419.914956
 30
0.0
 10
128.025087
 20
396.749327
 30
0.0
 10
128.025087
 20
368.173031
 30
0.0
  0
SPLINE
  5
138
100
AcDbEntity
  8
Layer_1
 62
7
100
AcDbSpline
 70
8
 71
3
 72
8
 73
4
 74
0
 40
0
 40
0
 40
0
 40
0
 40
1
 40
1
 40
1
 40
1
 10
-244.233138
 20
178.921834
 30
0.0
 10
-244.233138
 20
176.718278
 30
0.0
 10
-242.446777
 20
174.931917
 30
0.0
 10
-240.243221
 20
174.931917
 30
0.0
  0
SPLINE
  5
139
100
AcDbEntity
  8
Layer_1
 62
7
100
AcDbSpline
 70
8
 71
3
 72
8
 73
4
 74
0
 40
0
 40
0
 40
0
 40
0
 40
1
 40
1
 40
1
 40
1
 10
-240.243221
 20
174.931917
 30
0.0
 10
-238.039665
 20
174.931917
 30
0.0
 10
-236.253303
 20
176.718278
 30
0.0
 10
-236.253303
 20
178.921834
 30
0.0
  0
SPLINE
  5
13a
100
AcDbEntity
  8
Layer_1
 62
7
100
AcDbSpline
 70
8
 71
3
 72
8
 73
4
 74
0
 40
0
 40
0
 40
0
 40
0
 40
1
 40
1
 40
1
 40
1
 10
-236.253303
 20
178.921834
 30
0.0
 10
-236.253303
 20
181.125391
 30
0.0
 10
-238.039665
 20
182.911752
 30
0.0
 10
-240.243221
 20
182.911752
 30
0.0
  0
SPLINE
  5
13b
100
AcDbEntity
  8
Layer_1
 62
7
100
AcDbSpline
 70
8
 71
3
 72
8
 73
4
 74
0
 40
0
 40
0
 40
0
 40
0
 40
1
 40
1
 40
1
 40
1
 10
-240.243221
 20
182.911752
 30
0.0
 10
-242.446777
 20
182.911752
 30
0.0
 10
-244.233138
 20
181.125391
 30
0.0
 10
-244.233138
 20
178.921834
 30
0.0
  0
SPLINE
  5
13c
100
AcDbEntity
  8
Layer_1
 62
7
100
AcDbSpline
 70
8
 71
3
 72
8
 73
4
 74
0
 40
0
 40
0
 40
0
 40
0
 40
1
 40
1
 40
1
 40
1
 10
58.026910
 20
228.176675
 30
0.0
 10
58.026910
 20
199.600380
 30
0.0
 10
81.192539
 20
176.434751
 30
0.0
 10
109.768834
 20
176.434751
 30
0.0
  0
SPLINE
  5
13d
100
AcDbEntity
  8
Layer_1
 62
7
100
AcDbSpline
 70
8
 71
3
 72
8
 73
4
 74
0
 40
0
 40
0
 40
0
 40
0
 40
1
 40
1
 40
1
 40
1
 10
109.768834
 20
176.434751
 30
0.0
 10
138.345130
 20
176.434751
 30
0.0
 10
161.510759
 20
199.600380
 30
0.0
 10
161.510759
 20
228.176675
 30
0.0
  0
SPLINE
  5
13e
100
AcDbEntity
  8
Layer_1
 62
7
100
AcDbSpline
 70
8
 71
3
 72
8
 73
4
 74
0
 40
0
 40
0
 40
0
 40
0
 40
1
 40
1
 40
1
 40
1
 10
161.510759
 20
228.176675
 30
0.0
 10
161.510759
 20
256.752971
 30
0.0
 10
138.345130
 20
279.918600
 30
0.0
 10
109.768834
 20
279.918600
 30
0.0
  0
SPLINE
  5
13f
100
AcDbEntity
  8
Layer_1
 62
7
100
AcDbSpline
 70
8
 71
3
 72
8
 73
4
 74
0
 40
0
 40
0
 40
0
 40
0
 40
1
 40
1
 40
1
 40
1
 10
109.768834
 20
279.918600
 30
0.0
 10
81.192539
 20
279.918600
 30
0.0
 10
58.026910
 20
256.752971
 30
0.0
 10
58.026910
 20
228.176675
 30
0.0
  0
SPLINE
  5
140
100
AcDbEntity
  8
Layer_1
 62
7
100
AcDbSpline
 70
8
 71
3
 72
8
 73
4
 74
0
 40
0
 40
0
 40
0
 40
0
 40
1
 40
1
 40
1
 40
1
 10
-221.986968
 20
228.176675
 30
0.0
 10
-221.986968
 20
199.600380
 30
0.0
 10
-198.821339
 20
176.434751
 30
0.0
 10
-170.245043
 20
176.434751
 30
0.0
  0
SPLINE
  5
141
100
AcDbEntity
  8
Layer_1
 62
7
100
AcDbSpline
 70
8
 71
3
 72
8
 73
4
 74
0
 40
0
 40
0
 40
0
 40
0
 40
1
 40
1
 40
1
 40
1
 10
-170.245043
 20
176.434751
 30
0.0
 10
-141.668747
 20
176.434751
 30
0.0
 10
-118.503118
 20
199.600380
 30
0.0
 10
-118.503118
 20
228.176675
 30
0.0
  0
SPLINE
  5
142
100
AcDbEntity
  8
Layer_1
 62
7
100
AcDbSpline
 70
8
 71
3
 72
8
 73
4
 74
0
 40
0
 40
0
 40
0
 40
0
 40
1
 40
1
 40
1
 40
1
 10
-118.503118
 20
228.176675
 30
0.0
 10
-118.503118
 20
256.752971
 30
0.0
 10
-141.668747
 20
279.918600
 30
0.0
 10
-170.245043
 20
279.918600
 30
0.0
  0
SPLINE
  5
143
100
AcDbEntity
  8
Layer_1
 62
7
100
AcDbSpline
 70
8
 71
3
 72
8
 73
4
 74
0
 40
0
 40
0
 40
0
 40
0
 40
1
 40
1
 40
1
 40
1
 10
-170.245043
 20
279.918600
 30
0.0
 10
-198.821339
 20
279.918600
 30
0.0
 10
-221.986968
 20
256.752971
 30
0.0
 10
-221.986968
 20
228.176675
 30
0.0
  0
SPLINE
  5
144
100
AcDbEntity
  8
Layer_1
 62
7
100
AcDbSpline
 70
8
 71
3
 72
8
 73
4
 74
0
 40
0
 40
0
 40
0
 40
0
 40
1
 40
1
 40
1
 40
1
 10
-81.969446
 20
228.176675
 30
0.0
 10
-81.969446
 20
199.600380
 30
0.0
 10
-58.803817
 20
176.434751
 30
0.0
 10
-30.227521
 20
176.434751
 30
0.0
  0
SPLINE
  5
145
100
AcDbEntity
  8
Layer_1
 62
7
100
AcDbSpline
 70
8
 71
3
 72
8
 73
4
 74
0
 40
0
 40
0
 40
0
 40
0
 40
1
 40
1
 40
1
 40
1
 10
-30.227521
 20
176.434751
 30
0.0
 10
-1.651225
 20
176.434751
 30
0.0
 10
21.514404
 20
199.600380
 30
0.0
 10
21.514404
 20
228.176675
 30
0.0
  0
SPLINE
  5
146
100
AcDbEntity
  8
Layer_1
 62
7
100
AcDbSpline
 70
8
 71
3
 72
8
 73
4
 74
0
 40
0
 40
0
 40
0
 40
0
 40
1
 40
1
 40
1
 40
1
 10
21.514404
 20
228.176675
 30
0.0
 10
21.514404
 20
256.752971
 30
0.0
 10
-1.651225
 20
279.918600
 30
0.0
 10
-30.227521
 20
279.918600
 30
0.0
  0
SPLINE
  5
147
100
AcDbEntity
  8
Layer_1
 62
7
100
AcDbSpline
 70
8
 71
3
 72
8
 73
4
 74
0
 40
0
 40
0
 40
0
 40
0
 40
1
 40
1
 40
1
 40
1
 10
-30.227521
 20
279.918600
 30
0.0
 10
-58.803817
 20
279.918600
 30
0.0
 10
-81.969446
 20
256.752971
 30
0.0
 10
-81.969446
 20
228.176675
 30
0.0
  0
LWPOLYLINE
  5
148
100
AcDbEntity
  8
Layer_1
 62
7
100
AcDbPolyline
 90
4
 70
1
 10
9.745735
 20
294.163769
 30
0.0
 10
-70.243111
 20
294.163769
 30
0.0
 10
-70.243111
 20
302.164770
 30
0.0
 10
9.745735
 20
302.164770
 30
0.0
  0
SPLINE
  5
149
100
AcDbEntity
  8
Layer_1
 62
7
100
AcDbSpline
 70
8
 71
3
 72
8
 73
4
 74
0
 40
0
 40
0
 40
0
 40
0
 40
1
 40
1
 40
1
 40
1
 10
249.765190
 20
158.929915
 30
0.0
 10
273.764553
 20
158.929915
 30
0.0
 10
296.052739
 20
171.356380
 30
0.0
 10
308.669958
 20
191.771442
 30
0.0
  0
SPLINE
  5
14a
100
AcDbEntity
  8
Layer_1
 62
7
100
AcDbSpline
 70
8
 71
3
 72
8
 73
4
 74
0
 40
0
 40
0
 40
0
 40
0
 40
1
 40
1
 40
1
 40
1
 10
308.669958
 20
191.771442
 30
0.0
 10
321.287198
 20
212.186505
 30
0.0
 10
322.434263
 20
237.678944
 30
0.0
 10
311.701427
 20
259.144636
 30
0.0
  0
LWPOLYLINE
  5
14b
100
AcDbEntity
  8
Layer_1
 62
7
100
AcDbPolyline
 90
2
 70
0
 10
311.709449
 20
259.132930
 30
0.0
 10
241.690105
 20
399.129286
 30
0.0
  0
SPLINE
  5
14c
100
AcDbEntity
  8
Layer_1
 62
7
100
AcDbSpline
 70
8
 71
3
 72
8
 73
4
 74
0
 40
0
 40
0
 40
0
 40
0
 40
1
 40
1
 40
1
 40
1
 10
-372.177649
 20
259.144636
 30
0.0
 10
-382.910437
 20
237.678944
 30
0.0
 10
-381.763401
 20
212.186505
 30
0.0
 10
-369.146173
 20
191.771442
 30
0.0
  0
SPLINE
  5
14d
100
AcDbEntity
  8
Layer_1
 62
7
100
AcDbSpline
 70
8
 71
3
 72
8
 73
4
 74
0
 40
0
 40
0
 40
0
 40
0
 40
1
 40
1
 40
1
 40
1
 10
-369.146173
 20
191.771442
 30
0.0
 10
-356.528948
 20
171.356380
 30
0.0
 10
-334.240753
 20
158.929915
 30
0.0
 10
-310.241398
 20
158.929915
 30
0.0
  0
LWPOLYLINE
  5
14e
100
AcDbEntity
  8
Layer_1
 62
7
100
AcDbPolyline
 90
2
 70
0
 10
-310.251982
 20
158.908748
 30
0.0
 10
249.754606
 20
158.908748
 30
0.0
  0
SPLINE
  5
14f
100
AcDbEntity
  8
Layer_1
 62
7
100
AcDbSpline
 70
8
 71
3
 72
8
 73
4
 74
0
 40
0
 40
0
 40
0
 40
0
 40
1
 40
1
 40
1
 40
1
 10
-240.243221
 20
437.419792
 30
0.0
 10
-266.472012
 20
437.419792
 30
0.0
 10
-290.449631
 20
422.600773
 30
0.0
 10
-302.179471
 20
399.140991
 30
0.0
  0
LWPOLYLINE
  5
150
100
AcDbEntity
  8
Layer_1
 62
7
100
AcDbPolyline
 90
2
 70
0
 10
-302.187481
 20
399.129286
 30
0.0
 10
-372.206825
 20
259.132930
 30
0.0
  0
SPLINE
  5
151
100
AcDbEntity
  8
Layer_1
 62
7
100
AcDbSpline
 70
8
 71
3
 72
8
 73
4
 74
0
 40
0
 40
0
 40
0
 40
0
 40
1
 40
1
 40
1
 40
1
 10
241.703250
 20
399.140991
 30
0.0
 10
229.973443
 20
422.600773
 30
0.0
 10
205.995776
 20
437.419792
 30
0.0
 10
179.767012
 20
437.419792
 30
0.0
  0
LWPOLYLINE
  5
152
100
AcDbEntity
  8
Layer_1
 62
7
100
AcDbPolyline
 90
2
 70
0
 10
179.756429
 20
437.398625
 30
0.0
 10
-240.253804
 20
437.398625
 30
0.0
  0
SPLINE
  5
153
100
AcDbEntity
  8
Layer_1
 62
7
100
AcDbSpline
 70
8
 71
3
 72
8
 73
4
 74
0
 40
0
 40
0
 40
0
 40
0
 40
1
 40
1
 40
1
 40
1
 10
-166.744726
 20
-27.973531
 30
0.0
 10
-166.693624
 20
-26.689758
 30
0.0
 10
-167.349382
 20
-25.481016
 30
0.0
 10
-168.453427
 20
-24.823925
 30
0.0
  0
SPLINE
  5
154
100
AcDbEntity
  8
Layer_1
 62
7
100
AcDbSpline
 70
8
 71
3
 72
8
 73
4
 74
0
 40
0
 40
0
 40
0
 40
0
 40
1
 40
1
 40
1
 40
1
 10
-168.453427
 20
-24.823925
 30
0.0
 10
-169.557472
 20
-24.166833
 30
0.0
 10
-170.932635
 20
-24.166837
 30
0.0
 10
-172.036676
 20
-24.823935
 30
0.0
  0
SPLINE
  5
155
100
AcDbEntity
  8
Layer_1
 62
7
100
AcDbSpline
 70
8
 71
3
 72
8
 73
4
 74
0
 40
0
 40
0
 40
0
 40
0
 40
1
 40
1
 40
1
 40
1
 10
-172.036676
 20
-24.823935
 30
0.0
 10
-173.140718
 20
-25.481033
 30
0.0
 10
-173.796468
 20
-26.689778
 30
0.0
 10
-173.745360
 20
-27.973551
 30
0.0
  0
SPLINE
  5
156
100
AcDbEntity
  8
Layer_1
 62
7
100
AcDbSpline
 70
8
 71
3
 72
8
 73
4
 74
0
 40
0
 40
0
 40
0
 40
0
 40
1
 40
1
 40
1
 40
1
 10
-173.742344
 20
-27.962652
 30
0.0
 10
-196.611376
 20
-29.786348
 30
0.0
 10
-214.240197
 20
-48.876980
 30
0.0
 10
-214.240155
 20
-71.818611
 30
0.0
  0
SPLINE
  5
157
100
AcDbEntity
  8
Layer_1
 62
7
100
AcDbSpline
 70
8
 71
3
 72
8
 73
4
 74
0
 40
0
 40
0
 40
0
 40
0
 40
1
 40
1
 40
1
 40
1
 10
-214.240155
 20
-71.818611
 30
0.0
 10
-214.240119
 20
-94.760244
 30
0.0
 10
-196.611238
 20
-113.850816
 30
0.0
 10
-173.742200
 20
-115.674438
 30
0.0
  0
SPLINE
  5
158
100
AcDbEntity
  8
Layer_1
 62
7
100
AcDbSpline
 70
8
 71
3
 72
8
 73
4
 74
0
 40
0
 40
0
 40
0
 40
0
 40
1
 40
1
 40
1
 40
1
 10
-173.745360
 20
-115.684712
 30
0.0
 10
-173.796462
 20
-116.968485
 30
0.0
 10
-173.140704
 20
-118.177227
 30
0.0
 10
-172.036659
 20
-118.834319
 30
0.0
  0
SPLINE
  5
159
100
AcDbEntity
  8
Layer_1
 62
7
100
AcDbSpline
 70
8
 71
3
 72
8
 73
4
 74
0
 40
0
 40
0
 40
0
 40
0
 40
1
 40
1
 40
1
 40
1
 10
-172.036659
 20
-118.834319
 30
0.0
 10
-170.932614
 20
-119.491410
 30
0.0
 10
-169.557451
 20
-119.491406
 30
0.0
 10
-168.453410
 20
-118.834309
 30
0.0
  0
SPLINE
  5
15a
100
AcDbEntity
  8
Layer_1
 62
7
100
AcDbSpline
 70
8
 71
3
 72
8
 73
4
 74
0
 40
0
 40
0
 40
0
 40
0
 40
1
 40
1
 40
1
 40
1
 10
-168.453410
 20
-118.834309
 30
0.0
 10
-167.349369
 20
-118.177211
 30
0.0
 10
-166.693618
 20
-116.968466
 30
0.0
 10
-166.744727
 20
-115.684693
 30
0.0
  0
SPLINE
  5
15b
100
AcDbEntity
  8
Layer_1
 62
7
100
AcDbSpline
 70
8
 71
3
 72
8
 73
4
 74
0
 40
0
 40
0
 40
0
 40
0
 40
1
 40
1
 40
1
 40
1
 10
-166.747742
 20
-115.674425
 30
0.0
 10
-143.878711
 20
-113.850729
 30
0.0
 10
-126.249889
 20
-94.760097
 30
0.0
 10
-126.249932
 20
-71.818466
 30
0.0
  0
SPLINE
  5
15c
100
AcDbEntity
  8
Layer_1
 62
7
100
AcDbSpline
 70
8
 71
3
 72
8
 73
4
 74
0
 40
0
 40
0
 40
0
 40
0
 40
1
 40
1
 40
1
 40
1
 10
-126.249932
 20
-71.818466
 30
0.0
 10
-126.249968
 20
-48.876833
 30
0.0
 10
-143.878848
 20
-29.786261
 30
0.0
 10
-166.747887
 20
-27.962639
 30
0.0
  0
SPLINE
  5
15d
100
AcDbEntity
  8
Layer_1
 62
7
100
AcDbSpline
 70
8
 71
3
 72
8
 73
4
 74
0
 40
0
 40
0
 40
0
 40
0
 40
1
 40
1
 40
1
 40
1
 10
113.269152
 20
-27.973531
 30
0.0
 10
113.320253
 20
-26.689758
 30
0.0
 10
112.664496
 20
-25.481016
 30
0.0
 10
111.560451
 20
-24.823925
 30
0.0
  0
SPLINE
  5
15e
100
AcDbEntity
  8
Layer_1
 62
7
100
AcDbSpline
 70
8
 71
3
 72
8
 73
4
 74
0
 40
0
 40
0
 40
0
 40
0
 40
1
 40
1
 40
1
 40
1
 10
111.560451
 20
-24.823925
 30
0.0
 10
110.456406
 20
-24.166833
 30
0.0
 10
109.081243
 20
-24.166837
 30
0.0
 10
107.977201
 20
-24.823935
 30
0.0
  0
SPLINE
  5
15f
100
AcDbEntity
  8
Layer_1
 62
7
100
AcDbSpline
 70
8
 71
3
 72
8
 73
4
 74
0
 40
0
 40
0
 40
0
 40
0
 40
1
 40
1
 40
1
 40
1
 10
107.977201
 20
-24.823935
 30
0.0
 10
106.873160
 20
-25.481033
 30
0.0
 10
106.217409
 20
-26.689778
 30
0.0
 10
106.268518
 20
-27.973551
 30
0.0
  0
SPLINE
  5
160
100
AcDbEntity
  8
Layer_1
 62
7
100
AcDbSpline
 70
8
 71
3
 72
8
 73
4
 74
0
 40
0
 40
0
 40
0
 40
0
 40
1
 40
1
 40
1
 40
1
 10
106.271533
 20
-27.962652
 30
0.0
 10
83.402502
 20
-29.786348
 30
0.0
 10
65.773681
 20
-48.876980
 30
0.0
 10
65.773723
 20
-71.818611
 30
0.0
  0
SPLINE
  5
161
100
AcDbEntity
  8
Layer_1
 62
7
100
AcDbSpline
 70
8
 71
3
 72
8
 73
4
 74
0
 40
0
 40
0
 40
0
 40
0
 40
1
 40
1
 40
1
 40
1
 10
65.773723
 20
-71.818611
 30
0.0
 10
65.773759
 20
-94.760244
 30
0.0
 10
83.402640
 20
-113.850816
 30
0.0
 10
106.271678
 20
-115.674438
 30
0.0
  0
SPLINE
  5
162
100
AcDbEntity
  8
Layer_1
 62
7
100
AcDbSpline
 70
8
 71
3
 72
8
 73
4
 74
0
 40
0
 40
0
 40
0
 40
0
 40
1
 40
1
 40
1
 40
1
 10
106.268517
 20
-115.684712
 30
0.0
 10
106.217415
 20
-116.968485
 30
0.0
 10
106.873173
 20
-118.177227
 30
0.0
 10
107.977218
 20
-118.834319
 30
0.0
  0
SPLINE
  5
163
100
AcDbEntity
  8
Layer_1
 62
7
100
AcDbSpline
 70
8
 71
3
 72
8
 73
4
 74
0
 40
0
 40
0
 40
0
 40
0
 40
1
 40
1
 40
1
 40
1
 10
107.977218
 20
-118.834319
 30
0.0
 10
109.081263
 20
-119.491410
 30
0.0
 10
110.456426
 20
-119.491406
 30
0.0
 10
111.560468
 20
-118.834309
 30
0.0
  0
SPLINE
  5
164
100
AcDbEntity
  8
Layer_1
 62
7
100
AcDbSpline
 70
8
 71
3
 72
8
 73
4
 74
0
 40
0
 40
0
 40
0
 40
0
 40
1
 40
1
 40
1
 40
1
 10
111.560468
 20
-118.834309
 30
0.0
 10
112.664509
 20
-118.177211
 30
0.0
 10
113.320260
 20
-116.968466
 30
0.0
 10
113.269151
 20
-115.684693
 30
0.0
  0
SPLINE
  5
165
100
AcDbEntity
  8
Layer_1
 62
7
100
AcDbSpline
 70
8
 71
3
 72
8
 73
4
 74
0
 40
0
 40
0
 40
0
 40
0
 40
1
 40
1
 40
1
 40
1
 10
113.266136
 20
-115.674425
 30
0.0
 10
136.135167
 20
-113.850729
 30
0.0
 10
153.763988
 20
-94.760097
 30
0.0
 10
153.763946
 20
-71.818466
 30
0.0
  0
SPLINE
  5
166
100
AcDbEntity
  8
Layer_1
 62
7
100
AcDbSpline
 70
8
 71
3
 72
8
 73
4
 74
0
 40
0
 40
0
 40
0
 40
0
 40
1
 40
1
 40
1
 40
1
 10
153.763946
 20
-71.818466
 30
0.0
 10
153.763910
 20
-48.876833
 30
0.0
 10
136.135029
 20
-29.786261
 30
0.0
 10
113.265991
 20
-27.962639
 30
0.0
  0
SPLINE
  5
167
100
AcDbEntity
  8
Layer_1
 62
7
100
AcDbSpline
 70
8
 71
3
 72
8
 73
4
 74
0
 40
0
 40
0
 40
0
 40
0
 40
1
 40
1
 40
1
 40
1
 10
-96.749564
 20
24.321930
 30
0.0
 10
-73.880533
 20
26.145626
 30
0.0
 10
-56.251712
 20
45.236258
 30
0.0
 10
-56.251754
 20
68.177890
 30
0.0
  0
SPLINE
  5
168
100
AcDbEntity
  8
Layer_1
 62
7
100
AcDbSpline
 70
8
 71
3
 72
8
 73
4
 74
0
 40
0
 40
0
 40
0
 40
0
 40
1
 40
1
 40
1
 40
1
 10
-56.251754
 20
68.177890
 30
0.0
 10
-56.251790
 20
91.119522
 30
0.0
 10
-73.880671
 20
110.210094
 30
0.0
 10
-96.749709
 20
112.033717
 30
0.0
  0
SPLINE
  5
169
100
AcDbEntity
  8
Layer_1
 62
7
100
AcDbSpline
 70
8
 71
3
 72
8
 73
4
 74
0
 40
0
 40
0
 40
0
 40
0
 40
1
 40
1
 40
1
 40
1
 10
-96.746548
 20
112.022824
 30
0.0
 10
-96.695446
 20
113.306597
 30
0.0
 10
-97.351204
 20
114.515339
 30
0.0
 10
-98.455249
 20
115.172431
 30
0.0
  0
SPLINE
  5
16a
100
AcDbEntity
  8
Layer_1
 62
7
100
AcDbSpline
 70
8
 71
3
 72
8
 73
4
 74
0
 40
0
 40
0
 40
0
 40
0
 40
1
 40
1
 40
1
 40
1
 10
-98.455249
 20
115.172431
 30
0.0
 10
-99.559294
 20
115.829522
 30
0.0
 10
-100.934457
 20
115.829518
 30
0.0
 10
-102.038499
 20
115.172420
 30
0.0
  0
SPLINE
  5
16b
100
AcDbEntity
  8
Layer_1
 62
7
100
AcDbSpline
 70
8
 71
3
 72
8
 73
4
 74
0
 40
0
 40
0
 40
0
 40
0
 40
1
 40
1
 40
1
 40
1
 10
-102.038499
 20
115.172420
 30
0.0
 10
-103.142540
 20
114.515323
 30
0.0
 10
-103.798291
 20
113.306577
 30
0.0
 10
-103.747182
 20
112.022805
 30
0.0
  0
SPLINE
  5
16c
100
AcDbEntity
  8
Layer_1
 62
7
100
AcDbSpline
 70
8
 71
3
 72
8
 73
4
 74
0
 40
0
 40
0
 40
0
 40
0
 40
1
 40
1
 40
1
 40
1
 10
-103.744167
 20
112.033704
 30
0.0
 10
-126.613198
 20
110.210008
 30
0.0
 10
-144.242019
 20
91.119376
 30
0.0
 10
-144.241977
 20
68.177744
 30
0.0
  0
SPLINE
  5
16d
100
AcDbEntity
  8
Layer_1
 62
7
100
AcDbSpline
 70
8
 71
3
 72
8
 73
4
 74
0
 40
0
 40
0
 40
0
 40
0
 40
1
 40
1
 40
1
 40
1
 10
-144.241977
 20
68.177744
 30
0.0
 10
-144.241941
 20
45.236111
 30
0.0
 10
-126.613060
 20
26.145540
 30
0.0
 10
-103.744022
 20
24.321917
 30
0.0
  0
SPLINE
  5
16e
100
AcDbEntity
  8
Layer_1
 62
7
100
AcDbSpline
 70
8
 71
3
 72
8
 73
4
 74
0
 40
0
 40
0
 40
0
 40
0
 40
1
 40
1
 40
1
 40
1
 10
-103.747183
 20
24.311643
 30
0.0
 10
-103.798284
 20
23.027870
 30
0.0
 10
-103.142527
 20
21.819128
 30
0.0
 10
-102.038482
 20
21.162037
 30
0.0
  0
SPLINE
  5
16f
100
AcDbEntity
  8
Layer_1
 62
7
100
AcDbSpline
 70
8
 71
3
 72
8
 73
4
 74
0
 40
0
 40
0
 40
0
 40
0
 40
1
 40
1
 40
1
 40
1
 10
-102.038482
 20
21.162037
 30
0.0
 10
-100.934437
 20
20.504945
 30
0.0
 10
-99.559274
 20
20.504949
 30
0.0
 10
-98.455232
 20
21.162047
 30
0.0
  0
SPLINE
  5
170
100
AcDbEntity
  8
Layer_1
 62
7
100
AcDbSpline
 70
8
 71
3
 72
8
 73
4
 74
0
 40
0
 40
0
 40
0
 40
0
 40
1
 40
1
 40
1
 40
1
 10
-98.455232
 20
21.162047
 30
0.0
 10
-97.351191
 20
21.819145
 30
0.0
 10
-96.695440
 20
23.027890
 30
0.0
 10
-96.746549
 20
24.311663
 30
0.0
  0
SPLINE
  5
171
100
AcDbEntity
  8
Layer_1
 62
7
100
AcDbSpline
 70
8
 71
3
 72
8
 73
4
 74
0
 40
0
 40
0
 40
0
 40
0
 40
1
 40
1
 40
1
 40
1
 10
-26.727204
 20
-27.973531
 30
0.0
 10
-26.676102
 20
-26.689758
 30
0.0
 10
-27.331860
 20
-25.481016
 30
0.0
 10
-28.435905
 20
-24.823925
 30
0.0
  0
SPLINE
  5
172
100
AcDbEntity
  8
Layer_1
 62
7
100
AcDbSpline
 70
8
 71
3
 72
8
 73
4
 74
0
 40
0
 40
0
 40
0
 40
0
 40
1
 40
1
 40
1
 40
1
 10
-28.435905
 20
-24.823925
 30
0.0
 10
-29.539950
 20
-24.166833
 30
0.0
 10
-30.915113
 20
-24.166837
 30
0.0
 10
-32.019154
 20
-24.823935
 30
0.0
  0
SPLINE
  5
173
100
AcDbEntity
  8
Layer_1
 62
7
100
AcDbSpline
 70
8
 71
3
 72
8
 73
4
 74
0
 40
0
 40
0
 40
0
 40
0
 40
1
 40
1
 40
1
 40
1
 10
-32.019154
 20
-24.823935
 30
0.0
 10
-33.123196
 20
-25.481033
 30
0.0
 10
-33.778946
 20
-26.689778
 30
0.0
 10
-33.727837
 20
-27.973551
 30
0.0
  0
SPLINE
  5
174
100
AcDbEntity
  8
Layer_1
 62
7
100
AcDbSpline
 70
8
 71
3
 72
8
 73
4
 74
0
 40
0
 40
0
 40
0
 40
0
 40
1
 40
1
 40
1
 40
1
 10
-33.724822
 20
-27.962652
 30
0.0
 10
-56.593854
 20
-29.786348
 30
0.0
 10
-74.222675
 20
-48.876980
 30
0.0
 10
-74.222632
 20
-71.818611
 30
0.0
  0
SPLINE
  5
175
100
AcDbEntity
  8
Layer_1
 62
7
100
AcDbSpline
 70
8
 71
3
 72
8
 73
4
 74
0
 40
0
 40
0
 40
0
 40
0
 40
1
 40
1
 40
1
 40
1
 10
-74.222632
 20
-71.818611
 30
0.0
 10
-74.222597
 20
-94.760244
 30
0.0
 10
-56.593716
 20
-113.850816
 30
0.0
 10
-33.724678
 20
-115.674438
 30
0.0
  0
SPLINE
  5
176
100
AcDbEntity
  8
Layer_1
 62
7
100
AcDbSpline
 70
8
 71
3
 72
8
 73
4
 74
0
 40
0
 40
0
 40
0
 40
0
 40
1
 40
1
 40
1
 40
1
 10
-33.727838
 20
-115.684712
 30
0.0
 10
-33.778940
 20
-116.968485
 30
0.0
 10
-33.123182
 20
-118.177227
 30
0.0
 10
-32.019137
 20
-118.834319
 30
0.0
  0
SPLINE
  5
177
100
AcDbEntity
  8
Layer_1
 62
7
100
AcDbSpline
 70
8
 71
3
 72
8
 73
4
 74
0
 40
0
 40
0
 40
0
 40
0
 40
1
 40
1
 40
1
 40
1
 10
-32.019137
 20
-118.834319
 30
0.0
 10
-30.915092
 20
-119.491410
 30
0.0
 10
-29.539929
 20
-119.491406
 30
0.0
 10
-28.435888
 20
-118.834309
 30
0.0
  0
SPLINE
  5
178
100
AcDbEntity
  8
Layer_1
 62
7
100
AcDbSpline
 70
8
 71
3
 72
8
 73
4
 74
0
 40
0
 40
0
 40
0
 40
0
 40
1
 40
1
 40
1
 40
1
 10
-28.435888
 20
-118.834309
 30
0.0
 10
-27.331847
 20
-118.177211
 30
0.0
 10
-26.676096
 20
-116.968466
 30
0.0
 10
-26.727205
 20
-115.684693
 30
0.0
  0
SPLINE
  5
179
100
AcDbEntity
  8
Layer_1
 62
7
100
AcDbSpline
 70
8
 71
3
 72
8
 73
4
 74
0
 40
0
 40
0
 40
0
 40
0
 40
1
 40
1
 40
1
 40
1
 10
-26.730220
 20
-115.674425
 30
0.0
 10
-3.861188
 20
-113.850729
 30
0.0
 10
13.767633
 20
-94.760097
 30
0.0
 10
13.767590
 20
-71.818466
 30
0.0
  0
SPLINE
  5
17a
100
AcDbEntity
  8
Layer_1
 62
7
100
AcDbSpline
 70
8
 71
3
 72
8
 73
4
 74
0
 40
0
 40
0
 40
0
 40
0
 40
1
 40
1
 40
1
 40
1
 10
13.767590
 20
-71.818466
 30
0.0
 10
13.767554
 20
-48.876833
 30
0.0
 10
-3.861326
 20
-29.786261
 30
0.0
 10
-26.730365
 20
-27.962639
 30
0.0
  0
SPLINE
  5
17b
100
AcDbEntity
  8
Layer_1
 62
7
100
AcDbSpline
 70
8
 71
3
 72
8
 73
4
 74
0
 40
0
 40
0
 40
0
 40
0
 40
1
 40
1
 40
1
 40
1
 10
-243.740522
 20
112.033704
 30
0.0
 10
-266.609553
 20
110.210008
 30
0.0
 10
-284.238375
 20
91.119376
 30
0.0
 10
-284.238332
 20
68.177744
 30
0.0
  0
SPLINE
  5
17c
100
AcDbEntity
  8
Layer_1
 62
7
100
AcDbSpline
 70
8
 71
3
 72
8
 73
4
 74
0
 40
0
 40
0
 40
0
 40
0
 40
1
 40
1
 40
1
 40
1
 10
-284.238332
 20
68.177744
 30
0.0
 10
-284.238296
 20
45.236111
 30
0.0
 10
-266.609415
 20
26.145540
 30
0.0
 10
-243.740377
 20
24.321917
 30
0.0
  0
SPLINE
  5
17d
100
AcDbEntity
  8
Layer_1
 62
7
100
AcDbSpline
 70
8
 71
3
 72
8
 73
4
 74
0
 40
0
 40
0
 40
0
 40
0
 40
1
 40
1
 40
1
 40
1
 10
-243.743538
 20
24.311643
 30
0.0
 10
-243.794640
 20
23.027870
 30
0.0
 10
-243.138882
 20
21.819128
 30
0.0
 10
-242.034837
 20
21.162037
 30
0.0
  0
SPLINE
  5
17e
100
AcDbEntity
  8
Layer_1
 62
7
100
AcDbSpline
 70
8
 71
3
 72
8
 73
4
 74
0
 40
0
 40
0
 40
0
 40
0
 40
1
 40
1
 40
1
 40
1
 10
-242.034837
 20
21.162037
 30
0.0
 10
-240.930792
 20
20.504945
 30
0.0
 10
-239.555629
 20
20.504949
 30
0.0
 10
-238.451587
 20
21.162047
 30
0.0
  0
SPLINE
  5
17f
100
AcDbEntity
  8
Layer_1
 62
7
100
AcDbSpline
 70
8
 71
3
 72
8
 73
4
 74
0
 40
0
 40
0
 40
0
 40
0
 40
1
 40
1
 40
1
 40
1
 10
-238.451587
 20
21.162047
 30
0.0
 10
-237.347546
 20
21.819145
 30
0.0
 10
-236.691795
 20
23.027890
 30
0.0
 10
-236.742904
 20
24.311663
 30
0.0
  0
SPLINE
  5
180
100
AcDbEntity
  8
Layer_1
 62
7
100
AcDbSpline
 70
8
 71
3
 72
8
 73
4
 74
0
 40
0
 40
0
 40
0
 40
0
 40
1
 40
1
 40
1
 40
1
 10
-236.745920
 20
24.321930
 30
0.0
 10
-213.876888
 20
26.145626
 30
0.0
 10
-196.248067
 20
45.236258
 30
0.0
 10
-196.248109
 20
68.177890
 30
0.0
  0
SPLINE
  5
181
100
AcDbEntity
  8
Layer_1
 62
7
100
AcDbSpline
 70
8
 71
3
 72
8
 73
4
 74
0
 40
0
 40
0
 40
0
 40
0
 40
1
 40
1
 40
1
 40
1
 10
-196.248109
 20
68.177890
 30
0.0
 10
-196.248145
 20
91.119522
 30
0.0
 10
-213.877026
 20
110.210094
 30
0.0
 10
-236.746064
 20
112.033717
 30
0.0
  0
SPLINE
  5
182
100
AcDbEntity
  8
Layer_1
 62
7
100
AcDbSpline
 70
8
 71
3
 72
8
 73
4
 74
0
 40
0
 40
0
 40
0
 40
0
 40
1
 40
1
 40
1
 40
1
 10
-236.742903
 20
112.022824
 30
0.0
 10
-236.691802
 20
113.306597
 30
0.0
 10
-237.347559
 20
114.515339
 30
0.0
 10
-238.451604
 20
115.172431
 30
0.0
  0
SPLINE
  5
183
100
AcDbEntity
  8
Layer_1
 62
7
100
AcDbSpline
 70
8
 71
3
 72
8
 73
4
 74
0
 40
0
 40
0
 40
0
 40
0
 40
1
 40
1
 40
1
 40
1
 10
-238.451604
 20
115.172431
 30
0.0
 10
-239.555649
 20
115.829522
 30
0.0
 10
-240.930813
 20
115.829518
 30
0.0
 10
-242.034854
 20
115.172420
 30
0.0
  0
SPLINE
  5
184
100
AcDbEntity
  8
Layer_1
 62
7
100
AcDbSpline
 70
8
 71
3
 72
8
 73
4
 74
0
 40
0
 40
0
 40
0
 40
0
 40
1
 40
1
 40
1
 40
1
 10
-242.034854
 20
115.172420
 30
0.0
 10
-243.138895
 20
114.515323
 30
0.0
 10
-243.794646
 20
113.306577
 30
0.0
 10
-243.743537
 20
112.022805
 30
0.0
  0
SPLINE
  5
185
100
AcDbEntity
  8
Layer_1
 62
7
100
AcDbSpline
 70
8
 71
3
 72
8
 73
4
 74
0
 40
0
 40
0
 40
0
 40
0
 40
1
 40
1
 40
1
 40
1
 10
43.267958
 20
24.321930
 30
0.0
 10
66.136989
 20
26.145626
 30
0.0
 10
83.765811
 20
45.236258
 30
0.0
 10
83.765768
 20
68.177890
 30
0.0
  0
SPLINE
  5
186
100
AcDbEntity
  8
Layer_1
 62
7
100
AcDbSpline
 70
8
 71
3
 72
8
 73
4
 74
0
 40
0
 40
0
 40
0
 40
0
 40
1
 40
1
 40
1
 40
1
 10
83.765768
 20
68.177890
 30
0.0
 10
83.765732
 20
91.119522
 30
0.0
 10
66.136851
 20
110.210094
 30
0.0
 10
43.267813
 20
112.033717
 30
0.0
  0
SPLINE
  5
187
100
AcDbEntity
  8
Layer_1
 62
7
100
AcDbSpline
 70
8
 71
3
 72
8
 73
4
 74
0
 40
0
 40
0
 40
0
 40
0
 40
1
 40
1
 40
1
 40
1
 10
43.270974
 20
112.022824
 30
0.0
 10
43.322076
 20
113.306597
 30
0.0
 10
42.666318
 20
114.515339
 30
0.0
 10
41.562273
 20
115.172431
 30
0.0
  0
SPLINE
  5
188
100
AcDbEntity
  8
Layer_1
 62
7
100
AcDbSpline
 70
8
 71
3
 72
8
 73
4
 74
0
 40
0
 40
0
 40
0
 40
0
 40
1
 40
1
 40
1
 40
1
 10
41.562273
 20
115.172431
 30
0.0
 10
40.458228
 20
115.829522
 30
0.0
 10
39.083065
 20
115.829518
 30
0.0
 10
37.979023
 20
115.172420
 30
0.0
  0
SPLINE
  5
189
100
AcDbEntity
  8
Layer_1
 62
7
100
AcDbSpline
 70
8
 71
3
 72
8
 73
4
 74
0
 40
0
 40
0
 40
0
 40
0
 40
1
 40
1
 40
1
 40
1
 10
37.979023
 20
115.172420
 30
0.0
 10
36.874982
 20
114.515323
 30
0.0
 10
36.219231
 20
113.306577
 30
0.0
 10
36.270340
 20
112.022805
 30
0.0
  0
SPLINE
  5
18a
100
AcDbEntity
  8
Layer_1
 62
7
100
AcDbSpline
 70
8
 71
3
 72
8
 73
4
 74
0
 40
0
 40
0
 40
0
 40
0
 40
1
 40
1
 40
1
 40
1
 10
36.273355
 20
112.033704
 30
0.0
 10
13.404324
 20
110.210008
 30
0.0
 10
-4.224497
 20
91.119376
 30
0.0
 10
-4.224455
 20
68.177744
 30
0.0
  0
SPLINE
  5
18b
100
AcDbEntity
  8
Layer_1
 62
7
100
AcDbSpline
 70
8
 71
3
 72
8
 73
4
 74
0
 40
0
 40
0
 40
0
 40
0
 40
1
 40
1
 40
1
 40
1
 10
-4.224455
 20
68.177744
 30
0.0
 10
-4.224419
 20
45.236111
 30
0.0
 10
13.404462
 20
26.145540
 30
0.0
 10
36.273500
 20
24.321917
 30
0.0
  0
SPLINE
  5
18c
100
AcDbEntity
  8
Layer_1
 62
7
100
AcDbSpline
 70
8
 71
3
 72
8
 73
4
 74
0
 40
0
 40
0
 40
0
 40
0
 40
1
 40
1
 40
1
 40
1
 10
36.270339
 20
24.311643
 30
0.0
 10
36.219238
 20
23.027870
 30
0.0
 10
36.874995
 20
21.819128
 30
0.0
 10
37.979040
 20
21.162037
 30
0.0
  0
SPLINE
  5
18d
100
AcDbEntity
  8
Layer_1
 62
7
100
AcDbSpline
 70
8
 71
3
 72
8
 73
4
 74
0
 40
0
 40
0
 40
0
 40
0
 40
1
 40
1
 40
1
 40
1
 10
37.979040
 20
21.162037
 30
0.0
 10
39.083085
 20
20.504945
 30
0.0
 10
40.458249
 20
20.504949
 30
0.0
 10
41.562290
 20
21.162047
 30
0.0
  0
SPLINE
  5
18e
100
AcDbEntity
  8
Layer_1
 62
7
100
AcDbSpline
 70
8
 71
3
 72
8
 73
4
 74
0
 40
0
 40
0
 40
0
 40
0
 40
1
 40
1
 40
1
 40
1
 10
41.562290
 20
21.162047
 30
0.0
 10
42.666331
 20
21.819145
 30
0.0
 10
43.322082
 20
23.027890
 30
0.0
 10
43.270973
 20
24.311663
 30
0.0
  0
SPLINE
  5
18f
100
AcDbEntity
  8
Layer_1
 62
7
100
AcDbSpline
 70
8
 71
3
 72
8
 73
4
 74
0
 40
0
 40
0
 40
0
 40
0
 40
1
 40
1
 40
1
 40
1
 10
183.264313
 20
24.321930
 30
0.0
 10
206.133345
 20
26.145626
 30
0.0
 10
223.762166
 20
45.236258
 30
0.0
 10
223.762123
 20
68.177890
 30
0.0
  0
SPLINE
  5
190
100
AcDbEntity
  8
Layer_1
 62
7
100
AcDbSpline
 70
8
 71
3
 72
8
 73
4
 74
0
 40
0
 40
0
 40
0
 40
0
 40
1
 40
1
 40
1
 40
1
 10
223.762123
 20
68.177890
 30
0.0
 10
223.762088
 20
91.119522
 30
0.0
 10
206.133207
 20
110.210094
 30
0.0
 10
183.264169
 20
112.033717
 30
0.0
  0
SPLINE
  5
191
100
AcDbEntity
  8
Layer_1
 62
7
100
AcDbSpline
 70
8
 71
3
 72
8
 73
4
 74
0
 40
0
 40
0
 40
0
 40
0
 40
1
 40
1
 40
1
 40
1
 10
183.267329
 20
112.022824
 30
0.0
 10
183.318431
 20
113.306597
 30
0.0
 10
182.662673
 20
114.515339
 30
0.0
 10
181.558628
 20
115.172431
 30
0.0
  0
SPLINE
  5
192
100
AcDbEntity
  8
Layer_1
 62
7
100
AcDbSpline
 70
8
 71
3
 72
8
 73
4
 74
0
 40
0
 40
0
 40
0
 40
0
 40
1
 40
1
 40
1
 40
1
 10
181.558628
 20
115.172431
 30
0.0
 10
180.454583
 20
115.829522
 30
0.0
 10
179.079420
 20
115.829518
 30
0.0
 10
177.975379
 20
115.172420
 30
0.0
  0
SPLINE
  5
193
100
AcDbEntity
  8
Layer_1
 62
7
100
AcDbSpline
 70
8
 71
3
 72
8
 73
4
 74
0
 40
0
 40
0
 40
0
 40
0
 40
1
 40
1
 40
1
 40
1
 10
177.975379
 20
115.172420
 30
0.0
 10
176.871338
 20
114.515323
 30
0.0
 10
176.215587
 20
113.306577
 30
0.0
 10
176.266696
 20
112.022805
 30
0.0
  0
SPLINE
  5
194
100
AcDbEntity
  8
Layer_1
 62
7
100
AcDbSpline
 70
8
 71
3
 72
8
 73
4
 74
0
 40
0
 40
0
 40
0
 40
0
 40
1
 40
1
 40
1
 40
1
 10
176.269711
 20
112.033704
 30
0.0
 10
153.400679
 20
110.210008
 30
0.0
 10
135.771858
 20
91.119376
 30
0.0
 10
135.771901
 20
68.177744
 30
0.0
  0
SPLINE
  5
195
100
AcDbEntity
  8
Layer_1
 62
7
100
AcDbSpline
 70
8
 71
3
 72
8
 73
4
 74
0
 40
0
 40
0
 40
0
 40
0
 40
1
 40
1
 40
1
 40
1
 10
135.771901
 20
68.177744
 30
0.0
 10
135.771937
 20
45.236111
 30
0.0
 10
153.400817
 20
26.145540
 30
0.0
 10
176.269856
 20
24.321917
 30
0.0
  0
SPLINE
  5
196
100
AcDbEntity
  8
Layer_1
 62
7
100
AcDbSpline
 70
8
 71
3
 72
8
 73
4
 74
0
 40
0
 40
0
 40
0
 40
0
 40
1
 40
1
 40
1
 40
1
 10
176.266695
 20
24.311643
 30
0.0
 10
176.215593
 20
23.027870
 30
0.0
 10
176.871351
 20
21.819128
 30
0.0
 10
177.975396
 20
21.162037
 30
0.0
  0
SPLINE
  5
197
100
AcDbEntity
  8
Layer_1
 62
7
100
AcDbSpline
 70
8
 71
3
 72
8
 73
4
 74
0
 40
0
 40
0
 40
0
 40
0
 40
1
 40
1
 40
1
 40
1
 10
177.975396
 20
21.162037
 30
0.0
 10
179.079441
 20
20.504945
 30
0.0
 10
180.454604
 20
20.504949
 30
0.0
 10
181.558645
 20
21.162047
 30
0.0
  0
SPLINE
  5
198
100
AcDbEntity
  8
Layer_1
 62
7
100
AcDbSpline
 70
8
 71
3
 72
8
 73
4
 74
0
 40
0
 40
0
 40
0
 40
0
 40
1
 40
1
 40
1
 40
1
 10
181.558645
 20
21.162047
 30
0.0
 10
182.662687
 20
21.819145
 30
0.0
 10
183.318437
 20
23.027890
 30
0.0
 10
183.267328
 20
24.311663
 30
0.0
  0
LWPOLYLINE
  5
199
100
AcDbEntity
  8
Layer_1
 62
7
100
AcDbPolyline
 90
4
 70
1
 10
-25.750770
 20
112.913574
 30
0.0
 10
-34.746605
 20
112.913574
 30
0.0
 10
-34.746605
 20
121.909409
 30
0.0
 10
-25.750770
 20
121.909409
 30
0.0
  0
SPLINE
  5
19a
100
AcDbEntity
  8
Layer_1
 62
7
100
AcDbSpline
 70
8
 71
3
 72
8
 73
4
 74
0
 40
0
 40
0
 40
0
 40
0
 40
1
 40
1
 40
1
 40
1
 10
253.265507
 20
-27.973531
 30
0.0
 10
253.316609
 20
-26.689758
 30
0.0
 10
252.660851
 20
-25.481016
 30
0.0
 10
251.556806
 20
-24.823925
 30
0.0
  0
SPLINE
  5
19b
100
AcDbEntity
  8
Layer_1
 62
7
100
AcDbSpline
 70
8
 71
3
 72
8
 73
4
 74
0
 40
0
 40
0
 40
0
 40
0
 40
1
 40
1
 40
1
 40
1
 10
251.556806
 20
-24.823925
 30
0.0
 10
250.452761
 20
-24.166833
 30
0.0
 10
249.077598
 20
-24.166837
 30
0.0
 10
247.973556
 20
-24.823935
 30
0.0
  0
SPLINE
  5
19c
100
AcDbEntity
  8
Layer_1
 62
7
100
AcDbSpline
 70
8
 71
3
 72
8
 73
4
 74
0
 40
0
 40
0
 40
0
 40
0
 40
1
 40
1
 40
1
 40
1
 10
247.973556
 20
-24.823935
 30
0.0
 10
246.869515
 20
-25.481033
 30
0.0
 10
246.213764
 20
-26.689778
 30
0.0
 10
246.264873
 20
-27.973551
 30
0.0
  0
SPLINE
  5
19d
100
AcDbEntity
  8
Layer_1
 62
7
100
AcDbSpline
 70
8
 71
3
 72
8
 73
4
 74
0
 40
0
 40
0
 40
0
 40
0
 40
1
 40
1
 40
1
 40
1
 10
246.267889
 20
-27.962652
 30
0.0
 10
223.398857
 20
-29.786348
 30
0.0
 10
205.770036
 20
-48.876980
 30
0.0
 10
205.770078
 20
-71.818611
 30
0.0
  0
SPLINE
  5
19e
100
AcDbEntity
  8
Layer_1
 62
7
100
AcDbSpline
 70
8
 71
3
 72
8
 73
4
 74
0
 40
0
 40
0
 40
0
 40
0
 40
1
 40
1
 40
1
 40
1
 10
205.770078
 20
-71.818611
 30
0.0
 10
205.770114
 20
-94.760244
 30
0.0
 10
223.398995
 20
-113.850816
 30
0.0
 10
246.268033
 20
-115.674438
 30
0.0
  0
SPLINE
  5
19f
100
AcDbEntity
  8
Layer_1
 62
7
100
AcDbSpline
 70
8
 71
3
 72
8
 73
4
 74
0
 40
0
 40
0
 40
0
 40
0
 40
1
 40
1
 40
1
 40
1
 10
246.264872
 20
-115.684712
 30
0.0
 10
246.213771
 20
-116.968485
 30
0.0
 10
246.869528
 20
-118.177227
 30
0.0
 10
247.973573
 20
-118.834319
 30
0.0
  0
SPLINE
  5
1a0
100
AcDbEntity
  8
Layer_1
 62
7
100
AcDbSpline
 70
8
 71
3
 72
8
 73
4
 74
0
 40
0
 40
0
 40
0
 40
0
 40
1
 40
1
 40
1
 40
1
 10
247.973573
 20
-118.834319
 30
0.0
 10
249.077618
 20
-119.491410
 30
0.0
 10
250.452782
 20
-119.491406
 30
0.0
 10
251.556823
 20
-118.834309
 30
0.0
  0
SPLINE
  5
1a1
100
AcDbEntity
  8
Layer_1
 62
7
100
AcDbSpline
 70
8
 71
3
 72
8
 73
4
 74
0
 40
0
 40
0
 40
0
 40
0
 40
1
 40
1
 40
1
 40
1
 10
251.556823
 20
-118.834309
 30
0.0
 10
252.660864
 20
-118.177211
 30
0.0
 10
253.316615
 20
-116.968466
 30
0.0
 10
253.265506
 20
-115.684693
 30
0.0
  0
SPLINE
  5
1a2
100
AcDbEntity
  8
Layer_1
 62
7
100
AcDbSpline
 70
8
 71
3
 72
8
 73
4
 74
0
 40
0
 40
0
 40
0
 40
0
 40
1
 40
1
 40
1
 40
1
 10
253.262491
 20
-115.674425
 30
0.0
 10
276.131522
 20
-113.850729
 30
0.0
 10
293.760344
 20
-94.760097
 30
0.0
 10
293.760301
 20
-71.818466
 30
0.0
  0
SPLINE
  5
1a3
100
AcDbEntity
  8
Layer_1
 62
7
100
AcDbSpline
 70
8
 71
3
 72
8
 73
4
 74
0
 40
0
 40
0
 40
0
 40
0
 40
1
 40
1
 40
1
 40
1
 10
293.760301
 20
-71.818466
 30
0.0
 10
293.760265
 20
-48.876833
 30
0.0
 10
276.131384
 20
-29.786261
 30
0.0
 10
253.262346
 20
-27.962639
 30
0.0
  0
SPLINE
  5
1a4
100
AcDbEntity
  8
Layer_1
 62
7
100
AcDbSpline
 70
8
 71
3
 72
8
 73
4
 74
0
 40
0
 40
0
 40
0
 40
0
 40
1
 40
1
 40
1
 40
1
 10
-313.738700
 20
-27.962652
 30
0.0
 10
-336.607731
 20
-29.786348
 30
0.0
 10
-354.236552
 20
-48.876980
 30
0.0
 10
-354.236510
 20
-71.818611
 30
0.0
  0
SPLINE
  5
1a5
100
AcDbEntity
  8
Layer_1
 62
7
100
AcDbSpline
 70
8
 71
3
 72
8
 73
4
 74
0
 40
0
 40
0
 40
0
 40
0
 40
1
 40
1
 40
1
 40
1
 10
-354.236510
 20
-71.818611
 30
0.0
 10
-354.236474
 20
-94.760244
 30
0.0
 10
-336.607593
 20
-113.850816
 30
0.0
 10
-313.738555
 20
-115.674438
 30
0.0
  0
SPLINE
  5
1a6
100
AcDbEntity
  8
Layer_1
 62
7
100
AcDbSpline
 70
8
 71
3
 72
8
 73
4
 74
0
 40
0
 40
0
 40
0
 40
0
 40
1
 40
1
 40
1
 40
1
 10
-313.741716
 20
-115.684712
 30
0.0
 10
-313.792817
 20
-116.968485
 30
0.0
 10
-313.137060
 20
-118.177227
 30
0.0
 10
-312.033015
 20
-118.834319
 30
0.0
  0
SPLINE
  5
1a7
100
AcDbEntity
  8
Layer_1
 62
7
100
AcDbSpline
 70
8
 71
3
 72
8
 73
4
 74
0
 40
0
 40
0
 40
0
 40
0
 40
1
 40
1
 40
1
 40
1
 10
-312.033015
 20
-118.834319
 30
0.0
 10
-310.928970
 20
-119.491410
 30
0.0
 10
-309.553807
 20
-119.491406
 30
0.0
 10
-308.449765
 20
-118.834309
 30
0.0
  0
SPLINE
  5
1a8
100
AcDbEntity
  8
Layer_1
 62
7
100
AcDbSpline
 70
8
 71
3
 72
8
 73
4
 74
0
 40
0
 40
0
 40
0
 40
0
 40
1
 40
1
 40
1
 40
1
 10
-308.449765
 20
-118.834309
 30
0.0
 10
-307.345724
 20
-118.177211
 30
0.0
 10
-306.689973
 20
-116.968466
 30
0.0
 10
-306.741082
 20
-115.684693
 30
0.0
  0
SPLINE
  5
1a9
100
AcDbEntity
  8
Layer_1
 62
7
100
AcDbSpline
 70
8
 71
3
 72
8
 73
4
 74
0
 40
0
 40
0
 40
0
 40
0
 40
1
 40
1
 40
1
 40
1
 10
-306.744097
 20
-115.674425
 30
0.0
 10
-283.875066
 20
-113.850729
 30
0.0
 10
-266.246245
 20
-94.760097
 30
0.0
 10
-266.246287
 20
-71.818466
 30
0.0
  0
SPLINE
  5
1aa
100
AcDbEntity
  8
Layer_1
 62
7
100
AcDbSpline
 70
8
 71
3
 72
8
 73
4
 74
0
 40
0
 40
0
 40
0
 40
0
 40
1
 40
1
 40
1
 40
1
 10
-266.246287
 20
-71.818466
 30
0.0
 10
-266.246323
 20
-48.876833
 30
0.0
 10
-283.875204
 20
-29.786261
 30
0.0
 10
-306.744242
 20
-27.962639
 30
0.0
  0
SPLINE
  5
1ab
100
AcDbEntity
  8
Layer_1
 62
7
100
AcDbSpline
 70
8
 71
3
 72
8
 73
4
 74
0
 40
0
 40
0
 40
0
 40
0
 40
1
 40
1
 40
1
 40
1
 10
-306.741081
 20
-27.973531
 30
0.0
 10
-306.689980
 20
-26.689758
 30
0.0
 10
-307.345737
 20
-25.481016
 30
0.0
 10
-308.449782
 20
-24.823925
 30
0.0
  0
SPLINE
  5
1ac
100
AcDbEntity
  8
Layer_1
 62
7
100
AcDbSpline
 70
8
 71
3
 72
8
 73
4
 74
0
 40
0
 40
0
 40
0
 40
0
 40
1
 40
1
 40
1
 40
1
 10
-308.449782
 20
-24.823925
 30
0.0
 10
-309.553827
 20
-24.166833
 30
0.0
 10
-310.928990
 20
-24.166837
 30
0.0
 10
-312.033032
 20
-24.823935
 30
0.0
  0
SPLINE
  5
1ad
100
AcDbEntity
  8
Layer_1
 62
7
100
AcDbSpline
 70
8
 71
3
 72
8
 73
4
 74
0
 40
0
 40
0
 40
0
 40
0
 40
1
 40
1
 40
1
 40
1
 10
-312.033032
 20
-24.823935
 30
0.0
 10
-313.137073
 20
-25.481033
 30
0.0
 10
-313.792824
 20
-26.689778
 30
0.0
 10
-313.741715
 20
-27.973551
 30
0.0
  0
LWPOLYLINE
  5
1ae
100
AcDbEntity
  8
Layer_1
 62
7
100
AcDbPolyline
 90
4
 70
1
 10
-235.745303
 20
-125.592464
 30
0.0
 10
-244.762305
 20
-125.592464
 30
0.0
 10
-244.762305
 20
-116.575462
 30
0.0
 10
-235.745303
 20
-116.575462
 30
0.0
  0
LWPOLYLINE
  5
1af
100
AcDbEntity
  8
Layer_1
 62
7
100
AcDbPolyline
 90
4
 70
1
 10
-314.802816
 20
24.690893
 30
0.0
 10
-314.802816
 20
15.695059
 30
0.0
 10
-323.798651
 20
15.695059
 30
0.0
 10
-323.798651
 20
24.690893
 30
0.0
  0
LWPOLYLINE
  5
1b0
100
AcDbEntity
  8
Layer_1
 62
7
100
AcDbPolyline
 90
4
 70
1
 10
254.305440
 20
15.695059
 30
0.0
 10
254.305440
 20
24.690893
 30
0.0
 10
263.301275
 20
24.690893
 30
0.0
 10
263.301275
 20
15.695059
 30
0.0
  0
LWPOLYLINE
  5
1b1
100
AcDbEntity
  8
Layer_1
 62
7
100
AcDbPolyline
 90
4
 70
1
 10
184.264929
 20
-125.592464
 30
0.0
 10
175.247928
 20
-125.592464
 30
0.0
 10
175.247928
 20
-116.575462
 30
0.0
 10
184.264929
 20
-116.575462
 30
0.0
  0
LWPOLYLINE
  5
1b2
100
AcDbEntity
  8
Layer_1
 62
7
100
AcDbPolyline
 90
4
 70
1
 10
44.247407
 20
-125.592464
 30
0.0
 10
35.251573
 20
-125.592464
 30
0.0
 10
35.251573
 20
-116.575462
 30
0.0
 10
44.247407
 20
-116.575462
 30
0.0
  0
LWPOLYLINE
  5
1b3
100
AcDbEntity
  8
Layer_1
 62
7
100
AcDbPolyline
 90
4
 70
1
 10
105.249750
 20
121.909409
 30
0.0
 10
114.245585
 20
121.909409
 30
0.0
 10
114.245585
 20
112.913574
 30
0.0
 10
105.249750
 20
112.913574
 30
0.0
  0
LWPOLYLINE
  5
1b4
100
AcDbEntity
  8
Layer_1
 62
7
100
AcDbPolyline
 90
4
 70
1
 10
-104.744783
 20
-125.592464
 30
0.0
 10
-104.744783
 20
-116.575462
 30
0.0
 10
-95.748948
 20
-116.575462
 30
0.0
 10
-95.748948
 20
-125.592464
 30
0.0
  0
LWPOLYLINE
  5
1b5
100
AcDbEntity
  8
Layer_1
 62
7
100
AcDbPolyline
 90
4
 70
1
 10
-174.742960
 20
121.909409
 30
0.0
 10
-165.747126
 20
121.909409
 30
0.0
 10
-165.747126
 20
112.913574
 30
0.0
 10
-174.742960
 20
112.913574
 30
0.0
  0
SPLINE
  5
1b6
100
AcDbEntity
  8
Layer_1
 62
7
100
AcDbSpline
 70
8
 71
3
 72
8
 73
4
 74
0
 40
0
 40
0
 40
0
 40
0
 40
1
 40
1
 40
1
 40
1
 10
249.765190
 20
-141.065299
 30
0.0
 10
273.764553
 20
-141.065299
 30
0.0
 10
296.052739
 20
-128.638829
 30
0.0
 10
308.669958
 20
-108.223772
 30
0.0
  0
SPLINE
  5
1b7
100
AcDbEntity
  8
Layer_1
 62
7
100
AcDbSpline
 70
8
 71
3
 72
8
 73
4
 74
0
 40
0
 40
0
 40
0
 40
0
 40
1
 40
1
 40
1
 40
1
 10
308.669958
 20
-108.223772
 30
0.0
 10
321.287198
 20
-87.808717
 30
0.0
 10
322.434263
 20
-62.316259
 30
0.0
 10
311.701427
 20
-40.850564
 30
0.0
  0
LWPOLYLINE
  5
1b8
100
AcDbEntity
  8
Layer_1
 62
7
100
AcDbPolyline
 90
2
 70
0
 10
311.709449
 20
-40.862284
 30
0.0
 10
241.690105
 20
99.134072
 30
0.0
  0
SPLINE
  5
1b9
100
AcDbEntity
  8
Layer_1
 62
7
100
AcDbSpline
 70
8
 71
3
 72
8
 73
4
 74
0
 40
0
 40
0
 40
0
 40
0
 40
1
 40
1
 40
1
 40
1
 10
-372.177649
 20
-40.850564
 30
0.0
 10
-382.910437
 20
-62.316259
 30
0.0
 10
-381.763401
 20
-87.808717
 30
0.0
 10
-369.146173
 20
-108.223772
 30
0.0
  0
SPLINE
  5
1ba
100
AcDbEntity
  8
Layer_1
 62
7
100
AcDbSpline
 70
8
 71
3
 72
8
 73
4
 74
0
 40
0
 40
0
 40
0
 40
0
 40
1
 40
1
 40
1
 40
1
 10
-369.146173
 20
-108.223772
 30
0.0
 10
-356.528948
 20
-128.638829
 30
0.0
 10
-334.240753
 20
-141.065299
 30
0.0
 10
-310.241398
 20
-141.065299
 30
0.0
  0
LWPOLYLINE
  5
1bb
100
AcDbEntity
  8
Layer_1
 62
7
100
AcDbPolyline
 90
2
 70
0
 10
-310.251982
 20
-141.086466
 30
0.0
 10
249.754606
 20
-141.086466
 30
0.0
  0
SPLINE
  5
1bc
100
AcDbEntity
  8
Layer_1
 62
7
100
AcDbSpline
 70
8
 71
3
 72
8
 73
4
 74
0
 40
0
 40
0
 40
0
 40
0
 40
1
 40
1
 40
1
 40
1
 10
-240.243221
 20
137.424578
 30
0.0
 10
-266.472012
 20
137.424578
 30
0.0
 10
-290.449631
 20
122.605559
 30
0.0
 10
-302.179471
 20
99.145798
 30
0.0
  0
LWPOLYLINE
  5
1bd
100
AcDbEntity
  8
Layer_1
 62
7
100
AcDbPolyline
 90
2
 70
0
 10
-302.187481
 20
99.134072
 30
0.0
 10
-372.206825
 20
-40.862284
 30
0.0
  0
SPLINE
  5
1be
100
AcDbEntity
  8
Layer_1
 62
7
100
AcDbSpline
 70
8
 71
3
 72
8
 73
4
 74
0
 40
0
 40
0
 40
0
 40
0
 40
1
 40
1
 40
1
 40
1
 10
241.703250
 20
99.145798
 30
0.0
 10
229.973443
 20
122.605559
 30
0.0
 10
205.995776
 20
137.424578
 30
0.0
 10
179.767012
 20
137.424578
 30
0.0
  0
LWPOLYLINE
  5
1bf
100
AcDbEntity
  8
Layer_1
 62
7
100
AcDbPolyline
 90
2
 70
0
 10
179.756429
 20
137.403411
 30
0.0
 10
-240.253804
 20
137.403411
 30
0.0
  0
ENDSEC
  0
SECTION
  2
OBJECTS
  0
DICTIONARY
  5
C
330
0
100
AcDbDictionary
  3
ACAD_GROUP
350
D
  3
ACAD_MLINESTYLE
350
17
  0
DICTIONARY
  5
D
330
C
100
AcDbDictionary
  0
DICTIONARY
  5
1A
330
C
100
AcDbDictionary
  0
DICTIONARY
  5
17
330
C
100
AcDbDictionary
  3
STANDARD
350
18
  0
DICTIONARY
  5
19
330
C
100
AcDbDictionary
  0
ENDSEC
  0
EOF
