  0
SECTION
  2
HEADER
  9
$ACADVER
  1
AC1014
  9
$HANDSEED
  5
FFFF
  9
$MEASUREMENT
 70
     1
  0
ENDSEC
  0
SECTION
  2
TABLES
  0
TABLE
  2
VPORT
  5
8
330
0
100
AcDbSymbolTable
 70
     4
  0
VPORT
  5
2E
330
8
100
AcDbSymbolTableRecord
100
AcDbViewportTableRecord
  2
*ACTIVE
 70
     0
 10
0.0
 20
0.0
 11
1.0
 21
1.0
 12
210.0
 22
148.5
 13
0.0
 23
0.0
 14
10.0
 24
10.0
 15
10.0
 25
10.0
 16
0.0
 26
0.0
 36
1.0
 17
0.0
 27
0.0
 37
0.0
 40
341.0
 41
1.24
 42
50.0
 43
0.0
 44
0.0
 50
0.0
 51
0.0
 71
     0
 72
   100
 73
     1
 74
     3
 75
     0
 76
     0
 77
     0
 78
     0
  0
ENDTAB
  0
TABLE
  2
LTYPE
  5
5
330
0
100
AcDbSymbolTable
 70
     1
  0
LTYPE
  5
14
330
5
100
AcDbSymbolTableRecord
100
AcDbLinetypeTableRecord
  2
BYBLOCK
 70
     0
  3

 72
    65
 73
     0
 40
0.0
  0
LTYPE
  5
15
330
5
100
AcDbSymbolTableRecord
100
AcDbLinetypeTableRecord
  2
BYLAYER
 70
     0
  3

 72
    65
 73
     0
 40
0.0
  0
LTYPE
  5
16
330
5
100
AcDbSymbolTableRecord
100
AcDbLinetypeTableRecord
  2
CONTINUOUS
 70
     0
  3
Solid line
 72
    65
 73
     0
 40
0.0
  0
ENDTAB
  0
TABLE
  2
LAYER
  5
2
100
AcDbSymbolTable
 70
2
  0
LAYER
  5
50
100
AcDbSymbolTableRecord
100
AcDbLayerTableRecord
  2
0
 70
0
  6
CONTINUOUS
  0
LAYER
  5
51
100
AcDbSymbolTableRecord
100
AcDbLayerTableRecord
  2
Layer_1
 70
0
  6
CONTINUOUS
  0
ENDTAB
  0
TABLE
  2
STYLE
  5
3
330
0
100
AcDbSymbolTable
 70
     1
  0
STYLE
  5
11
330
3
100
AcDbSymbolTableRecord
100
AcDbTextStyleTableRecord
  2
STANDARD
 70
     0
 40
0.0
 41
1.0
 50
0.0
 71
     0
 42
2.5
  3
txt
  4

  0
ENDTAB
  0
TABLE
  2
VIEW
  5
6
330
0
100
AcDbSymbolTable
 70
     0
  0
ENDTAB
  0
TABLE
  2
UCS
  5
7
330
0
100
AcDbSymbolTable
 70
     0
  0
ENDTAB
  0
TABLE
  2
APPID
  5
9
330
0
100
AcDbSymbolTable
 70
     2
  0
APPID
  5
12
330
9
100
AcDbSymbolTableRecord
100
AcDbRegAppTableRecord
  2
ACAD
 70
     0
  0
ENDTAB
  0
TABLE
  2
DIMSTYLE
  5
A
330
0
100
AcDbSymbolTable
 70
     1
  0
DIMSTYLE
105
27
330
A
100
AcDbSymbolTableRecord
100
AcDbDimStyleTableRecord
  2
ISO-25
 70
     0
  3

  4

  5

  6

  7

 40
1.0
 41
2.5
 42
0.625
 43
3.75
 44
1.25
 45
0.0
 46
0.0
 47
0.0
 48
0.0
140
2.5
141
2.5
142
0.0
143
0.03937007874016
144
1.0
145
0.0
146
1.0
147
0.625
 71
     0
 72
     0
 73
     0
 74
     0
 75
     0
 76
     0
 77
     1
 78
     8
170
     0
171
     3
172
     1
173
     0
174
     0
175
     0
176
     0
177
     0
178
     0
270
     2
271
     2
272
     2
273
     2
274
     3
340
11
275
     0
280
     0
281
     0
282
     0
283
     0
284
     8
285
     0
286
     0
287
     3
288
     0
  0
ENDTAB
  0
TABLE
  2
BLOCK_RECORD
  5
1
330
0
100
AcDbSymbolTable
 70
     1
  0
BLOCK_RECORD
  5
1F
330
1
100
AcDbSymbolTableRecord
100
AcDbBlockTableRecord
  2
*MODEL_SPACE
  0
BLOCK_RECORD
  5
1B
330
1
100
AcDbSymbolTableRecord
100
AcDbBlockTableRecord
  2
*PAPER_SPACE
  0
ENDTAB
  0
ENDSEC
  0
SECTION
  2
BLOCKS
  0
BLOCK
  5
20
330
1F
100
AcDbEntity
  8
0
100
AcDbBlockBegin
  2
*MODEL_SPACE
 70
     0
 10
0.0
 20
0.0
 30
0.0
  3
*MODEL_SPACE
  1

  0
ENDBLK
  5
21
330
1F
100
AcDbEntity
  8
0
100
AcDbBlockEnd
  0
BLOCK
  5
1C
330
1B
100
AcDbEntity
 67
     1
  8
0
100
AcDbBlockBegin
  2
*PAPER_SPACE
  1

  0
ENDBLK
  5
1D
330
1B
100
AcDbEntity
 67
     1
  8
0
100
AcDbBlockEnd
  0
ENDSEC
  0
SECTION
  2
ENTITIES
  0
SPLINE
  5
100
100
AcDbEntity
  8
Layer_1
 62
7
100
AcDbSpline
 70
8
 71
3
 72
8
 73
4
 74
0
 40
0
 40
0
 40
0
 40
0
 40
1
 40
1
 40
1
 40
1
 10
105.768340
 20
417.396123
 30
0.0
 10
105.768340
 20
415.192567
 30
0.0
 10
107.554702
 20
413.406206
 30
0.0
 10
109.758258
 20
413.406206
 30
0.0
  0
SPLINE
  5
101
100
AcDbEntity
  8
Layer_1
 62
7
100
AcDbSpline
 70
8
 71
3
 72
8
 73
4
 74
0
 40
0
 40
0
 40
0
 40
0
 40
1
 40
1
 40
1
 40
1
 10
109.758258
 20
413.406206
 30
0.0
 10
111.961814
 20
413.406206
 30
0.0
 10
113.748175
 20
415.192567
 30
0.0
 10
113.748175
 20
417.396123
 30
0.0
  0
SPLINE
  5
102
100
AcDbEntity
  8
Layer_1
 62
7
100
AcDbSpline
 70
8
 71
3
 72
8
 73
4
 74
0
 40
0
 40
0
 40
0
 40
0
 40
1
 40
1
 40
1
 40
1
 10
113.748175
 20
417.396123
 30
0.0
 10
113.748175
 20
419.599679
 30
0.0
 10
111.961814
 20
421.386040
 30
0.0
 10
109.758258
 20
421.386040
 30
0.0
  0
SPLINE
  5
103
100
AcDbEntity
  8
Layer_1
 62
7
100
AcDbSpline
 70
8
 71
3
 72
8
 73
4
 74
0
 40
0
 40
0
 40
0
 40
0
 40
1
 40
1
 40
1
 40
1
 10
109.758258
 20
421.386040
 30
0.0
 10
107.554702
 20
421.386040
 30
0.0
 10
105.768340
 20
419.599679
 30
0.0
 10
105.768340
 20
417.396123
 30
0.0
  0
SPLINE
  5
104
100
AcDbEntity
  8
Layer_1
 62
7
100
AcDbSpline
 70
8
 71
3
 72
8
 73
4
 74
0
 40
0
 40
0
 40
0
 40
0
 40
1
 40
1
 40
1
 40
1
 10
-174.224370
 20
417.396123
 30
0.0
 10
-174.224370
 20
415.192567
 30
0.0
 10
-172.438009
 20
413.406206
 30
0.0
 10
-170.234453
 20
413.406206
 30
0.0
  0
SPLINE
  5
105
100
AcDbEntity
  8
Layer_1
 62
7
100
AcDbSpline
 70
8
 71
3
 72
8
 73
4
 74
0
 40
0
 40
0
 40
0
 40
0
 40
1
 40
1
 40
1
 40
1
 10
-170.234453
 20
413.406206
 30
0.0
 10
-168.030897
 20
413.406206
 30
0.0
 10
-166.244536
 20
415.192567
 30
0.0
 10
-166.244536
 20
417.396123
 30
0.0
  0
SPLINE
  5
106
100
AcDbEntity
  8
Layer_1
 62
7
100
AcDbSpline
 70
8
 71
3
 72
8
 73
4
 74
0
 40
0
 40
0
 40
0
 40
0
 40
1
 40
1
 40
1
 40
1
 10
-166.244536
 20
417.396123
 30
0.0
 10
-166.244536
 20
419.599679
 30
0.0
 10
-168.030897
 20
421.386040
 30
0.0
 10
-170.234453
 20
421.386040
 30
0.0
  0
SPLINE
  5
107
100
AcDbEntity
  8
Layer_1
 62
7
100
AcDbSpline
 70
8
 71
3
 72
8
 73
4
 74
0
 40
0
 40
0
 40
0
 40
0
 40
1
 40
1
 40
1
 40
1
 10
-170.234453
 20
421.386040
 30
0.0
 10
-172.438009
 20
421.386040
 30
0.0
 10
-174.224370
 20
419.599679
 30
0.0
 10
-174.224370
 20
417.396123
 30
0.0
  0
SPLINE
  5
108
100
AcDbEntity
  8
Layer_1
 62
7
100
AcDbSpline
 70
8
 71
3
 72
8
 73
4
 74
0
 40
0
 40
0
 40
0
 40
0
 40
1
 40
1
 40
1
 40
1
 10
-361.972733
 20
228.166093
 30
0.0
 10
-361.972733
 20
199.589798
 30
0.0
 10
-338.807085
 20
176.424168
 30
0.0
 10
-310.230808
 20
176.424168
 30
0.0
  0
SPLINE
  5
109
100
AcDbEntity
  8
Layer_1
 62
7
100
AcDbSpline
 70
8
 71
3
 72
8
 73
4
 74
0
 40
0
 40
0
 40
0
 40
0
 40
1
 40
1
 40
1
 40
1
 10
-310.230808
 20
176.424168
 30
0.0
 10
-281.654521
 20
176.424168
 30
0.0
 10
-258.488884
 20
199.589798
 30
0.0
 10
-258.488884
 20
228.166093
 30
0.0
  0
SPLINE
  5
10a
100
AcDbEntity
  8
Layer_1
 62
7
100
AcDbSpline
 70
8
 71
3
 72
8
 73
4
 74
0
 40
0
 40
0
 40
0
 40
0
 40
1
 40
1
 40
1
 40
1
 10
-258.488884
 20
228.166093
 30
0.0
 10
-258.488884
 20
256.742389
 30
0.0
 10
-281.654521
 20
279.908018
 30
0.0
 10
-310.230808
 20
279.908018
 30
0.0
  0
SPLINE
  5
10b
100
AcDbEntity
  8
Layer_1
 62
7
100
AcDbSpline
 70
8
 71
3
 72
8
 73
4
 74
0
 40
0
 40
0
 40
0
 40
0
 40
1
 40
1
 40
1
 40
1
 10
-310.230808
 20
279.908018
 30
0.0
 10
-338.807085
 20
279.908018
 30
0.0
 10
-361.972733
 20
256.742389
 30
0.0
 10
-361.972733
 20
228.166093
 30
0.0
  0
SPLINE
  5
10c
100
AcDbEntity
  8
Layer_1
 62
7
100
AcDbSpline
 70
8
 71
3
 72
8
 73
4
 74
0
 40
0
 40
0
 40
0
 40
0
 40
1
 40
1
 40
1
 40
1
 10
198.012688
 20
228.166093
 30
0.0
 10
198.012688
 20
199.589798
 30
0.0
 10
221.178360
 20
176.424168
 30
0.0
 10
249.754613
 20
176.424168
 30
0.0
  0
SPLINE
  5
10d
100
AcDbEntity
  8
Layer_1
 62
7
100
AcDbSpline
 70
8
 71
3
 72
8
 73
4
 74
0
 40
0
 40
0
 40
0
 40
0
 40
1
 40
1
 40
1
 40
1
 10
249.754613
 20
176.424168
 30
0.0
 10
278.330866
 20
176.424168
 30
0.0
 10
301.496538
 20
199.589798
 30
0.0
 10
301.496538
 20
228.166093
 30
0.0
  0
SPLINE
  5
10e
100
AcDbEntity
  8
Layer_1
 62
7
100
AcDbSpline
 70
8
 71
3
 72
8
 73
4
 74
0
 40
0
 40
0
 40
0
 40
0
 40
1
 40
1
 40
1
 40
1
 10
301.496538
 20
228.166093
 30
0.0
 10
301.496538
 20
256.742389
 30
0.0
 10
278.330866
 20
279.908018
 30
0.0
 10
249.754613
 20
279.908018
 30
0.0
  0
SPLINE
  5
10f
100
AcDbEntity
  8
Layer_1
 62
7
100
AcDbSpline
 70
8
 71
3
 72
8
 73
4
 74
0
 40
0
 40
0
 40
0
 40
0
 40
1
 40
1
 40
1
 40
1
 10
249.754613
 20
279.908018
 30
0.0
 10
221.178360
 20
279.908018
 30
0.0
 10
198.012688
 20
256.742389
 30
0.0
 10
198.012688
 20
228.166093
 30
0.0
  0
SPLINE
  5
110
100
AcDbEntity
  8
Layer_1
 62
7
100
AcDbSpline
 70
8
 71
3
 72
8
 73
4
 74
0
 40
0
 40
0
 40
0
 40
0
 40
1
 40
1
 40
1
 40
1
 10
254.824031
 20
320.177608
 30
0.0
 10
254.824031
 20
317.974052
 30
0.0
 10
256.610392
 20
316.187690
 30
0.0
 10
258.813948
 20
316.187690
 30
0.0
  0
SPLINE
  5
111
100
AcDbEntity
  8
Layer_1
 62
7
100
AcDbSpline
 70
8
 71
3
 72
8
 73
4
 74
0
 40
0
 40
0
 40
0
 40
0
 40
1
 40
1
 40
1
 40
1
 10
258.813948
 20
316.187690
 30
0.0
 10
261.017504
 20
316.187690
 30
0.0
 10
262.803865
 20
317.974052
 30
0.0
 10
262.803865
 20
320.177608
 30
0.0
  0
SPLINE
  5
112
100
AcDbEntity
  8
Layer_1
 62
7
100
AcDbSpline
 70
8
 71
3
 72
8
 73
4
 74
0
 40
0
 40
0
 40
0
 40
0
 40
1
 40
1
 40
1
 40
1
 10
262.803865
 20
320.177608
 30
0.0
 10
262.803865
 20
322.381164
 30
0.0
 10
261.017504
 20
324.167525
 30
0.0
 10
258.813948
 20
324.167525
 30
0.0
  0
SPLINE
  5
113
100
AcDbEntity
  8
Layer_1
 62
7
100
AcDbSpline
 70
8
 71
3
 72
8
 73
4
 74
0
 40
0
 40
0
 40
0
 40
0
 40
1
 40
1
 40
1
 40
1
 10
258.813948
 20
324.167525
 30
0.0
 10
256.610392
 20
324.167525
 30
0.0
 10
254.824031
 20
322.381164
 30
0.0
 10
254.824031
 20
320.177608
 30
0.0
  0
SPLINE
  5
114
100
AcDbEntity
  8
Layer_1
 62
7
100
AcDbSpline
 70
8
 71
3
 72
8
 73
4
 74
0
 40
0
 40
0
 40
0
 40
0
 40
1
 40
1
 40
1
 40
1
 10
-291.974556
 20
368.162449
 30
0.0
 10
-291.974556
 20
339.586153
 30
0.0
 10
-268.808926
 20
316.420524
 30
0.0
 10
-240.232631
 20
316.420524
 30
0.0
  0
SPLINE
  5
115
100
AcDbEntity
  8
Layer_1
 62
7
100
AcDbSpline
 70
8
 71
3
 72
8
 73
4
 74
0
 40
0
 40
0
 40
0
 40
0
 40
1
 40
1
 40
1
 40
1
 10
-240.232631
 20
316.420524
 30
0.0
 10
-211.656335
 20
316.420524
 30
0.0
 10
-188.490706
 20
339.586153
 30
0.0
 10
-188.490706
 20
368.162449
 30
0.0
  0
SPLINE
  5
116
100
AcDbEntity
  8
Layer_1
 62
7
100
AcDbSpline
 70
8
 71
3
 72
8
 73
4
 74
0
 40
0
 40
0
 40
0
 40
0
 40
1
 40
1
 40
1
 40
1
 10
-188.490706
 20
368.162449
 30
0.0
 10
-188.490706
 20
396.738744
 30
0.0
 10
-211.656335
 20
419.904373
 30
0.0
 10
-240.232631
 20
419.904373
 30
0.0
  0
SPLINE
  5
117
100
AcDbEntity
  8
Layer_1
 62
7
100
AcDbSpline
 70
8
 71
3
 72
8
 73
4
 74
0
 40
0
 40
0
 40
0
 40
0
 40
1
 40
1
 40
1
 40
1
 10
-240.232631
 20
419.904373
 30
0.0
 10
-268.808926
 20
419.904373
 30
0.0
 10
-291.974556
 20
396.738744
 30
0.0
 10
-291.974556
 20
368.162449
 30
0.0
  0
SPLINE
  5
118
100
AcDbEntity
  8
Layer_1
 62
7
100
AcDbSpline
 70
8
 71
3
 72
8
 73
4
 74
0
 40
0
 40
0
 40
0
 40
0
 40
1
 40
1
 40
1
 40
1
 10
-151.978200
 20
368.162449
 30
0.0
 10
-151.978200
 20
339.586153
 30
0.0
 10
-128.812571
 20
316.420524
 30
0.0
 10
-100.236275
 20
316.420524
 30
0.0
  0
SPLINE
  5
119
100
AcDbEntity
  8
Layer_1
 62
7
100
AcDbSpline
 70
8
 71
3
 72
8
 73
4
 74
0
 40
0
 40
0
 40
0
 40
0
 40
1
 40
1
 40
1
 40
1
 10
-100.236275
 20
316.420524
 30
0.0
 10
-71.659980
 20
316.420524
 30
0.0
 10
-48.494351
 20
339.586153
 30
0.0
 10
-48.494351
 20
368.162449
 30
0.0
  0
SPLINE
  5
11a
100
AcDbEntity
  8
Layer_1
 62
7
100
AcDbSpline
 70
8
 71
3
 72
8
 73
4
 74
0
 40
0
 40
0
 40
0
 40
0
 40
1
 40
1
 40
1
 40
1
 10
-48.494351
 20
368.162449
 30
0.0
 10
-48.494351
 20
396.738744
 30
0.0
 10
-71.659980
 20
419.904373
 30
0.0
 10
-100.236275
 20
419.904373
 30
0.0
  0
SPLINE
  5
11b
100
AcDbEntity
  8
Layer_1
 62
7
100
AcDbSpline
 70
8
 71
3
 72
8
 73
4
 74
0
 40
0
 40
0
 40
0
 40
0
 40
1
 40
1
 40
1
 40
1
 10
-100.236275
 20
419.904373
 30
0.0
 10
-128.812571
 20
419.904373
 30
0.0
 10
-151.978200
 20
396.738744
 30
0.0
 10
-151.978200
 20
368.162449
 30
0.0
  0
SPLINE
  5
11c
100
AcDbEntity
  8
Layer_1
 62
7
100
AcDbSpline
 70
8
 71
3
 72
8
 73
4
 74
0
 40
0
 40
0
 40
0
 40
0
 40
1
 40
1
 40
1
 40
1
 10
35.770163
 20
178.911252
 30
0.0
 10
35.770163
 20
176.707696
 30
0.0
 10
37.556524
 20
174.921335
 30
0.0
 10
39.760080
 20
174.921335
 30
0.0
  0
SPLINE
  5
11d
100
AcDbEntity
  8
Layer_1
 62
7
100
AcDbSpline
 70
8
 71
3
 72
8
 73
4
 74
0
 40
0
 40
0
 40
0
 40
0
 40
1
 40
1
 40
1
 40
1
 10
39.760080
 20
174.921335
 30
0.0
 10
41.963636
 20
174.921335
 30
0.0
 10
43.749997
 20
176.707696
 30
0.0
 10
43.749997
 20
178.911252
 30
0.0
  0
SPLINE
  5
11e
100
AcDbEntity
  8
Layer_1
 62
7
100
AcDbSpline
 70
8
 71
3
 72
8
 73
4
 74
0
 40
0
 40
0
 40
0
 40
0
 40
1
 40
1
 40
1
 40
1
 10
43.749997
 20
178.911252
 30
0.0
 10
43.749997
 20
181.114808
 30
0.0
 10
41.963636
 20
182.901169
 30
0.0
 10
39.760080
 20
182.901169
 30
0.0
  0
SPLINE
  5
11f
100
AcDbEntity
  8
Layer_1
 62
7
100
AcDbSpline
 70
8
 71
3
 72
8
 73
4
 74
0
 40
0
 40
0
 40
0
 40
0
 40
1
 40
1
 40
1
 40
1
 10
39.760080
 20
182.901169
 30
0.0
 10
37.556524
 20
182.901169
 30
0.0
 10
35.770163
 20
181.114808
 30
0.0
 10
35.770163
 20
178.911252
 30
0.0
  0
SPLINE
  5
120
100
AcDbEntity
  8
Layer_1
 62
7
100
AcDbSpline
 70
8
 71
3
 72
8
 73
4
 74
0
 40
0
 40
0
 40
0
 40
0
 40
1
 40
1
 40
1
 40
1
 10
175.766518
 20
178.911252
 30
0.0
 10
175.766518
 20
176.707696
 30
0.0
 10
177.552879
 20
174.921335
 30
0.0
 10
179.756435
 20
174.921335
 30
0.0
  0
SPLINE
  5
121
100
AcDbEntity
  8
Layer_1
 62
7
100
AcDbSpline
 70
8
 71
3
 72
8
 73
4
 74
0
 40
0
 40
0
 40
0
 40
0
 40
1
 40
1
 40
1
 40
1
 10
179.756435
 20
174.921335
 30
0.0
 10
181.959992
 20
174.921335
 30
0.0
 10
183.746353
 20
176.707696
 30
0.0
 10
183.746353
 20
178.911252
 30
0.0
  0
SPLINE
  5
122
100
AcDbEntity
  8
Layer_1
 62
7
100
AcDbSpline
 70
8
 71
3
 72
8
 73
4
 74
0
 40
0
 40
0
 40
0
 40
0
 40
1
 40
1
 40
1
 40
1
 10
183.746353
 20
178.911252
 30
0.0
 10
183.746353
 20
181.114808
 30
0.0
 10
181.959992
 20
182.901169
 30
0.0
 10
179.756435
 20
182.901169
 30
0.0
  0
SPLINE
  5
123
100
AcDbEntity
  8
Layer_1
 62
7
100
AcDbSpline
 70
8
 71
3
 72
8
 73
4
 74
0
 40
0
 40
0
 40
0
 40
0
 40
1
 40
1
 40
1
 40
1
 10
179.756435
 20
182.901169
 30
0.0
 10
177.552879
 20
182.901169
 30
0.0
 10
175.766518
 20
181.114808
 30
0.0
 10
175.766518
 20
178.911252
 30
0.0
  0
SPLINE
  5
124
100
AcDbEntity
  8
Layer_1
 62
7
100
AcDbSpline
 70
8
 71
3
 72
8
 73
4
 74
0
 40
0
 40
0
 40
0
 40
0
 40
1
 40
1
 40
1
 40
1
 10
-104.226193
 20
178.911252
 30
0.0
 10
-104.226193
 20
176.707696
 30
0.0
 10
-102.439832
 20
174.921335
 30
0.0
 10
-100.236275
 20
174.921335
 30
0.0
  0
SPLINE
  5
125
100
AcDbEntity
  8
Layer_1
 62
7
100
AcDbSpline
 70
8
 71
3
 72
8
 73
4
 74
0
 40
0
 40
0
 40
0
 40
0
 40
1
 40
1
 40
1
 40
1
 10
-100.236275
 20
174.921335
 30
0.0
 10
-98.032719
 20
174.921335
 30
0.0
 10
-96.246358
 20
176.707696
 30
0.0
 10
-96.246358
 20
178.911252
 30
0.0
  0
SPLINE
  5
126
100
AcDbEntity
  8
Layer_1
 62
7
100
AcDbSpline
 70
8
 71
3
 72
8
 73
4
 74
0
 40
0
 40
0
 40
0
 40
0
 40
1
 40
1
 40
1
 40
1
 10
-96.246358
 20
178.911252
 30
0.0
 10
-96.246358
 20
181.114808
 30
0.0
 10
-98.032719
 20
182.901169
 30
0.0
 10
-100.236275
 20
182.901169
 30
0.0
  0
SPLINE
  5
127
100
AcDbEntity
  8
Layer_1
 62
7
100
AcDbSpline
 70
8
 71
3
 72
8
 73
4
 74
0
 40
0
 40
0
 40
0
 40
0
 40
1
 40
1
 40
1
 40
1
 10
-100.236275
 20
182.901169
 30
0.0
 10
-102.439832
 20
182.901169
 30
0.0
 10
-104.226193
 20
181.114808
 30
0.0
 10
-104.226193
 20
178.911252
 30
0.0
  0
SPLINE
  5
128
100
AcDbEntity
  8
Layer_1
 62
7
100
AcDbSpline
 70
8
 71
3
 72
8
 73
4
 74
0
 40
0
 40
0
 40
0
 40
0
 40
1
 40
1
 40
1
 40
1
 10
-323.280060
 20
320.177608
 30
0.0
 10
-323.280060
 20
317.974052
 30
0.0
 10
-321.493710
 20
316.187690
 30
0.0
 10
-319.290143
 20
316.187690
 30
0.0
  0
SPLINE
  5
129
100
AcDbEntity
  8
Layer_1
 62
7
100
AcDbSpline
 70
8
 71
3
 72
8
 73
4
 74
0
 40
0
 40
0
 40
0
 40
0
 40
1
 40
1
 40
1
 40
1
 10
-319.290143
 20
316.187690
 30
0.0
 10
-317.086576
 20
316.187690
 30
0.0
 10
-315.300226
 20
317.974052
 30
0.0
 10
-315.300226
 20
320.177608
 30
0.0
  0
SPLINE
  5
12a
100
AcDbEntity
  8
Layer_1
 62
7
100
AcDbSpline
 70
8
 71
3
 72
8
 73
4
 74
0
 40
0
 40
0
 40
0
 40
0
 40
1
 40
1
 40
1
 40
1
 10
-315.300226
 20
320.177608
 30
0.0
 10
-315.300226
 20
322.381164
 30
0.0
 10
-317.086576
 20
324.167525
 30
0.0
 10
-319.290143
 20
324.167525
 30
0.0
  0
SPLINE
  5
12b
100
AcDbEntity
  8
Layer_1
 62
7
100
AcDbSpline
 70
8
 71
3
 72
8
 73
4
 74
0
 40
0
 40
0
 40
0
 40
0
 40
1
 40
1
 40
1
 40
1
 10
-319.290143
 20
324.167525
 30
0.0
 10
-321.493710
 20
324.167525
 30
0.0
 10
-323.280060
 20
322.381164
 30
0.0
 10
-323.280060
 20
320.177608
 30
0.0
  0
SPLINE
  5
12c
100
AcDbEntity
  8
Layer_1
 62
7
100
AcDbSpline
 70
8
 71
3
 72
8
 73
4
 74
0
 40
0
 40
0
 40
0
 40
0
 40
1
 40
1
 40
1
 40
1
 10
-34.228015
 20
417.396123
 30
0.0
 10
-34.228015
 20
415.192567
 30
0.0
 10
-32.441654
 20
413.406206
 30
0.0
 10
-30.238098
 20
413.406206
 30
0.0
  0
SPLINE
  5
12d
100
AcDbEntity
  8
Layer_1
 62
7
100
AcDbSpline
 70
8
 71
3
 72
8
 73
4
 74
0
 40
0
 40
0
 40
0
 40
0
 40
1
 40
1
 40
1
 40
1
 10
-30.238098
 20
413.406206
 30
0.0
 10
-28.034541
 20
413.406206
 30
0.0
 10
-26.248180
 20
415.192567
 30
0.0
 10
-26.248180
 20
417.396123
 30
0.0
  0
SPLINE
  5
12e
100
AcDbEntity
  8
Layer_1
 62
7
100
AcDbSpline
 70
8
 71
3
 72
8
 73
4
 74
0
 40
0
 40
0
 40
0
 40
0
 40
1
 40
1
 40
1
 40
1
 10
-26.248180
 20
417.396123
 30
0.0
 10
-26.248180
 20
419.599679
 30
0.0
 10
-28.034541
 20
421.386040
 30
0.0
 10
-30.238098
 20
421.386040
 30
0.0
  0
SPLINE
  5
12f
100
AcDbEntity
  8
Layer_1
 62
7
100
AcDbSpline
 70
8
 71
3
 72
8
 73
4
 74
0
 40
0
 40
0
 40
0
 40
0
 40
1
 40
1
 40
1
 40
1
 10
-30.238098
 20
421.386040
 30
0.0
 10
-32.441654
 20
421.386040
 30
0.0
 10
-34.228015
 20
419.599679
 30
0.0
 10
-34.228015
 20
417.396123
 30
0.0
  0
SPLINE
  5
130
100
AcDbEntity
  8
Layer_1
 62
7
100
AcDbSpline
 70
8
 71
3
 72
8
 73
4
 74
0
 40
0
 40
0
 40
0
 40
0
 40
1
 40
1
 40
1
 40
1
 10
-11.981845
 20
368.162449
 30
0.0
 10
-11.981845
 20
339.586153
 30
0.0
 10
11.183784
 20
316.420524
 30
0.0
 10
39.760080
 20
316.420524
 30
0.0
  0
SPLINE
  5
131
100
AcDbEntity
  8
Layer_1
 62
7
100
AcDbSpline
 70
8
 71
3
 72
8
 73
4
 74
0
 40
0
 40
0
 40
0
 40
0
 40
1
 40
1
 40
1
 40
1
 10
39.760080
 20
316.420524
 30
0.0
 10
68.336376
 20
316.420524
 30
0.0
 10
91.502005
 20
339.586153
 30
0.0
 10
91.502005
 20
368.162449
 30
0.0
  0
SPLINE
  5
132
100
AcDbEntity
  8
Layer_1
 62
7
100
AcDbSpline
 70
8
 71
3
 72
8
 73
4
 74
0
 40
0
 40
0
 40
0
 40
0
 40
1
 40
1
 40
1
 40
1
 10
91.502005
 20
368.162449
 30
0.0
 10
91.502005
 20
396.738744
 30
0.0
 10
68.336376
 20
419.904373
 30
0.0
 10
39.760080
 20
419.904373
 30
0.0
  0
SPLINE
  5
133
100
AcDbEntity
  8
Layer_1
 62
7
100
AcDbSpline
 70
8
 71
3
 72
8
 73
4
 74
0
 40
0
 40
0
 40
0
 40
0
 40
1
 40
1
 40
1
 40
1
 10
39.760080
 20
419.904373
 30
0.0
 10
11.183784
 20
419.904373
 30
0.0
 10
-11.981845
 20
396.738744
 30
0.0
 10
-11.981845
 20
368.162449
 30
0.0
  0
SPLINE
  5
134
100
AcDbEntity
  8
Layer_1
 62
7
100
AcDbSpline
 70
8
 71
3
 72
8
 73
4
 74
0
 40
0
 40
0
 40
0
 40
0
 40
1
 40
1
 40
1
 40
1
 10
128.014511
 20
368.162449
 30
0.0
 10
128.014511
 20
339.586153
 30
0.0
 10
151.180140
 20
316.420524
 30
0.0
 10
179.756435
 20
316.420524
 30
0.0
  0
SPLINE
  5
135
100
AcDbEntity
  8
Layer_1
 62
7
100
AcDbSpline
 70
8
 71
3
 72
8
 73
4
 74
0
 40
0
 40
0
 40
0
 40
0
 40
1
 40
1
 40
1
 40
1
 10
179.756435
 20
316.420524
 30
0.0
 10
208.332689
 20
316.420524
 30
0.0
 10
231.498360
 20
339.586153
 30
0.0
 10
231.498360
 20
368.162449
 30
0.0
  0
SPLINE
  5
136
100
AcDbEntity
  8
Layer_1
 62
7
100
AcDbSpline
 70
8
 71
3
 72
8
 73
4
 74
0
 40
0
 40
0
 40
0
 40
0
 40
1
 40
1
 40
1
 40
1
 10
231.498360
 20
368.162449
 30
0.0
 10
231.498360
 20
396.738744
 30
0.0
 10
208.332689
 20
419.904373
 30
0.0
 10
179.756435
 20
419.904373
 30
0.0
  0
SPLINE
  5
137
100
AcDbEntity
  8
Layer_1
 62
7
100
AcDbSpline
 70
8
 71
3
 72
8
 73
4
 74
0
 40
0
 40
0
 40
0
 40
0
 40
1
 40
1
 40
1
 40
1
 10
179.756435
 20
419.904373
 30
0.0
 10
151.180140
 20
419.904373
 30
0.0
 10
128.014511
 20
396.738744
 30
0.0
 10
128.014511
 20
368.162449
 30
0.0
  0
SPLINE
  5
138
100
AcDbEntity
  8
Layer_1
 62
7
100
AcDbSpline
 70
8
 71
3
 72
8
 73
4
 74
0
 40
0
 40
0
 40
0
 40
0
 40
1
 40
1
 40
1
 40
1
 10
-244.222548
 20
178.911252
 30
0.0
 10
-244.222548
 20
176.707696
 30
0.0
 10
-242.436187
 20
174.921335
 30
0.0
 10
-240.232631
 20
174.921335
 30
0.0
  0
SPLINE
  5
139
100
AcDbEntity
  8
Layer_1
 62
7
100
AcDbSpline
 70
8
 71
3
 72
8
 73
4
 74
0
 40
0
 40
0
 40
0
 40
0
 40
1
 40
1
 40
1
 40
1
 10
-240.232631
 20
174.921335
 30
0.0
 10
-238.029075
 20
174.921335
 30
0.0
 10
-236.242713
 20
176.707696
 30
0.0
 10
-236.242713
 20
178.911252
 30
0.0
  0
SPLINE
  5
13a
100
AcDbEntity
  8
Layer_1
 62
7
100
AcDbSpline
 70
8
 71
3
 72
8
 73
4
 74
0
 40
0
 40
0
 40
0
 40
0
 40
1
 40
1
 40
1
 40
1
 10
-236.242713
 20
178.911252
 30
0.0
 10
-236.242713
 20
181.114808
 30
0.0
 10
-238.029075
 20
182.901169
 30
0.0
 10
-240.232631
 20
182.901169
 30
0.0
  0
SPLINE
  5
13b
100
AcDbEntity
  8
Layer_1
 62
7
100
AcDbSpline
 70
8
 71
3
 72
8
 73
4
 74
0
 40
0
 40
0
 40
0
 40
0
 40
1
 40
1
 40
1
 40
1
 10
-240.232631
 20
182.901169
 30
0.0
 10
-242.436187
 20
182.901169
 30
0.0
 10
-244.222548
 20
181.114808
 30
0.0
 10
-244.222548
 20
178.911252
 30
0.0
  0
SPLINE
  5
13c
100
AcDbEntity
  8
Layer_1
 62
7
100
AcDbSpline
 70
8
 71
3
 72
8
 73
4
 74
0
 40
0
 40
0
 40
0
 40
0
 40
1
 40
1
 40
1
 40
1
 10
58.016333
 20
228.166093
 30
0.0
 10
58.016333
 20
199.589798
 30
0.0
 10
81.181962
 20
176.424168
 30
0.0
 10
109.758258
 20
176.424168
 30
0.0
  0
SPLINE
  5
13d
100
AcDbEntity
  8
Layer_1
 62
7
100
AcDbSpline
 70
8
 71
3
 72
8
 73
4
 74
0
 40
0
 40
0
 40
0
 40
0
 40
1
 40
1
 40
1
 40
1
 10
109.758258
 20
176.424168
 30
0.0
 10
138.334553
 20
176.424168
 30
0.0
 10
161.500183
 20
199.589798
 30
0.0
 10
161.500183
 20
228.166093
 30
0.0
  0
SPLINE
  5
13e
100
AcDbEntity
  8
Layer_1
 62
7
100
AcDbSpline
 70
8
 71
3
 72
8
 73
4
 74
0
 40
0
 40
0
 40
0
 40
0
 40
1
 40
1
 40
1
 40
1
 10
161.500183
 20
228.166093
 30
0.0
 10
161.500183
 20
256.742389
 30
0.0
 10
138.334553
 20
279.908018
 30
0.0
 10
109.758258
 20
279.908018
 30
0.0
  0
SPLINE
  5
13f
100
AcDbEntity
  8
Layer_1
 62
7
100
AcDbSpline
 70
8
 71
3
 72
8
 73
4
 74
0
 40
0
 40
0
 40
0
 40
0
 40
1
 40
1
 40
1
 40
1
 10
109.758258
 20
279.908018
 30
0.0
 10
81.181962
 20
279.908018
 30
0.0
 10
58.016333
 20
256.742389
 30
0.0
 10
58.016333
 20
228.166093
 30
0.0
  0
SPLINE
  5
140
100
AcDbEntity
  8
Layer_1
 62
7
100
AcDbSpline
 70
8
 71
3
 72
8
 73
4
 74
0
 40
0
 40
0
 40
0
 40
0
 40
1
 40
1
 40
1
 40
1
 10
-221.976378
 20
228.166093
 30
0.0
 10
-221.976378
 20
199.589798
 30
0.0
 10
-198.810749
 20
176.424168
 30
0.0
 10
-170.234453
 20
176.424168
 30
0.0
  0
SPLINE
  5
141
100
AcDbEntity
  8
Layer_1
 62
7
100
AcDbSpline
 70
8
 71
3
 72
8
 73
4
 74
0
 40
0
 40
0
 40
0
 40
0
 40
1
 40
1
 40
1
 40
1
 10
-170.234453
 20
176.424168
 30
0.0
 10
-141.658157
 20
176.424168
 30
0.0
 10
-118.492528
 20
199.589798
 30
0.0
 10
-118.492528
 20
228.166093
 30
0.0
  0
SPLINE
  5
142
100
AcDbEntity
  8
Layer_1
 62
7
100
AcDbSpline
 70
8
 71
3
 72
8
 73
4
 74
0
 40
0
 40
0
 40
0
 40
0
 40
1
 40
1
 40
1
 40
1
 10
-118.492528
 20
228.166093
 30
0.0
 10
-118.492528
 20
256.742389
 30
0.0
 10
-141.658157
 20
279.908018
 30
0.0
 10
-170.234453
 20
279.908018
 30
0.0
  0
SPLINE
  5
143
100
AcDbEntity
  8
Layer_1
 62
7
100
AcDbSpline
 70
8
 71
3
 72
8
 73
4
 74
0
 40
0
 40
0
 40
0
 40
0
 40
1
 40
1
 40
1
 40
1
 10
-170.234453
 20
279.908018
 30
0.0
 10
-198.810749
 20
279.908018
 30
0.0
 10
-221.976378
 20
256.742389
 30
0.0
 10
-221.976378
 20
228.166093
 30
0.0
  0
SPLINE
  5
144
100
AcDbEntity
  8
Layer_1
 62
7
100
AcDbSpline
 70
8
 71
3
 72
8
 73
4
 74
0
 40
0
 40
0
 40
0
 40
0
 40
1
 40
1
 40
1
 40
1
 10
-81.980022
 20
228.166093
 30
0.0
 10
-81.980022
 20
199.589798
 30
0.0
 10
-58.814393
 20
176.424168
 30
0.0
 10
-30.238098
 20
176.424168
 30
0.0
  0
SPLINE
  5
145
100
AcDbEntity
  8
Layer_1
 62
7
100
AcDbSpline
 70
8
 71
3
 72
8
 73
4
 74
0
 40
0
 40
0
 40
0
 40
0
 40
1
 40
1
 40
1
 40
1
 10
-30.238098
 20
176.424168
 30
0.0
 10
-1.661802
 20
176.424168
 30
0.0
 10
21.503827
 20
199.589798
 30
0.0
 10
21.503827
 20
228.166093
 30
0.0
  0
SPLINE
  5
146
100
AcDbEntity
  8
Layer_1
 62
7
100
AcDbSpline
 70
8
 71
3
 72
8
 73
4
 74
0
 40
0
 40
0
 40
0
 40
0
 40
1
 40
1
 40
1
 40
1
 10
21.503827
 20
228.166093
 30
0.0
 10
21.503827
 20
256.742389
 30
0.0
 10
-1.661802
 20
279.908018
 30
0.0
 10
-30.238098
 20
279.908018
 30
0.0
  0
SPLINE
  5
147
100
AcDbEntity
  8
Layer_1
 62
7
100
AcDbSpline
 70
8
 71
3
 72
8
 73
4
 74
0
 40
0
 40
0
 40
0
 40
0
 40
1
 40
1
 40
1
 40
1
 10
-30.238098
 20
279.908018
 30
0.0
 10
-58.814393
 20
279.908018
 30
0.0
 10
-81.980022
 20
256.742389
 30
0.0
 10
-81.980022
 20
228.166093
 30
0.0
  0
LWPOLYLINE
  5
148
100
AcDbEntity
  8
Layer_1
 62
7
100
AcDbPolyline
 90
4
 70
1
 10
9.756325
 20
294.153187
 30
0.0
 10
-70.253687
 20
294.153187
 30
0.0
 10
-70.253687
 20
302.154188
 30
0.0
 10
9.756325
 20
302.154188
 30
0.0
  0
SPLINE
  5
149
100
AcDbEntity
  8
Layer_1
 62
7
100
AcDbSpline
 70
8
 71
3
 72
8
 73
4
 74
0
 40
0
 40
0
 40
0
 40
0
 40
1
 40
1
 40
1
 40
1
 10
249.754613
 20
158.919332
 30
0.0
 10
273.753976
 20
158.919332
 30
0.0
 10
296.042162
 20
171.345797
 30
0.0
 10
308.659381
 20
191.760860
 30
0.0
  0
SPLINE
  5
14a
100
AcDbEntity
  8
Layer_1
 62
7
100
AcDbSpline
 70
8
 71
3
 72
8
 73
4
 74
0
 40
0
 40
0
 40
0
 40
0
 40
1
 40
1
 40
1
 40
1
 10
308.659381
 20
191.760860
 30
0.0
 10
321.276622
 20
212.175923
 30
0.0
 10
322.423686
 20
237.668362
 30
0.0
 10
311.690851
 20
259.134053
 30
0.0
  0
LWPOLYLINE
  5
14b
100
AcDbEntity
  8
Layer_1
 62
7
100
AcDbPolyline
 90
2
 70
0
 10
311.698873
 20
259.122348
 30
0.0
 10
241.679528
 20
399.118704
 30
0.0
  0
SPLINE
  5
14c
100
AcDbEntity
  8
Layer_1
 62
7
100
AcDbSpline
 70
8
 71
3
 72
8
 73
4
 74
0
 40
0
 40
0
 40
0
 40
0
 40
1
 40
1
 40
1
 40
1
 10
-372.167059
 20
259.134053
 30
0.0
 10
-382.899852
 20
237.668362
 30
0.0
 10
-381.752811
 20
212.175923
 30
0.0
 10
-369.135583
 20
191.760860
 30
0.0
  0
SPLINE
  5
14d
100
AcDbEntity
  8
Layer_1
 62
7
100
AcDbSpline
 70
8
 71
3
 72
8
 73
4
 74
0
 40
0
 40
0
 40
0
 40
0
 40
1
 40
1
 40
1
 40
1
 10
-369.135583
 20
191.760860
 30
0.0
 10
-356.518358
 20
171.345797
 30
0.0
 10
-334.230163
 20
158.919332
 30
0.0
 10
-310.230808
 20
158.919332
 30
0.0
  0
LWPOLYLINE
  5
14e
100
AcDbEntity
  8
Layer_1
 62
7
100
AcDbPolyline
 90
2
 70
0
 10
-310.241392
 20
158.898166
 30
0.0
 10
249.744030
 20
158.898166
 30
0.0
  0
SPLINE
  5
14f
100
AcDbEntity
  8
Layer_1
 62
7
100
AcDbSpline
 70
8
 71
3
 72
8
 73
4
 74
0
 40
0
 40
0
 40
0
 40
0
 40
1
 40
1
 40
1
 40
1
 10
-240.232631
 20
437.409210
 30
0.0
 10
-266.461416
 20
437.409210
 30
0.0
 10
-290.439041
 20
422.590191
 30
0.0
 10
-302.168870
 20
399.130409
 30
0.0
  0
LWPOLYLINE
  5
150
100
AcDbEntity
  8
Layer_1
 62
7
100
AcDbPolyline
 90
2
 70
0
 10
-302.176891
 20
399.118704
 30
0.0
 10
-372.196235
 20
259.122348
 30
0.0
  0
SPLINE
  5
151
100
AcDbEntity
  8
Layer_1
 62
7
100
AcDbSpline
 70
8
 71
3
 72
8
 73
4
 74
0
 40
0
 40
0
 40
0
 40
0
 40
1
 40
1
 40
1
 40
1
 10
241.692673
 20
399.130409
 30
0.0
 10
229.962866
 20
422.590191
 30
0.0
 10
205.985242
 20
437.409210
 30
0.0
 10
179.756435
 20
437.409210
 30
0.0
  0
LWPOLYLINE
  5
152
100
AcDbEntity
  8
Layer_1
 62
7
100
AcDbPolyline
 90
2
 70
0
 10
179.745852
 20
437.388043
 30
0.0
 10
-240.243214
 20
437.388043
 30
0.0
  0
SPLINE
  5
153
100
AcDbEntity
  8
Layer_1
 62
7
100
AcDbSpline
 70
8
 71
3
 72
8
 73
4
 74
0
 40
0
 40
0
 40
0
 40
0
 40
1
 40
1
 40
1
 40
1
 10
-166.734136
 20
-27.962947
 30
0.0
 10
-166.683034
 20
-26.679174
 30
0.0
 10
-167.338792
 20
-25.470432
 30
0.0
 10
-168.442837
 20
-24.813340
 30
0.0
  0
SPLINE
  5
154
100
AcDbEntity
  8
Layer_1
 62
7
100
AcDbSpline
 70
8
 71
3
 72
8
 73
4
 74
0
 40
0
 40
0
 40
0
 40
0
 40
1
 40
1
 40
1
 40
1
 10
-168.442837
 20
-24.813340
 30
0.0
 10
-169.546882
 20
-24.156249
 30
0.0
 10
-170.922045
 20
-24.156253
 30
0.0
 10
-172.026086
 20
-24.813351
 30
0.0
  0
SPLINE
  5
155
100
AcDbEntity
  8
Layer_1
 62
7
100
AcDbSpline
 70
8
 71
3
 72
8
 73
4
 74
0
 40
0
 40
0
 40
0
 40
0
 40
1
 40
1
 40
1
 40
1
 10
-172.026086
 20
-24.813351
 30
0.0
 10
-173.130128
 20
-25.470448
 30
0.0
 10
-173.785878
 20
-26.679194
 30
0.0
 10
-173.734770
 20
-27.962966
 30
0.0
  0
SPLINE
  5
156
100
AcDbEntity
  8
Layer_1
 62
7
100
AcDbSpline
 70
8
 71
3
 72
8
 73
4
 74
0
 40
0
 40
0
 40
0
 40
0
 40
1
 40
1
 40
1
 40
1
 10
-173.731754
 20
-27.952067
 30
0.0
 10
-196.600786
 20
-29.775763
 30
0.0
 10
-214.229607
 20
-48.866395
 30
0.0
 10
-214.229565
 20
-71.808027
 30
0.0
  0
SPLINE
  5
157
100
AcDbEntity
  8
Layer_1
 62
7
100
AcDbSpline
 70
8
 71
3
 72
8
 73
4
 74
0
 40
0
 40
0
 40
0
 40
0
 40
1
 40
1
 40
1
 40
1
 10
-214.229565
 20
-71.808027
 30
0.0
 10
-214.229529
 20
-94.749659
 30
0.0
 10
-196.600648
 20
-113.840231
 30
0.0
 10
-173.731610
 20
-115.663854
 30
0.0
  0
SPLINE
  5
158
100
AcDbEntity
  8
Layer_1
 62
7
100
AcDbSpline
 70
8
 71
3
 72
8
 73
4
 74
0
 40
0
 40
0
 40
0
 40
0
 40
1
 40
1
 40
1
 40
1
 10
-173.734770
 20
-115.674128
 30
0.0
 10
-173.785872
 20
-116.957901
 30
0.0
 10
-173.130114
 20
-118.166643
 30
0.0
 10
-172.026069
 20
-118.823734
 30
0.0
  0
SPLINE
  5
159
100
AcDbEntity
  8
Layer_1
 62
7
100
AcDbSpline
 70
8
 71
3
 72
8
 73
4
 74
0
 40
0
 40
0
 40
0
 40
0
 40
1
 40
1
 40
1
 40
1
 10
-172.026069
 20
-118.823734
 30
0.0
 10
-170.922024
 20
-119.480826
 30
0.0
 10
-169.546861
 20
-119.480822
 30
0.0
 10
-168.442820
 20
-118.823724
 30
0.0
  0
SPLINE
  5
15a
100
AcDbEntity
  8
Layer_1
 62
7
100
AcDbSpline
 70
8
 71
3
 72
8
 73
4
 74
0
 40
0
 40
0
 40
0
 40
0
 40
1
 40
1
 40
1
 40
1
 10
-168.442820
 20
-118.823724
 30
0.0
 10
-167.338779
 20
-118.166626
 30
0.0
 10
-166.683028
 20
-116.957881
 30
0.0
 10
-166.734137
 20
-115.674108
 30
0.0
  0
SPLINE
  5
15b
100
AcDbEntity
  8
Layer_1
 62
7
100
AcDbSpline
 70
8
 71
3
 72
8
 73
4
 74
0
 40
0
 40
0
 40
0
 40
0
 40
1
 40
1
 40
1
 40
1
 10
-166.737152
 20
-115.663841
 30
0.0
 10
-143.868121
 20
-113.840145
 30
0.0
 10
-126.239299
 20
-94.749513
 30
0.0
 10
-126.239342
 20
-71.807881
 30
0.0
  0
SPLINE
  5
15c
100
AcDbEntity
  8
Layer_1
 62
7
100
AcDbSpline
 70
8
 71
3
 72
8
 73
4
 74
0
 40
0
 40
0
 40
0
 40
0
 40
1
 40
1
 40
1
 40
1
 10
-126.239342
 20
-71.807881
 30
0.0
 10
-126.239378
 20
-48.866248
 30
0.0
 10
-143.868258
 20
-29.775677
 30
0.0
 10
-166.737297
 20
-27.952054
 30
0.0
  0
SPLINE
  5
15d
100
AcDbEntity
  8
Layer_1
 62
7
100
AcDbSpline
 70
8
 71
3
 72
8
 73
4
 74
0
 40
0
 40
0
 40
0
 40
0
 40
1
 40
1
 40
1
 40
1
 10
113.258575
 20
-27.962947
 30
0.0
 10
113.309677
 20
-26.679174
 30
0.0
 10
112.653919
 20
-25.470432
 30
0.0
 10
111.549874
 20
-24.813340
 30
0.0
  0
SPLINE
  5
15e
100
AcDbEntity
  8
Layer_1
 62
7
100
AcDbSpline
 70
8
 71
3
 72
8
 73
4
 74
0
 40
0
 40
0
 40
0
 40
0
 40
1
 40
1
 40
1
 40
1
 10
111.549874
 20
-24.813340
 30
0.0
 10
110.445829
 20
-24.156249
 30
0.0
 10
109.070666
 20
-24.156253
 30
0.0
 10
107.966624
 20
-24.813351
 30
0.0
  0
SPLINE
  5
15f
100
AcDbEntity
  8
Layer_1
 62
7
100
AcDbSpline
 70
8
 71
3
 72
8
 73
4
 74
0
 40
0
 40
0
 40
0
 40
0
 40
1
 40
1
 40
1
 40
1
 10
107.966624
 20
-24.813351
 30
0.0
 10
106.862583
 20
-25.470448
 30
0.0
 10
106.206832
 20
-26.679194
 30
0.0
 10
106.257941
 20
-27.962966
 30
0.0
  0
SPLINE
  5
160
100
AcDbEntity
  8
Layer_1
 62
7
100
AcDbSpline
 70
8
 71
3
 72
8
 73
4
 74
0
 40
0
 40
0
 40
0
 40
0
 40
1
 40
1
 40
1
 40
1
 10
106.260956
 20
-27.952067
 30
0.0
 10
83.391925
 20
-29.775763
 30
0.0
 10
65.763104
 20
-48.866395
 30
0.0
 10
65.763146
 20
-71.808027
 30
0.0
  0
SPLINE
  5
161
100
AcDbEntity
  8
Layer_1
 62
7
100
AcDbSpline
 70
8
 71
3
 72
8
 73
4
 74
0
 40
0
 40
0
 40
0
 40
0
 40
1
 40
1
 40
1
 40
1
 10
65.763146
 20
-71.808027
 30
0.0
 10
65.763182
 20
-94.749659
 30
0.0
 10
83.392063
 20
-113.840231
 30
0.0
 10
106.261101
 20
-115.663854
 30
0.0
  0
SPLINE
  5
162
100
AcDbEntity
  8
Layer_1
 62
7
100
AcDbSpline
 70
8
 71
3
 72
8
 73
4
 74
0
 40
0
 40
0
 40
0
 40
0
 40
1
 40
1
 40
1
 40
1
 10
106.257940
 20
-115.674128
 30
0.0
 10
106.206839
 20
-116.957901
 30
0.0
 10
106.862596
 20
-118.166643
 30
0.0
 10
107.966641
 20
-118.823734
 30
0.0
  0
SPLINE
  5
163
100
AcDbEntity
  8
Layer_1
 62
7
100
AcDbSpline
 70
8
 71
3
 72
8
 73
4
 74
0
 40
0
 40
0
 40
0
 40
0
 40
1
 40
1
 40
1
 40
1
 10
107.966641
 20
-118.823734
 30
0.0
 10
109.070686
 20
-119.480826
 30
0.0
 10
110.445850
 20
-119.480822
 30
0.0
 10
111.549891
 20
-118.823724
 30
0.0
  0
SPLINE
  5
164
100
AcDbEntity
  8
Layer_1
 62
7
100
AcDbSpline
 70
8
 71
3
 72
8
 73
4
 74
0
 40
0
 40
0
 40
0
 40
0
 40
1
 40
1
 40
1
 40
1
 10
111.549891
 20
-118.823724
 30
0.0
 10
112.653932
 20
-118.166626
 30
0.0
 10
113.309683
 20
-116.957881
 30
0.0
 10
113.258574
 20
-115.674108
 30
0.0
  0
SPLINE
  5
165
100
AcDbEntity
  8
Layer_1
 62
7
100
AcDbSpline
 70
8
 71
3
 72
8
 73
4
 74
0
 40
0
 40
0
 40
0
 40
0
 40
1
 40
1
 40
1
 40
1
 10
113.255559
 20
-115.663841
 30
0.0
 10
136.124590
 20
-113.840145
 30
0.0
 10
153.753412
 20
-94.749513
 30
0.0
 10
153.753369
 20
-71.807881
 30
0.0
  0
SPLINE
  5
166
100
AcDbEntity
  8
Layer_1
 62
7
100
AcDbSpline
 70
8
 71
3
 72
8
 73
4
 74
0
 40
0
 40
0
 40
0
 40
0
 40
1
 40
1
 40
1
 40
1
 10
153.753369
 20
-71.807881
 30
0.0
 10
153.753333
 20
-48.866248
 30
0.0
 10
136.124452
 20
-29.775677
 30
0.0
 10
113.255414
 20
-27.952054
 30
0.0
  0
SPLINE
  5
167
100
AcDbEntity
  8
Layer_1
 62
7
100
AcDbSpline
 70
8
 71
3
 72
8
 73
4
 74
0
 40
0
 40
0
 40
0
 40
0
 40
1
 40
1
 40
1
 40
1
 10
-96.738974
 20
24.311348
 30
0.0
 10
-73.869943
 20
26.135044
 30
0.0
 10
-56.241122
 20
45.225676
 30
0.0
 10
-56.241164
 20
68.167308
 30
0.0
  0
SPLINE
  5
168
100
AcDbEntity
  8
Layer_1
 62
7
100
AcDbSpline
 70
8
 71
3
 72
8
 73
4
 74
0
 40
0
 40
0
 40
0
 40
0
 40
1
 40
1
 40
1
 40
1
 10
-56.241164
 20
68.167308
 30
0.0
 10
-56.241200
 20
91.108940
 30
0.0
 10
-73.870081
 20
110.199512
 30
0.0
 10
-96.739119
 20
112.023134
 30
0.0
  0
SPLINE
  5
169
100
AcDbEntity
  8
Layer_1
 62
7
100
AcDbSpline
 70
8
 71
3
 72
8
 73
4
 74
0
 40
0
 40
0
 40
0
 40
0
 40
1
 40
1
 40
1
 40
1
 10
-96.735958
 20
112.033409
 30
0.0
 10
-96.684856
 20
113.317182
 30
0.0
 10
-97.340614
 20
114.525923
 30
0.0
 10
-98.444659
 20
115.183015
 30
0.0
  0
SPLINE
  5
16a
100
AcDbEntity
  8
Layer_1
 62
7
100
AcDbSpline
 70
8
 71
3
 72
8
 73
4
 74
0
 40
0
 40
0
 40
0
 40
0
 40
1
 40
1
 40
1
 40
1
 10
-98.444659
 20
115.183015
 30
0.0
 10
-99.548704
 20
115.840107
 30
0.0
 10
-100.923867
 20
115.840103
 30
0.0
 10
-102.027909
 20
115.183005
 30
0.0
  0
SPLINE
  5
16b
100
AcDbEntity
  8
Layer_1
 62
7
100
AcDbSpline
 70
8
 71
3
 72
8
 73
4
 74
0
 40
0
 40
0
 40
0
 40
0
 40
1
 40
1
 40
1
 40
1
 10
-102.027909
 20
115.183005
 30
0.0
 10
-103.131950
 20
114.525907
 30
0.0
 10
-103.787701
 20
113.317162
 30
0.0
 10
-103.736592
 20
112.033389
 30
0.0
  0
SPLINE
  5
16c
100
AcDbEntity
  8
Layer_1
 62
7
100
AcDbSpline
 70
8
 71
3
 72
8
 73
4
 74
0
 40
0
 40
0
 40
0
 40
0
 40
1
 40
1
 40
1
 40
1
 10
-103.733577
 20
112.023121
 30
0.0
 10
-126.602608
 20
110.199426
 30
0.0
 10
-144.231429
 20
91.108793
 30
0.0
 10
-144.231387
 20
68.167162
 30
0.0
  0
SPLINE
  5
16d
100
AcDbEntity
  8
Layer_1
 62
7
100
AcDbSpline
 70
8
 71
3
 72
8
 73
4
 74
0
 40
0
 40
0
 40
0
 40
0
 40
1
 40
1
 40
1
 40
1
 10
-144.231387
 20
68.167162
 30
0.0
 10
-144.231351
 20
45.225529
 30
0.0
 10
-126.602470
 20
26.134958
 30
0.0
 10
-103.733432
 20
24.311335
 30
0.0
  0
SPLINE
  5
16e
100
AcDbEntity
  8
Layer_1
 62
7
100
AcDbSpline
 70
8
 71
3
 72
8
 73
4
 74
0
 40
0
 40
0
 40
0
 40
0
 40
1
 40
1
 40
1
 40
1
 10
-103.736593
 20
24.322227
 30
0.0
 10
-103.787694
 20
23.038454
 30
0.0
 10
-103.131937
 20
21.829713
 30
0.0
 10
-102.027892
 20
21.172621
 30
0.0
  0
SPLINE
  5
16f
100
AcDbEntity
  8
Layer_1
 62
7
100
AcDbSpline
 70
8
 71
3
 72
8
 73
4
 74
0
 40
0
 40
0
 40
0
 40
0
 40
1
 40
1
 40
1
 40
1
 10
-102.027892
 20
21.172621
 30
0.0
 10
-100.923847
 20
20.515530
 30
0.0
 10
-99.548684
 20
20.515533
 30
0.0
 10
-98.444642
 20
21.172631
 30
0.0
  0
SPLINE
  5
170
100
AcDbEntity
  8
Layer_1
 62
7
100
AcDbSpline
 70
8
 71
3
 72
8
 73
4
 74
0
 40
0
 40
0
 40
0
 40
0
 40
1
 40
1
 40
1
 40
1
 10
-98.444642
 20
21.172631
 30
0.0
 10
-97.340601
 20
21.829729
 30
0.0
 10
-96.684850
 20
23.038474
 30
0.0
 10
-96.735959
 20
24.322247
 30
0.0
  0
SPLINE
  5
171
100
AcDbEntity
  8
Layer_1
 62
7
100
AcDbSpline
 70
8
 71
3
 72
8
 73
4
 74
0
 40
0
 40
0
 40
0
 40
0
 40
1
 40
1
 40
1
 40
1
 10
-26.737780
 20
-27.962947
 30
0.0
 10
-26.686679
 20
-26.679174
 30
0.0
 10
-27.342436
 20
-25.470432
 30
0.0
 10
-28.446481
 20
-24.813340
 30
0.0
  0
SPLINE
  5
172
100
AcDbEntity
  8
Layer_1
 62
7
100
AcDbSpline
 70
8
 71
3
 72
8
 73
4
 74
0
 40
0
 40
0
 40
0
 40
0
 40
1
 40
1
 40
1
 40
1
 10
-28.446481
 20
-24.813340
 30
0.0
 10
-29.550526
 20
-24.156249
 30
0.0
 10
-30.925690
 20
-24.156253
 30
0.0
 10
-32.029731
 20
-24.813351
 30
0.0
  0
SPLINE
  5
173
100
AcDbEntity
  8
Layer_1
 62
7
100
AcDbSpline
 70
8
 71
3
 72
8
 73
4
 74
0
 40
0
 40
0
 40
0
 40
0
 40
1
 40
1
 40
1
 40
1
 10
-32.029731
 20
-24.813351
 30
0.0
 10
-33.133772
 20
-25.470448
 30
0.0
 10
-33.789523
 20
-26.679194
 30
0.0
 10
-33.738414
 20
-27.962966
 30
0.0
  0
SPLINE
  5
174
100
AcDbEntity
  8
Layer_1
 62
7
100
AcDbSpline
 70
8
 71
3
 72
8
 73
4
 74
0
 40
0
 40
0
 40
0
 40
0
 40
1
 40
1
 40
1
 40
1
 10
-33.735399
 20
-27.952067
 30
0.0
 10
-56.604430
 20
-29.775763
 30
0.0
 10
-74.233252
 20
-48.866395
 30
0.0
 10
-74.233209
 20
-71.808027
 30
0.0
  0
SPLINE
  5
175
100
AcDbEntity
  8
Layer_1
 62
7
100
AcDbSpline
 70
8
 71
3
 72
8
 73
4
 74
0
 40
0
 40
0
 40
0
 40
0
 40
1
 40
1
 40
1
 40
1
 10
-74.233209
 20
-71.808027
 30
0.0
 10
-74.233173
 20
-94.749659
 30
0.0
 10
-56.604292
 20
-113.840231
 30
0.0
 10
-33.735254
 20
-115.663854
 30
0.0
  0
SPLINE
  5
176
100
AcDbEntity
  8
Layer_1
 62
7
100
AcDbSpline
 70
8
 71
3
 72
8
 73
4
 74
0
 40
0
 40
0
 40
0
 40
0
 40
1
 40
1
 40
1
 40
1
 10
-33.738415
 20
-115.674128
 30
0.0
 10
-33.789517
 20
-116.957901
 30
0.0
 10
-33.133759
 20
-118.166643
 30
0.0
 10
-32.029714
 20
-118.823734
 30
0.0
  0
SPLINE
  5
177
100
AcDbEntity
  8
Layer_1
 62
7
100
AcDbSpline
 70
8
 71
3
 72
8
 73
4
 74
0
 40
0
 40
0
 40
0
 40
0
 40
1
 40
1
 40
1
 40
1
 10
-32.029714
 20
-118.823734
 30
0.0
 10
-30.925669
 20
-119.480826
 30
0.0
 10
-29.550506
 20
-119.480822
 30
0.0
 10
-28.446464
 20
-118.823724
 30
0.0
  0
SPLINE
  5
178
100
AcDbEntity
  8
Layer_1
 62
7
100
AcDbSpline
 70
8
 71
3
 72
8
 73
4
 74
0
 40
0
 40
0
 40
0
 40
0
 40
1
 40
1
 40
1
 40
1
 10
-28.446464
 20
-118.823724
 30
0.0
 10
-27.342423
 20
-118.166626
 30
0.0
 10
-26.686672
 20
-116.957881
 30
0.0
 10
-26.737781
 20
-115.674108
 30
0.0
  0
SPLINE
  5
179
100
AcDbEntity
  8
Layer_1
 62
7
100
AcDbSpline
 70
8
 71
3
 72
8
 73
4
 74
0
 40
0
 40
0
 40
0
 40
0
 40
1
 40
1
 40
1
 40
1
 10
-26.740796
 20
-115.663841
 30
0.0
 10
-3.871765
 20
-113.840145
 30
0.0
 10
13.757056
 20
-94.749513
 30
0.0
 10
13.757014
 20
-71.807881
 30
0.0
  0
SPLINE
  5
17a
100
AcDbEntity
  8
Layer_1
 62
7
100
AcDbSpline
 70
8
 71
3
 72
8
 73
4
 74
0
 40
0
 40
0
 40
0
 40
0
 40
1
 40
1
 40
1
 40
1
 10
13.757014
 20
-71.807881
 30
0.0
 10
13.756978
 20
-48.866248
 30
0.0
 10
-3.871903
 20
-29.775677
 30
0.0
 10
-26.740941
 20
-27.952054
 30
0.0
  0
SPLINE
  5
17b
100
AcDbEntity
  8
Layer_1
 62
7
100
AcDbSpline
 70
8
 71
3
 72
8
 73
4
 74
0
 40
0
 40
0
 40
0
 40
0
 40
1
 40
1
 40
1
 40
1
 10
-243.729932
 20
112.023121
 30
0.0
 10
-266.598963
 20
110.199426
 30
0.0
 10
-284.227785
 20
91.108793
 30
0.0
 10
-284.227742
 20
68.167162
 30
0.0
  0
SPLINE
  5
17c
100
AcDbEntity
  8
Layer_1
 62
7
100
AcDbSpline
 70
8
 71
3
 72
8
 73
4
 74
0
 40
0
 40
0
 40
0
 40
0
 40
1
 40
1
 40
1
 40
1
 10
-284.227742
 20
68.167162
 30
0.0
 10
-284.227706
 20
45.225529
 30
0.0
 10
-266.598825
 20
26.134958
 30
0.0
 10
-243.729787
 20
24.311335
 30
0.0
  0
SPLINE
  5
17d
100
AcDbEntity
  8
Layer_1
 62
7
100
AcDbSpline
 70
8
 71
3
 72
8
 73
4
 74
0
 40
0
 40
0
 40
0
 40
0
 40
1
 40
1
 40
1
 40
1
 10
-243.732948
 20
24.322227
 30
0.0
 10
-243.784050
 20
23.038454
 30
0.0
 10
-243.128292
 20
21.829713
 30
0.0
 10
-242.024247
 20
21.172621
 30
0.0
  0
SPLINE
  5
17e
100
AcDbEntity
  8
Layer_1
 62
7
100
AcDbSpline
 70
8
 71
3
 72
8
 73
4
 74
0
 40
0
 40
0
 40
0
 40
0
 40
1
 40
1
 40
1
 40
1
 10
-242.024247
 20
21.172621
 30
0.0
 10
-240.920202
 20
20.515530
 30
0.0
 10
-239.545039
 20
20.515533
 30
0.0
 10
-238.440997
 20
21.172631
 30
0.0
  0
SPLINE
  5
17f
100
AcDbEntity
  8
Layer_1
 62
7
100
AcDbSpline
 70
8
 71
3
 72
8
 73
4
 74
0
 40
0
 40
0
 40
0
 40
0
 40
1
 40
1
 40
1
 40
1
 10
-238.440997
 20
21.172631
 30
0.0
 10
-237.336956
 20
21.829729
 30
0.0
 10
-236.681205
 20
23.038474
 30
0.0
 10
-236.732314
 20
24.322247
 30
0.0
  0
SPLINE
  5
180
100
AcDbEntity
  8
Layer_1
 62
7
100
AcDbSpline
 70
8
 71
3
 72
8
 73
4
 74
0
 40
0
 40
0
 40
0
 40
0
 40
1
 40
1
 40
1
 40
1
 10
-236.735330
 20
24.311348
 30
0.0
 10
-213.866298
 20
26.135044
 30
0.0
 10
-196.237477
 20
45.225676
 30
0.0
 10
-196.237519
 20
68.167308
 30
0.0
  0
SPLINE
  5
181
100
AcDbEntity
  8
Layer_1
 62
7
100
AcDbSpline
 70
8
 71
3
 72
8
 73
4
 74
0
 40
0
 40
0
 40
0
 40
0
 40
1
 40
1
 40
1
 40
1
 10
-196.237519
 20
68.167308
 30
0.0
 10
-196.237555
 20
91.108940
 30
0.0
 10
-213.866436
 20
110.199512
 30
0.0
 10
-236.735474
 20
112.023134
 30
0.0
  0
SPLINE
  5
182
100
AcDbEntity
  8
Layer_1
 62
7
100
AcDbSpline
 70
8
 71
3
 72
8
 73
4
 74
0
 40
0
 40
0
 40
0
 40
0
 40
1
 40
1
 40
1
 40
1
 10
-236.732313
 20
112.033409
 30
0.0
 10
-236.681212
 20
113.317182
 30
0.0
 10
-237.336969
 20
114.525923
 30
0.0
 10
-238.441014
 20
115.183015
 30
0.0
  0
SPLINE
  5
183
100
AcDbEntity
  8
Layer_1
 62
7
100
AcDbSpline
 70
8
 71
3
 72
8
 73
4
 74
0
 40
0
 40
0
 40
0
 40
0
 40
1
 40
1
 40
1
 40
1
 10
-238.441014
 20
115.183015
 30
0.0
 10
-239.545059
 20
115.840107
 30
0.0
 10
-240.920223
 20
115.840103
 30
0.0
 10
-242.024264
 20
115.183005
 30
0.0
  0
SPLINE
  5
184
100
AcDbEntity
  8
Layer_1
 62
7
100
AcDbSpline
 70
8
 71
3
 72
8
 73
4
 74
0
 40
0
 40
0
 40
0
 40
0
 40
1
 40
1
 40
1
 40
1
 10
-242.024264
 20
115.183005
 30
0.0
 10
-243.128305
 20
114.525907
 30
0.0
 10
-243.784056
 20
113.317162
 30
0.0
 10
-243.732947
 20
112.033389
 30
0.0
  0
SPLINE
  5
185
100
AcDbEntity
  8
Layer_1
 62
7
100
AcDbSpline
 70
8
 71
3
 72
8
 73
4
 74
0
 40
0
 40
0
 40
0
 40
0
 40
1
 40
1
 40
1
 40
1
 10
43.257381
 20
24.311348
 30
0.0
 10
66.126413
 20
26.135044
 30
0.0
 10
83.755234
 20
45.225676
 30
0.0
 10
83.755191
 20
68.167308
 30
0.0
  0
SPLINE
  5
186
100
AcDbEntity
  8
Layer_1
 62
7
100
AcDbSpline
 70
8
 71
3
 72
8
 73
4
 74
0
 40
0
 40
0
 40
0
 40
0
 40
1
 40
1
 40
1
 40
1
 10
83.755191
 20
68.167308
 30
0.0
 10
83.755156
 20
91.108940
 30
0.0
 10
66.126275
 20
110.199512
 30
0.0
 10
43.257236
 20
112.023134
 30
0.0
  0
SPLINE
  5
187
100
AcDbEntity
  8
Layer_1
 62
7
100
AcDbSpline
 70
8
 71
3
 72
8
 73
4
 74
0
 40
0
 40
0
 40
0
 40
0
 40
1
 40
1
 40
1
 40
1
 10
43.260397
 20
112.033409
 30
0.0
 10
43.311499
 20
113.317182
 30
0.0
 10
42.655741
 20
114.525923
 30
0.0
 10
41.551696
 20
115.183015
 30
0.0
  0
SPLINE
  5
188
100
AcDbEntity
  8
Layer_1
 62
7
100
AcDbSpline
 70
8
 71
3
 72
8
 73
4
 74
0
 40
0
 40
0
 40
0
 40
0
 40
1
 40
1
 40
1
 40
1
 10
41.551696
 20
115.183015
 30
0.0
 10
40.447651
 20
115.840107
 30
0.0
 10
39.072488
 20
115.840103
 30
0.0
 10
37.968447
 20
115.183005
 30
0.0
  0
SPLINE
  5
189
100
AcDbEntity
  8
Layer_1
 62
7
100
AcDbSpline
 70
8
 71
3
 72
8
 73
4
 74
0
 40
0
 40
0
 40
0
 40
0
 40
1
 40
1
 40
1
 40
1
 10
37.968447
 20
115.183005
 30
0.0
 10
36.864405
 20
114.525907
 30
0.0
 10
36.208655
 20
113.317162
 30
0.0
 10
36.259764
 20
112.033389
 30
0.0
  0
SPLINE
  5
18a
100
AcDbEntity
  8
Layer_1
 62
7
100
AcDbSpline
 70
8
 71
3
 72
8
 73
4
 74
0
 40
0
 40
0
 40
0
 40
0
 40
1
 40
1
 40
1
 40
1
 10
36.262779
 20
112.023121
 30
0.0
 10
13.393747
 20
110.199426
 30
0.0
 10
-4.235074
 20
91.108793
 30
0.0
 10
-4.235031
 20
68.167162
 30
0.0
  0
SPLINE
  5
18b
100
AcDbEntity
  8
Layer_1
 62
7
100
AcDbSpline
 70
8
 71
3
 72
8
 73
4
 74
0
 40
0
 40
0
 40
0
 40
0
 40
1
 40
1
 40
1
 40
1
 10
-4.235031
 20
68.167162
 30
0.0
 10
-4.234995
 20
45.225529
 30
0.0
 10
13.393885
 20
26.134958
 30
0.0
 10
36.262924
 20
24.311335
 30
0.0
  0
SPLINE
  5
18c
100
AcDbEntity
  8
Layer_1
 62
7
100
AcDbSpline
 70
8
 71
3
 72
8
 73
4
 74
0
 40
0
 40
0
 40
0
 40
0
 40
1
 40
1
 40
1
 40
1
 10
36.259763
 20
24.322227
 30
0.0
 10
36.208661
 20
23.038454
 30
0.0
 10
36.864419
 20
21.829713
 30
0.0
 10
37.968464
 20
21.172621
 30
0.0
  0
SPLINE
  5
18d
100
AcDbEntity
  8
Layer_1
 62
7
100
AcDbSpline
 70
8
 71
3
 72
8
 73
4
 74
0
 40
0
 40
0
 40
0
 40
0
 40
1
 40
1
 40
1
 40
1
 10
37.968464
 20
21.172621
 30
0.0
 10
39.072509
 20
20.515530
 30
0.0
 10
40.447672
 20
20.515533
 30
0.0
 10
41.551713
 20
21.172631
 30
0.0
  0
SPLINE
  5
18e
100
AcDbEntity
  8
Layer_1
 62
7
100
AcDbSpline
 70
8
 71
3
 72
8
 73
4
 74
0
 40
0
 40
0
 40
0
 40
0
 40
1
 40
1
 40
1
 40
1
 10
41.551713
 20
21.172631
 30
0.0
 10
42.655755
 20
21.829729
 30
0.0
 10
43.311505
 20
23.038474
 30
0.0
 10
43.260396
 20
24.322247
 30
0.0
  0
SPLINE
  5
18f
100
AcDbEntity
  8
Layer_1
 62
7
100
AcDbSpline
 70
8
 71
3
 72
8
 73
4
 74
0
 40
0
 40
0
 40
0
 40
0
 40
1
 40
1
 40
1
 40
1
 10
183.253737
 20
24.311348
 30
0.0
 10
206.122768
 20
26.135044
 30
0.0
 10
223.751589
 20
45.225676
 30
0.0
 10
223.751547
 20
68.167308
 30
0.0
  0
SPLINE
  5
190
100
AcDbEntity
  8
Layer_1
 62
7
100
AcDbSpline
 70
8
 71
3
 72
8
 73
4
 74
0
 40
0
 40
0
 40
0
 40
0
 40
1
 40
1
 40
1
 40
1
 10
223.751547
 20
68.167308
 30
0.0
 10
223.751511
 20
91.108940
 30
0.0
 10
206.122630
 20
110.199512
 30
0.0
 10
183.253592
 20
112.023134
 30
0.0
  0
SPLINE
  5
191
100
AcDbEntity
  8
Layer_1
 62
7
100
AcDbSpline
 70
8
 71
3
 72
8
 73
4
 74
0
 40
0
 40
0
 40
0
 40
0
 40
1
 40
1
 40
1
 40
1
 10
183.256753
 20
112.033409
 30
0.0
 10
183.307854
 20
113.317182
 30
0.0
 10
182.652097
 20
114.525923
 30
0.0
 10
181.548052
 20
115.183015
 30
0.0
  0
SPLINE
  5
192
100
AcDbEntity
  8
Layer_1
 62
7
100
AcDbSpline
 70
8
 71
3
 72
8
 73
4
 74
0
 40
0
 40
0
 40
0
 40
0
 40
1
 40
1
 40
1
 40
1
 10
181.548052
 20
115.183015
 30
0.0
 10
180.444007
 20
115.840107
 30
0.0
 10
179.068844
 20
115.840103
 30
0.0
 10
177.964802
 20
115.183005
 30
0.0
  0
SPLINE
  5
193
100
AcDbEntity
  8
Layer_1
 62
7
100
AcDbSpline
 70
8
 71
3
 72
8
 73
4
 74
0
 40
0
 40
0
 40
0
 40
0
 40
1
 40
1
 40
1
 40
1
 10
177.964802
 20
115.183005
 30
0.0
 10
176.860761
 20
114.525907
 30
0.0
 10
176.205010
 20
113.317162
 30
0.0
 10
176.256119
 20
112.033389
 30
0.0
  0
SPLINE
  5
194
100
AcDbEntity
  8
Layer_1
 62
7
100
AcDbSpline
 70
8
 71
3
 72
8
 73
4
 74
0
 40
0
 40
0
 40
0
 40
0
 40
1
 40
1
 40
1
 40
1
 10
176.259134
 20
112.023121
 30
0.0
 10
153.390103
 20
110.199426
 30
0.0
 10
135.761282
 20
91.108793
 30
0.0
 10
135.761324
 20
68.167162
 30
0.0
  0
SPLINE
  5
195
100
AcDbEntity
  8
Layer_1
 62
7
100
AcDbSpline
 70
8
 71
3
 72
8
 73
4
 74
0
 40
0
 40
0
 40
0
 40
0
 40
1
 40
1
 40
1
 40
1
 10
135.761324
 20
68.167162
 30
0.0
 10
135.761360
 20
45.225529
 30
0.0
 10
153.390241
 20
26.134958
 30
0.0
 10
176.259279
 20
24.311335
 30
0.0
  0
SPLINE
  5
196
100
AcDbEntity
  8
Layer_1
 62
7
100
AcDbSpline
 70
8
 71
3
 72
8
 73
4
 74
0
 40
0
 40
0
 40
0
 40
0
 40
1
 40
1
 40
1
 40
1
 10
176.256118
 20
24.322227
 30
0.0
 10
176.205016
 20
23.038454
 30
0.0
 10
176.860774
 20
21.829713
 30
0.0
 10
177.964819
 20
21.172621
 30
0.0
  0
SPLINE
  5
197
100
AcDbEntity
  8
Layer_1
 62
7
100
AcDbSpline
 70
8
 71
3
 72
8
 73
4
 74
0
 40
0
 40
0
 40
0
 40
0
 40
1
 40
1
 40
1
 40
1
 10
177.964819
 20
21.172621
 30
0.0
 10
179.068864
 20
20.515530
 30
0.0
 10
180.444027
 20
20.515533
 30
0.0
 10
181.548069
 20
21.172631
 30
0.0
  0
SPLINE
  5
198
100
AcDbEntity
  8
Layer_1
 62
7
100
AcDbSpline
 70
8
 71
3
 72
8
 73
4
 74
0
 40
0
 40
0
 40
0
 40
0
 40
1
 40
1
 40
1
 40
1
 10
181.548069
 20
21.172631
 30
0.0
 10
182.652110
 20
21.829729
 30
0.0
 10
183.307861
 20
23.038474
 30
0.0
 10
183.256752
 20
24.322247
 30
0.0
  0
LWPOLYLINE
  5
199
100
AcDbEntity
  8
Layer_1
 62
7
100
AcDbPolyline
 90
4
 70
1
 10
-25.740180
 20
112.902992
 30
0.0
 10
-34.757182
 20
112.902992
 30
0.0
 10
-34.757182
 20
121.919993
 30
0.0
 10
-25.740180
 20
121.919993
 30
0.0
  0
SPLINE
  5
19a
100
AcDbEntity
  8
Layer_1
 62
7
100
AcDbSpline
 70
8
 71
3
 72
8
 73
4
 74
0
 40
0
 40
0
 40
0
 40
0
 40
1
 40
1
 40
1
 40
1
 10
253.254930
 20
-27.962947
 30
0.0
 10
253.306032
 20
-26.679174
 30
0.0
 10
252.650274
 20
-25.470432
 30
0.0
 10
251.546229
 20
-24.813340
 30
0.0
  0
SPLINE
  5
19b
100
AcDbEntity
  8
Layer_1
 62
7
100
AcDbSpline
 70
8
 71
3
 72
8
 73
4
 74
0
 40
0
 40
0
 40
0
 40
0
 40
1
 40
1
 40
1
 40
1
 10
251.546229
 20
-24.813340
 30
0.0
 10
250.442184
 20
-24.156249
 30
0.0
 10
249.067021
 20
-24.156253
 30
0.0
 10
247.962980
 20
-24.813351
 30
0.0
  0
SPLINE
  5
19c
100
AcDbEntity
  8
Layer_1
 62
7
100
AcDbSpline
 70
8
 71
3
 72
8
 73
4
 74
0
 40
0
 40
0
 40
0
 40
0
 40
1
 40
1
 40
1
 40
1
 10
247.962980
 20
-24.813351
 30
0.0
 10
246.858939
 20
-25.470448
 30
0.0
 10
246.203188
 20
-26.679194
 30
0.0
 10
246.254297
 20
-27.962966
 30
0.0
  0
SPLINE
  5
19d
100
AcDbEntity
  8
Layer_1
 62
7
100
AcDbSpline
 70
8
 71
3
 72
8
 73
4
 74
0
 40
0
 40
0
 40
0
 40
0
 40
1
 40
1
 40
1
 40
1
 10
246.257312
 20
-27.952067
 30
0.0
 10
223.388281
 20
-29.775763
 30
0.0
 10
205.759459
 20
-48.866395
 30
0.0
 10
205.759502
 20
-71.808027
 30
0.0
  0
SPLINE
  5
19e
100
AcDbEntity
  8
Layer_1
 62
7
100
AcDbSpline
 70
8
 71
3
 72
8
 73
4
 74
0
 40
0
 40
0
 40
0
 40
0
 40
1
 40
1
 40
1
 40
1
 10
205.759502
 20
-71.808027
 30
0.0
 10
205.759538
 20
-94.749659
 30
0.0
 10
223.388418
 20
-113.840231
 30
0.0
 10
246.257457
 20
-115.663854
 30
0.0
  0
SPLINE
  5
19f
100
AcDbEntity
  8
Layer_1
 62
7
100
AcDbSpline
 70
8
 71
3
 72
8
 73
4
 74
0
 40
0
 40
0
 40
0
 40
0
 40
1
 40
1
 40
1
 40
1
 10
246.254296
 20
-115.674128
 30
0.0
 10
246.203194
 20
-116.957901
 30
0.0
 10
246.858952
 20
-118.166643
 30
0.0
 10
247.962997
 20
-118.823734
 30
0.0
  0
SPLINE
  5
1a0
100
AcDbEntity
  8
Layer_1
 62
7
100
AcDbSpline
 70
8
 71
3
 72
8
 73
4
 74
0
 40
0
 40
0
 40
0
 40
0
 40
1
 40
1
 40
1
 40
1
 10
247.962997
 20
-118.823734
 30
0.0
 10
249.067042
 20
-119.480826
 30
0.0
 10
250.442205
 20
-119.480822
 30
0.0
 10
251.546246
 20
-118.823724
 30
0.0
  0
SPLINE
  5
1a1
100
AcDbEntity
  8
Layer_1
 62
7
100
AcDbSpline
 70
8
 71
3
 72
8
 73
4
 74
0
 40
0
 40
0
 40
0
 40
0
 40
1
 40
1
 40
1
 40
1
 10
251.546246
 20
-118.823724
 30
0.0
 10
252.650288
 20
-118.166626
 30
0.0
 10
253.306038
 20
-116.957881
 30
0.0
 10
253.254930
 20
-115.674108
 30
0.0
  0
SPLINE
  5
1a2
100
AcDbEntity
  8
Layer_1
 62
7
100
AcDbSpline
 70
8
 71
3
 72
8
 73
4
 74
0
 40
0
 40
0
 40
0
 40
0
 40
1
 40
1
 40
1
 40
1
 10
253.251914
 20
-115.663841
 30
0.0
 10
276.120946
 20
-113.840145
 30
0.0
 10
293.749767
 20
-94.749513
 30
0.0
 10
293.749725
 20
-71.807881
 30
0.0
  0
SPLINE
  5
1a3
100
AcDbEntity
  8
Layer_1
 62
7
100
AcDbSpline
 70
8
 71
3
 72
8
 73
4
 74
0
 40
0
 40
0
 40
0
 40
0
 40
1
 40
1
 40
1
 40
1
 10
293.749725
 20
-71.807881
 30
0.0
 10
293.749689
 20
-48.866248
 30
0.0
 10
276.120808
 20
-29.775677
 30
0.0
 10
253.251770
 20
-27.952054
 30
0.0
  0
SPLINE
  5
1a4
100
AcDbEntity
  8
Layer_1
 62
7
100
AcDbSpline
 70
8
 71
3
 72
8
 73
4
 74
0
 40
0
 40
0
 40
0
 40
0
 40
1
 40
1
 40
1
 40
1
 10
-313.728110
 20
-27.952067
 30
0.0
 10
-336.597141
 20
-29.775763
 30
0.0
 10
-354.225962
 20
-48.866395
 30
0.0
 10
-354.225920
 20
-71.808027
 30
0.0
  0
SPLINE
  5
1a5
100
AcDbEntity
  8
Layer_1
 62
7
100
AcDbSpline
 70
8
 71
3
 72
8
 73
4
 74
0
 40
0
 40
0
 40
0
 40
0
 40
1
 40
1
 40
1
 40
1
 10
-354.225920
 20
-71.808027
 30
0.0
 10
-354.225884
 20
-94.749659
 30
0.0
 10
-336.597003
 20
-113.840231
 30
0.0
 10
-313.727965
 20
-115.663854
 30
0.0
  0
SPLINE
  5
1a6
100
AcDbEntity
  8
Layer_1
 62
7
100
AcDbSpline
 70
8
 71
3
 72
8
 73
4
 74
0
 40
0
 40
0
 40
0
 40
0
 40
1
 40
1
 40
1
 40
1
 10
-313.731126
 20
-115.674128
 30
0.0
 10
-313.782227
 20
-116.957901
 30
0.0
 10
-313.126470
 20
-118.166643
 30
0.0
 10
-312.022425
 20
-118.823734
 30
0.0
  0
SPLINE
  5
1a7
100
AcDbEntity
  8
Layer_1
 62
7
100
AcDbSpline
 70
8
 71
3
 72
8
 73
4
 74
0
 40
0
 40
0
 40
0
 40
0
 40
1
 40
1
 40
1
 40
1
 10
-312.022425
 20
-118.823734
 30
0.0
 10
-310.918380
 20
-119.480826
 30
0.0
 10
-309.543217
 20
-119.480822
 30
0.0
 10
-308.439175
 20
-118.823724
 30
0.0
  0
SPLINE
  5
1a8
100
AcDbEntity
  8
Layer_1
 62
7
100
AcDbSpline
 70
8
 71
3
 72
8
 73
4
 74
0
 40
0
 40
0
 40
0
 40
0
 40
1
 40
1
 40
1
 40
1
 10
-308.439175
 20
-118.823724
 30
0.0
 10
-307.335134
 20
-118.166626
 30
0.0
 10
-306.679383
 20
-116.957881
 30
0.0
 10
-306.730492
 20
-115.674108
 30
0.0
  0
SPLINE
  5
1a9
100
AcDbEntity
  8
Layer_1
 62
7
100
AcDbSpline
 70
8
 71
3
 72
8
 73
4
 74
0
 40
0
 40
0
 40
0
 40
0
 40
1
 40
1
 40
1
 40
1
 10
-306.733507
 20
-115.663841
 30
0.0
 10
-283.864476
 20
-113.840145
 30
0.0
 10
-266.235655
 20
-94.749513
 30
0.0
 10
-266.235697
 20
-71.807881
 30
0.0
  0
SPLINE
  5
1aa
100
AcDbEntity
  8
Layer_1
 62
7
100
AcDbSpline
 70
8
 71
3
 72
8
 73
4
 74
0
 40
0
 40
0
 40
0
 40
0
 40
1
 40
1
 40
1
 40
1
 10
-266.235697
 20
-71.807881
 30
0.0
 10
-266.235733
 20
-48.866248
 30
0.0
 10
-283.864614
 20
-29.775677
 30
0.0
 10
-306.733652
 20
-27.952054
 30
0.0
  0
SPLINE
  5
1ab
100
AcDbEntity
  8
Layer_1
 62
7
100
AcDbSpline
 70
8
 71
3
 72
8
 73
4
 74
0
 40
0
 40
0
 40
0
 40
0
 40
1
 40
1
 40
1
 40
1
 10
-306.730491
 20
-27.962947
 30
0.0
 10
-306.679390
 20
-26.679174
 30
0.0
 10
-307.335147
 20
-25.470432
 30
0.0
 10
-308.439192
 20
-24.813340
 30
0.0
  0
SPLINE
  5
1ac
100
AcDbEntity
  8
Layer_1
 62
7
100
AcDbSpline
 70
8
 71
3
 72
8
 73
4
 74
0
 40
0
 40
0
 40
0
 40
0
 40
1
 40
1
 40
1
 40
1
 10
-308.439192
 20
-24.813340
 30
0.0
 10
-309.543237
 20
-24.156249
 30
0.0
 10
-310.918400
 20
-24.156253
 30
0.0
 10
-312.022442
 20
-24.813351
 30
0.0
  0
SPLINE
  5
1ad
100
AcDbEntity
  8
Layer_1
 62
7
100
AcDbSpline
 70
8
 71
3
 72
8
 73
4
 74
0
 40
0
 40
0
 40
0
 40
0
 40
1
 40
1
 40
1
 40
1
 10
-312.022442
 20
-24.813351
 30
0.0
 10
-313.126483
 20
-25.470448
 30
0.0
 10
-313.782234
 20
-26.679194
 30
0.0
 10
-313.731125
 20
-27.962966
 30
0.0
  0
LWPOLYLINE
  5
1ae
100
AcDbEntity
  8
Layer_1
 62
7
100
AcDbPolyline
 90
4
 70
1
 10
-235.755880
 20
-125.581879
 30
0.0
 10
-244.751715
 20
-125.581879
 30
0.0
 10
-244.751715
 20
-116.586044
 30
0.0
 10
-235.755880
 20
-116.586044
 30
0.0
  0
LWPOLYLINE
  5
1af
100
AcDbEntity
  8
Layer_1
 62
7
100
AcDbPolyline
 90
4
 70
1
 10
-314.792226
 20
24.701478
 30
0.0
 10
-314.792226
 20
15.684476
 30
0.0
 10
-323.788061
 20
15.684476
 30
0.0
 10
-323.788061
 20
24.701478
 30
0.0
  0
LWPOLYLINE
  5
1b0
100
AcDbEntity
  8
Layer_1
 62
7
100
AcDbPolyline
 90
4
 70
1
 10
254.294864
 20
15.684476
 30
0.0
 10
254.294864
 20
24.701478
 30
0.0
 10
263.290699
 20
24.701478
 30
0.0
 10
263.290699
 20
15.684476
 30
0.0
  0
LWPOLYLINE
  5
1b1
100
AcDbEntity
  8
Layer_1
 62
7
100
AcDbPolyline
 90
4
 70
1
 10
184.254353
 20
-125.581879
 30
0.0
 10
175.258518
 20
-125.581879
 30
0.0
 10
175.258518
 20
-116.586044
 30
0.0
 10
184.254353
 20
-116.586044
 30
0.0
  0
LWPOLYLINE
  5
1b2
100
AcDbEntity
  8
Layer_1
 62
7
100
AcDbPolyline
 90
4
 70
1
 10
44.257997
 20
-125.581879
 30
0.0
 10
35.240996
 20
-125.581879
 30
0.0
 10
35.240996
 20
-116.586044
 30
0.0
 10
44.257997
 20
-116.586044
 30
0.0
  0
LWPOLYLINE
  5
1b3
100
AcDbEntity
  8
Layer_1
 62
7
100
AcDbPolyline
 90
4
 70
1
 10
105.260340
 20
121.919993
 30
0.0
 10
114.256175
 20
121.919993
 30
0.0
 10
114.256175
 20
112.902992
 30
0.0
 10
105.260340
 20
112.902992
 30
0.0
  0
LWPOLYLINE
  5
1b4
100
AcDbEntity
  8
Layer_1
 62
7
100
AcDbPolyline
 90
4
 70
1
 10
-104.755359
 20
-125.581879
 30
0.0
 10
-104.755359
 20
-116.586044
 30
0.0
 10
-95.738358
 20
-116.586044
 30
0.0
 10
-95.738358
 20
-125.581879
 30
0.0
  0
LWPOLYLINE
  5
1b5
100
AcDbEntity
  8
Layer_1
 62
7
100
AcDbPolyline
 90
4
 70
1
 10
-174.753537
 20
121.919993
 30
0.0
 10
-165.757702
 20
121.919993
 30
0.0
 10
-165.757702
 20
112.902992
 30
0.0
 10
-174.753537
 20
112.902992
 30
0.0
  0
SPLINE
  5
1b6
100
AcDbEntity
  8
Layer_1
 62
7
100
AcDbSpline
 70
8
 71
3
 72
8
 73
4
 74
0
 40
0
 40
0
 40
0
 40
0
 40
1
 40
1
 40
1
 40
1
 10
249.754613
 20
-141.054715
 30
0.0
 10
273.753976
 20
-141.054715
 30
0.0
 10
296.042162
 20
-128.628243
 30
0.0
 10
308.659381
 20
-108.213185
 30
0.0
  0
SPLINE
  5
1b7
100
AcDbEntity
  8
Layer_1
 62
7
100
AcDbSpline
 70
8
 71
3
 72
8
 73
4
 74
0
 40
0
 40
0
 40
0
 40
0
 40
1
 40
1
 40
1
 40
1
 10
308.659381
 20
-108.213185
 30
0.0
 10
321.276622
 20
-87.798133
 30
0.0
 10
322.423686
 20
-62.305669
 30
0.0
 10
311.690851
 20
-40.839979
 30
0.0
  0
LWPOLYLINE
  5
1b8
100
AcDbEntity
  8
Layer_1
 62
7
100
AcDbPolyline
 90
2
 70
0
 10
311.698873
 20
-40.851699
 30
0.0
 10
241.679528
 20
99.123490
 30
0.0
  0
SPLINE
  5
1b9
100
AcDbEntity
  8
Layer_1
 62
7
100
AcDbSpline
 70
8
 71
3
 72
8
 73
4
 74
0
 40
0
 40
0
 40
0
 40
0
 40
1
 40
1
 40
1
 40
1
 10
-372.167059
 20
-40.839979
 30
0.0
 10
-382.899852
 20
-62.305669
 30
0.0
 10
-381.752811
 20
-87.798133
 30
0.0
 10
-369.135583
 20
-108.213185
 30
0.0
  0
SPLINE
  5
1ba
100
AcDbEntity
  8
Layer_1
 62
7
100
AcDbSpline
 70
8
 71
3
 72
8
 73
4
 74
0
 40
0
 40
0
 40
0
 40
0
 40
1
 40
1
 40
1
 40
1
 10
-369.135583
 20
-108.213185
 30
0.0
 10
-356.518358
 20
-128.628243
 30
0.0
 10
-334.230163
 20
-141.054715
 30
0.0
 10
-310.230808
 20
-141.054715
 30
0.0
  0
LWPOLYLINE
  5
1bb
100
AcDbEntity
  8
Layer_1
 62
7
100
AcDbPolyline
 90
2
 70
0
 10
-310.241392
 20
-141.075882
 30
0.0
 10
249.744030
 20
-141.075882
 30
0.0
  0
SPLINE
  5
1bc
100
AcDbEntity
  8
Layer_1
 62
7
100
AcDbSpline
 70
8
 71
3
 72
8
 73
4
 74
0
 40
0
 40
0
 40
0
 40
0
 40
1
 40
1
 40
1
 40
1
 10
-240.232631
 20
137.413996
 30
0.0
 10
-266.461416
 20
137.413996
 30
0.0
 10
-290.439041
 20
122.594977
 30
0.0
 10
-302.168870
 20
99.135216
 30
0.0
  0
LWPOLYLINE
  5
1bd
100
AcDbEntity
  8
Layer_1
 62
7
100
AcDbPolyline
 90
2
 70
0
 10
-302.176891
 20
99.123490
 30
0.0
 10
-372.196235
 20
-40.851699
 30
0.0
  0
SPLINE
  5
1be
100
AcDbEntity
  8
Layer_1
 62
7
100
AcDbSpline
 70
8
 71
3
 72
8
 73
4
 74
0
 40
0
 40
0
 40
0
 40
0
 40
1
 40
1
 40
1
 40
1
 10
241.692673
 20
99.135216
 30
0.0
 10
229.962866
 20
122.594977
 30
0.0
 10
205.985242
 20
137.413996
 30
0.0
 10
179.756435
 20
137.413996
 30
0.0
  0
LWPOLYLINE
  5
1bf
100
AcDbEntity
  8
Layer_1
 62
7
100
AcDbPolyline
 90
2
 70
0
 10
179.745852
 20
137.413996
 30
0.0
 10
-240.243214
 20
137.413996
 30
0.0
  0
ENDSEC
  0
SECTION
  2
OBJECTS
  0
DICTIONARY
  5
C
330
0
100
AcDbDictionary
  3
ACAD_GROUP
350
D
  3
ACAD_MLINESTYLE
350
17
  0
DICTIONARY
  5
D
330
C
100
AcDbDictionary
  0
DICTIONARY
  5
1A
330
C
100
AcDbDictionary
  0
DICTIONARY
  5
17
330
C
100
AcDbDictionary
  3
STANDARD
350
18
  0
DICTIONARY
  5
19
330
C
100
AcDbDictionary
  0
ENDSEC
  0
EOF
