  0
SECTION
  2
HEADER
  9
$ACADVER
  1
AC1014
  9
$HANDSEED
  5
FFFF
  9
$MEASUREMENT
 70
     1
  0
ENDSEC
  0
SECTION
  2
TABLES
  0
TABLE
  2
VPORT
  5
8
330
0
100
AcDbSymbolTable
 70
     4
  0
VPORT
  5
2E
330
8
100
AcDbSymbolTableRecord
100
AcDbViewportTableRecord
  2
*ACTIVE
 70
     0
 10
0.0
 20
0.0
 11
1.0
 21
1.0
 12
210.0
 22
148.5
 13
0.0
 23
0.0
 14
10.0
 24
10.0
 15
10.0
 25
10.0
 16
0.0
 26
0.0
 36
1.0
 17
0.0
 27
0.0
 37
0.0
 40
341.0
 41
1.24
 42
50.0
 43
0.0
 44
0.0
 50
0.0
 51
0.0
 71
     0
 72
   100
 73
     1
 74
     3
 75
     0
 76
     0
 77
     0
 78
     0
  0
ENDTAB
  0
TABLE
  2
LTYPE
  5
5
330
0
100
AcDbSymbolTable
 70
     1
  0
LTYPE
  5
14
330
5
100
AcDbSymbolTableRecord
100
AcDbLinetypeTableRecord
  2
BYBLOCK
 70
     0
  3

 72
    65
 73
     0
 40
0.0
  0
LTYPE
  5
15
330
5
100
AcDbSymbolTableRecord
100
AcDbLinetypeTableRecord
  2
BYLAYER
 70
     0
  3

 72
    65
 73
     0
 40
0.0
  0
LTYPE
  5
16
330
5
100
AcDbSymbolTableRecord
100
AcDbLinetypeTableRecord
  2
CONTINUOUS
 70
     0
  3
Solid line
 72
    65
 73
     0
 40
0.0
  0
ENDTAB
  0
TABLE
  2
LAYER
  5
2
100
AcDbSymbolTable
 70
2
  0
LAYER
  5
50
100
AcDbSymbolTableRecord
100
AcDbLayerTableRecord
  2
0
 70
0
  6
CONTINUOUS
  0
LAYER
  5
51
100
AcDbSymbolTableRecord
100
AcDbLayerTableRecord
  2
Layer_1
 70
0
  6
CONTINUOUS
  0
ENDTAB
  0
TABLE
  2
STYLE
  5
3
330
0
100
AcDbSymbolTable
 70
     1
  0
STYLE
  5
11
330
3
100
AcDbSymbolTableRecord
100
AcDbTextStyleTableRecord
  2
STANDARD
 70
     0
 40
0.0
 41
1.0
 50
0.0
 71
     0
 42
2.5
  3
txt
  4

  0
ENDTAB
  0
TABLE
  2
VIEW
  5
6
330
0
100
AcDbSymbolTable
 70
     0
  0
ENDTAB
  0
TABLE
  2
UCS
  5
7
330
0
100
AcDbSymbolTable
 70
     0
  0
ENDTAB
  0
TABLE
  2
APPID
  5
9
330
0
100
AcDbSymbolTable
 70
     2
  0
APPID
  5
12
330
9
100
AcDbSymbolTableRecord
100
AcDbRegAppTableRecord
  2
ACAD
 70
     0
  0
ENDTAB
  0
TABLE
  2
DIMSTYLE
  5
A
330
0
100
AcDbSymbolTable
 70
     1
  0
DIMSTYLE
105
27
330
A
100
AcDbSymbolTableRecord
100
AcDbDimStyleTableRecord
  2
ISO-25
 70
     0
  3

  4

  5

  6

  7

 40
1.0
 41
2.5
 42
0.625
 43
3.75
 44
1.25
 45
0.0
 46
0.0
 47
0.0
 48
0.0
140
2.5
141
2.5
142
0.0
143
0.03937007874016
144
1.0
145
0.0
146
1.0
147
0.625
 71
     0
 72
     0
 73
     0
 74
     0
 75
     0
 76
     0
 77
     1
 78
     8
170
     0
171
     3
172
     1
173
     0
174
     0
175
     0
176
     0
177
     0
178
     0
270
     2
271
     2
272
     2
273
     2
274
     3
340
11
275
     0
280
     0
281
     0
282
     0
283
     0
284
     8
285
     0
286
     0
287
     3
288
     0
  0
ENDTAB
  0
TABLE
  2
BLOCK_RECORD
  5
1
330
0
100
AcDbSymbolTable
 70
     1
  0
BLOCK_RECORD
  5
1F
330
1
100
AcDbSymbolTableRecord
100
AcDbBlockTableRecord
  2
*MODEL_SPACE
  0
BLOCK_RECORD
  5
1B
330
1
100
AcDbSymbolTableRecord
100
AcDbBlockTableRecord
  2
*PAPER_SPACE
  0
ENDTAB
  0
ENDSEC
  0
SECTION
  2
BLOCKS
  0
BLOCK
  5
20
330
1F
100
AcDbEntity
  8
0
100
AcDbBlockBegin
  2
*MODEL_SPACE
 70
     0
 10
0.0
 20
0.0
 30
0.0
  3
*MODEL_SPACE
  1

  0
ENDBLK
  5
21
330
1F
100
AcDbEntity
  8
0
100
AcDbBlockEnd
  0
BLOCK
  5
1C
330
1B
100
AcDbEntity
 67
     1
  8
0
100
AcDbBlockBegin
  2
*PAPER_SPACE
  1

  0
ENDBLK
  5
1D
330
1B
100
AcDbEntity
 67
     1
  8
0
100
AcDbBlockEnd
  0
ENDSEC
  0
SECTION
  2
ENTITIES
  0
SPLINE
  5
100
100
AcDbEntity
  8
Layer_1
 62
7
100
AcDbSpline
 70
8
 71
3
 72
8
 73
4
 74
0
 40
0
 40
0
 40
0
 40
0
 40
1
 40
1
 40
1
 40
1
 10
-34.228015
 20
417.406710
 30
0.0
 10
-34.228015
 20
415.203154
 30
0.0
 10
-32.441654
 20
413.416793
 30
0.0
 10
-30.238098
 20
413.416793
 30
0.0
  0
SPLINE
  5
101
100
AcDbEntity
  8
Layer_1
 62
7
100
AcDbSpline
 70
8
 71
3
 72
8
 73
4
 74
0
 40
0
 40
0
 40
0
 40
0
 40
1
 40
1
 40
1
 40
1
 10
-30.238098
 20
413.416793
 30
0.0
 10
-28.034541
 20
413.416793
 30
0.0
 10
-26.248180
 20
415.203154
 30
0.0
 10
-26.248180
 20
417.406710
 30
0.0
  0
SPLINE
  5
102
100
AcDbEntity
  8
Layer_1
 62
7
100
AcDbSpline
 70
8
 71
3
 72
8
 73
4
 74
0
 40
0
 40
0
 40
0
 40
0
 40
1
 40
1
 40
1
 40
1
 10
-26.248180
 20
417.406710
 30
0.0
 10
-26.248180
 20
419.610266
 30
0.0
 10
-28.034541
 20
421.396627
 30
0.0
 10
-30.238098
 20
421.396627
 30
0.0
  0
SPLINE
  5
103
100
AcDbEntity
  8
Layer_1
 62
7
100
AcDbSpline
 70
8
 71
3
 72
8
 73
4
 74
0
 40
0
 40
0
 40
0
 40
0
 40
1
 40
1
 40
1
 40
1
 10
-30.238098
 20
421.396627
 30
0.0
 10
-32.441654
 20
421.396627
 30
0.0
 10
-34.228015
 20
419.610266
 30
0.0
 10
-34.228015
 20
417.406710
 30
0.0
  0
SPLINE
  5
104
100
AcDbEntity
  8
Layer_1
 62
7
100
AcDbSpline
 70
8
 71
3
 72
8
 73
4
 74
0
 40
0
 40
0
 40
0
 40
0
 40
1
 40
1
 40
1
 40
1
 10
105.768340
 20
417.406710
 30
0.0
 10
105.768340
 20
415.203154
 30
0.0
 10
107.554702
 20
413.416793
 30
0.0
 10
109.758258
 20
413.416793
 30
0.0
  0
SPLINE
  5
105
100
AcDbEntity
  8
Layer_1
 62
7
100
AcDbSpline
 70
8
 71
3
 72
8
 73
4
 74
0
 40
0
 40
0
 40
0
 40
0
 40
1
 40
1
 40
1
 40
1
 10
109.758258
 20
413.416793
 30
0.0
 10
111.961814
 20
413.416793
 30
0.0
 10
113.748175
 20
415.203154
 30
0.0
 10
113.748175
 20
417.406710
 30
0.0
  0
SPLINE
  5
106
100
AcDbEntity
  8
Layer_1
 62
7
100
AcDbSpline
 70
8
 71
3
 72
8
 73
4
 74
0
 40
0
 40
0
 40
0
 40
0
 40
1
 40
1
 40
1
 40
1
 10
113.748175
 20
417.406710
 30
0.0
 10
113.748175
 20
419.610266
 30
0.0
 10
111.961814
 20
421.396627
 30
0.0
 10
109.758258
 20
421.396627
 30
0.0
  0
SPLINE
  5
107
100
AcDbEntity
  8
Layer_1
 62
7
100
AcDbSpline
 70
8
 71
3
 72
8
 73
4
 74
0
 40
0
 40
0
 40
0
 40
0
 40
1
 40
1
 40
1
 40
1
 10
109.758258
 20
421.396627
 30
0.0
 10
107.554702
 20
421.396627
 30
0.0
 10
105.768340
 20
419.610266
 30
0.0
 10
105.768340
 20
417.406710
 30
0.0
  0
SPLINE
  5
108
100
AcDbEntity
  8
Layer_1
 62
7
100
AcDbSpline
 70
8
 71
3
 72
8
 73
4
 74
0
 40
0
 40
0
 40
0
 40
0
 40
1
 40
1
 40
1
 40
1
 10
58.016333
 20
228.176680
 30
0.0
 10
58.016333
 20
199.600384
 30
0.0
 10
81.181962
 20
176.434755
 30
0.0
 10
109.758258
 20
176.434755
 30
0.0
  0
SPLINE
  5
109
100
AcDbEntity
  8
Layer_1
 62
7
100
AcDbSpline
 70
8
 71
3
 72
8
 73
4
 74
0
 40
0
 40
0
 40
0
 40
0
 40
1
 40
1
 40
1
 40
1
 10
109.758258
 20
176.434755
 30
0.0
 10
138.334553
 20
176.434755
 30
0.0
 10
161.500183
 20
199.600384
 30
0.0
 10
161.500183
 20
228.176680
 30
0.0
  0
SPLINE
  5
10a
100
AcDbEntity
  8
Layer_1
 62
7
100
AcDbSpline
 70
8
 71
3
 72
8
 73
4
 74
0
 40
0
 40
0
 40
0
 40
0
 40
1
 40
1
 40
1
 40
1
 10
161.500183
 20
228.176680
 30
0.0
 10
161.500183
 20
256.752976
 30
0.0
 10
138.334553
 20
279.918605
 30
0.0
 10
109.758258
 20
279.918605
 30
0.0
  0
SPLINE
  5
10b
100
AcDbEntity
  8
Layer_1
 62
7
100
AcDbSpline
 70
8
 71
3
 72
8
 73
4
 74
0
 40
0
 40
0
 40
0
 40
0
 40
1
 40
1
 40
1
 40
1
 10
109.758258
 20
279.918605
 30
0.0
 10
81.181962
 20
279.918605
 30
0.0
 10
58.016333
 20
256.752976
 30
0.0
 10
58.016333
 20
228.176680
 30
0.0
  0
SPLINE
  5
10c
100
AcDbEntity
  8
Layer_1
 62
7
100
AcDbSpline
 70
8
 71
3
 72
8
 73
4
 74
0
 40
0
 40
0
 40
0
 40
0
 40
1
 40
1
 40
1
 40
1
 10
-361.972733
 20
228.176680
 30
0.0
 10
-361.972733
 20
199.600384
 30
0.0
 10
-338.807085
 20
176.434755
 30
0.0
 10
-310.230808
 20
176.434755
 30
0.0
  0
SPLINE
  5
10d
100
AcDbEntity
  8
Layer_1
 62
7
100
AcDbSpline
 70
8
 71
3
 72
8
 73
4
 74
0
 40
0
 40
0
 40
0
 40
0
 40
1
 40
1
 40
1
 40
1
 10
-310.230808
 20
176.434755
 30
0.0
 10
-281.654521
 20
176.434755
 30
0.0
 10
-258.488884
 20
199.600384
 30
0.0
 10
-258.488884
 20
228.176680
 30
0.0
  0
SPLINE
  5
10e
100
AcDbEntity
  8
Layer_1
 62
7
100
AcDbSpline
 70
8
 71
3
 72
8
 73
4
 74
0
 40
0
 40
0
 40
0
 40
0
 40
1
 40
1
 40
1
 40
1
 10
-258.488884
 20
228.176680
 30
0.0
 10
-258.488884
 20
256.752976
 30
0.0
 10
-281.654521
 20
279.918605
 30
0.0
 10
-310.230808
 20
279.918605
 30
0.0
  0
SPLINE
  5
10f
100
AcDbEntity
  8
Layer_1
 62
7
100
AcDbSpline
 70
8
 71
3
 72
8
 73
4
 74
0
 40
0
 40
0
 40
0
 40
0
 40
1
 40
1
 40
1
 40
1
 10
-310.230808
 20
279.918605
 30
0.0
 10
-338.807085
 20
279.918605
 30
0.0
 10
-361.972733
 20
256.752976
 30
0.0
 10
-361.972733
 20
228.176680
 30
0.0
  0
SPLINE
  5
110
100
AcDbEntity
  8
Layer_1
 62
7
100
AcDbSpline
 70
8
 71
3
 72
8
 73
4
 74
0
 40
0
 40
0
 40
0
 40
0
 40
1
 40
1
 40
1
 40
1
 10
198.012688
 20
228.176680
 30
0.0
 10
198.012688
 20
199.600384
 30
0.0
 10
221.178360
 20
176.434755
 30
0.0
 10
249.754613
 20
176.434755
 30
0.0
  0
SPLINE
  5
111
100
AcDbEntity
  8
Layer_1
 62
7
100
AcDbSpline
 70
8
 71
3
 72
8
 73
4
 74
0
 40
0
 40
0
 40
0
 40
0
 40
1
 40
1
 40
1
 40
1
 10
249.754613
 20
176.434755
 30
0.0
 10
278.330866
 20
176.434755
 30
0.0
 10
301.496538
 20
199.600384
 30
0.0
 10
301.496538
 20
228.176680
 30
0.0
  0
SPLINE
  5
112
100
AcDbEntity
  8
Layer_1
 62
7
100
AcDbSpline
 70
8
 71
3
 72
8
 73
4
 74
0
 40
0
 40
0
 40
0
 40
0
 40
1
 40
1
 40
1
 40
1
 10
301.496538
 20
228.176680
 30
0.0
 10
301.496538
 20
256.752976
 30
0.0
 10
278.330866
 20
279.918605
 30
0.0
 10
249.754613
 20
279.918605
 30
0.0
  0
SPLINE
  5
113
100
AcDbEntity
  8
Layer_1
 62
7
100
AcDbSpline
 70
8
 71
3
 72
8
 73
4
 74
0
 40
0
 40
0
 40
0
 40
0
 40
1
 40
1
 40
1
 40
1
 10
249.754613
 20
279.918605
 30
0.0
 10
221.178360
 20
279.918605
 30
0.0
 10
198.012688
 20
256.752976
 30
0.0
 10
198.012688
 20
228.176680
 30
0.0
  0
SPLINE
  5
114
100
AcDbEntity
  8
Layer_1
 62
7
100
AcDbSpline
 70
8
 71
3
 72
8
 73
4
 74
0
 40
0
 40
0
 40
0
 40
0
 40
1
 40
1
 40
1
 40
1
 10
128.014511
 20
368.173036
 30
0.0
 10
128.014511
 20
339.596740
 30
0.0
 10
151.180140
 20
316.431111
 30
0.0
 10
179.756435
 20
316.431111
 30
0.0
  0
SPLINE
  5
115
100
AcDbEntity
  8
Layer_1
 62
7
100
AcDbSpline
 70
8
 71
3
 72
8
 73
4
 74
0
 40
0
 40
0
 40
0
 40
0
 40
1
 40
1
 40
1
 40
1
 10
179.756435
 20
316.431111
 30
0.0
 10
208.332689
 20
316.431111
 30
0.0
 10
231.498360
 20
339.596740
 30
0.0
 10
231.498360
 20
368.173036
 30
0.0
  0
SPLINE
  5
116
100
AcDbEntity
  8
Layer_1
 62
7
100
AcDbSpline
 70
8
 71
3
 72
8
 73
4
 74
0
 40
0
 40
0
 40
0
 40
0
 40
1
 40
1
 40
1
 40
1
 10
231.498360
 20
368.173036
 30
0.0
 10
231.498360
 20
396.749331
 30
0.0
 10
208.332689
 20
419.914960
 30
0.0
 10
179.756435
 20
419.914960
 30
0.0
  0
SPLINE
  5
117
100
AcDbEntity
  8
Layer_1
 62
7
100
AcDbSpline
 70
8
 71
3
 72
8
 73
4
 74
0
 40
0
 40
0
 40
0
 40
0
 40
1
 40
1
 40
1
 40
1
 10
179.756435
 20
419.914960
 30
0.0
 10
151.180140
 20
419.914960
 30
0.0
 10
128.014511
 20
396.749331
 30
0.0
 10
128.014511
 20
368.173036
 30
0.0
  0
SPLINE
  5
118
100
AcDbEntity
  8
Layer_1
 62
7
100
AcDbSpline
 70
8
 71
3
 72
8
 73
4
 74
0
 40
0
 40
0
 40
0
 40
0
 40
1
 40
1
 40
1
 40
1
 10
-11.981845
 20
368.173036
 30
0.0
 10
-11.981845
 20
339.596740
 30
0.0
 10
11.183784
 20
316.431111
 30
0.0
 10
39.760080
 20
316.431111
 30
0.0
  0
SPLINE
  5
119
100
AcDbEntity
  8
Layer_1
 62
7
100
AcDbSpline
 70
8
 71
3
 72
8
 73
4
 74
0
 40
0
 40
0
 40
0
 40
0
 40
1
 40
1
 40
1
 40
1
 10
39.760080
 20
316.431111
 30
0.0
 10
68.336376
 20
316.431111
 30
0.0
 10
91.502005
 20
339.596740
 30
0.0
 10
91.502005
 20
368.173036
 30
0.0
  0
SPLINE
  5
11a
100
AcDbEntity
  8
Layer_1
 62
7
100
AcDbSpline
 70
8
 71
3
 72
8
 73
4
 74
0
 40
0
 40
0
 40
0
 40
0
 40
1
 40
1
 40
1
 40
1
 10
91.502005
 20
368.173036
 30
0.0
 10
91.502005
 20
396.749331
 30
0.0
 10
68.336376
 20
419.914960
 30
0.0
 10
39.760080
 20
419.914960
 30
0.0
  0
SPLINE
  5
11b
100
AcDbEntity
  8
Layer_1
 62
7
100
AcDbSpline
 70
8
 71
3
 72
8
 73
4
 74
0
 40
0
 40
0
 40
0
 40
0
 40
1
 40
1
 40
1
 40
1
 10
39.760080
 20
419.914960
 30
0.0
 10
11.183784
 20
419.914960
 30
0.0
 10
-11.981845
 20
396.749331
 30
0.0
 10
-11.981845
 20
368.173036
 30
0.0
  0
SPLINE
  5
11c
100
AcDbEntity
  8
Layer_1
 62
7
100
AcDbSpline
 70
8
 71
3
 72
8
 73
4
 74
0
 40
0
 40
0
 40
0
 40
0
 40
1
 40
1
 40
1
 40
1
 10
-151.978200
 20
368.173036
 30
0.0
 10
-151.978200
 20
339.596740
 30
0.0
 10
-128.812571
 20
316.431111
 30
0.0
 10
-100.236275
 20
316.431111
 30
0.0
  0
SPLINE
  5
11d
100
AcDbEntity
  8
Layer_1
 62
7
100
AcDbSpline
 70
8
 71
3
 72
8
 73
4
 74
0
 40
0
 40
0
 40
0
 40
0
 40
1
 40
1
 40
1
 40
1
 10
-100.236275
 20
316.431111
 30
0.0
 10
-71.659980
 20
316.431111
 30
0.0
 10
-48.494351
 20
339.596740
 30
0.0
 10
-48.494351
 20
368.173036
 30
0.0
  0
SPLINE
  5
11e
100
AcDbEntity
  8
Layer_1
 62
7
100
AcDbSpline
 70
8
 71
3
 72
8
 73
4
 74
0
 40
0
 40
0
 40
0
 40
0
 40
1
 40
1
 40
1
 40
1
 10
-48.494351
 20
368.173036
 30
0.0
 10
-48.494351
 20
396.749331
 30
0.0
 10
-71.659980
 20
419.914960
 30
0.0
 10
-100.236275
 20
419.914960
 30
0.0
  0
SPLINE
  5
11f
100
AcDbEntity
  8
Layer_1
 62
7
100
AcDbSpline
 70
8
 71
3
 72
8
 73
4
 74
0
 40
0
 40
0
 40
0
 40
0
 40
1
 40
1
 40
1
 40
1
 10
-100.236275
 20
419.914960
 30
0.0
 10
-128.812571
 20
419.914960
 30
0.0
 10
-151.978200
 20
396.749331
 30
0.0
 10
-151.978200
 20
368.173036
 30
0.0
  0
SPLINE
  5
120
100
AcDbEntity
  8
Layer_1
 62
7
100
AcDbSpline
 70
8
 71
3
 72
8
 73
4
 74
0
 40
0
 40
0
 40
0
 40
0
 40
1
 40
1
 40
1
 40
1
 10
35.770163
 20
178.921839
 30
0.0
 10
35.770163
 20
176.718283
 30
0.0
 10
37.556524
 20
174.931922
 30
0.0
 10
39.760080
 20
174.931922
 30
0.0
  0
SPLINE
  5
121
100
AcDbEntity
  8
Layer_1
 62
7
100
AcDbSpline
 70
8
 71
3
 72
8
 73
4
 74
0
 40
0
 40
0
 40
0
 40
0
 40
1
 40
1
 40
1
 40
1
 10
39.760080
 20
174.931922
 30
0.0
 10
41.963636
 20
174.931922
 30
0.0
 10
43.749997
 20
176.718283
 30
0.0
 10
43.749997
 20
178.921839
 30
0.0
  0
SPLINE
  5
122
100
AcDbEntity
  8
Layer_1
 62
7
100
AcDbSpline
 70
8
 71
3
 72
8
 73
4
 74
0
 40
0
 40
0
 40
0
 40
0
 40
1
 40
1
 40
1
 40
1
 10
43.749997
 20
178.921839
 30
0.0
 10
43.749997
 20
181.125395
 30
0.0
 10
41.963636
 20
182.911756
 30
0.0
 10
39.760080
 20
182.911756
 30
0.0
  0
SPLINE
  5
123
100
AcDbEntity
  8
Layer_1
 62
7
100
AcDbSpline
 70
8
 71
3
 72
8
 73
4
 74
0
 40
0
 40
0
 40
0
 40
0
 40
1
 40
1
 40
1
 40
1
 10
39.760080
 20
182.911756
 30
0.0
 10
37.556524
 20
182.911756
 30
0.0
 10
35.770163
 20
181.125395
 30
0.0
 10
35.770163
 20
178.921839
 30
0.0
  0
SPLINE
  5
124
100
AcDbEntity
  8
Layer_1
 62
7
100
AcDbSpline
 70
8
 71
3
 72
8
 73
4
 74
0
 40
0
 40
0
 40
0
 40
0
 40
1
 40
1
 40
1
 40
1
 10
254.824031
 20
320.188195
 30
0.0
 10
254.824031
 20
317.984638
 30
0.0
 10
256.610392
 20
316.198277
 30
0.0
 10
258.813948
 20
316.198277
 30
0.0
  0
SPLINE
  5
125
100
AcDbEntity
  8
Layer_1
 62
7
100
AcDbSpline
 70
8
 71
3
 72
8
 73
4
 74
0
 40
0
 40
0
 40
0
 40
0
 40
1
 40
1
 40
1
 40
1
 10
258.813948
 20
316.198277
 30
0.0
 10
261.017504
 20
316.198277
 30
0.0
 10
262.803865
 20
317.984638
 30
0.0
 10
262.803865
 20
320.188195
 30
0.0
  0
SPLINE
  5
126
100
AcDbEntity
  8
Layer_1
 62
7
100
AcDbSpline
 70
8
 71
3
 72
8
 73
4
 74
0
 40
0
 40
0
 40
0
 40
0
 40
1
 40
1
 40
1
 40
1
 10
262.803865
 20
320.188195
 30
0.0
 10
262.803865
 20
322.391751
 30
0.0
 10
261.017504
 20
324.178112
 30
0.0
 10
258.813948
 20
324.178112
 30
0.0
  0
SPLINE
  5
127
100
AcDbEntity
  8
Layer_1
 62
7
100
AcDbSpline
 70
8
 71
3
 72
8
 73
4
 74
0
 40
0
 40
0
 40
0
 40
0
 40
1
 40
1
 40
1
 40
1
 10
258.813948
 20
324.178112
 30
0.0
 10
256.610392
 20
324.178112
 30
0.0
 10
254.824031
 20
322.391751
 30
0.0
 10
254.824031
 20
320.188195
 30
0.0
  0
SPLINE
  5
128
100
AcDbEntity
  8
Layer_1
 62
7
100
AcDbSpline
 70
8
 71
3
 72
8
 73
4
 74
0
 40
0
 40
0
 40
0
 40
0
 40
1
 40
1
 40
1
 40
1
 10
-81.980022
 20
228.176680
 30
0.0
 10
-81.980022
 20
199.600384
 30
0.0
 10
-58.814393
 20
176.434755
 30
0.0
 10
-30.238098
 20
176.434755
 30
0.0
  0
SPLINE
  5
129
100
AcDbEntity
  8
Layer_1
 62
7
100
AcDbSpline
 70
8
 71
3
 72
8
 73
4
 74
0
 40
0
 40
0
 40
0
 40
0
 40
1
 40
1
 40
1
 40
1
 10
-30.238098
 20
176.434755
 30
0.0
 10
-1.661802
 20
176.434755
 30
0.0
 10
21.503827
 20
199.600384
 30
0.0
 10
21.503827
 20
228.176680
 30
0.0
  0
SPLINE
  5
12a
100
AcDbEntity
  8
Layer_1
 62
7
100
AcDbSpline
 70
8
 71
3
 72
8
 73
4
 74
0
 40
0
 40
0
 40
0
 40
0
 40
1
 40
1
 40
1
 40
1
 10
21.503827
 20
228.176680
 30
0.0
 10
21.503827
 20
256.752976
 30
0.0
 10
-1.661802
 20
279.918605
 30
0.0
 10
-30.238098
 20
279.918605
 30
0.0
  0
SPLINE
  5
12b
100
AcDbEntity
  8
Layer_1
 62
7
100
AcDbSpline
 70
8
 71
3
 72
8
 73
4
 74
0
 40
0
 40
0
 40
0
 40
0
 40
1
 40
1
 40
1
 40
1
 10
-30.238098
 20
279.918605
 30
0.0
 10
-58.814393
 20
279.918605
 30
0.0
 10
-81.980022
 20
256.752976
 30
0.0
 10
-81.980022
 20
228.176680
 30
0.0
  0
SPLINE
  5
12c
100
AcDbEntity
  8
Layer_1
 62
7
100
AcDbSpline
 70
8
 71
3
 72
8
 73
4
 74
0
 40
0
 40
0
 40
0
 40
0
 40
1
 40
1
 40
1
 40
1
 10
-244.222548
 20
178.921839
 30
0.0
 10
-244.222548
 20
176.718283
 30
0.0
 10
-242.436187
 20
174.931922
 30
0.0
 10
-240.232631
 20
174.931922
 30
0.0
  0
SPLINE
  5
12d
100
AcDbEntity
  8
Layer_1
 62
7
100
AcDbSpline
 70
8
 71
3
 72
8
 73
4
 74
0
 40
0
 40
0
 40
0
 40
0
 40
1
 40
1
 40
1
 40
1
 10
-240.232631
 20
174.931922
 30
0.0
 10
-238.029075
 20
174.931922
 30
0.0
 10
-236.242713
 20
176.718283
 30
0.0
 10
-236.242713
 20
178.921839
 30
0.0
  0
SPLINE
  5
12e
100
AcDbEntity
  8
Layer_1
 62
7
100
AcDbSpline
 70
8
 71
3
 72
8
 73
4
 74
0
 40
0
 40
0
 40
0
 40
0
 40
1
 40
1
 40
1
 40
1
 10
-236.242713
 20
178.921839
 30
0.0
 10
-236.242713
 20
181.125395
 30
0.0
 10
-238.029075
 20
182.911756
 30
0.0
 10
-240.232631
 20
182.911756
 30
0.0
  0
SPLINE
  5
12f
100
AcDbEntity
  8
Layer_1
 62
7
100
AcDbSpline
 70
8
 71
3
 72
8
 73
4
 74
0
 40
0
 40
0
 40
0
 40
0
 40
1
 40
1
 40
1
 40
1
 10
-240.232631
 20
182.911756
 30
0.0
 10
-242.436187
 20
182.911756
 30
0.0
 10
-244.222548
 20
181.125395
 30
0.0
 10
-244.222548
 20
178.921839
 30
0.0
  0
SPLINE
  5
130
100
AcDbEntity
  8
Layer_1
 62
7
100
AcDbSpline
 70
8
 71
3
 72
8
 73
4
 74
0
 40
0
 40
0
 40
0
 40
0
 40
1
 40
1
 40
1
 40
1
 10
-291.974556
 20
368.173036
 30
0.0
 10
-291.974556
 20
339.596740
 30
0.0
 10
-268.808926
 20
316.431111
 30
0.0
 10
-240.232631
 20
316.431111
 30
0.0
  0
SPLINE
  5
131
100
AcDbEntity
  8
Layer_1
 62
7
100
AcDbSpline
 70
8
 71
3
 72
8
 73
4
 74
0
 40
0
 40
0
 40
0
 40
0
 40
1
 40
1
 40
1
 40
1
 10
-240.232631
 20
316.431111
 30
0.0
 10
-211.656335
 20
316.431111
 30
0.0
 10
-188.490706
 20
339.596740
 30
0.0
 10
-188.490706
 20
368.173036
 30
0.0
  0
SPLINE
  5
132
100
AcDbEntity
  8
Layer_1
 62
7
100
AcDbSpline
 70
8
 71
3
 72
8
 73
4
 74
0
 40
0
 40
0
 40
0
 40
0
 40
1
 40
1
 40
1
 40
1
 10
-188.490706
 20
368.173036
 30
0.0
 10
-188.490706
 20
396.749331
 30
0.0
 10
-211.656335
 20
419.914960
 30
0.0
 10
-240.232631
 20
419.914960
 30
0.0
  0
SPLINE
  5
133
100
AcDbEntity
  8
Layer_1
 62
7
100
AcDbSpline
 70
8
 71
3
 72
8
 73
4
 74
0
 40
0
 40
0
 40
0
 40
0
 40
1
 40
1
 40
1
 40
1
 10
-240.232631
 20
419.914960
 30
0.0
 10
-268.808926
 20
419.914960
 30
0.0
 10
-291.974556
 20
396.749331
 30
0.0
 10
-291.974556
 20
368.173036
 30
0.0
  0
SPLINE
  5
134
100
AcDbEntity
  8
Layer_1
 62
7
100
AcDbSpline
 70
8
 71
3
 72
8
 73
4
 74
0
 40
0
 40
0
 40
0
 40
0
 40
1
 40
1
 40
1
 40
1
 10
-221.976378
 20
228.176680
 30
0.0
 10
-221.976378
 20
199.600384
 30
0.0
 10
-198.810749
 20
176.434755
 30
0.0
 10
-170.234453
 20
176.434755
 30
0.0
  0
SPLINE
  5
135
100
AcDbEntity
  8
Layer_1
 62
7
100
AcDbSpline
 70
8
 71
3
 72
8
 73
4
 74
0
 40
0
 40
0
 40
0
 40
0
 40
1
 40
1
 40
1
 40
1
 10
-170.234453
 20
176.434755
 30
0.0
 10
-141.658157
 20
176.434755
 30
0.0
 10
-118.492528
 20
199.600384
 30
0.0
 10
-118.492528
 20
228.176680
 30
0.0
  0
SPLINE
  5
136
100
AcDbEntity
  8
Layer_1
 62
7
100
AcDbSpline
 70
8
 71
3
 72
8
 73
4
 74
0
 40
0
 40
0
 40
0
 40
0
 40
1
 40
1
 40
1
 40
1
 10
-118.492528
 20
228.176680
 30
0.0
 10
-118.492528
 20
256.752976
 30
0.0
 10
-141.658157
 20
279.918605
 30
0.0
 10
-170.234453
 20
279.918605
 30
0.0
  0
SPLINE
  5
137
100
AcDbEntity
  8
Layer_1
 62
7
100
AcDbSpline
 70
8
 71
3
 72
8
 73
4
 74
0
 40
0
 40
0
 40
0
 40
0
 40
1
 40
1
 40
1
 40
1
 10
-170.234453
 20
279.918605
 30
0.0
 10
-198.810749
 20
279.918605
 30
0.0
 10
-221.976378
 20
256.752976
 30
0.0
 10
-221.976378
 20
228.176680
 30
0.0
  0
SPLINE
  5
138
100
AcDbEntity
  8
Layer_1
 62
7
100
AcDbSpline
 70
8
 71
3
 72
8
 73
4
 74
0
 40
0
 40
0
 40
0
 40
0
 40
1
 40
1
 40
1
 40
1
 10
175.766518
 20
178.921839
 30
0.0
 10
175.766518
 20
176.718283
 30
0.0
 10
177.552879
 20
174.931922
 30
0.0
 10
179.756435
 20
174.931922
 30
0.0
  0
SPLINE
  5
139
100
AcDbEntity
  8
Layer_1
 62
7
100
AcDbSpline
 70
8
 71
3
 72
8
 73
4
 74
0
 40
0
 40
0
 40
0
 40
0
 40
1
 40
1
 40
1
 40
1
 10
179.756435
 20
174.931922
 30
0.0
 10
181.959992
 20
174.931922
 30
0.0
 10
183.746353
 20
176.718283
 30
0.0
 10
183.746353
 20
178.921839
 30
0.0
  0
SPLINE
  5
13a
100
AcDbEntity
  8
Layer_1
 62
7
100
AcDbSpline
 70
8
 71
3
 72
8
 73
4
 74
0
 40
0
 40
0
 40
0
 40
0
 40
1
 40
1
 40
1
 40
1
 10
183.746353
 20
178.921839
 30
0.0
 10
183.746353
 20
181.125395
 30
0.0
 10
181.959992
 20
182.911756
 30
0.0
 10
179.756435
 20
182.911756
 30
0.0
  0
SPLINE
  5
13b
100
AcDbEntity
  8
Layer_1
 62
7
100
AcDbSpline
 70
8
 71
3
 72
8
 73
4
 74
0
 40
0
 40
0
 40
0
 40
0
 40
1
 40
1
 40
1
 40
1
 10
179.756435
 20
182.911756
 30
0.0
 10
177.552879
 20
182.911756
 30
0.0
 10
175.766518
 20
181.125395
 30
0.0
 10
175.766518
 20
178.921839
 30
0.0
  0
SPLINE
  5
13c
100
AcDbEntity
  8
Layer_1
 62
7
100
AcDbSpline
 70
8
 71
3
 72
8
 73
4
 74
0
 40
0
 40
0
 40
0
 40
0
 40
1
 40
1
 40
1
 40
1
 10
-174.224370
 20
417.406710
 30
0.0
 10
-174.224370
 20
415.203154
 30
0.0
 10
-172.438009
 20
413.416793
 30
0.0
 10
-170.234453
 20
413.416793
 30
0.0
  0
SPLINE
  5
13d
100
AcDbEntity
  8
Layer_1
 62
7
100
AcDbSpline
 70
8
 71
3
 72
8
 73
4
 74
0
 40
0
 40
0
 40
0
 40
0
 40
1
 40
1
 40
1
 40
1
 10
-170.234453
 20
413.416793
 30
0.0
 10
-168.030897
 20
413.416793
 30
0.0
 10
-166.244536
 20
415.203154
 30
0.0
 10
-166.244536
 20
417.406710
 30
0.0
  0
SPLINE
  5
13e
100
AcDbEntity
  8
Layer_1
 62
7
100
AcDbSpline
 70
8
 71
3
 72
8
 73
4
 74
0
 40
0
 40
0
 40
0
 40
0
 40
1
 40
1
 40
1
 40
1
 10
-166.244536
 20
417.406710
 30
0.0
 10
-166.244536
 20
419.610266
 30
0.0
 10
-168.030897
 20
421.396627
 30
0.0
 10
-170.234453
 20
421.396627
 30
0.0
  0
SPLINE
  5
13f
100
AcDbEntity
  8
Layer_1
 62
7
100
AcDbSpline
 70
8
 71
3
 72
8
 73
4
 74
0
 40
0
 40
0
 40
0
 40
0
 40
1
 40
1
 40
1
 40
1
 10
-170.234453
 20
421.396627
 30
0.0
 10
-172.438009
 20
421.396627
 30
0.0
 10
-174.224370
 20
419.610266
 30
0.0
 10
-174.224370
 20
417.406710
 30
0.0
  0
SPLINE
  5
140
100
AcDbEntity
  8
Layer_1
 62
7
100
AcDbSpline
 70
8
 71
3
 72
8
 73
4
 74
0
 40
0
 40
0
 40
0
 40
0
 40
1
 40
1
 40
1
 40
1
 10
-323.280060
 20
320.188195
 30
0.0
 10
-323.280060
 20
317.984638
 30
0.0
 10
-321.493710
 20
316.198277
 30
0.0
 10
-319.290143
 20
316.198277
 30
0.0
  0
SPLINE
  5
141
100
AcDbEntity
  8
Layer_1
 62
7
100
AcDbSpline
 70
8
 71
3
 72
8
 73
4
 74
0
 40
0
 40
0
 40
0
 40
0
 40
1
 40
1
 40
1
 40
1
 10
-319.290143
 20
316.198277
 30
0.0
 10
-317.086576
 20
316.198277
 30
0.0
 10
-315.300226
 20
317.984638
 30
0.0
 10
-315.300226
 20
320.188195
 30
0.0
  0
SPLINE
  5
142
100
AcDbEntity
  8
Layer_1
 62
7
100
AcDbSpline
 70
8
 71
3
 72
8
 73
4
 74
0
 40
0
 40
0
 40
0
 40
0
 40
1
 40
1
 40
1
 40
1
 10
-315.300226
 20
320.188195
 30
0.0
 10
-315.300226
 20
322.391751
 30
0.0
 10
-317.086576
 20
324.178112
 30
0.0
 10
-319.290143
 20
324.178112
 30
0.0
  0
SPLINE
  5
143
100
AcDbEntity
  8
Layer_1
 62
7
100
AcDbSpline
 70
8
 71
3
 72
8
 73
4
 74
0
 40
0
 40
0
 40
0
 40
0
 40
1
 40
1
 40
1
 40
1
 10
-319.290143
 20
324.178112
 30
0.0
 10
-321.493710
 20
324.178112
 30
0.0
 10
-323.280060
 20
322.391751
 30
0.0
 10
-323.280060
 20
320.188195
 30
0.0
  0
SPLINE
  5
144
100
AcDbEntity
  8
Layer_1
 62
7
100
AcDbSpline
 70
8
 71
3
 72
8
 73
4
 74
0
 40
0
 40
0
 40
0
 40
0
 40
1
 40
1
 40
1
 40
1
 10
-104.226193
 20
178.921839
 30
0.0
 10
-104.226193
 20
176.718283
 30
0.0
 10
-102.439832
 20
174.931922
 30
0.0
 10
-100.236275
 20
174.931922
 30
0.0
  0
SPLINE
  5
145
100
AcDbEntity
  8
Layer_1
 62
7
100
AcDbSpline
 70
8
 71
3
 72
8
 73
4
 74
0
 40
0
 40
0
 40
0
 40
0
 40
1
 40
1
 40
1
 40
1
 10
-100.236275
 20
174.931922
 30
0.0
 10
-98.032719
 20
174.931922
 30
0.0
 10
-96.246358
 20
176.718283
 30
0.0
 10
-96.246358
 20
178.921839
 30
0.0
  0
SPLINE
  5
146
100
AcDbEntity
  8
Layer_1
 62
7
100
AcDbSpline
 70
8
 71
3
 72
8
 73
4
 74
0
 40
0
 40
0
 40
0
 40
0
 40
1
 40
1
 40
1
 40
1
 10
-96.246358
 20
178.921839
 30
0.0
 10
-96.246358
 20
181.125395
 30
0.0
 10
-98.032719
 20
182.911756
 30
0.0
 10
-100.236275
 20
182.911756
 30
0.0
  0
SPLINE
  5
147
100
AcDbEntity
  8
Layer_1
 62
7
100
AcDbSpline
 70
8
 71
3
 72
8
 73
4
 74
0
 40
0
 40
0
 40
0
 40
0
 40
1
 40
1
 40
1
 40
1
 10
-100.236275
 20
182.911756
 30
0.0
 10
-102.439832
 20
182.911756
 30
0.0
 10
-104.226193
 20
181.125395
 30
0.0
 10
-104.226193
 20
178.921839
 30
0.0
  0
SPLINE
  5
148
100
AcDbEntity
  8
Layer_1
 62
7
100
AcDbSpline
 70
8
 71
3
 72
8
 73
4
 74
0
 40
0
 40
0
 40
0
 40
0
 40
1
 40
1
 40
1
 40
1
 10
249.754613
 20
158.929919
 30
0.0
 10
273.753976
 20
158.929919
 30
0.0
 10
296.042162
 20
171.356384
 30
0.0
 10
308.659381
 20
191.771447
 30
0.0
  0
SPLINE
  5
149
100
AcDbEntity
  8
Layer_1
 62
7
100
AcDbSpline
 70
8
 71
3
 72
8
 73
4
 74
0
 40
0
 40
0
 40
0
 40
0
 40
1
 40
1
 40
1
 40
1
 10
308.659381
 20
191.771447
 30
0.0
 10
321.276622
 20
212.186510
 30
0.0
 10
322.423686
 20
237.678949
 30
0.0
 10
311.690851
 20
259.144640
 30
0.0
  0
LWPOLYLINE
  5
14a
100
AcDbEntity
  8
Layer_1
 62
7
100
AcDbPolyline
 90
2
 70
0
 10
311.698873
 20
259.132935
 30
0.0
 10
241.679528
 20
399.129290
 30
0.0
  0
SPLINE
  5
14b
100
AcDbEntity
  8
Layer_1
 62
7
100
AcDbSpline
 70
8
 71
3
 72
8
 73
4
 74
0
 40
0
 40
0
 40
0
 40
0
 40
1
 40
1
 40
1
 40
1
 10
-372.167059
 20
259.144640
 30
0.0
 10
-382.899852
 20
237.678949
 30
0.0
 10
-381.752811
 20
212.186510
 30
0.0
 10
-369.135583
 20
191.771447
 30
0.0
  0
SPLINE
  5
14c
100
AcDbEntity
  8
Layer_1
 62
7
100
AcDbSpline
 70
8
 71
3
 72
8
 73
4
 74
0
 40
0
 40
0
 40
0
 40
0
 40
1
 40
1
 40
1
 40
1
 10
-369.135583
 20
191.771447
 30
0.0
 10
-356.518358
 20
171.356384
 30
0.0
 10
-334.230163
 20
158.929919
 30
0.0
 10
-310.230808
 20
158.929919
 30
0.0
  0
LWPOLYLINE
  5
14d
100
AcDbEntity
  8
Layer_1
 62
7
100
AcDbPolyline
 90
2
 70
0
 10
-310.241392
 20
158.908753
 30
0.0
 10
249.744030
 20
158.908753
 30
0.0
  0
SPLINE
  5
14e
100
AcDbEntity
  8
Layer_1
 62
7
100
AcDbSpline
 70
8
 71
3
 72
8
 73
4
 74
0
 40
0
 40
0
 40
0
 40
0
 40
1
 40
1
 40
1
 40
1
 10
-240.232631
 20
437.419796
 30
0.0
 10
-266.461416
 20
437.419796
 30
0.0
 10
-290.439041
 20
422.600778
 30
0.0
 10
-302.168870
 20
399.140996
 30
0.0
  0
LWPOLYLINE
  5
14f
100
AcDbEntity
  8
Layer_1
 62
7
100
AcDbPolyline
 90
2
 70
0
 10
-302.176891
 20
399.129290
 30
0.0
 10
-372.196235
 20
259.132935
 30
0.0
  0
SPLINE
  5
150
100
AcDbEntity
  8
Layer_1
 62
7
100
AcDbSpline
 70
8
 71
3
 72
8
 73
4
 74
0
 40
0
 40
0
 40
0
 40
0
 40
1
 40
1
 40
1
 40
1
 10
241.692673
 20
399.140996
 30
0.0
 10
229.962866
 20
422.600778
 30
0.0
 10
205.985242
 20
437.419796
 30
0.0
 10
179.756435
 20
437.419796
 30
0.0
  0
SPLINE
  5
151
100
AcDbEntity
  8
Layer_1
 62
7
100
AcDbSpline
 70
8
 71
3
 72
8
 73
4
 74
0
 40
0
 40
0
 40
0
 40
0
 40
1
 40
1
 40
1
 40
1
 10
254.824031
 20
20.192981
 30
0.0
 10
254.824031
 20
17.989414
 30
0.0
 10
256.610392
 20
16.203063
 30
0.0
 10
258.813948
 20
16.203063
 30
0.0
  0
SPLINE
  5
152
100
AcDbEntity
  8
Layer_1
 62
7
100
AcDbSpline
 70
8
 71
3
 72
8
 73
4
 74
0
 40
0
 40
0
 40
0
 40
0
 40
1
 40
1
 40
1
 40
1
 10
258.813948
 20
16.203063
 30
0.0
 10
261.017504
 20
16.203063
 30
0.0
 10
262.803865
 20
17.989414
 30
0.0
 10
262.803865
 20
20.192981
 30
0.0
  0
SPLINE
  5
153
100
AcDbEntity
  8
Layer_1
 62
7
100
AcDbSpline
 70
8
 71
3
 72
8
 73
4
 74
0
 40
0
 40
0
 40
0
 40
0
 40
1
 40
1
 40
1
 40
1
 10
262.803865
 20
20.192981
 30
0.0
 10
262.803865
 20
22.396547
 30
0.0
 10
261.017504
 20
24.182898
 30
0.0
 10
258.813948
 20
24.182898
 30
0.0
  0
SPLINE
  5
154
100
AcDbEntity
  8
Layer_1
 62
7
100
AcDbSpline
 70
8
 71
3
 72
8
 73
4
 74
0
 40
0
 40
0
 40
0
 40
0
 40
1
 40
1
 40
1
 40
1
 10
258.813948
 20
24.182898
 30
0.0
 10
256.610392
 20
24.182898
 30
0.0
 10
254.824031
 20
22.396547
 30
0.0
 10
254.824031
 20
20.192981
 30
0.0
  0
SPLINE
  5
155
100
AcDbEntity
  8
Layer_1
 62
7
100
AcDbSpline
 70
8
 71
3
 72
8
 73
4
 74
0
 40
0
 40
0
 40
0
 40
0
 40
1
 40
1
 40
1
 40
1
 10
175.766518
 20
-121.073375
 30
0.0
 10
175.766518
 20
-123.276946
 30
0.0
 10
177.552879
 20
-125.063292
 30
0.0
 10
179.756435
 20
-125.063292
 30
0.0
  0
SPLINE
  5
156
100
AcDbEntity
  8
Layer_1
 62
7
100
AcDbSpline
 70
8
 71
3
 72
8
 73
4
 74
0
 40
0
 40
0
 40
0
 40
0
 40
1
 40
1
 40
1
 40
1
 10
179.756435
 20
-125.063292
 30
0.0
 10
181.959992
 20
-125.063292
 30
0.0
 10
183.746353
 20
-123.276946
 30
0.0
 10
183.746353
 20
-121.073375
 30
0.0
  0
SPLINE
  5
157
100
AcDbEntity
  8
Layer_1
 62
7
100
AcDbSpline
 70
8
 71
3
 72
8
 73
4
 74
0
 40
0
 40
0
 40
0
 40
0
 40
1
 40
1
 40
1
 40
1
 10
183.746353
 20
-121.073375
 30
0.0
 10
183.746353
 20
-118.869804
 30
0.0
 10
181.959992
 20
-117.083458
 30
0.0
 10
179.756435
 20
-117.083458
 30
0.0
  0
SPLINE
  5
158
100
AcDbEntity
  8
Layer_1
 62
7
100
AcDbSpline
 70
8
 71
3
 72
8
 73
4
 74
0
 40
0
 40
0
 40
0
 40
0
 40
1
 40
1
 40
1
 40
1
 10
179.756435
 20
-117.083458
 30
0.0
 10
177.552879
 20
-117.083458
 30
0.0
 10
175.766518
 20
-118.869804
 30
0.0
 10
175.766518
 20
-121.073375
 30
0.0
  0
SPLINE
  5
159
100
AcDbEntity
  8
Layer_1
 62
7
100
AcDbSpline
 70
8
 71
3
 72
8
 73
4
 74
0
 40
0
 40
0
 40
0
 40
0
 40
1
 40
1
 40
1
 40
1
 10
-323.280060
 20
20.192981
 30
0.0
 10
-323.280060
 20
17.989414
 30
0.0
 10
-321.493710
 20
16.203063
 30
0.0
 10
-319.290143
 20
16.203063
 30
0.0
  0
SPLINE
  5
15a
100
AcDbEntity
  8
Layer_1
 62
7
100
AcDbSpline
 70
8
 71
3
 72
8
 73
4
 74
0
 40
0
 40
0
 40
0
 40
0
 40
1
 40
1
 40
1
 40
1
 10
-319.290143
 20
16.203063
 30
0.0
 10
-317.086576
 20
16.203063
 30
0.0
 10
-315.300226
 20
17.989414
 30
0.0
 10
-315.300226
 20
20.192981
 30
0.0
  0
SPLINE
  5
15b
100
AcDbEntity
  8
Layer_1
 62
7
100
AcDbSpline
 70
8
 71
3
 72
8
 73
4
 74
0
 40
0
 40
0
 40
0
 40
0
 40
1
 40
1
 40
1
 40
1
 10
-315.300226
 20
20.192981
 30
0.0
 10
-315.300226
 20
22.396547
 30
0.0
 10
-317.086576
 20
24.182898
 30
0.0
 10
-319.290143
 20
24.182898
 30
0.0
  0
SPLINE
  5
15c
100
AcDbEntity
  8
Layer_1
 62
7
100
AcDbSpline
 70
8
 71
3
 72
8
 73
4
 74
0
 40
0
 40
0
 40
0
 40
0
 40
1
 40
1
 40
1
 40
1
 10
-319.290143
 20
24.182898
 30
0.0
 10
-321.493710
 20
24.182898
 30
0.0
 10
-323.280060
 20
22.396547
 30
0.0
 10
-323.280060
 20
20.192981
 30
0.0
  0
SPLINE
  5
15d
100
AcDbEntity
  8
Layer_1
 62
7
100
AcDbSpline
 70
8
 71
3
 72
8
 73
4
 74
0
 40
0
 40
0
 40
0
 40
0
 40
1
 40
1
 40
1
 40
1
 10
-174.224370
 20
117.432663
 30
0.0
 10
-174.224370
 20
115.229107
 30
0.0
 10
-172.438009
 20
113.442745
 30
0.0
 10
-170.234453
 20
113.442745
 30
0.0
  0
SPLINE
  5
15e
100
AcDbEntity
  8
Layer_1
 62
7
100
AcDbSpline
 70
8
 71
3
 72
8
 73
4
 74
0
 40
0
 40
0
 40
0
 40
0
 40
1
 40
1
 40
1
 40
1
 10
-170.234453
 20
113.442745
 30
0.0
 10
-168.030897
 20
113.442745
 30
0.0
 10
-166.244536
 20
115.229107
 30
0.0
 10
-166.244536
 20
117.432663
 30
0.0
  0
SPLINE
  5
15f
100
AcDbEntity
  8
Layer_1
 62
7
100
AcDbSpline
 70
8
 71
3
 72
8
 73
4
 74
0
 40
0
 40
0
 40
0
 40
0
 40
1
 40
1
 40
1
 40
1
 10
-166.244536
 20
117.432663
 30
0.0
 10
-166.244536
 20
119.636219
 30
0.0
 10
-168.030897
 20
121.422580
 30
0.0
 10
-170.234453
 20
121.422580
 30
0.0
  0
SPLINE
  5
160
100
AcDbEntity
  8
Layer_1
 62
7
100
AcDbSpline
 70
8
 71
3
 72
8
 73
4
 74
0
 40
0
 40
0
 40
0
 40
0
 40
1
 40
1
 40
1
 40
1
 10
-170.234453
 20
121.422580
 30
0.0
 10
-172.438009
 20
121.422580
 30
0.0
 10
-174.224370
 20
119.636219
 30
0.0
 10
-174.224370
 20
117.432663
 30
0.0
  0
SPLINE
  5
161
100
AcDbEntity
  8
Layer_1
 62
7
100
AcDbSpline
 70
8
 71
3
 72
8
 73
4
 74
0
 40
0
 40
0
 40
0
 40
0
 40
1
 40
1
 40
1
 40
1
 10
-104.226193
 20
-121.073375
 30
0.0
 10
-104.226193
 20
-123.276946
 30
0.0
 10
-102.439832
 20
-125.063292
 30
0.0
 10
-100.236275
 20
-125.063292
 30
0.0
  0
SPLINE
  5
162
100
AcDbEntity
  8
Layer_1
 62
7
100
AcDbSpline
 70
8
 71
3
 72
8
 73
4
 74
0
 40
0
 40
0
 40
0
 40
0
 40
1
 40
1
 40
1
 40
1
 10
-100.236275
 20
-125.063292
 30
0.0
 10
-98.032719
 20
-125.063292
 30
0.0
 10
-96.246358
 20
-123.276946
 30
0.0
 10
-96.246358
 20
-121.073375
 30
0.0
  0
SPLINE
  5
163
100
AcDbEntity
  8
Layer_1
 62
7
100
AcDbSpline
 70
8
 71
3
 72
8
 73
4
 74
0
 40
0
 40
0
 40
0
 40
0
 40
1
 40
1
 40
1
 40
1
 10
-96.246358
 20
-121.073375
 30
0.0
 10
-96.246358
 20
-118.869804
 30
0.0
 10
-98.032719
 20
-117.083458
 30
0.0
 10
-100.236275
 20
-117.083458
 30
0.0
  0
SPLINE
  5
164
100
AcDbEntity
  8
Layer_1
 62
7
100
AcDbSpline
 70
8
 71
3
 72
8
 73
4
 74
0
 40
0
 40
0
 40
0
 40
0
 40
1
 40
1
 40
1
 40
1
 10
-100.236275
 20
-117.083458
 30
0.0
 10
-102.439832
 20
-117.083458
 30
0.0
 10
-104.226193
 20
-118.869804
 30
0.0
 10
-104.226193
 20
-121.073375
 30
0.0
  0
SPLINE
  5
165
100
AcDbEntity
  8
Layer_1
 62
7
100
AcDbSpline
 70
8
 71
3
 72
8
 73
4
 74
0
 40
0
 40
0
 40
0
 40
0
 40
1
 40
1
 40
1
 40
1
 10
35.770163
 20
-121.073375
 30
0.0
 10
35.770163
 20
-123.276946
 30
0.0
 10
37.556524
 20
-125.063292
 30
0.0
 10
39.760080
 20
-125.063292
 30
0.0
  0
SPLINE
  5
166
100
AcDbEntity
  8
Layer_1
 62
7
100
AcDbSpline
 70
8
 71
3
 72
8
 73
4
 74
0
 40
0
 40
0
 40
0
 40
0
 40
1
 40
1
 40
1
 40
1
 10
39.760080
 20
-125.063292
 30
0.0
 10
41.963636
 20
-125.063292
 30
0.0
 10
43.749997
 20
-123.276946
 30
0.0
 10
43.749997
 20
-121.073375
 30
0.0
  0
SPLINE
  5
167
100
AcDbEntity
  8
Layer_1
 62
7
100
AcDbSpline
 70
8
 71
3
 72
8
 73
4
 74
0
 40
0
 40
0
 40
0
 40
0
 40
1
 40
1
 40
1
 40
1
 10
43.749997
 20
-121.073375
 30
0.0
 10
43.749997
 20
-118.869804
 30
0.0
 10
41.963636
 20
-117.083458
 30
0.0
 10
39.760080
 20
-117.083458
 30
0.0
  0
SPLINE
  5
168
100
AcDbEntity
  8
Layer_1
 62
7
100
AcDbSpline
 70
8
 71
3
 72
8
 73
4
 74
0
 40
0
 40
0
 40
0
 40
0
 40
1
 40
1
 40
1
 40
1
 10
39.760080
 20
-117.083458
 30
0.0
 10
37.556524
 20
-117.083458
 30
0.0
 10
35.770163
 20
-118.869804
 30
0.0
 10
35.770163
 20
-121.073375
 30
0.0
  0
SPLINE
  5
169
100
AcDbEntity
  8
Layer_1
 62
7
100
AcDbSpline
 70
8
 71
3
 72
8
 73
4
 74
0
 40
0
 40
0
 40
0
 40
0
 40
1
 40
1
 40
1
 40
1
 10
105.768340
 20
117.432663
 30
0.0
 10
105.768340
 20
115.229107
 30
0.0
 10
107.554702
 20
113.442745
 30
0.0
 10
109.758258
 20
113.442745
 30
0.0
  0
SPLINE
  5
16a
100
AcDbEntity
  8
Layer_1
 62
7
100
AcDbSpline
 70
8
 71
3
 72
8
 73
4
 74
0
 40
0
 40
0
 40
0
 40
0
 40
1
 40
1
 40
1
 40
1
 10
109.758258
 20
113.442745
 30
0.0
 10
111.961814
 20
113.442745
 30
0.0
 10
113.748175
 20
115.229107
 30
0.0
 10
113.748175
 20
117.432663
 30
0.0
  0
SPLINE
  5
16b
100
AcDbEntity
  8
Layer_1
 62
7
100
AcDbSpline
 70
8
 71
3
 72
8
 73
4
 74
0
 40
0
 40
0
 40
0
 40
0
 40
1
 40
1
 40
1
 40
1
 10
113.748175
 20
117.432663
 30
0.0
 10
113.748175
 20
119.636219
 30
0.0
 10
111.961814
 20
121.422580
 30
0.0
 10
109.758258
 20
121.422580
 30
0.0
  0
SPLINE
  5
16c
100
AcDbEntity
  8
Layer_1
 62
7
100
AcDbSpline
 70
8
 71
3
 72
8
 73
4
 74
0
 40
0
 40
0
 40
0
 40
0
 40
1
 40
1
 40
1
 40
1
 10
109.758258
 20
121.422580
 30
0.0
 10
107.554702
 20
121.422580
 30
0.0
 10
105.768340
 20
119.636219
 30
0.0
 10
105.768340
 20
117.432663
 30
0.0
  0
SPLINE
  5
16d
100
AcDbEntity
  8
Layer_1
 62
7
100
AcDbSpline
 70
8
 71
3
 72
8
 73
4
 74
0
 40
0
 40
0
 40
0
 40
0
 40
1
 40
1
 40
1
 40
1
 10
-244.222548
 20
-121.073375
 30
0.0
 10
-244.222548
 20
-123.276946
 30
0.0
 10
-242.436187
 20
-125.063292
 30
0.0
 10
-240.232631
 20
-125.063292
 30
0.0
  0
SPLINE
  5
16e
100
AcDbEntity
  8
Layer_1
 62
7
100
AcDbSpline
 70
8
 71
3
 72
8
 73
4
 74
0
 40
0
 40
0
 40
0
 40
0
 40
1
 40
1
 40
1
 40
1
 10
-240.232631
 20
-125.063292
 30
0.0
 10
-238.029075
 20
-125.063292
 30
0.0
 10
-236.242713
 20
-123.276946
 30
0.0
 10
-236.242713
 20
-121.073375
 30
0.0
  0
SPLINE
  5
16f
100
AcDbEntity
  8
Layer_1
 62
7
100
AcDbSpline
 70
8
 71
3
 72
8
 73
4
 74
0
 40
0
 40
0
 40
0
 40
0
 40
1
 40
1
 40
1
 40
1
 10
-236.242713
 20
-121.073375
 30
0.0
 10
-236.242713
 20
-118.869804
 30
0.0
 10
-238.029075
 20
-117.083458
 30
0.0
 10
-240.232631
 20
-117.083458
 30
0.0
  0
SPLINE
  5
170
100
AcDbEntity
  8
Layer_1
 62
7
100
AcDbSpline
 70
8
 71
3
 72
8
 73
4
 74
0
 40
0
 40
0
 40
0
 40
0
 40
1
 40
1
 40
1
 40
1
 10
-240.232631
 20
-117.083458
 30
0.0
 10
-242.436187
 20
-117.083458
 30
0.0
 10
-244.222548
 20
-118.869804
 30
0.0
 10
-244.222548
 20
-121.073375
 30
0.0
  0
LWPOLYLINE
  5
171
100
AcDbEntity
  8
Layer_1
 62
7
100
AcDbPolyline
 90
2
 70
0
 10
179.745852
 20
437.398630
 30
0.0
 10
-240.243214
 20
437.398630
 30
0.0
  0
SPLINE
  5
172
100
AcDbEntity
  8
Layer_1
 62
7
100
AcDbSpline
 70
8
 71
3
 72
8
 73
4
 74
0
 40
0
 40
0
 40
0
 40
0
 40
1
 40
1
 40
1
 40
1
 10
-27.237745
 20
107.892093
 30
0.0
 10
-22.527689
 20
109.373328
 30
0.0
 10
-19.603401
 20
114.070149
 30
0.0
 10
-20.352707
 20
118.950438
 30
0.0
  0
SPLINE
  5
173
100
AcDbEntity
  8
Layer_1
 62
7
100
AcDbSpline
 70
8
 71
3
 72
8
 73
4
 74
0
 40
0
 40
0
 40
0
 40
0
 40
1
 40
1
 40
1
 40
1
 10
-20.352707
 20
118.950438
 30
0.0
 10
-21.102013
 20
123.830727
 30
0.0
 10
-25.300661
 20
127.433912
 30
0.0
 10
-30.238138
 20
127.433892
 30
0.0
  0
SPLINE
  5
174
100
AcDbEntity
  8
Layer_1
 62
7
100
AcDbSpline
 70
8
 71
3
 72
8
 73
4
 74
0
 40
0
 40
0
 40
0
 40
0
 40
1
 40
1
 40
1
 40
1
 10
-30.238138
 20
127.433892
 30
0.0
 10
-35.175616
 20
127.433872
 30
0.0
 10
-39.374234
 20
123.830653
 30
0.0
 10
-40.123501
 20
118.950358
 30
0.0
  0
SPLINE
  5
175
100
AcDbEntity
  8
Layer_1
 62
7
100
AcDbSpline
 70
8
 71
3
 72
8
 73
4
 74
0
 40
0
 40
0
 40
0
 40
0
 40
1
 40
1
 40
1
 40
1
 10
-40.123501
 20
118.950358
 30
0.0
 10
-40.872767
 20
114.070063
 30
0.0
 10
-37.948440
 20
109.373266
 30
0.0
 10
-33.238373
 20
107.892069
 30
0.0
  0
LWPOLYLINE
  5
176
100
AcDbEntity
  8
Layer_1
 62
7
100
AcDbPolyline
 90
2
 70
0
 10
-27.243014
 20
107.875911
 30
0.0
 10
-27.243014
 20
-20.161276
 30
0.0
  0
SPLINE
  5
177
100
AcDbEntity
  8
Layer_1
 62
7
100
AcDbSpline
 70
8
 71
3
 72
8
 73
4
 74
0
 40
0
 40
0
 40
0
 40
0
 40
1
 40
1
 40
1
 40
1
 10
-33.237682
 20
-20.163565
 30
0.0
 10
-39.238548
 20
-20.512033
 30
0.0
 10
-45.132801
 20
-21.903478
 30
0.0
 10
-50.655979
 20
-24.275466
 30
0.0
  0
LWPOLYLINE
  5
178
100
AcDbEntity
  8
Layer_1
 62
7
100
AcDbPolyline
 90
2
 70
0
 10
-33.254348
 20
-20.161276
 30
0.0
 10
-33.254348
 20
107.875911
 30
0.0
  0
SPLINE
  5
179
100
AcDbEntity
  8
Layer_1
 62
7
100
AcDbSpline
 70
8
 71
3
 72
8
 73
4
 74
0
 40
0
 40
0
 40
0
 40
0
 40
1
 40
1
 40
1
 40
1
 10
-74.452649
 20
23.317619
 30
0.0
 10
-50.183615
 20
37.266370
 30
0.0
 10
-41.408135
 20
67.986446
 30
0.0
 10
-54.647272
 20
92.649760
 30
0.0
  0
SPLINE
  5
17a
100
AcDbEntity
  8
Layer_1
 62
7
100
AcDbSpline
 70
8
 71
3
 72
8
 73
4
 74
0
 40
0
 40
0
 40
0
 40
0
 40
1
 40
1
 40
1
 40
1
 10
-54.647272
 20
92.649760
 30
0.0
 10
-67.886406
 20
117.313072
 30
0.0
 10
-98.339096
 20
126.975674
 30
0.0
 10
-123.375943
 20
114.457285
 30
0.0
  0
SPLINE
  5
17b
100
AcDbEntity
  8
Layer_1
 62
7
100
AcDbSpline
 70
8
 71
3
 72
8
 73
4
 74
0
 40
0
 40
0
 40
0
 40
0
 40
1
 40
1
 40
1
 40
1
 10
-123.375943
 20
114.457285
 30
0.0
 10
-148.412791
 20
101.938895
 30
0.0
 10
-158.954389
 20
71.779206
 30
0.0
 10
-147.167275
 20
46.389885
 30
0.0
  0
SPLINE
  5
17c
100
AcDbEntity
  8
Layer_1
 62
7
100
AcDbSpline
 70
8
 71
3
 72
8
 73
4
 74
0
 40
0
 40
0
 40
0
 40
0
 40
1
 40
1
 40
1
 40
1
 10
-147.167275
 20
46.389885
 30
0.0
 10
-135.380166
 20
21.000561
 30
0.0
 10
-105.538840
 20
9.588832
 30
0.0
 10
-79.818394
 20
20.634754
 30
0.0
  0
LWPOLYLINE
  5
17d
100
AcDbEntity
  8
Layer_1
 62
7
100
AcDbPolyline
 90
2
 70
0
 10
-74.465855
 20
23.293898
 30
0.0
 10
-50.674518
 20
-24.288776
 30
0.0
  0
SPLINE
  5
17e
100
AcDbEntity
  8
Layer_1
 62
7
100
AcDbSpline
 70
8
 71
3
 72
8
 73
4
 74
0
 40
0
 40
0
 40
0
 40
0
 40
1
 40
1
 40
1
 40
1
 10
-56.021755
 20
-26.958318
 30
0.0
 10
-71.153687
 20
-35.655483
 30
0.0
 10
-80.881333
 20
-51.395154
 30
0.0
 10
-81.893096
 20
-68.819054
 30
0.0
  0
LWPOLYLINE
  5
17f
100
AcDbEntity
  8
Layer_1
 62
7
100
AcDbPolyline
 90
2
 70
0
 10
-56.029685
 20
-26.955777
 30
0.0
 10
-79.821022
 20
20.605731
 30
0.0
  0
SPLINE
  5
180
100
AcDbEntity
  8
Layer_1
 62
7
100
AcDbSpline
 70
8
 71
3
 72
8
 73
4
 74
0
 40
0
 40
0
 40
0
 40
0
 40
1
 40
1
 40
1
 40
1
 10
-118.579484
 20
-68.818949
 30
0.0
 10
-119.557390
 20
-51.978788
 30
0.0
 10
-128.682845
 20
-36.672490
 30
0.0
 10
-143.032075
 20
-27.804176
 30
0.0
  0
SPLINE
  5
181
100
AcDbEntity
  8
Layer_1
 62
7
100
AcDbSpline
 70
8
 71
3
 72
8
 73
4
 74
0
 40
0
 40
0
 40
0
 40
0
 40
1
 40
1
 40
1
 40
1
 10
-143.032075
 20
-27.804176
 30
0.0
 10
-157.381304
 20
-18.935860
 30
0.0
 10
-175.152702
 20
-17.618983
 30
0.0
 10
-190.652334
 20
-24.275466
 30
0.0
  0
LWPOLYLINE
  5
182
100
AcDbEntity
  8
Layer_1
 62
7
100
AcDbPolyline
 90
2
 70
0
 10
-118.577195
 20
-68.823450
 30
0.0
 10
-81.916522
 20
-68.823450
 30
0.0
  0
SPLINE
  5
183
100
AcDbEntity
  8
Layer_1
 62
7
100
AcDbSpline
 70
8
 71
3
 72
8
 73
4
 74
0
 40
0
 40
0
 40
0
 40
0
 40
1
 40
1
 40
1
 40
1
 10
-214.449004
 20
23.317619
 30
0.0
 10
-190.179971
 20
37.266370
 30
0.0
 10
-181.404491
 20
67.986446
 30
0.0
 10
-194.643627
 20
92.649760
 30
0.0
  0
SPLINE
  5
184
100
AcDbEntity
  8
Layer_1
 62
7
100
AcDbSpline
 70
8
 71
3
 72
8
 73
4
 74
0
 40
0
 40
0
 40
0
 40
0
 40
1
 40
1
 40
1
 40
1
 10
-194.643627
 20
92.649760
 30
0.0
 10
-207.882761
 20
117.313072
 30
0.0
 10
-238.335452
 20
126.975674
 30
0.0
 10
-263.372299
 20
114.457285
 30
0.0
  0
SPLINE
  5
185
100
AcDbEntity
  8
Layer_1
 62
7
100
AcDbSpline
 70
8
 71
3
 72
8
 73
4
 74
0
 40
0
 40
0
 40
0
 40
0
 40
1
 40
1
 40
1
 40
1
 10
-263.372299
 20
114.457285
 30
0.0
 10
-288.409147
 20
101.938895
 30
0.0
 10
-298.950744
 20
71.779206
 30
0.0
 10
-287.163630
 20
46.389885
 30
0.0
  0
SPLINE
  5
186
100
AcDbEntity
  8
Layer_1
 62
7
100
AcDbSpline
 70
8
 71
3
 72
8
 73
4
 74
0
 40
0
 40
0
 40
0
 40
0
 40
1
 40
1
 40
1
 40
1
 10
-287.163630
 20
46.389885
 30
0.0
 10
-275.376522
 20
21.000561
 30
0.0
 10
-245.535195
 20
9.588832
 30
0.0
 10
-219.814750
 20
20.634754
 30
0.0
  0
LWPOLYLINE
  5
187
100
AcDbEntity
  8
Layer_1
 62
7
100
AcDbPolyline
 90
2
 70
0
 10
-214.462210
 20
23.293898
 30
0.0
 10
-190.670873
 20
-24.288776
 30
0.0
  0
SPLINE
  5
188
100
AcDbEntity
  8
Layer_1
 62
7
100
AcDbSpline
 70
8
 71
3
 72
8
 73
4
 74
0
 40
0
 40
0
 40
0
 40
0
 40
1
 40
1
 40
1
 40
1
 10
-196.018111
 20
-26.958318
 30
0.0
 10
-211.150043
 20
-35.655483
 30
0.0
 10
-220.877688
 20
-51.395154
 30
0.0
 10
-221.889451
 20
-68.819054
 30
0.0
  0
LWPOLYLINE
  5
189
100
AcDbEntity
  8
Layer_1
 62
7
100
AcDbPolyline
 90
2
 70
0
 10
-196.026040
 20
-26.955777
 30
0.0
 10
-219.817378
 20
20.605731
 30
0.0
  0
SPLINE
  5
18a
100
AcDbEntity
  8
Layer_1
 62
7
100
AcDbSpline
 70
8
 71
3
 72
8
 73
4
 74
0
 40
0
 40
0
 40
0
 40
0
 40
1
 40
1
 40
1
 40
1
 10
-258.575817
 20
-68.818928
 30
0.0
 10
-260.198583
 20
-40.873964
 30
0.0
 10
-283.751003
 20
-19.286544
 30
0.0
 10
-311.731274
 20
-20.098284
 30
0.0
  0
SPLINE
  5
18b
100
AcDbEntity
  8
Layer_1
 62
7
100
AcDbSpline
 70
8
 71
3
 72
8
 73
4
 74
0
 40
0
 40
0
 40
0
 40
0
 40
1
 40
1
 40
1
 40
1
 10
-311.731274
 20
-20.098284
 30
0.0
 10
-339.711544
 20
-20.910023
 30
0.0
 10
-361.972853
 20
-43.826553
 30
0.0
 10
-361.972818
 20
-71.818597
 30
0.0
  0
SPLINE
  5
18c
100
AcDbEntity
  8
Layer_1
 62
7
100
AcDbSpline
 70
8
 71
3
 72
8
 73
4
 74
0
 40
0
 40
0
 40
0
 40
0
 40
1
 40
1
 40
1
 40
1
 10
-361.972818
 20
-71.818597
 30
0.0
 10
-361.972783
 20
-99.810642
 30
0.0
 10
-339.711419
 20
-122.727116
 30
0.0
 10
-311.731147
 20
-123.538785
 30
0.0
  0
SPLINE
  5
18d
100
AcDbEntity
  8
Layer_1
 62
7
100
AcDbSpline
 70
8
 71
3
 72
8
 73
4
 74
0
 40
0
 40
0
 40
0
 40
0
 40
1
 40
1
 40
1
 40
1
 10
-311.731147
 20
-123.538785
 30
0.0
 10
-283.750875
 20
-124.350461
 30
0.0
 10
-260.198506
 20
-102.762983
 30
0.0
 10
-258.575810
 20
-74.818013
 30
0.0
  0
LWPOLYLINE
  5
18e
100
AcDbEntity
  8
Layer_1
 62
7
100
AcDbPolyline
 90
2
 70
0
 10
-258.594717
 20
-68.823450
 30
0.0
 10
-221.912878
 20
-68.823450
 30
0.0
  0
SPLINE
  5
18f
100
AcDbEntity
  8
Layer_1
 62
7
100
AcDbSpline
 70
8
 71
3
 72
8
 73
4
 74
0
 40
0
 40
0
 40
0
 40
0
 40
1
 40
1
 40
1
 40
1
 10
-221.889445
 20
-74.818140
 30
0.0
 10
-220.300351
 20
-102.183230
 30
0.0
 10
-197.645580
 20
-123.560578
 30
0.0
 10
-170.234390
 20
-123.560543
 30
0.0
  0
SPLINE
  5
190
100
AcDbEntity
  8
Layer_1
 62
7
100
AcDbSpline
 70
8
 71
3
 72
8
 73
4
 74
0
 40
0
 40
0
 40
0
 40
0
 40
1
 40
1
 40
1
 40
1
 10
-170.234390
 20
-123.560543
 30
0.0
 10
-142.823200
 20
-123.560509
 30
0.0
 10
-120.168479
 20
-102.183107
 30
0.0
 10
-118.579455
 20
-74.818013
 30
0.0
  0
LWPOLYLINE
  5
191
100
AcDbEntity
  8
Layer_1
 62
7
100
AcDbPolyline
 90
2
 70
0
 10
-221.912878
 20
-74.834784
 30
0.0
 10
-258.594717
 20
-74.834784
 30
0.0
  0
SPLINE
  5
192
100
AcDbEntity
  8
Layer_1
 62
7
100
AcDbSpline
 70
8
 71
3
 72
8
 73
4
 74
0
 40
0
 40
0
 40
0
 40
0
 40
1
 40
1
 40
1
 40
1
 10
-81.893089
 20
-74.818140
 30
0.0
 10
-80.303996
 20
-102.183230
 30
0.0
 10
-57.649225
 20
-123.560578
 30
0.0
 10
-30.238034
 20
-123.560543
 30
0.0
  0
SPLINE
  5
193
100
AcDbEntity
  8
Layer_1
 62
7
100
AcDbSpline
 70
8
 71
3
 72
8
 73
4
 74
0
 40
0
 40
0
 40
0
 40
0
 40
1
 40
1
 40
1
 40
1
 10
-30.238034
 20
-123.560543
 30
0.0
 10
-2.826845
 20
-123.560509
 30
0.0
 10
19.827877
 20
-102.183107
 30
0.0
 10
21.416901
 20
-74.818013
 30
0.0
  0
LWPOLYLINE
  5
194
100
AcDbEntity
  8
Layer_1
 62
7
100
AcDbPolyline
 90
2
 70
0
 10
-81.916522
 20
-74.834784
 30
0.0
 10
-118.577195
 20
-74.834784
 30
0.0
  0
SPLINE
  5
195
100
AcDbEntity
  8
Layer_1
 62
7
100
AcDbSpline
 70
8
 71
3
 72
8
 73
4
 74
0
 40
0
 40
0
 40
0
 40
0
 40
1
 40
1
 40
1
 40
1
 10
58.103266
 20
-74.818140
 30
0.0
 10
59.692360
 20
-102.183230
 30
0.0
 10
82.347131
 20
-123.560578
 30
0.0
 10
109.758321
 20
-123.560543
 30
0.0
  0
SPLINE
  5
196
100
AcDbEntity
  8
Layer_1
 62
7
100
AcDbSpline
 70
8
 71
3
 72
8
 73
4
 74
0
 40
0
 40
0
 40
0
 40
0
 40
1
 40
1
 40
1
 40
1
 10
109.758321
 20
-123.560543
 30
0.0
 10
137.169511
 20
-123.560509
 30
0.0
 10
159.824232
 20
-102.183107
 30
0.0
 10
161.413256
 20
-74.818013
 30
0.0
  0
LWPOLYLINE
  5
197
100
AcDbEntity
  8
Layer_1
 62
7
100
AcDbPolyline
 90
2
 70
0
 10
58.079833
 20
-74.834784
 30
0.0
 10
21.419160
 20
-74.834784
 30
0.0
  0
SPLINE
  5
198
100
AcDbEntity
  8
Layer_1
 62
7
100
AcDbSpline
 70
8
 71
3
 72
8
 73
4
 74
0
 40
0
 40
0
 40
0
 40
0
 40
1
 40
1
 40
1
 40
1
 10
198.099622
 20
-74.818140
 30
0.0
 10
199.722388
 20
-102.763104
 30
0.0
 10
223.274807
 20
-124.350524
 30
0.0
 10
251.255079
 20
-123.538783
 30
0.0
  0
SPLINE
  5
199
100
AcDbEntity
  8
Layer_1
 62
7
100
AcDbSpline
 70
8
 71
3
 72
8
 73
4
 74
0
 40
0
 40
0
 40
0
 40
0
 40
1
 40
1
 40
1
 40
1
 10
251.255079
 20
-123.538783
 30
0.0
 10
279.235349
 20
-122.727045
 30
0.0
 10
301.496657
 20
-99.810514
 30
0.0
 10
301.496623
 20
-71.818470
 30
0.0
  0
SPLINE
  5
19a
100
AcDbEntity
  8
Layer_1
 62
7
100
AcDbSpline
 70
8
 71
3
 72
8
 73
4
 74
0
 40
0
 40
0
 40
0
 40
0
 40
1
 40
1
 40
1
 40
1
 10
301.496623
 20
-71.818470
 30
0.0
 10
301.496588
 20
-43.826425
 30
0.0
 10
279.235223
 20
-20.909951
 30
0.0
 10
251.254952
 20
-20.098282
 30
0.0
  0
SPLINE
  5
19b
100
AcDbEntity
  8
Layer_1
 62
7
100
AcDbSpline
 70
8
 71
3
 72
8
 73
4
 74
0
 40
0
 40
0
 40
0
 40
0
 40
1
 40
1
 40
1
 40
1
 10
251.254952
 20
-20.098282
 30
0.0
 10
223.274679
 20
-19.286606
 30
0.0
 10
199.722311
 20
-40.874085
 30
0.0
 10
198.099615
 20
-68.819054
 30
0.0
  0
LWPOLYLINE
  5
19c
100
AcDbEntity
  8
Layer_1
 62
7
100
AcDbPolyline
 90
2
 70
0
 10
198.097355
 20
-74.834784
 30
0.0
 10
161.415516
 20
-74.834784
 30
0.0
  0
SPLINE
  5
19d
100
AcDbEntity
  8
Layer_1
 62
7
100
AcDbSpline
 70
8
 71
3
 72
8
 73
4
 74
0
 40
0
 40
0
 40
0
 40
0
 40
1
 40
1
 40
1
 40
1
 10
161.413212
 20
-68.818919
 30
0.0
 10
160.401401
 20
-51.395033
 30
0.0
 10
150.673719
 20
-35.655400
 30
0.0
 10
135.541776
 20
-26.958285
 30
0.0
  0
LWPOLYLINE
  5
19e
100
AcDbEntity
  8
Layer_1
 62
7
100
AcDbPolyline
 90
2
 70
0
 10
161.415516
 20
-68.823450
 30
0.0
 10
198.097355
 20
-68.823450
 30
0.0
  0
SPLINE
  5
19f
100
AcDbEntity
  8
Layer_1
 62
7
100
AcDbSpline
 70
8
 71
3
 72
8
 73
4
 74
0
 40
0
 40
0
 40
0
 40
0
 40
1
 40
1
 40
1
 40
1
 10
159.338667
 20
20.634720
 30
0.0
 10
185.059130
 20
9.588862
 30
0.0
 10
214.900421
 20
21.000653
 30
0.0
 10
226.687473
 20
46.389997
 30
0.0
  0
SPLINE
  5
1a0
100
AcDbEntity
  8
Layer_1
 62
7
100
AcDbSpline
 70
8
 71
3
 72
8
 73
4
 74
0
 40
0
 40
0
 40
0
 40
0
 40
1
 40
1
 40
1
 40
1
 10
226.687473
 20
46.389997
 30
0.0
 10
238.474526
 20
71.779338
 30
0.0
 10
227.932861
 20
101.938996
 30
0.0
 10
202.895993
 20
114.457325
 30
0.0
  0
SPLINE
  5
1a1
100
AcDbEntity
  8
Layer_1
 62
7
100
AcDbSpline
 70
8
 71
3
 72
8
 73
4
 74
0
 40
0
 40
0
 40
0
 40
0
 40
1
 40
1
 40
1
 40
1
 10
202.895993
 20
114.457325
 30
0.0
 10
177.859123
 20
126.975655
 30
0.0
 10
147.406464
 20
117.312986
 30
0.0
 10
134.167389
 20
92.649649
 30
0.0
  0
SPLINE
  5
1a2
100
AcDbEntity
  8
Layer_1
 62
7
100
AcDbSpline
 70
8
 71
3
 72
8
 73
4
 74
0
 40
0
 40
0
 40
0
 40
0
 40
1
 40
1
 40
1
 40
1
 10
134.167389
 20
92.649649
 30
0.0
 10
120.928309
 20
67.986316
 30
0.0
 10
129.703856
 20
37.266264
 30
0.0
 10
153.972917
 20
23.317573
 30
0.0
  0
LWPOLYLINE
  5
1a3
100
AcDbEntity
  8
Layer_1
 62
7
100
AcDbPolyline
 90
2
 70
0
 10
159.320016
 20
20.605731
 30
0.0
 10
135.528678
 20
-26.955777
 30
0.0
  0
SPLINE
  5
1a4
100
AcDbEntity
  8
Layer_1
 62
7
100
AcDbSpline
 70
8
 71
3
 72
8
 73
4
 74
0
 40
0
 40
0
 40
0
 40
0
 40
1
 40
1
 40
1
 40
1
 10
130.176051
 20
-24.275400
 30
0.0
 10
114.676398
 20
-17.618949
 30
0.0
 10
96.904995
 20
-18.935862
 30
0.0
 10
82.555777
 20
-27.804210
 30
0.0
  0
SPLINE
  5
1a5
100
AcDbEntity
  8
Layer_1
 62
7
100
AcDbSpline
 70
8
 71
3
 72
8
 73
4
 74
0
 40
0
 40
0
 40
0
 40
0
 40
1
 40
1
 40
1
 40
1
 10
82.555777
 20
-27.804210
 30
0.0
 10
68.206557
 20
-36.672557
 30
0.0
 10
59.081127
 20
-51.978882
 30
0.0
 10
58.103259
 20
-68.819054
 30
0.0
  0
LWPOLYLINE
  5
1a6
100
AcDbEntity
  8
Layer_1
 62
7
100
AcDbPolyline
 90
2
 70
0
 10
130.173511
 20
-24.288776
 30
0.0
 10
153.964848
 20
23.293898
 30
0.0
  0
SPLINE
  5
1a7
100
AcDbEntity
  8
Layer_1
 62
7
100
AcDbSpline
 70
8
 71
3
 72
8
 73
4
 74
0
 40
0
 40
0
 40
0
 40
0
 40
1
 40
1
 40
1
 40
1
 10
21.416856
 20
-68.818919
 30
0.0
 10
20.405045
 20
-51.395033
 30
0.0
 10
10.677364
 20
-35.655400
 30
0.0
 10
-4.454579
 20
-26.958285
 30
0.0
  0
LWPOLYLINE
  5
1a8
100
AcDbEntity
  8
Layer_1
 62
7
100
AcDbPolyline
 90
2
 70
0
 10
21.419160
 20
-68.823450
 30
0.0
 10
58.079833
 20
-68.823450
 30
0.0
  0
SPLINE
  5
1a9
100
AcDbEntity
  8
Layer_1
 62
7
100
AcDbSpline
 70
8
 71
3
 72
8
 73
4
 74
0
 40
0
 40
0
 40
0
 40
0
 40
1
 40
1
 40
1
 40
1
 10
19.342312
 20
20.634720
 30
0.0
 10
45.062775
 20
9.588862
 30
0.0
 10
74.904066
 20
21.000653
 30
0.0
 10
86.691118
 20
46.389997
 30
0.0
  0
SPLINE
  5
1aa
100
AcDbEntity
  8
Layer_1
 62
7
100
AcDbSpline
 70
8
 71
3
 72
8
 73
4
 74
0
 40
0
 40
0
 40
0
 40
0
 40
1
 40
1
 40
1
 40
1
 10
86.691118
 20
46.389997
 30
0.0
 10
98.478171
 20
71.779338
 30
0.0
 10
87.936506
 20
101.938996
 30
0.0
 10
62.899637
 20
114.457325
 30
0.0
  0
SPLINE
  5
1ab
100
AcDbEntity
  8
Layer_1
 62
7
100
AcDbSpline
 70
8
 71
3
 72
8
 73
4
 74
0
 40
0
 40
0
 40
0
 40
0
 40
1
 40
1
 40
1
 40
1
 10
62.899637
 20
114.457325
 30
0.0
 10
37.862767
 20
126.975655
 30
0.0
 10
7.410109
 20
117.312986
 30
0.0
 10
-5.828966
 20
92.649649
 30
0.0
  0
SPLINE
  5
1ac
100
AcDbEntity
  8
Layer_1
 62
7
100
AcDbSpline
 70
8
 71
3
 72
8
 73
4
 74
0
 40
0
 40
0
 40
0
 40
0
 40
1
 40
1
 40
1
 40
1
 10
-5.828966
 20
92.649649
 30
0.0
 10
-19.068046
 20
67.986316
 30
0.0
 10
-10.292499
 20
37.266264
 30
0.0
 10
13.976561
 20
23.317573
 30
0.0
  0
LWPOLYLINE
  5
1ad
100
AcDbEntity
  8
Layer_1
 62
7
100
AcDbPolyline
 90
2
 70
0
 10
19.323660
 20
20.605731
 30
0.0
 10
-4.467677
 20
-26.955777
 30
0.0
  0
SPLINE
  5
1ae
100
AcDbEntity
  8
Layer_1
 62
7
100
AcDbSpline
 70
8
 71
3
 72
8
 73
4
 74
0
 40
0
 40
0
 40
0
 40
0
 40
1
 40
1
 40
1
 40
1
 10
-9.820304
 20
-24.275400
 30
0.0
 10
-15.343490
 20
-21.903421
 30
0.0
 10
-21.237749
 20
-20.511991
 30
0.0
 10
-27.238618
 20
-20.163535
 30
0.0
  0
LWPOLYLINE
  5
1af
100
AcDbEntity
  8
Layer_1
 62
7
100
AcDbPolyline
 90
2
 70
0
 10
-9.822844
 20
-24.288776
 30
0.0
 10
13.968493
 20
23.293898
 30
0.0
  0
SPLINE
  5
1b0
100
AcDbEntity
  8
Layer_1
 62
7
100
AcDbSpline
 70
8
 71
3
 72
8
 73
4
 74
0
 40
0
 40
0
 40
0
 40
0
 40
1
 40
1
 40
1
 40
1
 10
249.754613
 20
-141.065295
 30
0.0
 10
273.753976
 20
-141.065295
 30
0.0
 10
296.042162
 20
-128.638823
 30
0.0
 10
308.659381
 20
-108.223765
 30
0.0
  0
SPLINE
  5
1b1
100
AcDbEntity
  8
Layer_1
 62
7
100
AcDbSpline
 70
8
 71
3
 72
8
 73
4
 74
0
 40
0
 40
0
 40
0
 40
0
 40
1
 40
1
 40
1
 40
1
 10
308.659381
 20
-108.223765
 30
0.0
 10
321.276622
 20
-87.808713
 30
0.0
 10
322.423686
 20
-62.316248
 30
0.0
 10
311.690851
 20
-40.850559
 30
0.0
  0
LWPOLYLINE
  5
1b2
100
AcDbEntity
  8
Layer_1
 62
7
100
AcDbPolyline
 90
2
 70
0
 10
311.698873
 20
-40.862279
 30
0.0
 10
241.679528
 20
99.134076
 30
0.0
  0
SPLINE
  5
1b3
100
AcDbEntity
  8
Layer_1
 62
7
100
AcDbSpline
 70
8
 71
3
 72
8
 73
4
 74
0
 40
0
 40
0
 40
0
 40
0
 40
1
 40
1
 40
1
 40
1
 10
-372.167059
 20
-40.850559
 30
0.0
 10
-382.899852
 20
-62.316248
 30
0.0
 10
-381.752811
 20
-87.808713
 30
0.0
 10
-369.135583
 20
-108.223765
 30
0.0
  0
SPLINE
  5
1b4
100
AcDbEntity
  8
Layer_1
 62
7
100
AcDbSpline
 70
8
 71
3
 72
8
 73
4
 74
0
 40
0
 40
0
 40
0
 40
0
 40
1
 40
1
 40
1
 40
1
 10
-369.135583
 20
-108.223765
 30
0.0
 10
-356.518358
 20
-128.638823
 30
0.0
 10
-334.230163
 20
-141.065295
 30
0.0
 10
-310.230808
 20
-141.065295
 30
0.0
  0
LWPOLYLINE
  5
1b5
100
AcDbEntity
  8
Layer_1
 62
7
100
AcDbPolyline
 90
2
 70
0
 10
-310.241392
 20
-141.086461
 30
0.0
 10
249.744030
 20
-141.086461
 30
0.0
  0
SPLINE
  5
1b6
100
AcDbEntity
  8
Layer_1
 62
7
100
AcDbSpline
 70
8
 71
3
 72
8
 73
4
 74
0
 40
0
 40
0
 40
0
 40
0
 40
1
 40
1
 40
1
 40
1
 10
-240.232631
 20
137.424583
 30
0.0
 10
-266.461416
 20
137.424583
 30
0.0
 10
-290.439041
 20
122.605564
 30
0.0
 10
-302.168870
 20
99.145803
 30
0.0
  0
LWPOLYLINE
  5
1b7
100
AcDbEntity
  8
Layer_1
 62
7
100
AcDbPolyline
 90
2
 70
0
 10
-302.176891
 20
99.134076
 30
0.0
 10
-372.196235
 20
-40.862279
 30
0.0
  0
SPLINE
  5
1b8
100
AcDbEntity
  8
Layer_1
 62
7
100
AcDbSpline
 70
8
 71
3
 72
8
 73
4
 74
0
 40
0
 40
0
 40
0
 40
0
 40
1
 40
1
 40
1
 40
1
 10
241.692673
 20
99.145803
 30
0.0
 10
229.962866
 20
122.605564
 30
0.0
 10
205.985242
 20
137.424583
 30
0.0
 10
179.756435
 20
137.424583
 30
0.0
  0
LWPOLYLINE
  5
1b9
100
AcDbEntity
  8
Layer_1
 62
7
100
AcDbPolyline
 90
2
 70
0
 10
179.745852
 20
137.403416
 30
0.0
 10
-240.243214
 20
137.403416
 30
0.0
  0
ENDSEC
  0
SECTION
  2
OBJECTS
  0
DICTIONARY
  5
C
330
0
100
AcDbDictionary
  3
ACAD_GROUP
350
D
  3
ACAD_MLINESTYLE
350
17
  0
DICTIONARY
  5
D
330
C
100
AcDbDictionary
  0
DICTIONARY
  5
1A
330
C
100
AcDbDictionary
  0
DICTIONARY
  5
17
330
C
100
AcDbDictionary
  3
STANDARD
350
18
  0
DICTIONARY
  5
19
330
C
100
AcDbDictionary
  0
ENDSEC
  0
EOF
