  0
SECTION
  2
HEADER
  9
$ACADVER
  1
AC1014
  9
$HANDSEED
  5
FFFF
  9
$MEASUREMENT
 70
     1
  0
ENDSEC
  0
SECTION
  2
TABLES
  0
TABLE
  2
VPORT
  5
8
330
0
100
AcDbSymbolTable
 70
     4
  0
VPORT
  5
2E
330
8
100
AcDbSymbolTableRecord
100
AcDbViewportTableRecord
  2
*ACTIVE
 70
     0
 10
0.0
 20
0.0
 11
1.0
 21
1.0
 12
210.0
 22
148.5
 13
0.0
 23
0.0
 14
10.0
 24
10.0
 15
10.0
 25
10.0
 16
0.0
 26
0.0
 36
1.0
 17
0.0
 27
0.0
 37
0.0
 40
341.0
 41
1.24
 42
50.0
 43
0.0
 44
0.0
 50
0.0
 51
0.0
 71
     0
 72
   100
 73
     1
 74
     3
 75
     0
 76
     0
 77
     0
 78
     0
  0
ENDTAB
  0
TABLE
  2
LTYPE
  5
5
330
0
100
AcDbSymbolTable
 70
     1
  0
LTYPE
  5
14
330
5
100
AcDbSymbolTableRecord
100
AcDbLinetypeTableRecord
  2
BYBLOCK
 70
     0
  3

 72
    65
 73
     0
 40
0.0
  0
LTYPE
  5
15
330
5
100
AcDbSymbolTableRecord
100
AcDbLinetypeTableRecord
  2
BYLAYER
 70
     0
  3

 72
    65
 73
     0
 40
0.0
  0
LTYPE
  5
16
330
5
100
AcDbSymbolTableRecord
100
AcDbLinetypeTableRecord
  2
CONTINUOUS
 70
     0
  3
Solid line
 72
    65
 73
     0
 40
0.0
  0
ENDTAB
  0
TABLE
  2
LAYER
  5
2
100
AcDbSymbolTable
 70
2
  0
LAYER
  5
50
100
AcDbSymbolTableRecord
100
AcDbLayerTableRecord
  2
0
 70
0
  6
CONTINUOUS
  0
LAYER
  5
51
100
AcDbSymbolTableRecord
100
AcDbLayerTableRecord
  2
Layer_1
 70
0
  6
CONTINUOUS
  0
ENDTAB
  0
TABLE
  2
STYLE
  5
3
330
0
100
AcDbSymbolTable
 70
     1
  0
STYLE
  5
11
330
3
100
AcDbSymbolTableRecord
100
AcDbTextStyleTableRecord
  2
STANDARD
 70
     0
 40
0.0
 41
1.0
 50
0.0
 71
     0
 42
2.5
  3
txt
  4

  0
ENDTAB
  0
TABLE
  2
VIEW
  5
6
330
0
100
AcDbSymbolTable
 70
     0
  0
ENDTAB
  0
TABLE
  2
UCS
  5
7
330
0
100
AcDbSymbolTable
 70
     0
  0
ENDTAB
  0
TABLE
  2
APPID
  5
9
330
0
100
AcDbSymbolTable
 70
     2
  0
APPID
  5
12
330
9
100
AcDbSymbolTableRecord
100
AcDbRegAppTableRecord
  2
ACAD
 70
     0
  0
ENDTAB
  0
TABLE
  2
DIMSTYLE
  5
A
330
0
100
AcDbSymbolTable
 70
     1
  0
DIMSTYLE
105
27
330
A
100
AcDbSymbolTableRecord
100
AcDbDimStyleTableRecord
  2
ISO-25
 70
     0
  3

  4

  5

  6

  7

 40
1.0
 41
2.5
 42
0.625
 43
3.75
 44
1.25
 45
0.0
 46
0.0
 47
0.0
 48
0.0
140
2.5
141
2.5
142
0.0
143
0.03937007874016
144
1.0
145
0.0
146
1.0
147
0.625
 71
     0
 72
     0
 73
     0
 74
     0
 75
     0
 76
     0
 77
     1
 78
     8
170
     0
171
     3
172
     1
173
     0
174
     0
175
     0
176
     0
177
     0
178
     0
270
     2
271
     2
272
     2
273
     2
274
     3
340
11
275
     0
280
     0
281
     0
282
     0
283
     0
284
     8
285
     0
286
     0
287
     3
288
     0
  0
ENDTAB
  0
TABLE
  2
BLOCK_RECORD
  5
1
330
0
100
AcDbSymbolTable
 70
     1
  0
BLOCK_RECORD
  5
1F
330
1
100
AcDbSymbolTableRecord
100
AcDbBlockTableRecord
  2
*MODEL_SPACE
  0
BLOCK_RECORD
  5
1B
330
1
100
AcDbSymbolTableRecord
100
AcDbBlockTableRecord
  2
*PAPER_SPACE
  0
ENDTAB
  0
ENDSEC
  0
SECTION
  2
BLOCKS
  0
BLOCK
  5
20
330
1F
100
AcDbEntity
  8
0
100
AcDbBlockBegin
  2
*MODEL_SPACE
 70
     0
 10
0.0
 20
0.0
 30
0.0
  3
*MODEL_SPACE
  1

  0
ENDBLK
  5
21
330
1F
100
AcDbEntity
  8
0
100
AcDbBlockEnd
  0
BLOCK
  5
1C
330
1B
100
AcDbEntity
 67
     1
  8
0
100
AcDbBlockBegin
  2
*PAPER_SPACE
  1

  0
ENDBLK
  5
1D
330
1B
100
AcDbEntity
 67
     1
  8
0
100
AcDbBlockEnd
  0
ENDSEC
  0
SECTION
  2
ENTITIES
  0
SPLINE
  5
100
100
AcDbEntity
  8
Layer_1
 62
7
100
AcDbSpline
 70
8
 71
3
 72
8
 73
4
 74
0
 40
0
 40
0
 40
0
 40
0
 40
1
 40
1
 40
1
 40
1
 10
29.769404
 20
178.932418
 30
0.0
 10
29.769404
 20
173.408891
 30
0.0
 10
34.247108
 20
168.931167
 30
0.0
 10
39.770656
 20
168.931167
 30
0.0
  0
SPLINE
  5
101
100
AcDbEntity
  8
Layer_1
 62
7
100
AcDbSpline
 70
8
 71
3
 72
8
 73
4
 74
0
 40
0
 40
0
 40
0
 40
0
 40
1
 40
1
 40
1
 40
1
 10
39.770656
 20
168.931167
 30
0.0
 10
45.294204
 20
168.931167
 30
0.0
 10
49.771908
 20
173.408891
 30
0.0
 10
49.771908
 20
178.932418
 30
0.0
  0
SPLINE
  5
102
100
AcDbEntity
  8
Layer_1
 62
7
100
AcDbSpline
 70
8
 71
3
 72
8
 73
4
 74
0
 40
0
 40
0
 40
0
 40
0
 40
1
 40
1
 40
1
 40
1
 10
49.771908
 20
178.932418
 30
0.0
 10
49.771908
 20
184.455946
 30
0.0
 10
45.294204
 20
188.933670
 30
0.0
 10
39.770656
 20
188.933670
 30
0.0
  0
SPLINE
  5
103
100
AcDbEntity
  8
Layer_1
 62
7
100
AcDbSpline
 70
8
 71
3
 72
8
 73
4
 74
0
 40
0
 40
0
 40
0
 40
0
 40
1
 40
1
 40
1
 40
1
 10
39.770656
 20
188.933670
 30
0.0
 10
34.247108
 20
188.933670
 30
0.0
 10
29.769404
 20
184.455946
 30
0.0
 10
29.769404
 20
178.932418
 30
0.0
  0
SPLINE
  5
104
100
AcDbEntity
  8
Layer_1
 62
7
100
AcDbSpline
 70
8
 71
3
 72
8
 73
4
 74
0
 40
0
 40
0
 40
0
 40
0
 40
1
 40
1
 40
1
 40
1
 10
-110.248118
 20
178.932418
 30
0.0
 10
-110.248118
 20
173.408891
 30
0.0
 10
-105.770414
 20
168.931167
 30
0.0
 10
-100.246866
 20
168.931167
 30
0.0
  0
SPLINE
  5
105
100
AcDbEntity
  8
Layer_1
 62
7
100
AcDbSpline
 70
8
 71
3
 72
8
 73
4
 74
0
 40
0
 40
0
 40
0
 40
0
 40
1
 40
1
 40
1
 40
1
 10
-100.246866
 20
168.931167
 30
0.0
 10
-94.723318
 20
168.931167
 30
0.0
 10
-90.245615
 20
173.408891
 30
0.0
 10
-90.245615
 20
178.932418
 30
0.0
  0
SPLINE
  5
106
100
AcDbEntity
  8
Layer_1
 62
7
100
AcDbSpline
 70
8
 71
3
 72
8
 73
4
 74
0
 40
0
 40
0
 40
0
 40
0
 40
1
 40
1
 40
1
 40
1
 10
-90.245615
 20
178.932418
 30
0.0
 10
-90.245615
 20
184.455946
 30
0.0
 10
-94.723318
 20
188.933670
 30
0.0
 10
-100.246866
 20
188.933670
 30
0.0
  0
SPLINE
  5
107
100
AcDbEntity
  8
Layer_1
 62
7
100
AcDbSpline
 70
8
 71
3
 72
8
 73
4
 74
0
 40
0
 40
0
 40
0
 40
0
 40
1
 40
1
 40
1
 40
1
 10
-100.246866
 20
188.933670
 30
0.0
 10
-105.770414
 20
188.933670
 30
0.0
 10
-110.248118
 20
184.455946
 30
0.0
 10
-110.248118
 20
178.932418
 30
0.0
  0
SPLINE
  5
108
100
AcDbEntity
  8
Layer_1
 62
7
100
AcDbSpline
 70
8
 71
3
 72
8
 73
4
 74
0
 40
0
 40
0
 40
0
 40
0
 40
1
 40
1
 40
1
 40
1
 10
-329.301986
 20
320.198774
 30
0.0
 10
-329.301986
 20
314.675226
 30
0.0
 10
-324.824274
 20
310.197522
 30
0.0
 10
-319.300734
 20
310.197522
 30
0.0
  0
SPLINE
  5
109
100
AcDbEntity
  8
Layer_1
 62
7
100
AcDbSpline
 70
8
 71
3
 72
8
 73
4
 74
0
 40
0
 40
0
 40
0
 40
0
 40
1
 40
1
 40
1
 40
1
 10
-319.300734
 20
310.197522
 30
0.0
 10
-313.777194
 20
310.197522
 30
0.0
 10
-309.299482
 20
314.675226
 30
0.0
 10
-309.299482
 20
320.198774
 30
0.0
  0
SPLINE
  5
10a
100
AcDbEntity
  8
Layer_1
 62
7
100
AcDbSpline
 70
8
 71
3
 72
8
 73
4
 74
0
 40
0
 40
0
 40
0
 40
0
 40
1
 40
1
 40
1
 40
1
 10
-309.299482
 20
320.198774
 30
0.0
 10
-309.299482
 20
325.722322
 30
0.0
 10
-313.777194
 20
330.200026
 30
0.0
 10
-319.300734
 20
330.200026
 30
0.0
  0
SPLINE
  5
10b
100
AcDbEntity
  8
Layer_1
 62
7
100
AcDbSpline
 70
8
 71
3
 72
8
 73
4
 74
0
 40
0
 40
0
 40
0
 40
0
 40
1
 40
1
 40
1
 40
1
 10
-319.300734
 20
330.200026
 30
0.0
 10
-324.824274
 20
330.200026
 30
0.0
 10
-329.301986
 20
325.722322
 30
0.0
 10
-329.301986
 20
320.198774
 30
0.0
  0
SPLINE
  5
10c
100
AcDbEntity
  8
Layer_1
 62
7
100
AcDbSpline
 70
8
 71
3
 72
8
 73
4
 74
0
 40
0
 40
0
 40
0
 40
0
 40
1
 40
1
 40
1
 40
1
 10
169.765760
 20
178.932418
 30
0.0
 10
169.765760
 20
173.408891
 30
0.0
 10
174.243463
 20
168.931167
 30
0.0
 10
179.767011
 20
168.931167
 30
0.0
  0
SPLINE
  5
10d
100
AcDbEntity
  8
Layer_1
 62
7
100
AcDbSpline
 70
8
 71
3
 72
8
 73
4
 74
0
 40
0
 40
0
 40
0
 40
0
 40
1
 40
1
 40
1
 40
1
 10
179.767011
 20
168.931167
 30
0.0
 10
185.290560
 20
168.931167
 30
0.0
 10
189.768263
 20
173.408891
 30
0.0
 10
189.768263
 20
178.932418
 30
0.0
  0
SPLINE
  5
10e
100
AcDbEntity
  8
Layer_1
 62
7
100
AcDbSpline
 70
8
 71
3
 72
8
 73
4
 74
0
 40
0
 40
0
 40
0
 40
0
 40
1
 40
1
 40
1
 40
1
 10
189.768263
 20
178.932418
 30
0.0
 10
189.768263
 20
184.455946
 30
0.0
 10
185.290560
 20
188.933670
 30
0.0
 10
179.767011
 20
188.933670
 30
0.0
  0
SPLINE
  5
10f
100
AcDbEntity
  8
Layer_1
 62
7
100
AcDbSpline
 70
8
 71
3
 72
8
 73
4
 74
0
 40
0
 40
0
 40
0
 40
0
 40
1
 40
1
 40
1
 40
1
 10
179.767011
 20
188.933670
 30
0.0
 10
174.243463
 20
188.933670
 30
0.0
 10
169.765760
 20
184.455946
 30
0.0
 10
169.765760
 20
178.932418
 30
0.0
  0
SPLINE
  5
110
100
AcDbEntity
  8
Layer_1
 62
7
100
AcDbSpline
 70
8
 71
3
 72
8
 73
4
 74
0
 40
0
 40
0
 40
0
 40
0
 40
1
 40
1
 40
1
 40
1
 10
-250.244473
 20
178.932418
 30
0.0
 10
-250.244473
 20
173.408891
 30
0.0
 10
-245.766749
 20
168.931167
 30
0.0
 10
-240.243221
 20
168.931167
 30
0.0
  0
SPLINE
  5
111
100
AcDbEntity
  8
Layer_1
 62
7
100
AcDbSpline
 70
8
 71
3
 72
8
 73
4
 74
0
 40
0
 40
0
 40
0
 40
0
 40
1
 40
1
 40
1
 40
1
 10
-240.243221
 20
168.931167
 30
0.0
 10
-234.719694
 20
168.931167
 30
0.0
 10
-230.241970
 20
173.408891
 30
0.0
 10
-230.241970
 20
178.932418
 30
0.0
  0
SPLINE
  5
112
100
AcDbEntity
  8
Layer_1
 62
7
100
AcDbSpline
 70
8
 71
3
 72
8
 73
4
 74
0
 40
0
 40
0
 40
0
 40
0
 40
1
 40
1
 40
1
 40
1
 10
-230.241970
 20
178.932418
 30
0.0
 10
-230.241970
 20
184.455946
 30
0.0
 10
-234.719694
 20
188.933670
 30
0.0
 10
-240.243221
 20
188.933670
 30
0.0
  0
SPLINE
  5
113
100
AcDbEntity
  8
Layer_1
 62
7
100
AcDbSpline
 70
8
 71
3
 72
8
 73
4
 74
0
 40
0
 40
0
 40
0
 40
0
 40
1
 40
1
 40
1
 40
1
 10
-240.243221
 20
188.933670
 30
0.0
 10
-245.766749
 20
188.933670
 30
0.0
 10
-250.244473
 20
184.455946
 30
0.0
 10
-250.244473
 20
178.932418
 30
0.0
  0
SPLINE
  5
114
100
AcDbEntity
  8
Layer_1
 62
7
100
AcDbSpline
 70
8
 71
3
 72
8
 73
4
 74
0
 40
0
 40
0
 40
0
 40
0
 40
1
 40
1
 40
1
 40
1
 10
-180.246295
 20
417.417289
 30
0.0
 10
-180.246295
 20
411.893741
 30
0.0
 10
-175.768571
 20
407.416038
 30
0.0
 10
-170.245044
 20
407.416038
 30
0.0
  0
SPLINE
  5
115
100
AcDbEntity
  8
Layer_1
 62
7
100
AcDbSpline
 70
8
 71
3
 72
8
 73
4
 74
0
 40
0
 40
0
 40
0
 40
0
 40
1
 40
1
 40
1
 40
1
 10
-170.245044
 20
407.416038
 30
0.0
 10
-164.721517
 20
407.416038
 30
0.0
 10
-160.243792
 20
411.893741
 30
0.0
 10
-160.243792
 20
417.417289
 30
0.0
  0
SPLINE
  5
116
100
AcDbEntity
  8
Layer_1
 62
7
100
AcDbSpline
 70
8
 71
3
 72
8
 73
4
 74
0
 40
0
 40
0
 40
0
 40
0
 40
1
 40
1
 40
1
 40
1
 10
-160.243792
 20
417.417289
 30
0.0
 10
-160.243792
 20
422.940838
 30
0.0
 10
-164.721517
 20
427.418541
 30
0.0
 10
-170.245044
 20
427.418541
 30
0.0
  0
SPLINE
  5
117
100
AcDbEntity
  8
Layer_1
 62
7
100
AcDbSpline
 70
8
 71
3
 72
8
 73
4
 74
0
 40
0
 40
0
 40
0
 40
0
 40
1
 40
1
 40
1
 40
1
 10
-170.245044
 20
427.418541
 30
0.0
 10
-175.768571
 20
427.418541
 30
0.0
 10
-180.246295
 20
422.940838
 30
0.0
 10
-180.246295
 20
417.417289
 30
0.0
  0
SPLINE
  5
118
100
AcDbEntity
  8
Layer_1
 62
7
100
AcDbSpline
 70
8
 71
3
 72
8
 73
4
 74
0
 40
0
 40
0
 40
0
 40
0
 40
1
 40
1
 40
1
 40
1
 10
-40.228773
 20
417.417289
 30
0.0
 10
-40.228773
 20
411.893741
 30
0.0
 10
-35.751070
 20
407.416038
 30
0.0
 10
-30.227522
 20
407.416038
 30
0.0
  0
SPLINE
  5
119
100
AcDbEntity
  8
Layer_1
 62
7
100
AcDbSpline
 70
8
 71
3
 72
8
 73
4
 74
0
 40
0
 40
0
 40
0
 40
0
 40
1
 40
1
 40
1
 40
1
 10
-30.227522
 20
407.416038
 30
0.0
 10
-24.703973
 20
407.416038
 30
0.0
 10
-20.226270
 20
411.893741
 30
0.0
 10
-20.226270
 20
417.417289
 30
0.0
  0
SPLINE
  5
11a
100
AcDbEntity
  8
Layer_1
 62
7
100
AcDbSpline
 70
8
 71
3
 72
8
 73
4
 74
0
 40
0
 40
0
 40
0
 40
0
 40
1
 40
1
 40
1
 40
1
 10
-20.226270
 20
417.417289
 30
0.0
 10
-20.226270
 20
422.940838
 30
0.0
 10
-24.703973
 20
427.418541
 30
0.0
 10
-30.227522
 20
427.418541
 30
0.0
  0
SPLINE
  5
11b
100
AcDbEntity
  8
Layer_1
 62
7
100
AcDbSpline
 70
8
 71
3
 72
8
 73
4
 74
0
 40
0
 40
0
 40
0
 40
0
 40
1
 40
1
 40
1
 40
1
 10
-30.227522
 20
427.418541
 30
0.0
 10
-35.751070
 20
427.418541
 30
0.0
 10
-40.228773
 20
422.940838
 30
0.0
 10
-40.228773
 20
417.417289
 30
0.0
  0
SPLINE
  5
11c
100
AcDbEntity
  8
Layer_1
 62
7
100
AcDbSpline
 70
8
 71
3
 72
8
 73
4
 74
0
 40
0
 40
0
 40
0
 40
0
 40
1
 40
1
 40
1
 40
1
 10
248.823272
 20
320.198774
 30
0.0
 10
248.823272
 20
314.675226
 30
0.0
 10
253.301018
 20
310.197522
 30
0.0
 10
258.824524
 20
310.197522
 30
0.0
  0
SPLINE
  5
11d
100
AcDbEntity
  8
Layer_1
 62
7
100
AcDbSpline
 70
8
 71
3
 72
8
 73
4
 74
0
 40
0
 40
0
 40
0
 40
0
 40
1
 40
1
 40
1
 40
1
 10
258.824524
 20
310.197522
 30
0.0
 10
264.348030
 20
310.197522
 30
0.0
 10
268.825775
 20
314.675226
 30
0.0
 10
268.825775
 20
320.198774
 30
0.0
  0
SPLINE
  5
11e
100
AcDbEntity
  8
Layer_1
 62
7
100
AcDbSpline
 70
8
 71
3
 72
8
 73
4
 74
0
 40
0
 40
0
 40
0
 40
0
 40
1
 40
1
 40
1
 40
1
 10
268.825775
 20
320.198774
 30
0.0
 10
268.825775
 20
325.722322
 30
0.0
 10
264.348030
 20
330.200026
 30
0.0
 10
258.824524
 20
330.200026
 30
0.0
  0
SPLINE
  5
11f
100
AcDbEntity
  8
Layer_1
 62
7
100
AcDbSpline
 70
8
 71
3
 72
8
 73
4
 74
0
 40
0
 40
0
 40
0
 40
0
 40
1
 40
1
 40
1
 40
1
 10
258.824524
 20
330.200026
 30
0.0
 10
253.301018
 20
330.200026
 30
0.0
 10
248.823272
 20
325.722322
 30
0.0
 10
248.823272
 20
320.198774
 30
0.0
  0
SPLINE
  5
120
100
AcDbEntity
  8
Layer_1
 62
7
100
AcDbSpline
 70
8
 71
3
 72
8
 73
4
 74
0
 40
0
 40
0
 40
0
 40
0
 40
1
 40
1
 40
1
 40
1
 10
99.767582
 20
417.417289
 30
0.0
 10
99.767582
 20
411.893741
 30
0.0
 10
104.245285
 20
407.416038
 30
0.0
 10
109.768834
 20
407.416038
 30
0.0
  0
SPLINE
  5
121
100
AcDbEntity
  8
Layer_1
 62
7
100
AcDbSpline
 70
8
 71
3
 72
8
 73
4
 74
0
 40
0
 40
0
 40
0
 40
0
 40
1
 40
1
 40
1
 40
1
 10
109.768834
 20
407.416038
 30
0.0
 10
115.292382
 20
407.416038
 30
0.0
 10
119.770085
 20
411.893741
 30
0.0
 10
119.770085
 20
417.417289
 30
0.0
  0
SPLINE
  5
122
100
AcDbEntity
  8
Layer_1
 62
7
100
AcDbSpline
 70
8
 71
3
 72
8
 73
4
 74
0
 40
0
 40
0
 40
0
 40
0
 40
1
 40
1
 40
1
 40
1
 10
119.770085
 20
417.417289
 30
0.0
 10
119.770085
 20
422.940838
 30
0.0
 10
115.292382
 20
427.418541
 30
0.0
 10
109.768834
 20
427.418541
 30
0.0
  0
SPLINE
  5
123
100
AcDbEntity
  8
Layer_1
 62
7
100
AcDbSpline
 70
8
 71
3
 72
8
 73
4
 74
0
 40
0
 40
0
 40
0
 40
0
 40
1
 40
1
 40
1
 40
1
 10
109.768834
 20
427.418541
 30
0.0
 10
104.245285
 20
427.418541
 30
0.0
 10
99.767582
 20
422.940838
 30
0.0
 10
99.767582
 20
417.417289
 30
0.0
  0
SPLINE
  5
124
100
AcDbEntity
  8
Layer_1
 62
7
100
AcDbSpline
 70
8
 71
3
 72
8
 73
4
 74
0
 40
0
 40
0
 40
0
 40
0
 40
1
 40
1
 40
1
 40
1
 10
249.765189
 20
158.919332
 30
0.0
 10
273.764552
 20
158.919332
 30
0.0
 10
296.052738
 20
171.345797
 30
0.0
 10
308.669957
 20
191.760860
 30
0.0
  0
SPLINE
  5
125
100
AcDbEntity
  8
Layer_1
 62
7
100
AcDbSpline
 70
8
 71
3
 72
8
 73
4
 74
0
 40
0
 40
0
 40
0
 40
0
 40
1
 40
1
 40
1
 40
1
 10
308.669957
 20
191.760860
 30
0.0
 10
321.287198
 20
212.175922
 30
0.0
 10
322.434262
 20
237.668361
 30
0.0
 10
311.701427
 20
259.134053
 30
0.0
  0
LWPOLYLINE
  5
126
100
AcDbEntity
  8
Layer_1
 62
7
100
AcDbPolyline
 90
2
 70
0
 10
311.709449
 20
259.122348
 30
0.0
 10
241.690104
 20
399.118703
 30
0.0
  0
SPLINE
  5
127
100
AcDbEntity
  8
Layer_1
 62
7
100
AcDbSpline
 70
8
 71
3
 72
8
 73
4
 74
0
 40
0
 40
0
 40
0
 40
0
 40
1
 40
1
 40
1
 40
1
 10
-372.177649
 20
259.134053
 30
0.0
 10
-382.910438
 20
237.668361
 30
0.0
 10
-381.763401
 20
212.175922
 30
0.0
 10
-369.146174
 20
191.760860
 30
0.0
  0
SPLINE
  5
128
100
AcDbEntity
  8
Layer_1
 62
7
100
AcDbSpline
 70
8
 71
3
 72
8
 73
4
 74
0
 40
0
 40
0
 40
0
 40
0
 40
1
 40
1
 40
1
 40
1
 10
-369.146174
 20
191.760860
 30
0.0
 10
-356.528948
 20
171.345797
 30
0.0
 10
-334.240754
 20
158.919332
 30
0.0
 10
-310.241399
 20
158.919332
 30
0.0
  0
LWPOLYLINE
  5
129
100
AcDbEntity
  8
Layer_1
 62
7
100
AcDbPolyline
 90
2
 70
0
 10
-310.251983
 20
158.919332
 30
0.0
 10
249.754606
 20
158.919332
 30
0.0
  0
SPLINE
  5
12a
100
AcDbEntity
  8
Layer_1
 62
7
100
AcDbSpline
 70
8
 71
3
 72
8
 73
4
 74
0
 40
0
 40
0
 40
0
 40
0
 40
1
 40
1
 40
1
 40
1
 10
-240.243221
 20
437.409209
 30
0.0
 10
-266.472013
 20
437.409209
 30
0.0
 10
-290.449642
 20
422.590191
 30
0.0
 10
-302.179472
 20
399.130408
 30
0.0
  0
LWPOLYLINE
  5
12b
100
AcDbEntity
  8
Layer_1
 62
7
100
AcDbPolyline
 90
2
 70
0
 10
-302.187481
 20
399.118703
 30
0.0
 10
-372.206826
 20
259.122348
 30
0.0
  0
SPLINE
  5
12c
100
AcDbEntity
  8
Layer_1
 62
7
100
AcDbSpline
 70
8
 71
3
 72
8
 73
4
 74
0
 40
0
 40
0
 40
0
 40
0
 40
1
 40
1
 40
1
 40
1
 10
241.703249
 20
399.130408
 30
0.0
 10
229.973442
 20
422.590191
 30
0.0
 10
205.995775
 20
437.409209
 30
0.0
 10
179.767011
 20
437.409209
 30
0.0
  0
SPLINE
  5
12d
100
AcDbEntity
  8
Layer_1
 62
7
100
AcDbSpline
 70
8
 71
3
 72
8
 73
4
 74
0
 40
0
 40
0
 40
0
 40
0
 40
1
 40
1
 40
1
 40
1
 10
-250.244473
 20
-121.062796
 30
0.0
 10
-250.244473
 20
-126.586335
 30
0.0
 10
-245.766749
 20
-131.064047
 30
0.0
 10
-240.243221
 20
-131.064047
 30
0.0
  0
SPLINE
  5
12e
100
AcDbEntity
  8
Layer_1
 62
7
100
AcDbSpline
 70
8
 71
3
 72
8
 73
4
 74
0
 40
0
 40
0
 40
0
 40
0
 40
1
 40
1
 40
1
 40
1
 10
-240.243221
 20
-131.064047
 30
0.0
 10
-234.719694
 20
-131.064047
 30
0.0
 10
-230.241970
 20
-126.586335
 30
0.0
 10
-230.241970
 20
-121.062796
 30
0.0
  0
SPLINE
  5
12f
100
AcDbEntity
  8
Layer_1
 62
7
100
AcDbSpline
 70
8
 71
3
 72
8
 73
4
 74
0
 40
0
 40
0
 40
0
 40
0
 40
1
 40
1
 40
1
 40
1
 10
-230.241970
 20
-121.062796
 30
0.0
 10
-230.241970
 20
-115.539256
 30
0.0
 10
-234.719694
 20
-111.061544
 30
0.0
 10
-240.243221
 20
-111.061544
 30
0.0
  0
SPLINE
  5
130
100
AcDbEntity
  8
Layer_1
 62
7
100
AcDbSpline
 70
8
 71
3
 72
8
 73
4
 74
0
 40
0
 40
0
 40
0
 40
0
 40
1
 40
1
 40
1
 40
1
 10
-240.243221
 20
-111.061544
 30
0.0
 10
-245.766749
 20
-111.061544
 30
0.0
 10
-250.244473
 20
-115.539256
 30
0.0
 10
-250.244473
 20
-121.062796
 30
0.0
  0
SPLINE
  5
131
100
AcDbEntity
  8
Layer_1
 62
7
100
AcDbSpline
 70
8
 71
3
 72
8
 73
4
 74
0
 40
0
 40
0
 40
0
 40
0
 40
1
 40
1
 40
1
 40
1
 10
-180.246295
 20
117.422075
 30
0.0
 10
-180.246295
 20
111.898548
 30
0.0
 10
-175.768571
 20
107.420824
 30
0.0
 10
-170.245044
 20
107.420824
 30
0.0
  0
SPLINE
  5
132
100
AcDbEntity
  8
Layer_1
 62
7
100
AcDbSpline
 70
8
 71
3
 72
8
 73
4
 74
0
 40
0
 40
0
 40
0
 40
0
 40
1
 40
1
 40
1
 40
1
 10
-170.245044
 20
107.420824
 30
0.0
 10
-164.721517
 20
107.420824
 30
0.0
 10
-160.243792
 20
111.898548
 30
0.0
 10
-160.243792
 20
117.422075
 30
0.0
  0
SPLINE
  5
133
100
AcDbEntity
  8
Layer_1
 62
7
100
AcDbSpline
 70
8
 71
3
 72
8
 73
4
 74
0
 40
0
 40
0
 40
0
 40
0
 40
1
 40
1
 40
1
 40
1
 10
-160.243792
 20
117.422075
 30
0.0
 10
-160.243792
 20
122.945603
 30
0.0
 10
-164.721517
 20
127.423327
 30
0.0
 10
-170.245044
 20
127.423327
 30
0.0
  0
SPLINE
  5
134
100
AcDbEntity
  8
Layer_1
 62
7
100
AcDbSpline
 70
8
 71
3
 72
8
 73
4
 74
0
 40
0
 40
0
 40
0
 40
0
 40
1
 40
1
 40
1
 40
1
 10
-170.245044
 20
127.423327
 30
0.0
 10
-175.768571
 20
127.423327
 30
0.0
 10
-180.246295
 20
122.945603
 30
0.0
 10
-180.246295
 20
117.422075
 30
0.0
  0
SPLINE
  5
135
100
AcDbEntity
  8
Layer_1
 62
7
100
AcDbSpline
 70
8
 71
3
 72
8
 73
4
 74
0
 40
0
 40
0
 40
0
 40
0
 40
1
 40
1
 40
1
 40
1
 10
-40.228773
 20
117.422075
 30
0.0
 10
-40.228773
 20
111.898548
 30
0.0
 10
-35.751070
 20
107.420824
 30
0.0
 10
-30.227522
 20
107.420824
 30
0.0
  0
SPLINE
  5
136
100
AcDbEntity
  8
Layer_1
 62
7
100
AcDbSpline
 70
8
 71
3
 72
8
 73
4
 74
0
 40
0
 40
0
 40
0
 40
0
 40
1
 40
1
 40
1
 40
1
 10
-30.227522
 20
107.420824
 30
0.0
 10
-24.703973
 20
107.420824
 30
0.0
 10
-20.226270
 20
111.898548
 30
0.0
 10
-20.226270
 20
117.422075
 30
0.0
  0
SPLINE
  5
137
100
AcDbEntity
  8
Layer_1
 62
7
100
AcDbSpline
 70
8
 71
3
 72
8
 73
4
 74
0
 40
0
 40
0
 40
0
 40
0
 40
1
 40
1
 40
1
 40
1
 10
-20.226270
 20
117.422075
 30
0.0
 10
-20.226270
 20
122.945603
 30
0.0
 10
-24.703973
 20
127.423327
 30
0.0
 10
-30.227522
 20
127.423327
 30
0.0
  0
SPLINE
  5
138
100
AcDbEntity
  8
Layer_1
 62
7
100
AcDbSpline
 70
8
 71
3
 72
8
 73
4
 74
0
 40
0
 40
0
 40
0
 40
0
 40
1
 40
1
 40
1
 40
1
 10
-30.227522
 20
127.423327
 30
0.0
 10
-35.751070
 20
127.423327
 30
0.0
 10
-40.228773
 20
122.945603
 30
0.0
 10
-40.228773
 20
117.422075
 30
0.0
  0
SPLINE
  5
139
100
AcDbEntity
  8
Layer_1
 62
7
100
AcDbSpline
 70
8
 71
3
 72
8
 73
4
 74
0
 40
0
 40
0
 40
0
 40
0
 40
1
 40
1
 40
1
 40
1
 10
-221.986969
 20
-71.807954
 30
0.0
 10
-221.986969
 20
-100.384231
 30
0.0
 10
-198.821339
 20
-123.549879
 30
0.0
 10
-170.245044
 20
-123.549879
 30
0.0
  0
SPLINE
  5
13a
100
AcDbEntity
  8
Layer_1
 62
7
100
AcDbSpline
 70
8
 71
3
 72
8
 73
4
 74
0
 40
0
 40
0
 40
0
 40
0
 40
1
 40
1
 40
1
 40
1
 10
-170.245044
 20
-123.549879
 30
0.0
 10
-141.668748
 20
-123.549879
 30
0.0
 10
-118.503119
 20
-100.384231
 30
0.0
 10
-118.503119
 20
-71.807954
 30
0.0
  0
SPLINE
  5
13b
100
AcDbEntity
  8
Layer_1
 62
7
100
AcDbSpline
 70
8
 71
3
 72
8
 73
4
 74
0
 40
0
 40
0
 40
0
 40
0
 40
1
 40
1
 40
1
 40
1
 10
-118.503119
 20
-71.807954
 30
0.0
 10
-118.503119
 20
-43.231678
 30
0.0
 10
-141.668748
 20
-20.066030
 30
0.0
 10
-170.245044
 20
-20.066030
 30
0.0
  0
SPLINE
  5
13c
100
AcDbEntity
  8
Layer_1
 62
7
100
AcDbSpline
 70
8
 71
3
 72
8
 73
4
 74
0
 40
0
 40
0
 40
0
 40
0
 40
1
 40
1
 40
1
 40
1
 10
-170.245044
 20
-20.066030
 30
0.0
 10
-198.821339
 20
-20.066030
 30
0.0
 10
-221.986969
 20
-43.231678
 30
0.0
 10
-221.986969
 20
-71.807954
 30
0.0
  0
SPLINE
  5
13d
100
AcDbEntity
  8
Layer_1
 62
7
100
AcDbSpline
 70
8
 71
3
 72
8
 73
4
 74
0
 40
0
 40
0
 40
0
 40
0
 40
1
 40
1
 40
1
 40
1
 10
-291.985146
 20
68.167234
 30
0.0
 10
-291.985146
 20
39.590949
 30
0.0
 10
-268.819507
 20
16.425309
 30
0.0
 10
-240.243221
 20
16.425309
 30
0.0
  0
SPLINE
  5
13e
100
AcDbEntity
  8
Layer_1
 62
7
100
AcDbSpline
 70
8
 71
3
 72
8
 73
4
 74
0
 40
0
 40
0
 40
0
 40
0
 40
1
 40
1
 40
1
 40
1
 10
-240.243221
 20
16.425309
 30
0.0
 10
-211.666926
 20
16.425309
 30
0.0
 10
-188.501297
 20
39.590949
 30
0.0
 10
-188.501297
 20
68.167234
 30
0.0
  0
SPLINE
  5
13f
100
AcDbEntity
  8
Layer_1
 62
7
100
AcDbSpline
 70
8
 71
3
 72
8
 73
4
 74
0
 40
0
 40
0
 40
0
 40
0
 40
1
 40
1
 40
1
 40
1
 10
-188.501297
 20
68.167234
 30
0.0
 10
-188.501297
 20
96.743530
 30
0.0
 10
-211.666926
 20
119.909159
 30
0.0
 10
-240.243221
 20
119.909159
 30
0.0
  0
SPLINE
  5
140
100
AcDbEntity
  8
Layer_1
 62
7
100
AcDbSpline
 70
8
 71
3
 72
8
 73
4
 74
0
 40
0
 40
0
 40
0
 40
0
 40
1
 40
1
 40
1
 40
1
 10
-240.243221
 20
119.909159
 30
0.0
 10
-268.819507
 20
119.909159
 30
0.0
 10
-291.985146
 20
96.743530
 30
0.0
 10
-291.985146
 20
68.167234
 30
0.0
  0
SPLINE
  5
141
100
AcDbEntity
  8
Layer_1
 62
7
100
AcDbSpline
 70
8
 71
3
 72
8
 73
4
 74
0
 40
0
 40
0
 40
0
 40
0
 40
1
 40
1
 40
1
 40
1
 10
-81.969447
 20
-71.807954
 30
0.0
 10
-81.969447
 20
-100.384231
 30
0.0
 10
-58.803817
 20
-123.549879
 30
0.0
 10
-30.227522
 20
-123.549879
 30
0.0
  0
SPLINE
  5
142
100
AcDbEntity
  8
Layer_1
 62
7
100
AcDbSpline
 70
8
 71
3
 72
8
 73
4
 74
0
 40
0
 40
0
 40
0
 40
0
 40
1
 40
1
 40
1
 40
1
 10
-30.227522
 20
-123.549879
 30
0.0
 10
-1.651226
 20
-123.549879
 30
0.0
 10
21.514403
 20
-100.384231
 30
0.0
 10
21.514403
 20
-71.807954
 30
0.0
  0
SPLINE
  5
143
100
AcDbEntity
  8
Layer_1
 62
7
100
AcDbSpline
 70
8
 71
3
 72
8
 73
4
 74
0
 40
0
 40
0
 40
0
 40
0
 40
1
 40
1
 40
1
 40
1
 10
21.514403
 20
-71.807954
 30
0.0
 10
21.514403
 20
-43.231678
 30
0.0
 10
-1.651226
 20
-20.066030
 30
0.0
 10
-30.227522
 20
-20.066030
 30
0.0
  0
SPLINE
  5
144
100
AcDbEntity
  8
Layer_1
 62
7
100
AcDbSpline
 70
8
 71
3
 72
8
 73
4
 74
0
 40
0
 40
0
 40
0
 40
0
 40
1
 40
1
 40
1
 40
1
 10
-30.227522
 20
-20.066030
 30
0.0
 10
-58.803817
 20
-20.066030
 30
0.0
 10
-81.969447
 20
-43.231678
 30
0.0
 10
-81.969447
 20
-71.807954
 30
0.0
  0
SPLINE
  5
145
100
AcDbEntity
  8
Layer_1
 62
7
100
AcDbSpline
 70
8
 71
3
 72
8
 73
4
 74
0
 40
0
 40
0
 40
0
 40
0
 40
1
 40
1
 40
1
 40
1
 10
-151.988791
 20
68.167234
 30
0.0
 10
-151.988791
 20
39.590949
 30
0.0
 10
-128.823162
 20
16.425309
 30
0.0
 10
-100.246866
 20
16.425309
 30
0.0
  0
SPLINE
  5
146
100
AcDbEntity
  8
Layer_1
 62
7
100
AcDbSpline
 70
8
 71
3
 72
8
 73
4
 74
0
 40
0
 40
0
 40
0
 40
0
 40
1
 40
1
 40
1
 40
1
 10
-100.246866
 20
16.425309
 30
0.0
 10
-71.670570
 20
16.425309
 30
0.0
 10
-48.504941
 20
39.590949
 30
0.0
 10
-48.504941
 20
68.167234
 30
0.0
  0
SPLINE
  5
147
100
AcDbEntity
  8
Layer_1
 62
7
100
AcDbSpline
 70
8
 71
3
 72
8
 73
4
 74
0
 40
0
 40
0
 40
0
 40
0
 40
1
 40
1
 40
1
 40
1
 10
-48.504941
 20
68.167234
 30
0.0
 10
-48.504941
 20
96.743530
 30
0.0
 10
-71.670570
 20
119.909159
 30
0.0
 10
-100.246866
 20
119.909159
 30
0.0
  0
SPLINE
  5
148
100
AcDbEntity
  8
Layer_1
 62
7
100
AcDbSpline
 70
8
 71
3
 72
8
 73
4
 74
0
 40
0
 40
0
 40
0
 40
0
 40
1
 40
1
 40
1
 40
1
 10
-100.246866
 20
119.909159
 30
0.0
 10
-128.823162
 20
119.909159
 30
0.0
 10
-151.988791
 20
96.743530
 30
0.0
 10
-151.988791
 20
68.167234
 30
0.0
  0
SPLINE
  5
149
100
AcDbEntity
  8
Layer_1
 62
7
100
AcDbSpline
 70
8
 71
3
 72
8
 73
4
 74
0
 40
0
 40
0
 40
0
 40
0
 40
1
 40
1
 40
1
 40
1
 10
169.765760
 20
-121.062796
 30
0.0
 10
169.765760
 20
-126.586335
 30
0.0
 10
174.243463
 20
-131.064047
 30
0.0
 10
179.767011
 20
-131.064047
 30
0.0
  0
SPLINE
  5
14a
100
AcDbEntity
  8
Layer_1
 62
7
100
AcDbSpline
 70
8
 71
3
 72
8
 73
4
 74
0
 40
0
 40
0
 40
0
 40
0
 40
1
 40
1
 40
1
 40
1
 10
179.767011
 20
-131.064047
 30
0.0
 10
185.290560
 20
-131.064047
 30
0.0
 10
189.768263
 20
-126.586335
 30
0.0
 10
189.768263
 20
-121.062796
 30
0.0
  0
SPLINE
  5
14b
100
AcDbEntity
  8
Layer_1
 62
7
100
AcDbSpline
 70
8
 71
3
 72
8
 73
4
 74
0
 40
0
 40
0
 40
0
 40
0
 40
1
 40
1
 40
1
 40
1
 10
189.768263
 20
-121.062796
 30
0.0
 10
189.768263
 20
-115.539256
 30
0.0
 10
185.290560
 20
-111.061544
 30
0.0
 10
179.767011
 20
-111.061544
 30
0.0
  0
SPLINE
  5
14c
100
AcDbEntity
  8
Layer_1
 62
7
100
AcDbSpline
 70
8
 71
3
 72
8
 73
4
 74
0
 40
0
 40
0
 40
0
 40
0
 40
1
 40
1
 40
1
 40
1
 10
179.767011
 20
-111.061544
 30
0.0
 10
174.243463
 20
-111.061544
 30
0.0
 10
169.765760
 20
-115.539256
 30
0.0
 10
169.765760
 20
-121.062796
 30
0.0
  0
SPLINE
  5
14d
100
AcDbEntity
  8
Layer_1
 62
7
100
AcDbSpline
 70
8
 71
3
 72
8
 73
4
 74
0
 40
0
 40
0
 40
0
 40
0
 40
1
 40
1
 40
1
 40
1
 10
-329.301986
 20
20.203560
 30
0.0
 10
-329.301986
 20
14.680020
 30
0.0
 10
-324.824274
 20
10.202308
 30
0.0
 10
-319.300734
 20
10.202308
 30
0.0
  0
SPLINE
  5
14e
100
AcDbEntity
  8
Layer_1
 62
7
100
AcDbSpline
 70
8
 71
3
 72
8
 73
4
 74
0
 40
0
 40
0
 40
0
 40
0
 40
1
 40
1
 40
1
 40
1
 10
-319.300734
 20
10.202308
 30
0.0
 10
-313.777194
 20
10.202308
 30
0.0
 10
-309.299482
 20
14.680020
 30
0.0
 10
-309.299482
 20
20.203560
 30
0.0
  0
SPLINE
  5
14f
100
AcDbEntity
  8
Layer_1
 62
7
100
AcDbSpline
 70
8
 71
3
 72
8
 73
4
 74
0
 40
0
 40
0
 40
0
 40
0
 40
1
 40
1
 40
1
 40
1
 10
-309.299482
 20
20.203560
 30
0.0
 10
-309.299482
 20
25.727089
 30
0.0
 10
-313.777194
 20
30.204812
 30
0.0
 10
-319.300734
 20
30.204812
 30
0.0
  0
SPLINE
  5
150
100
AcDbEntity
  8
Layer_1
 62
7
100
AcDbSpline
 70
8
 71
3
 72
8
 73
4
 74
0
 40
0
 40
0
 40
0
 40
0
 40
1
 40
1
 40
1
 40
1
 10
-319.300734
 20
30.204812
 30
0.0
 10
-324.824274
 20
30.204812
 30
0.0
 10
-329.301986
 20
25.727089
 30
0.0
 10
-329.301986
 20
20.203560
 30
0.0
  0
SPLINE
  5
151
100
AcDbEntity
  8
Layer_1
 62
7
100
AcDbSpline
 70
8
 71
3
 72
8
 73
4
 74
0
 40
0
 40
0
 40
0
 40
0
 40
1
 40
1
 40
1
 40
1
 10
29.769404
 20
-121.062796
 30
0.0
 10
29.769404
 20
-126.586335
 30
0.0
 10
34.247108
 20
-131.064047
 30
0.0
 10
39.770656
 20
-131.064047
 30
0.0
  0
SPLINE
  5
152
100
AcDbEntity
  8
Layer_1
 62
7
100
AcDbSpline
 70
8
 71
3
 72
8
 73
4
 74
0
 40
0
 40
0
 40
0
 40
0
 40
1
 40
1
 40
1
 40
1
 10
39.770656
 20
-131.064047
 30
0.0
 10
45.294204
 20
-131.064047
 30
0.0
 10
49.771908
 20
-126.586335
 30
0.0
 10
49.771908
 20
-121.062796
 30
0.0
  0
SPLINE
  5
153
100
AcDbEntity
  8
Layer_1
 62
7
100
AcDbSpline
 70
8
 71
3
 72
8
 73
4
 74
0
 40
0
 40
0
 40
0
 40
0
 40
1
 40
1
 40
1
 40
1
 10
49.771908
 20
-121.062796
 30
0.0
 10
49.771908
 20
-115.539256
 30
0.0
 10
45.294204
 20
-111.061544
 30
0.0
 10
39.770656
 20
-111.061544
 30
0.0
  0
SPLINE
  5
154
100
AcDbEntity
  8
Layer_1
 62
7
100
AcDbSpline
 70
8
 71
3
 72
8
 73
4
 74
0
 40
0
 40
0
 40
0
 40
0
 40
1
 40
1
 40
1
 40
1
 10
39.770656
 20
-111.061544
 30
0.0
 10
34.247108
 20
-111.061544
 30
0.0
 10
29.769404
 20
-115.539256
 30
0.0
 10
29.769404
 20
-121.062796
 30
0.0
  0
SPLINE
  5
155
100
AcDbEntity
  8
Layer_1
 62
7
100
AcDbSpline
 70
8
 71
3
 72
8
 73
4
 74
0
 40
0
 40
0
 40
0
 40
0
 40
1
 40
1
 40
1
 40
1
 10
-361.983324
 20
-71.807954
 30
0.0
 10
-361.983324
 20
-100.384231
 30
0.0
 10
-338.817676
 20
-123.549879
 30
0.0
 10
-310.241399
 20
-123.549879
 30
0.0
  0
SPLINE
  5
156
100
AcDbEntity
  8
Layer_1
 62
7
100
AcDbSpline
 70
8
 71
3
 72
8
 73
4
 74
0
 40
0
 40
0
 40
0
 40
0
 40
1
 40
1
 40
1
 40
1
 10
-310.241399
 20
-123.549879
 30
0.0
 10
-281.665112
 20
-123.549879
 30
0.0
 10
-258.499474
 20
-100.384231
 30
0.0
 10
-258.499474
 20
-71.807954
 30
0.0
  0
SPLINE
  5
157
100
AcDbEntity
  8
Layer_1
 62
7
100
AcDbSpline
 70
8
 71
3
 72
8
 73
4
 74
0
 40
0
 40
0
 40
0
 40
0
 40
1
 40
1
 40
1
 40
1
 10
-258.499474
 20
-71.807954
 30
0.0
 10
-258.499474
 20
-43.231678
 30
0.0
 10
-281.665112
 20
-20.066030
 30
0.0
 10
-310.241399
 20
-20.066030
 30
0.0
  0
SPLINE
  5
158
100
AcDbEntity
  8
Layer_1
 62
7
100
AcDbSpline
 70
8
 71
3
 72
8
 73
4
 74
0
 40
0
 40
0
 40
0
 40
0
 40
1
 40
1
 40
1
 40
1
 10
-310.241399
 20
-20.066030
 30
0.0
 10
-338.817676
 20
-20.066030
 30
0.0
 10
-361.983324
 20
-43.231678
 30
0.0
 10
-361.983324
 20
-71.807954
 30
0.0
  0
SPLINE
  5
159
100
AcDbEntity
  8
Layer_1
 62
7
100
AcDbSpline
 70
8
 71
3
 72
8
 73
4
 74
0
 40
0
 40
0
 40
0
 40
0
 40
1
 40
1
 40
1
 40
1
 10
-11.971269
 20
68.167234
 30
0.0
 10
-11.971269
 20
39.590949
 30
0.0
 10
11.194360
 20
16.425309
 30
0.0
 10
39.770656
 20
16.425309
 30
0.0
  0
SPLINE
  5
15a
100
AcDbEntity
  8
Layer_1
 62
7
100
AcDbSpline
 70
8
 71
3
 72
8
 73
4
 74
0
 40
0
 40
0
 40
0
 40
0
 40
1
 40
1
 40
1
 40
1
 10
39.770656
 20
16.425309
 30
0.0
 10
68.346952
 20
16.425309
 30
0.0
 10
91.512581
 20
39.590949
 30
0.0
 10
91.512581
 20
68.167234
 30
0.0
  0
SPLINE
  5
15b
100
AcDbEntity
  8
Layer_1
 62
7
100
AcDbSpline
 70
8
 71
3
 72
8
 73
4
 74
0
 40
0
 40
0
 40
0
 40
0
 40
1
 40
1
 40
1
 40
1
 10
91.512581
 20
68.167234
 30
0.0
 10
91.512581
 20
96.743530
 30
0.0
 10
68.346952
 20
119.909159
 30
0.0
 10
39.770656
 20
119.909159
 30
0.0
  0
SPLINE
  5
15c
100
AcDbEntity
  8
Layer_1
 62
7
100
AcDbSpline
 70
8
 71
3
 72
8
 73
4
 74
0
 40
0
 40
0
 40
0
 40
0
 40
1
 40
1
 40
1
 40
1
 10
39.770656
 20
119.909159
 30
0.0
 10
11.194360
 20
119.909159
 30
0.0
 10
-11.971269
 20
96.743530
 30
0.0
 10
-11.971269
 20
68.167234
 30
0.0
  0
SPLINE
  5
15d
100
AcDbEntity
  8
Layer_1
 62
7
100
AcDbSpline
 70
8
 71
3
 72
8
 73
4
 74
0
 40
0
 40
0
 40
0
 40
0
 40
1
 40
1
 40
1
 40
1
 10
-110.248118
 20
-121.062796
 30
0.0
 10
-110.248118
 20
-126.586335
 30
0.0
 10
-105.770414
 20
-131.064047
 30
0.0
 10
-100.246866
 20
-131.064047
 30
0.0
  0
SPLINE
  5
15e
100
AcDbEntity
  8
Layer_1
 62
7
100
AcDbSpline
 70
8
 71
3
 72
8
 73
4
 74
0
 40
0
 40
0
 40
0
 40
0
 40
1
 40
1
 40
1
 40
1
 10
-100.246866
 20
-131.064047
 30
0.0
 10
-94.723318
 20
-131.064047
 30
0.0
 10
-90.245615
 20
-126.586335
 30
0.0
 10
-90.245615
 20
-121.062796
 30
0.0
  0
SPLINE
  5
15f
100
AcDbEntity
  8
Layer_1
 62
7
100
AcDbSpline
 70
8
 71
3
 72
8
 73
4
 74
0
 40
0
 40
0
 40
0
 40
0
 40
1
 40
1
 40
1
 40
1
 10
-90.245615
 20
-121.062796
 30
0.0
 10
-90.245615
 20
-115.539256
 30
0.0
 10
-94.723318
 20
-111.061544
 30
0.0
 10
-100.246866
 20
-111.061544
 30
0.0
  0
SPLINE
  5
160
100
AcDbEntity
  8
Layer_1
 62
7
100
AcDbSpline
 70
8
 71
3
 72
8
 73
4
 74
0
 40
0
 40
0
 40
0
 40
0
 40
1
 40
1
 40
1
 40
1
 10
-100.246866
 20
-111.061544
 30
0.0
 10
-105.770414
 20
-111.061544
 30
0.0
 10
-110.248118
 20
-115.539256
 30
0.0
 10
-110.248118
 20
-121.062796
 30
0.0
  0
SPLINE
  5
161
100
AcDbEntity
  8
Layer_1
 62
7
100
AcDbSpline
 70
8
 71
3
 72
8
 73
4
 74
0
 40
0
 40
0
 40
0
 40
0
 40
1
 40
1
 40
1
 40
1
 10
248.823272
 20
20.203560
 30
0.0
 10
248.823272
 20
14.680020
 30
0.0
 10
253.301018
 20
10.202308
 30
0.0
 10
258.824524
 20
10.202308
 30
0.0
  0
SPLINE
  5
162
100
AcDbEntity
  8
Layer_1
 62
7
100
AcDbSpline
 70
8
 71
3
 72
8
 73
4
 74
0
 40
0
 40
0
 40
0
 40
0
 40
1
 40
1
 40
1
 40
1
 10
258.824524
 20
10.202308
 30
0.0
 10
264.348030
 20
10.202308
 30
0.0
 10
268.825775
 20
14.680020
 30
0.0
 10
268.825775
 20
20.203560
 30
0.0
  0
SPLINE
  5
163
100
AcDbEntity
  8
Layer_1
 62
7
100
AcDbSpline
 70
8
 71
3
 72
8
 73
4
 74
0
 40
0
 40
0
 40
0
 40
0
 40
1
 40
1
 40
1
 40
1
 10
268.825775
 20
20.203560
 30
0.0
 10
268.825775
 20
25.727089
 30
0.0
 10
264.348030
 20
30.204812
 30
0.0
 10
258.824524
 20
30.204812
 30
0.0
  0
SPLINE
  5
164
100
AcDbEntity
  8
Layer_1
 62
7
100
AcDbSpline
 70
8
 71
3
 72
8
 73
4
 74
0
 40
0
 40
0
 40
0
 40
0
 40
1
 40
1
 40
1
 40
1
 10
258.824524
 20
30.204812
 30
0.0
 10
253.301018
 20
30.204812
 30
0.0
 10
248.823272
 20
25.727089
 30
0.0
 10
248.823272
 20
20.203560
 30
0.0
  0
SPLINE
  5
165
100
AcDbEntity
  8
Layer_1
 62
7
100
AcDbSpline
 70
8
 71
3
 72
8
 73
4
 74
0
 40
0
 40
0
 40
0
 40
0
 40
1
 40
1
 40
1
 40
1
 10
99.767582
 20
117.422075
 30
0.0
 10
99.767582
 20
111.898548
 30
0.0
 10
104.245285
 20
107.420824
 30
0.0
 10
109.768834
 20
107.420824
 30
0.0
  0
SPLINE
  5
166
100
AcDbEntity
  8
Layer_1
 62
7
100
AcDbSpline
 70
8
 71
3
 72
8
 73
4
 74
0
 40
0
 40
0
 40
0
 40
0
 40
1
 40
1
 40
1
 40
1
 10
109.768834
 20
107.420824
 30
0.0
 10
115.292382
 20
107.420824
 30
0.0
 10
119.770085
 20
111.898548
 30
0.0
 10
119.770085
 20
117.422075
 30
0.0
  0
SPLINE
  5
167
100
AcDbEntity
  8
Layer_1
 62
7
100
AcDbSpline
 70
8
 71
3
 72
8
 73
4
 74
0
 40
0
 40
0
 40
0
 40
0
 40
1
 40
1
 40
1
 40
1
 10
119.770085
 20
117.422075
 30
0.0
 10
119.770085
 20
122.945603
 30
0.0
 10
115.292382
 20
127.423327
 30
0.0
 10
109.768834
 20
127.423327
 30
0.0
  0
SPLINE
  5
168
100
AcDbEntity
  8
Layer_1
 62
7
100
AcDbSpline
 70
8
 71
3
 72
8
 73
4
 74
0
 40
0
 40
0
 40
0
 40
0
 40
1
 40
1
 40
1
 40
1
 10
109.768834
 20
127.423327
 30
0.0
 10
104.245285
 20
127.423327
 30
0.0
 10
99.767582
 20
122.945603
 30
0.0
 10
99.767582
 20
117.422075
 30
0.0
  0
SPLINE
  5
169
100
AcDbEntity
  8
Layer_1
 62
7
100
AcDbSpline
 70
8
 71
3
 72
8
 73
4
 74
0
 40
0
 40
0
 40
0
 40
0
 40
1
 40
1
 40
1
 40
1
 10
198.023264
 20
-71.807954
 30
0.0
 10
198.023264
 20
-100.384231
 30
0.0
 10
221.188893
 20
-123.549879
 30
0.0
 10
249.765189
 20
-123.549879
 30
0.0
  0
SPLINE
  5
16a
100
AcDbEntity
  8
Layer_1
 62
7
100
AcDbSpline
 70
8
 71
3
 72
8
 73
4
 74
0
 40
0
 40
0
 40
0
 40
0
 40
1
 40
1
 40
1
 40
1
 10
249.765189
 20
-123.549879
 30
0.0
 10
278.341442
 20
-123.549879
 30
0.0
 10
301.507114
 20
-100.384231
 30
0.0
 10
301.507114
 20
-71.807954
 30
0.0
  0
SPLINE
  5
16b
100
AcDbEntity
  8
Layer_1
 62
7
100
AcDbSpline
 70
8
 71
3
 72
8
 73
4
 74
0
 40
0
 40
0
 40
0
 40
0
 40
1
 40
1
 40
1
 40
1
 10
301.507114
 20
-71.807954
 30
0.0
 10
301.507114
 20
-43.231678
 30
0.0
 10
278.341442
 20
-20.066030
 30
0.0
 10
249.765189
 20
-20.066030
 30
0.0
  0
SPLINE
  5
16c
100
AcDbEntity
  8
Layer_1
 62
7
100
AcDbSpline
 70
8
 71
3
 72
8
 73
4
 74
0
 40
0
 40
0
 40
0
 40
0
 40
1
 40
1
 40
1
 40
1
 10
249.765189
 20
-20.066030
 30
0.0
 10
221.188893
 20
-20.066030
 30
0.0
 10
198.023264
 20
-43.231678
 30
0.0
 10
198.023264
 20
-71.807954
 30
0.0
  0
SPLINE
  5
16d
100
AcDbEntity
  8
Layer_1
 62
7
100
AcDbSpline
 70
8
 71
3
 72
8
 73
4
 74
0
 40
0
 40
0
 40
0
 40
0
 40
1
 40
1
 40
1
 40
1
 10
58.026909
 20
-71.807954
 30
0.0
 10
58.026909
 20
-100.384231
 30
0.0
 10
81.192538
 20
-123.549879
 30
0.0
 10
109.768834
 20
-123.549879
 30
0.0
  0
SPLINE
  5
16e
100
AcDbEntity
  8
Layer_1
 62
7
100
AcDbSpline
 70
8
 71
3
 72
8
 73
4
 74
0
 40
0
 40
0
 40
0
 40
0
 40
1
 40
1
 40
1
 40
1
 10
109.768834
 20
-123.549879
 30
0.0
 10
138.345129
 20
-123.549879
 30
0.0
 10
161.510758
 20
-100.384231
 30
0.0
 10
161.510758
 20
-71.807954
 30
0.0
  0
SPLINE
  5
16f
100
AcDbEntity
  8
Layer_1
 62
7
100
AcDbSpline
 70
8
 71
3
 72
8
 73
4
 74
0
 40
0
 40
0
 40
0
 40
0
 40
1
 40
1
 40
1
 40
1
 10
161.510758
 20
-71.807954
 30
0.0
 10
161.510758
 20
-43.231678
 30
0.0
 10
138.345129
 20
-20.066030
 30
0.0
 10
109.768834
 20
-20.066030
 30
0.0
  0
SPLINE
  5
170
100
AcDbEntity
  8
Layer_1
 62
7
100
AcDbSpline
 70
8
 71
3
 72
8
 73
4
 74
0
 40
0
 40
0
 40
0
 40
0
 40
1
 40
1
 40
1
 40
1
 10
109.768834
 20
-20.066030
 30
0.0
 10
81.192538
 20
-20.066030
 30
0.0
 10
58.026909
 20
-43.231678
 30
0.0
 10
58.026909
 20
-71.807954
 30
0.0
  0
SPLINE
  5
171
100
AcDbEntity
  8
Layer_1
 62
7
100
AcDbSpline
 70
8
 71
3
 72
8
 73
4
 74
0
 40
0
 40
0
 40
0
 40
0
 40
1
 40
1
 40
1
 40
1
 10
128.025087
 20
68.167234
 30
0.0
 10
128.025087
 20
39.590949
 30
0.0
 10
151.190716
 20
16.425309
 30
0.0
 10
179.767011
 20
16.425309
 30
0.0
  0
SPLINE
  5
172
100
AcDbEntity
  8
Layer_1
 62
7
100
AcDbSpline
 70
8
 71
3
 72
8
 73
4
 74
0
 40
0
 40
0
 40
0
 40
0
 40
1
 40
1
 40
1
 40
1
 10
179.767011
 20
16.425309
 30
0.0
 10
208.343307
 20
16.425309
 30
0.0
 10
231.508936
 20
39.590949
 30
0.0
 10
231.508936
 20
68.167234
 30
0.0
  0
SPLINE
  5
173
100
AcDbEntity
  8
Layer_1
 62
7
100
AcDbSpline
 70
8
 71
3
 72
8
 73
4
 74
0
 40
0
 40
0
 40
0
 40
0
 40
1
 40
1
 40
1
 40
1
 10
231.508936
 20
68.167234
 30
0.0
 10
231.508936
 20
96.743530
 30
0.0
 10
208.343307
 20
119.909159
 30
0.0
 10
179.767011
 20
119.909159
 30
0.0
  0
SPLINE
  5
174
100
AcDbEntity
  8
Layer_1
 62
7
100
AcDbSpline
 70
8
 71
3
 72
8
 73
4
 74
0
 40
0
 40
0
 40
0
 40
0
 40
1
 40
1
 40
1
 40
1
 10
179.767011
 20
119.909159
 30
0.0
 10
151.190716
 20
119.909159
 30
0.0
 10
128.025087
 20
96.743530
 30
0.0
 10
128.025087
 20
68.167234
 30
0.0
  0
LWPOLYLINE
  5
175
100
AcDbEntity
  8
Layer_1
 62
7
100
AcDbPolyline
 90
2
 70
0
 10
179.756428
 20
437.409209
 30
0.0
 10
-240.253805
 20
437.409209
 30
0.0
  0
SPLINE
  5
176
100
AcDbEntity
  8
Layer_1
 62
7
100
AcDbSpline
 70
8
 71
3
 72
8
 73
4
 74
0
 40
0
 40
0
 40
0
 40
0
 40
1
 40
1
 40
1
 40
1
 10
249.765189
 20
-141.054715
 30
0.0
 10
273.764552
 20
-141.054715
 30
0.0
 10
296.052738
 20
-128.628245
 30
0.0
 10
308.669957
 20
-108.213188
 30
0.0
  0
SPLINE
  5
177
100
AcDbEntity
  8
Layer_1
 62
7
100
AcDbSpline
 70
8
 71
3
 72
8
 73
4
 74
0
 40
0
 40
0
 40
0
 40
0
 40
1
 40
1
 40
1
 40
1
 10
308.669957
 20
-108.213188
 30
0.0
 10
321.287198
 20
-87.798133
 30
0.0
 10
322.434262
 20
-62.305669
 30
0.0
 10
311.701427
 20
-40.839980
 30
0.0
  0
LWPOLYLINE
  5
178
100
AcDbEntity
  8
Layer_1
 62
7
100
AcDbPolyline
 90
2
 70
0
 10
311.709449
 20
-40.851700
 30
0.0
 10
241.690104
 20
99.144656
 30
0.0
  0
SPLINE
  5
179
100
AcDbEntity
  8
Layer_1
 62
7
100
AcDbSpline
 70
8
 71
3
 72
8
 73
4
 74
0
 40
0
 40
0
 40
0
 40
0
 40
1
 40
1
 40
1
 40
1
 10
-372.177649
 20
-40.839980
 30
0.0
 10
-382.910438
 20
-62.305669
 30
0.0
 10
-381.763401
 20
-87.798133
 30
0.0
 10
-369.146174
 20
-108.213188
 30
0.0
  0
SPLINE
  5
17a
100
AcDbEntity
  8
Layer_1
 62
7
100
AcDbSpline
 70
8
 71
3
 72
8
 73
4
 74
0
 40
0
 40
0
 40
0
 40
0
 40
1
 40
1
 40
1
 40
1
 10
-369.146174
 20
-108.213188
 30
0.0
 10
-356.528948
 20
-128.628245
 30
0.0
 10
-334.240754
 20
-141.054715
 30
0.0
 10
-310.241399
 20
-141.054715
 30
0.0
  0
LWPOLYLINE
  5
17b
100
AcDbEntity
  8
Layer_1
 62
7
100
AcDbPolyline
 90
2
 70
0
 10
-310.251983
 20
-141.075882
 30
0.0
 10
249.754606
 20
-141.075882
 30
0.0
  0
SPLINE
  5
17c
100
AcDbEntity
  8
Layer_1
 62
7
100
AcDbSpline
 70
8
 71
3
 72
8
 73
4
 74
0
 40
0
 40
0
 40
0
 40
0
 40
1
 40
1
 40
1
 40
1
 10
-240.243221
 20
137.413995
 30
0.0
 10
-266.472013
 20
137.413995
 30
0.0
 10
-290.449642
 20
122.594977
 30
0.0
 10
-302.179472
 20
99.135215
 30
0.0
  0
LWPOLYLINE
  5
17d
100
AcDbEntity
  8
Layer_1
 62
7
100
AcDbPolyline
 90
2
 70
0
 10
-302.187481
 20
99.144656
 30
0.0
 10
-372.206826
 20
-40.851700
 30
0.0
  0
SPLINE
  5
17e
100
AcDbEntity
  8
Layer_1
 62
7
100
AcDbSpline
 70
8
 71
3
 72
8
 73
4
 74
0
 40
0
 40
0
 40
0
 40
0
 40
1
 40
1
 40
1
 40
1
 10
241.703249
 20
99.135215
 30
0.0
 10
229.973442
 20
122.594977
 30
0.0
 10
205.995775
 20
137.413995
 30
0.0
 10
179.767011
 20
137.413995
 30
0.0
  0
LWPOLYLINE
  5
17f
100
AcDbEntity
  8
Layer_1
 62
7
100
AcDbPolyline
 90
2
 70
0
 10
179.756428
 20
137.413995
 30
0.0
 10
-240.253805
 20
137.413995
 30
0.0
  0
ENDSEC
  0
SECTION
  2
OBJECTS
  0
DICTIONARY
  5
C
330
0
100
AcDbDictionary
  3
ACAD_GROUP
350
D
  3
ACAD_MLINESTYLE
350
17
  0
DICTIONARY
  5
D
330
C
100
AcDbDictionary
  0
DICTIONARY
  5
1A
330
C
100
AcDbDictionary
  0
DICTIONARY
  5
17
330
C
100
AcDbDictionary
  3
STANDARD
350
18
  0
DICTIONARY
  5
19
330
C
100
AcDbDictionary
  0
ENDSEC
  0
EOF
