  0
SECTION
  2
HEADER
  9
$ACADVER
  1
AC1014
  9
$HANDSEED
  5
FFFF
  9
$MEASUREMENT
 70
     1
  0
ENDSEC
  0
SECTION
  2
TABLES
  0
TABLE
  2
VPORT
  5
8
330
0
100
AcDbSymbolTable
 70
     4
  0
VPORT
  5
2E
330
8
100
AcDbSymbolTableRecord
100
AcDbViewportTableRecord
  2
*ACTIVE
 70
     0
 10
0.0
 20
0.0
 11
1.0
 21
1.0
 12
210.0
 22
148.5
 13
0.0
 23
0.0
 14
10.0
 24
10.0
 15
10.0
 25
10.0
 16
0.0
 26
0.0
 36
1.0
 17
0.0
 27
0.0
 37
0.0
 40
341.0
 41
1.24
 42
50.0
 43
0.0
 44
0.0
 50
0.0
 51
0.0
 71
     0
 72
   100
 73
     1
 74
     3
 75
     0
 76
     0
 77
     0
 78
     0
  0
ENDTAB
  0
TABLE
  2
LTYPE
  5
5
330
0
100
AcDbSymbolTable
 70
     1
  0
LTYPE
  5
14
330
5
100
AcDbSymbolTableRecord
100
AcDbLinetypeTableRecord
  2
BYBLOCK
 70
     0
  3

 72
    65
 73
     0
 40
0.0
  0
LTYPE
  5
15
330
5
100
AcDbSymbolTableRecord
100
AcDbLinetypeTableRecord
  2
BYLAYER
 70
     0
  3

 72
    65
 73
     0
 40
0.0
  0
LTYPE
  5
16
330
5
100
AcDbSymbolTableRecord
100
AcDbLinetypeTableRecord
  2
CONTINUOUS
 70
     0
  3
Solid line
 72
    65
 73
     0
 40
0.0
  0
ENDTAB
  0
TABLE
  2
LAYER
  5
2
100
AcDbSymbolTable
 70
2
  0
LAYER
  5
50
100
AcDbSymbolTableRecord
100
AcDbLayerTableRecord
  2
0
 70
0
  6
CONTINUOUS
  0
LAYER
  5
51
100
AcDbSymbolTableRecord
100
AcDbLayerTableRecord
  2
Spacer
 70
0
  6
CONTINUOUS
  0
ENDTAB
  0
TABLE
  2
STYLE
  5
3
330
0
100
AcDbSymbolTable
 70
     1
  0
STYLE
  5
11
330
3
100
AcDbSymbolTableRecord
100
AcDbTextStyleTableRecord
  2
STANDARD
 70
     0
 40
0.0
 41
1.0
 50
0.0
 71
     0
 42
2.5
  3
txt
  4

  0
ENDTAB
  0
TABLE
  2
VIEW
  5
6
330
0
100
AcDbSymbolTable
 70
     0
  0
ENDTAB
  0
TABLE
  2
UCS
  5
7
330
0
100
AcDbSymbolTable
 70
     0
  0
ENDTAB
  0
TABLE
  2
APPID
  5
9
330
0
100
AcDbSymbolTable
 70
     2
  0
APPID
  5
12
330
9
100
AcDbSymbolTableRecord
100
AcDbRegAppTableRecord
  2
ACAD
 70
     0
  0
ENDTAB
  0
TABLE
  2
DIMSTYLE
  5
A
330
0
100
AcDbSymbolTable
 70
     1
  0
DIMSTYLE
105
27
330
A
100
AcDbSymbolTableRecord
100
AcDbDimStyleTableRecord
  2
ISO-25
 70
     0
  3

  4

  5

  6

  7

 40
1.0
 41
2.5
 42
0.625
 43
3.75
 44
1.25
 45
0.0
 46
0.0
 47
0.0
 48
0.0
140
2.5
141
2.5
142
0.0
143
0.03937007874016
144
1.0
145
0.0
146
1.0
147
0.625
 71
     0
 72
     0
 73
     0
 74
     0
 75
     0
 76
     0
 77
     1
 78
     8
170
     0
171
     3
172
     1
173
     0
174
     0
175
     0
176
     0
177
     0
178
     0
270
     2
271
     2
272
     2
273
     2
274
     3
340
11
275
     0
280
     0
281
     0
282
     0
283
     0
284
     8
285
     0
286
     0
287
     3
288
     0
  0
ENDTAB
  0
TABLE
  2
BLOCK_RECORD
  5
1
330
0
100
AcDbSymbolTable
 70
     1
  0
BLOCK_RECORD
  5
1F
330
1
100
AcDbSymbolTableRecord
100
AcDbBlockTableRecord
  2
*MODEL_SPACE
  0
BLOCK_RECORD
  5
1B
330
1
100
AcDbSymbolTableRecord
100
AcDbBlockTableRecord
  2
*PAPER_SPACE
  0
ENDTAB
  0
ENDSEC
  0
SECTION
  2
BLOCKS
  0
BLOCK
  5
20
330
1F
100
AcDbEntity
  8
0
100
AcDbBlockBegin
  2
*MODEL_SPACE
 70
     0
 10
0.0
 20
0.0
 30
0.0
  3
*MODEL_SPACE
  1

  0
ENDBLK
  5
21
330
1F
100
AcDbEntity
  8
0
100
AcDbBlockEnd
  0
BLOCK
  5
1C
330
1B
100
AcDbEntity
 67
     1
  8
0
100
AcDbBlockBegin
  2
*PAPER_SPACE
  1

  0
ENDBLK
  5
1D
330
1B
100
AcDbEntity
 67
     1
  8
0
100
AcDbBlockEnd
  0
ENDSEC
  0
SECTION
  2
ENTITIES
  0
SPLINE
  5
100
100
AcDbEntity
  8
Spacer
 62
7
100
AcDbSpline
 70
8
 71
3
 72
8
 73
4
 74
0
 40
0
 40
0
 40
0
 40
0
 40
1
 40
1
 40
1
 40
1
 10
466.809667
 20
31.697083
 30
0.0
 10
466.809667
 20
26.173544
 30
0.0
 10
471.287369
 20
21.695833
 30
0.0
 10
476.810917
 20
21.695833
 30
0.0
  0
SPLINE
  5
101
100
AcDbEntity
  8
Spacer
 62
7
100
AcDbSpline
 70
8
 71
3
 72
8
 73
4
 74
0
 40
0
 40
0
 40
0
 40
0
 40
1
 40
1
 40
1
 40
1
 10
476.810917
 20
21.695833
 30
0.0
 10
482.334464
 20
21.695833
 30
0.0
 10
486.812167
 20
26.173544
 30
0.0
 10
486.812167
 20
31.697083
 30
0.0
  0
SPLINE
  5
102
100
AcDbEntity
  8
Spacer
 62
7
100
AcDbSpline
 70
8
 71
3
 72
8
 73
4
 74
0
 40
0
 40
0
 40
0
 40
0
 40
1
 40
1
 40
1
 40
1
 10
486.812167
 20
31.697083
 30
0.0
 10
486.812167
 20
37.220622
 30
0.0
 10
482.334464
 20
41.698333
 30
0.0
 10
476.810917
 20
41.698333
 30
0.0
  0
SPLINE
  5
103
100
AcDbEntity
  8
Spacer
 62
7
100
AcDbSpline
 70
8
 71
3
 72
8
 73
4
 74
0
 40
0
 40
0
 40
0
 40
0
 40
1
 40
1
 40
1
 40
1
 10
476.810917
 20
41.698333
 30
0.0
 10
471.287369
 20
41.698333
 30
0.0
 10
466.809667
 20
37.220622
 30
0.0
 10
466.809667
 20
31.697083
 30
0.0
  0
SPLINE
  5
104
100
AcDbEntity
  8
Spacer
 62
7
100
AcDbSpline
 70
8
 71
3
 72
8
 73
4
 74
0
 40
0
 40
0
 40
0
 40
0
 40
1
 40
1
 40
1
 40
1
 10
326.813333
 20
31.697083
 30
0.0
 10
326.813333
 20
26.173544
 30
0.0
 10
331.291057
 20
21.695833
 30
0.0
 10
336.814583
 20
21.695833
 30
0.0
  0
SPLINE
  5
105
100
AcDbEntity
  8
Spacer
 62
7
100
AcDbSpline
 70
8
 71
3
 72
8
 73
4
 74
0
 40
0
 40
0
 40
0
 40
0
 40
1
 40
1
 40
1
 40
1
 10
336.814583
 20
21.695833
 30
0.0
 10
342.338110
 20
21.695833
 30
0.0
 10
346.815833
 20
26.173544
 30
0.0
 10
346.815833
 20
31.697083
 30
0.0
  0
SPLINE
  5
106
100
AcDbEntity
  8
Spacer
 62
7
100
AcDbSpline
 70
8
 71
3
 72
8
 73
4
 74
0
 40
0
 40
0
 40
0
 40
0
 40
1
 40
1
 40
1
 40
1
 10
346.815833
 20
31.697083
 30
0.0
 10
346.815833
 20
37.220622
 30
0.0
 10
342.338110
 20
41.698333
 30
0.0
 10
336.814583
 20
41.698333
 30
0.0
  0
SPLINE
  5
107
100
AcDbEntity
  8
Spacer
 62
7
100
AcDbSpline
 70
8
 71
3
 72
8
 73
4
 74
0
 40
0
 40
0
 40
0
 40
0
 40
1
 40
1
 40
1
 40
1
 10
336.814583
 20
41.698333
 30
0.0
 10
331.291057
 20
41.698333
 30
0.0
 10
326.813333
 20
37.220622
 30
0.0
 10
326.813333
 20
31.697083
 30
0.0
  0
SPLINE
  5
108
100
AcDbEntity
  8
Spacer
 62
7
100
AcDbSpline
 70
8
 71
3
 72
8
 73
4
 74
0
 40
0
 40
0
 40
0
 40
0
 40
1
 40
1
 40
1
 40
1
 10
107.759500
 20
172.984583
 30
0.0
 10
107.759500
 20
167.461044
 30
0.0
 10
112.237211
 20
162.983333
 30
0.0
 10
117.760750
 20
162.983333
 30
0.0
  0
SPLINE
  5
109
100
AcDbEntity
  8
Spacer
 62
7
100
AcDbSpline
 70
8
 71
3
 72
8
 73
4
 74
0
 40
0
 40
0
 40
0
 40
0
 40
1
 40
1
 40
1
 40
1
 10
117.760750
 20
162.983333
 30
0.0
 10
123.284289
 20
162.983333
 30
0.0
 10
127.762000
 20
167.461044
 30
0.0
 10
127.762000
 20
172.984583
 30
0.0
  0
SPLINE
  5
10a
100
AcDbEntity
  8
Spacer
 62
7
100
AcDbSpline
 70
8
 71
3
 72
8
 73
4
 74
0
 40
0
 40
0
 40
0
 40
0
 40
1
 40
1
 40
1
 40
1
 10
127.762000
 20
172.984583
 30
0.0
 10
127.762000
 20
178.508112
 30
0.0
 10
123.284289
 20
182.985833
 30
0.0
 10
117.760750
 20
182.985833
 30
0.0
  0
SPLINE
  5
10b
100
AcDbEntity
  8
Spacer
 62
7
100
AcDbSpline
 70
8
 71
3
 72
8
 73
4
 74
0
 40
0
 40
0
 40
0
 40
0
 40
1
 40
1
 40
1
 40
1
 10
117.760750
 20
182.985833
 30
0.0
 10
112.237211
 20
182.985833
 30
0.0
 10
107.759500
 20
178.508112
 30
0.0
 10
107.759500
 20
172.984583
 30
0.0
  0
SPLINE
  5
10c
100
AcDbEntity
  8
Spacer
 62
7
100
AcDbSpline
 70
8
 71
3
 72
8
 73
4
 74
0
 40
0
 40
0
 40
0
 40
0
 40
1
 40
1
 40
1
 40
1
 10
606.806000
 20
31.697083
 30
0.0
 10
606.806000
 20
26.173544
 30
0.0
 10
611.283703
 20
21.695833
 30
0.0
 10
616.807250
 20
21.695833
 30
0.0
  0
SPLINE
  5
10d
100
AcDbEntity
  8
Spacer
 62
7
100
AcDbSpline
 70
8
 71
3
 72
8
 73
4
 74
0
 40
0
 40
0
 40
0
 40
0
 40
1
 40
1
 40
1
 40
1
 10
616.807250
 20
21.695833
 30
0.0
 10
622.330798
 20
21.695833
 30
0.0
 10
626.808500
 20
26.173544
 30
0.0
 10
626.808500
 20
31.697083
 30
0.0
  0
SPLINE
  5
10e
100
AcDbEntity
  8
Spacer
 62
7
100
AcDbSpline
 70
8
 71
3
 72
8
 73
4
 74
0
 40
0
 40
0
 40
0
 40
0
 40
1
 40
1
 40
1
 40
1
 10
626.808500
 20
31.697083
 30
0.0
 10
626.808500
 20
37.220622
 30
0.0
 10
622.330798
 20
41.698333
 30
0.0
 10
616.807250
 20
41.698333
 30
0.0
  0
SPLINE
  5
10f
100
AcDbEntity
  8
Spacer
 62
7
100
AcDbSpline
 70
8
 71
3
 72
8
 73
4
 74
0
 40
0
 40
0
 40
0
 40
0
 40
1
 40
1
 40
1
 40
1
 10
616.807250
 20
41.698333
 30
0.0
 10
611.283703
 20
41.698333
 30
0.0
 10
606.806000
 20
37.220622
 30
0.0
 10
606.806000
 20
31.697083
 30
0.0
  0
SPLINE
  5
110
100
AcDbEntity
  8
Spacer
 62
7
100
AcDbSpline
 70
8
 71
3
 72
8
 73
4
 74
0
 40
0
 40
0
 40
0
 40
0
 40
1
 40
1
 40
1
 40
1
 10
186.817000
 20
31.697083
 30
0.0
 10
186.817000
 20
26.173544
 30
0.0
 10
191.294722
 20
21.695833
 30
0.0
 10
196.818250
 20
21.695833
 30
0.0
  0
SPLINE
  5
111
100
AcDbEntity
  8
Spacer
 62
7
100
AcDbSpline
 70
8
 71
3
 72
8
 73
4
 74
0
 40
0
 40
0
 40
0
 40
0
 40
1
 40
1
 40
1
 40
1
 10
196.818250
 20
21.695833
 30
0.0
 10
202.341778
 20
21.695833
 30
0.0
 10
206.819500
 20
26.173544
 30
0.0
 10
206.819500
 20
31.697083
 30
0.0
  0
SPLINE
  5
112
100
AcDbEntity
  8
Spacer
 62
7
100
AcDbSpline
 70
8
 71
3
 72
8
 73
4
 74
0
 40
0
 40
0
 40
0
 40
0
 40
1
 40
1
 40
1
 40
1
 10
206.819500
 20
31.697083
 30
0.0
 10
206.819500
 20
37.220622
 30
0.0
 10
202.341778
 20
41.698333
 30
0.0
 10
196.818250
 20
41.698333
 30
0.0
  0
SPLINE
  5
113
100
AcDbEntity
  8
Spacer
 62
7
100
AcDbSpline
 70
8
 71
3
 72
8
 73
4
 74
0
 40
0
 40
0
 40
0
 40
0
 40
1
 40
1
 40
1
 40
1
 10
196.818250
 20
41.698333
 30
0.0
 10
191.294722
 20
41.698333
 30
0.0
 10
186.817000
 20
37.220622
 30
0.0
 10
186.817000
 20
31.697083
 30
0.0
  0
SPLINE
  5
114
100
AcDbEntity
  8
Spacer
 62
7
100
AcDbSpline
 70
8
 71
3
 72
8
 73
4
 74
0
 40
0
 40
0
 40
0
 40
0
 40
1
 40
1
 40
1
 40
1
 10
256.815167
 20
270.203083
 30
0.0
 10
256.815167
 20
264.679557
 30
0.0
 10
261.292890
 20
260.201833
 30
0.0
 10
266.816417
 20
260.201833
 30
0.0
  0
SPLINE
  5
115
100
AcDbEntity
  8
Spacer
 62
7
100
AcDbSpline
 70
8
 71
3
 72
8
 73
4
 74
0
 40
0
 40
0
 40
0
 40
0
 40
1
 40
1
 40
1
 40
1
 10
266.816417
 20
260.201833
 30
0.0
 10
272.339943
 20
260.201833
 30
0.0
 10
276.817667
 20
264.679557
 30
0.0
 10
276.817667
 20
270.203083
 30
0.0
  0
SPLINE
  5
116
100
AcDbEntity
  8
Spacer
 62
7
100
AcDbSpline
 70
8
 71
3
 72
8
 73
4
 74
0
 40
0
 40
0
 40
0
 40
0
 40
1
 40
1
 40
1
 40
1
 10
276.817667
 20
270.203083
 30
0.0
 10
276.817667
 20
275.726610
 30
0.0
 10
272.339943
 20
280.204333
 30
0.0
 10
266.816417
 20
280.204333
 30
0.0
  0
SPLINE
  5
117
100
AcDbEntity
  8
Spacer
 62
7
100
AcDbSpline
 70
8
 71
3
 72
8
 73
4
 74
0
 40
0
 40
0
 40
0
 40
0
 40
1
 40
1
 40
1
 40
1
 10
266.816417
 20
280.204333
 30
0.0
 10
261.292890
 20
280.204333
 30
0.0
 10
256.815167
 20
275.726610
 30
0.0
 10
256.815167
 20
270.203083
 30
0.0
  0
SPLINE
  5
118
100
AcDbEntity
  8
Spacer
 62
7
100
AcDbSpline
 70
8
 71
3
 72
8
 73
4
 74
0
 40
0
 40
0
 40
0
 40
0
 40
1
 40
1
 40
1
 40
1
 10
396.811500
 20
270.203083
 30
0.0
 10
396.811500
 20
264.679557
 30
0.0
 10
401.289202
 20
260.201833
 30
0.0
 10
406.812750
 20
260.201833
 30
0.0
  0
SPLINE
  5
119
100
AcDbEntity
  8
Spacer
 62
7
100
AcDbSpline
 70
8
 71
3
 72
8
 73
4
 74
0
 40
0
 40
0
 40
0
 40
0
 40
1
 40
1
 40
1
 40
1
 10
406.812750
 20
260.201833
 30
0.0
 10
412.336298
 20
260.201833
 30
0.0
 10
416.814000
 20
264.679557
 30
0.0
 10
416.814000
 20
270.203083
 30
0.0
  0
SPLINE
  5
11a
100
AcDbEntity
  8
Spacer
 62
7
100
AcDbSpline
 70
8
 71
3
 72
8
 73
4
 74
0
 40
0
 40
0
 40
0
 40
0
 40
1
 40
1
 40
1
 40
1
 10
416.814000
 20
270.203083
 30
0.0
 10
416.814000
 20
275.726610
 30
0.0
 10
412.336298
 20
280.204333
 30
0.0
 10
406.812750
 20
280.204333
 30
0.0
  0
SPLINE
  5
11b
100
AcDbEntity
  8
Spacer
 62
7
100
AcDbSpline
 70
8
 71
3
 72
8
 73
4
 74
0
 40
0
 40
0
 40
0
 40
0
 40
1
 40
1
 40
1
 40
1
 10
406.812750
 20
280.204333
 30
0.0
 10
401.289202
 20
280.204333
 30
0.0
 10
396.811500
 20
275.726610
 30
0.0
 10
396.811500
 20
270.203083
 30
0.0
  0
SPLINE
  5
11c
100
AcDbEntity
  8
Spacer
 62
7
100
AcDbSpline
 70
8
 71
3
 72
8
 73
4
 74
0
 40
0
 40
0
 40
0
 40
0
 40
1
 40
1
 40
1
 40
1
 10
685.863500
 20
172.984583
 30
0.0
 10
685.863500
 20
167.461044
 30
0.0
 10
690.341203
 20
162.983333
 30
0.0
 10
695.864750
 20
162.983333
 30
0.0
  0
SPLINE
  5
11d
100
AcDbEntity
  8
Spacer
 62
7
100
AcDbSpline
 70
8
 71
3
 72
8
 73
4
 74
0
 40
0
 40
0
 40
0
 40
0
 40
1
 40
1
 40
1
 40
1
 10
695.864750
 20
162.983333
 30
0.0
 10
701.388255
 20
162.983333
 30
0.0
 10
705.866000
 20
167.461044
 30
0.0
 10
705.866000
 20
172.984583
 30
0.0
  0
SPLINE
  5
11e
100
AcDbEntity
  8
Spacer
 62
7
100
AcDbSpline
 70
8
 71
3
 72
8
 73
4
 74
0
 40
0
 40
0
 40
0
 40
0
 40
1
 40
1
 40
1
 40
1
 10
705.866000
 20
172.984583
 30
0.0
 10
705.866000
 20
178.508112
 30
0.0
 10
701.388255
 20
182.985833
 30
0.0
 10
695.864750
 20
182.985833
 30
0.0
  0
SPLINE
  5
11f
100
AcDbEntity
  8
Spacer
 62
7
100
AcDbSpline
 70
8
 71
3
 72
8
 73
4
 74
0
 40
0
 40
0
 40
0
 40
0
 40
1
 40
1
 40
1
 40
1
 10
695.864750
 20
182.985833
 30
0.0
 10
690.341203
 20
182.985833
 30
0.0
 10
685.863500
 20
178.508112
 30
0.0
 10
685.863500
 20
172.984583
 30
0.0
  0
SPLINE
  5
120
100
AcDbEntity
  8
Spacer
 62
7
100
AcDbSpline
 70
8
 71
3
 72
8
 73
4
 74
0
 40
0
 40
0
 40
0
 40
0
 40
1
 40
1
 40
1
 40
1
 10
536.807833
 20
270.203083
 30
0.0
 10
536.807833
 20
264.679557
 30
0.0
 10
541.285536
 20
260.201833
 30
0.0
 10
546.809083
 20
260.201833
 30
0.0
  0
SPLINE
  5
121
100
AcDbEntity
  8
Spacer
 62
7
100
AcDbSpline
 70
8
 71
3
 72
8
 73
4
 74
0
 40
0
 40
0
 40
0
 40
0
 40
1
 40
1
 40
1
 40
1
 10
546.809083
 20
260.201833
 30
0.0
 10
552.332631
 20
260.201833
 30
0.0
 10
556.810333
 20
264.679557
 30
0.0
 10
556.810333
 20
270.203083
 30
0.0
  0
SPLINE
  5
122
100
AcDbEntity
  8
Spacer
 62
7
100
AcDbSpline
 70
8
 71
3
 72
8
 73
4
 74
0
 40
0
 40
0
 40
0
 40
0
 40
1
 40
1
 40
1
 40
1
 10
556.810333
 20
270.203083
 30
0.0
 10
556.810333
 20
275.726610
 30
0.0
 10
552.332631
 20
280.204333
 30
0.0
 10
546.809083
 20
280.204333
 30
0.0
  0
SPLINE
  5
123
100
AcDbEntity
  8
Spacer
 62
7
100
AcDbSpline
 70
8
 71
3
 72
8
 73
4
 74
0
 40
0
 40
0
 40
0
 40
0
 40
1
 40
1
 40
1
 40
1
 10
546.809083
 20
280.204333
 30
0.0
 10
541.285536
 20
280.204333
 30
0.0
 10
536.807833
 20
275.726610
 30
0.0
 10
536.807833
 20
270.203083
 30
0.0
  0
SPLINE
  5
124
100
AcDbEntity
  8
Spacer
 62
7
100
AcDbSpline
 70
8
 71
3
 72
8
 73
4
 74
0
 40
0
 40
0
 40
0
 40
0
 40
1
 40
1
 40
1
 40
1
 10
686.805417
 20
11.705167
 30
0.0
 10
710.804776
 20
11.705167
 30
0.0
 10
733.092959
 20
24.131636
 30
0.0
 10
745.710176
 20
44.546691
 30
0.0
  0
SPLINE
  5
125
100
AcDbEntity
  8
Spacer
 62
7
100
AcDbSpline
 70
8
 71
3
 72
8
 73
4
 74
0
 40
0
 40
0
 40
0
 40
0
 40
1
 40
1
 40
1
 40
1
 10
745.710176
 20
44.546691
 30
0.0
 10
758.327414
 20
64.961740
 30
0.0
 10
759.474478
 20
90.454201
 30
0.0
 10
748.741645
 20
111.919887
 30
0.0
  0
LWPOLYLINE
  5
126
100
AcDbEntity
  8
Spacer
 62
7
100
AcDbPolyline
 90
2
 70
0
 10
748.749667
 20
111.908167
 30
0.0
 10
678.730333
 20
251.904500
 30
0.0
  0
SPLINE
  5
127
100
AcDbEntity
  8
Spacer
 62
7
100
AcDbSpline
 70
8
 71
3
 72
8
 73
4
 74
0
 40
0
 40
0
 40
0
 40
0
 40
1
 40
1
 40
1
 40
1
 10
64.883849
 20
111.919887
 30
0.0
 10
54.151056
 20
90.454201
 30
0.0
 10
55.298092
 20
64.961740
 30
0.0
 10
67.915312
 20
44.546691
 30
0.0
  0
SPLINE
  5
128
100
AcDbEntity
  8
Spacer
 62
7
100
AcDbSpline
 70
8
 71
3
 72
8
 73
4
 74
0
 40
0
 40
0
 40
0
 40
0
 40
1
 40
1
 40
1
 40
1
 10
67.915312
 20
44.546691
 30
0.0
 10
80.532537
 20
24.131636
 30
0.0
 10
102.820732
 20
11.705167
 30
0.0
 10
126.820083
 20
11.705167
 30
0.0
  0
LWPOLYLINE
  5
129
100
AcDbEntity
  8
Spacer
 62
7
100
AcDbPolyline
 90
2
 70
0
 10
126.809500
 20
11.684000
 30
0.0
 10
686.794833
 20
11.684000
 30
0.0
  0
SPLINE
  5
12a
100
AcDbEntity
  8
Spacer
 62
7
100
AcDbSpline
 70
8
 71
3
 72
8
 73
4
 74
0
 40
0
 40
0
 40
0
 40
0
 40
1
 40
1
 40
1
 40
1
 10
196.818250
 20
290.195000
 30
0.0
 10
170.589463
 20
290.195000
 30
0.0
 10
146.611837
 20
275.375984
 30
0.0
 10
134.882009
 20
251.916226
 30
0.0
  0
LWPOLYLINE
  5
12b
100
AcDbEntity
  8
Spacer
 62
7
100
AcDbPolyline
 90
2
 70
0
 10
134.874000
 20
251.904500
 30
0.0
 10
64.854667
 20
111.908167
 30
0.0
  0
SPLINE
  5
12c
100
AcDbEntity
  8
Spacer
 62
7
100
AcDbSpline
 70
8
 71
3
 72
8
 73
4
 74
0
 40
0
 40
0
 40
0
 40
0
 40
1
 40
1
 40
1
 40
1
 10
678.743478
 20
251.916226
 30
0.0
 10
667.013673
 20
275.375984
 30
0.0
 10
643.036010
 20
290.195000
 30
0.0
 10
616.807250
 20
290.195000
 30
0.0
  0
SPLINE
  5
12d
100
AcDbEntity
  8
Spacer
 62
7
100
AcDbSpline
 70
8
 71
3
 72
8
 73
4
 74
0
 40
0
 40
0
 40
0
 40
0
 40
1
 40
1
 40
1
 40
1
 10
691.874833
 20
372.988417
 30
0.0
 10
691.874833
 20
370.784861
 30
0.0
 10
693.661194
 20
368.998500
 30
0.0
 10
695.864750
 20
368.998500
 30
0.0
  0
SPLINE
  5
12e
100
AcDbEntity
  8
Spacer
 62
7
100
AcDbSpline
 70
8
 71
3
 72
8
 73
4
 74
0
 40
0
 40
0
 40
0
 40
0
 40
1
 40
1
 40
1
 40
1
 10
695.864750
 20
368.998500
 30
0.0
 10
698.068306
 20
368.998500
 30
0.0
 10
699.854667
 20
370.784861
 30
0.0
 10
699.854667
 20
372.988417
 30
0.0
  0
SPLINE
  5
12f
100
AcDbEntity
  8
Spacer
 62
7
100
AcDbSpline
 70
8
 71
3
 72
8
 73
4
 74
0
 40
0
 40
0
 40
0
 40
0
 40
1
 40
1
 40
1
 40
1
 10
699.854667
 20
372.988417
 30
0.0
 10
699.854667
 20
375.191973
 30
0.0
 10
698.068306
 20
376.978333
 30
0.0
 10
695.864750
 20
376.978333
 30
0.0
  0
SPLINE
  5
130
100
AcDbEntity
  8
Spacer
 62
7
100
AcDbSpline
 70
8
 71
3
 72
8
 73
4
 74
0
 40
0
 40
0
 40
0
 40
0
 40
1
 40
1
 40
1
 40
1
 10
695.864750
 20
376.978333
 30
0.0
 10
693.661194
 20
376.978333
 30
0.0
 10
691.874833
 20
375.191973
 30
0.0
 10
691.874833
 20
372.988417
 30
0.0
  0
SPLINE
  5
131
100
AcDbEntity
  8
Spacer
 62
7
100
AcDbSpline
 70
8
 71
3
 72
8
 73
4
 74
0
 40
0
 40
0
 40
0
 40
0
 40
1
 40
1
 40
1
 40
1
 10
705.866000
 20
372.988417
 30
0.0
 10
705.866000
 20
378.511964
 30
0.0
 10
701.388255
 20
382.989667
 30
0.0
 10
695.864750
 20
382.989667
 30
0.0
  0
SPLINE
  5
132
100
AcDbEntity
  8
Spacer
 62
7
100
AcDbSpline
 70
8
 71
3
 72
8
 73
4
 74
0
 40
0
 40
0
 40
0
 40
0
 40
1
 40
1
 40
1
 40
1
 10
695.864750
 20
382.989667
 30
0.0
 10
690.341203
 20
382.989667
 30
0.0
 10
685.863500
 20
378.511964
 30
0.0
 10
685.863500
 20
372.988417
 30
0.0
  0
SPLINE
  5
133
100
AcDbEntity
  8
Spacer
 62
7
100
AcDbSpline
 70
8
 71
3
 72
8
 73
4
 74
0
 40
0
 40
0
 40
0
 40
0
 40
1
 40
1
 40
1
 40
1
 10
685.863500
 20
372.988417
 30
0.0
 10
685.863500
 20
367.464869
 30
0.0
 10
690.341203
 20
362.987167
 30
0.0
 10
695.864750
 20
362.987167
 30
0.0
  0
SPLINE
  5
134
100
AcDbEntity
  8
Spacer
 62
7
100
AcDbSpline
 70
8
 71
3
 72
8
 73
4
 74
0
 40
0
 40
0
 40
0
 40
0
 40
1
 40
1
 40
1
 40
1
 10
695.864750
 20
362.987167
 30
0.0
 10
701.388255
 20
362.987167
 30
0.0
 10
705.866000
 20
367.464869
 30
0.0
 10
705.866000
 20
372.988417
 30
0.0
  0
LWPOLYLINE
  5
135
100
AcDbEntity
  8
Spacer
 62
7
100
AcDbPolyline
 90
2
 70
0
 10
616.796667
 20
290.195000
 30
0.0
 10
196.807667
 20
290.195000
 30
0.0
  0
ENDSEC
  0
SECTION
  2
OBJECTS
  0
DICTIONARY
  5
C
330
0
100
AcDbDictionary
  3
ACAD_GROUP
350
D
  3
ACAD_MLINESTYLE
350
17
  0
DICTIONARY
  5
D
330
C
100
AcDbDictionary
  0
DICTIONARY
  5
1A
330
C
100
AcDbDictionary
  0
DICTIONARY
  5
17
330
C
100
AcDbDictionary
  3
STANDARD
350
18
  0
DICTIONARY
  5
19
330
C
100
AcDbDictionary
  0
ENDSEC
  0
EOF
