G04 #@! TF.GenerationSoftware,KiCad,Pcbnew,(5.1.4-0-10_14)*
G04 #@! TF.CreationDate,2021-03-06T18:41:09+00:00*
G04 #@! TF.ProjectId,DriverBoard,44726976-6572-4426-9f61-72642e6b6963,rev?*
G04 #@! TF.SameCoordinates,Original*
G04 #@! TF.FileFunction,Legend,Top*
G04 #@! TF.FilePolarity,Positive*
%FSLAX46Y46*%
G04 Gerber Fmt 4.6, Leading zero omitted, Abs format (unit mm)*
G04 Created by KiCad (PCBNEW (5.1.4-0-10_14)) date 2021-03-06 18:41:09*
%MOMM*%
%LPD*%
G04 APERTURE LIST*
%ADD10C,0.150000*%
%ADD11C,0.120000*%
%ADD12C,0.100000*%
G04 APERTURE END LIST*
D10*
X75429619Y-78740714D02*
X76429619Y-78740714D01*
X76429619Y-78978809D01*
X76382000Y-79121666D01*
X76286761Y-79216904D01*
X76191523Y-79264523D01*
X76001047Y-79312142D01*
X75858190Y-79312142D01*
X75667714Y-79264523D01*
X75572476Y-79216904D01*
X75477238Y-79121666D01*
X75429619Y-78978809D01*
X75429619Y-78740714D01*
X75524857Y-80312142D02*
X75477238Y-80264523D01*
X75429619Y-80121666D01*
X75429619Y-80026428D01*
X75477238Y-79883571D01*
X75572476Y-79788333D01*
X75667714Y-79740714D01*
X75858190Y-79693095D01*
X76001047Y-79693095D01*
X76191523Y-79740714D01*
X76286761Y-79788333D01*
X76382000Y-79883571D01*
X76429619Y-80026428D01*
X76429619Y-80121666D01*
X76382000Y-80264523D01*
X76334380Y-80312142D01*
X75429619Y-81502619D02*
X76429619Y-81502619D01*
X76429619Y-81883571D01*
X76382000Y-81978809D01*
X76334380Y-82026428D01*
X76239142Y-82074047D01*
X76096285Y-82074047D01*
X76001047Y-82026428D01*
X75953428Y-81978809D01*
X75905809Y-81883571D01*
X75905809Y-81502619D01*
X75429619Y-82645476D02*
X75477238Y-82550238D01*
X75524857Y-82502619D01*
X75620095Y-82455000D01*
X75905809Y-82455000D01*
X76001047Y-82502619D01*
X76048666Y-82550238D01*
X76096285Y-82645476D01*
X76096285Y-82788333D01*
X76048666Y-82883571D01*
X76001047Y-82931190D01*
X75905809Y-82978809D01*
X75620095Y-82978809D01*
X75524857Y-82931190D01*
X75477238Y-82883571D01*
X75429619Y-82788333D01*
X75429619Y-82645476D01*
X76096285Y-83407380D02*
X75096285Y-83407380D01*
X76048666Y-83407380D02*
X76096285Y-83502619D01*
X76096285Y-83693095D01*
X76048666Y-83788333D01*
X76001047Y-83835952D01*
X75905809Y-83883571D01*
X75620095Y-83883571D01*
X75524857Y-83835952D01*
X75477238Y-83788333D01*
X75429619Y-83693095D01*
X75429619Y-83502619D01*
X75477238Y-83407380D01*
X76429619Y-84359761D02*
X76382000Y-84359761D01*
X76286761Y-84312142D01*
X76239142Y-84264523D01*
X76096285Y-84788333D02*
X75429619Y-84788333D01*
X76001047Y-84788333D02*
X76048666Y-84835952D01*
X76096285Y-84931190D01*
X76096285Y-85074047D01*
X76048666Y-85169285D01*
X75953428Y-85216904D01*
X75429619Y-85216904D01*
X75429619Y-86455000D02*
X76429619Y-86455000D01*
X75715333Y-86788333D01*
X76429619Y-87121666D01*
X75429619Y-87121666D01*
X76096285Y-88026428D02*
X75429619Y-88026428D01*
X76096285Y-87597857D02*
X75572476Y-87597857D01*
X75477238Y-87645476D01*
X75429619Y-87740714D01*
X75429619Y-87883571D01*
X75477238Y-87978809D01*
X75524857Y-88026428D01*
X75477238Y-88455000D02*
X75429619Y-88550238D01*
X75429619Y-88740714D01*
X75477238Y-88835952D01*
X75572476Y-88883571D01*
X75620095Y-88883571D01*
X75715333Y-88835952D01*
X75762952Y-88740714D01*
X75762952Y-88597857D01*
X75810571Y-88502619D01*
X75905809Y-88455000D01*
X75953428Y-88455000D01*
X76048666Y-88502619D01*
X76096285Y-88597857D01*
X76096285Y-88740714D01*
X76048666Y-88835952D01*
X75429619Y-89312142D02*
X76096285Y-89312142D01*
X76429619Y-89312142D02*
X76382000Y-89264523D01*
X76334380Y-89312142D01*
X76382000Y-89359761D01*
X76429619Y-89312142D01*
X76334380Y-89312142D01*
X75477238Y-90216904D02*
X75429619Y-90121666D01*
X75429619Y-89931190D01*
X75477238Y-89835952D01*
X75524857Y-89788333D01*
X75620095Y-89740714D01*
X75905809Y-89740714D01*
X76001047Y-89788333D01*
X76048666Y-89835952D01*
X76096285Y-89931190D01*
X76096285Y-90121666D01*
X76048666Y-90216904D01*
X73398666Y-76550238D02*
X73446285Y-76502619D01*
X73589142Y-76407380D01*
X73684380Y-76359761D01*
X73827238Y-76312142D01*
X74065333Y-76264523D01*
X74255809Y-76264523D01*
X74493904Y-76312142D01*
X74636761Y-76359761D01*
X74732000Y-76407380D01*
X74874857Y-76502619D01*
X74922476Y-76550238D01*
X73827238Y-77359761D02*
X73779619Y-77264523D01*
X73779619Y-77074047D01*
X73827238Y-76978809D01*
X73874857Y-76931190D01*
X73970095Y-76883571D01*
X74255809Y-76883571D01*
X74351047Y-76931190D01*
X74398666Y-76978809D01*
X74446285Y-77074047D01*
X74446285Y-77264523D01*
X74398666Y-77359761D01*
X73398666Y-77693095D02*
X73446285Y-77740714D01*
X73589142Y-77835952D01*
X73684380Y-77883571D01*
X73827238Y-77931190D01*
X74065333Y-77978809D01*
X74255809Y-77978809D01*
X74493904Y-77931190D01*
X74636761Y-77883571D01*
X74732000Y-77835952D01*
X74874857Y-77740714D01*
X74922476Y-77693095D01*
X73874857Y-79788333D02*
X73827238Y-79740714D01*
X73779619Y-79597857D01*
X73779619Y-79502619D01*
X73827238Y-79359761D01*
X73922476Y-79264523D01*
X74017714Y-79216904D01*
X74208190Y-79169285D01*
X74351047Y-79169285D01*
X74541523Y-79216904D01*
X74636761Y-79264523D01*
X74732000Y-79359761D01*
X74779619Y-79502619D01*
X74779619Y-79597857D01*
X74732000Y-79740714D01*
X74684380Y-79788333D01*
X73779619Y-80216904D02*
X74779619Y-80216904D01*
X73779619Y-80645476D02*
X74303428Y-80645476D01*
X74398666Y-80597857D01*
X74446285Y-80502619D01*
X74446285Y-80359761D01*
X74398666Y-80264523D01*
X74351047Y-80216904D01*
X73779619Y-81550238D02*
X74303428Y-81550238D01*
X74398666Y-81502619D01*
X74446285Y-81407380D01*
X74446285Y-81216904D01*
X74398666Y-81121666D01*
X73827238Y-81550238D02*
X73779619Y-81455000D01*
X73779619Y-81216904D01*
X73827238Y-81121666D01*
X73922476Y-81074047D01*
X74017714Y-81074047D01*
X74112952Y-81121666D01*
X74160571Y-81216904D01*
X74160571Y-81455000D01*
X74208190Y-81550238D01*
X73779619Y-82026428D02*
X74446285Y-82026428D01*
X74255809Y-82026428D02*
X74351047Y-82074047D01*
X74398666Y-82121666D01*
X74446285Y-82216904D01*
X74446285Y-82312142D01*
X73779619Y-82788333D02*
X73827238Y-82693095D01*
X73922476Y-82645476D01*
X74779619Y-82645476D01*
X73779619Y-83169285D02*
X74446285Y-83169285D01*
X74779619Y-83169285D02*
X74732000Y-83121666D01*
X74684380Y-83169285D01*
X74732000Y-83216904D01*
X74779619Y-83169285D01*
X74684380Y-83169285D01*
X73827238Y-84026428D02*
X73779619Y-83931190D01*
X73779619Y-83740714D01*
X73827238Y-83645476D01*
X73922476Y-83597857D01*
X74303428Y-83597857D01*
X74398666Y-83645476D01*
X74446285Y-83740714D01*
X74446285Y-83931190D01*
X74398666Y-84026428D01*
X74303428Y-84074047D01*
X74208190Y-84074047D01*
X74112952Y-83597857D01*
X73874857Y-85835952D02*
X73827238Y-85788333D01*
X73779619Y-85645476D01*
X73779619Y-85550238D01*
X73827238Y-85407380D01*
X73922476Y-85312142D01*
X74017714Y-85264523D01*
X74208190Y-85216904D01*
X74351047Y-85216904D01*
X74541523Y-85264523D01*
X74636761Y-85312142D01*
X74732000Y-85407380D01*
X74779619Y-85550238D01*
X74779619Y-85645476D01*
X74732000Y-85788333D01*
X74684380Y-85835952D01*
X73779619Y-86407380D02*
X73827238Y-86312142D01*
X73874857Y-86264523D01*
X73970095Y-86216904D01*
X74255809Y-86216904D01*
X74351047Y-86264523D01*
X74398666Y-86312142D01*
X74446285Y-86407380D01*
X74446285Y-86550238D01*
X74398666Y-86645476D01*
X74351047Y-86693095D01*
X74255809Y-86740714D01*
X73970095Y-86740714D01*
X73874857Y-86693095D01*
X73827238Y-86645476D01*
X73779619Y-86550238D01*
X73779619Y-86407380D01*
X73779619Y-87312142D02*
X73827238Y-87216904D01*
X73922476Y-87169285D01*
X74779619Y-87169285D01*
X73827238Y-88074047D02*
X73779619Y-87978809D01*
X73779619Y-87788333D01*
X73827238Y-87693095D01*
X73922476Y-87645476D01*
X74303428Y-87645476D01*
X74398666Y-87693095D01*
X74446285Y-87788333D01*
X74446285Y-87978809D01*
X74398666Y-88074047D01*
X74303428Y-88121666D01*
X74208190Y-88121666D01*
X74112952Y-87645476D01*
X74684380Y-89264523D02*
X74732000Y-89312142D01*
X74779619Y-89407380D01*
X74779619Y-89645476D01*
X74732000Y-89740714D01*
X74684380Y-89788333D01*
X74589142Y-89835952D01*
X74493904Y-89835952D01*
X74351047Y-89788333D01*
X73779619Y-89216904D01*
X73779619Y-89835952D01*
X74779619Y-90455000D02*
X74779619Y-90550238D01*
X74732000Y-90645476D01*
X74684380Y-90693095D01*
X74589142Y-90740714D01*
X74398666Y-90788333D01*
X74160571Y-90788333D01*
X73970095Y-90740714D01*
X73874857Y-90693095D01*
X73827238Y-90645476D01*
X73779619Y-90550238D01*
X73779619Y-90455000D01*
X73827238Y-90359761D01*
X73874857Y-90312142D01*
X73970095Y-90264523D01*
X74160571Y-90216904D01*
X74398666Y-90216904D01*
X74589142Y-90264523D01*
X74684380Y-90312142D01*
X74732000Y-90359761D01*
X74779619Y-90455000D01*
X74684380Y-91169285D02*
X74732000Y-91216904D01*
X74779619Y-91312142D01*
X74779619Y-91550238D01*
X74732000Y-91645476D01*
X74684380Y-91693095D01*
X74589142Y-91740714D01*
X74493904Y-91740714D01*
X74351047Y-91693095D01*
X73779619Y-91121666D01*
X73779619Y-91740714D01*
X73779619Y-92693095D02*
X73779619Y-92121666D01*
X73779619Y-92407380D02*
X74779619Y-92407380D01*
X74636761Y-92312142D01*
X74541523Y-92216904D01*
X74493904Y-92121666D01*
X77144619Y-94384952D02*
X77620809Y-94051619D01*
X77144619Y-93813523D02*
X78144619Y-93813523D01*
X78144619Y-94194476D01*
X78097000Y-94289714D01*
X78049380Y-94337333D01*
X77954142Y-94384952D01*
X77811285Y-94384952D01*
X77716047Y-94337333D01*
X77668428Y-94289714D01*
X77620809Y-94194476D01*
X77620809Y-93813523D01*
X77144619Y-94813523D02*
X77811285Y-94813523D01*
X78144619Y-94813523D02*
X78097000Y-94765904D01*
X78049380Y-94813523D01*
X78097000Y-94861142D01*
X78144619Y-94813523D01*
X78049380Y-94813523D01*
X77811285Y-95718285D02*
X77001761Y-95718285D01*
X76906523Y-95670666D01*
X76858904Y-95623047D01*
X76811285Y-95527809D01*
X76811285Y-95384952D01*
X76858904Y-95289714D01*
X77192238Y-95718285D02*
X77144619Y-95623047D01*
X77144619Y-95432571D01*
X77192238Y-95337333D01*
X77239857Y-95289714D01*
X77335095Y-95242095D01*
X77620809Y-95242095D01*
X77716047Y-95289714D01*
X77763666Y-95337333D01*
X77811285Y-95432571D01*
X77811285Y-95623047D01*
X77763666Y-95718285D01*
X77144619Y-96194476D02*
X78144619Y-96194476D01*
X77144619Y-96623047D02*
X77668428Y-96623047D01*
X77763666Y-96575428D01*
X77811285Y-96480190D01*
X77811285Y-96337333D01*
X77763666Y-96242095D01*
X77716047Y-96194476D01*
X77811285Y-96956380D02*
X77811285Y-97337333D01*
X78144619Y-97099238D02*
X77287476Y-97099238D01*
X77192238Y-97146857D01*
X77144619Y-97242095D01*
X77144619Y-97337333D01*
X51617619Y-21915523D02*
X51617619Y-21439333D01*
X52617619Y-21439333D01*
X51665238Y-22629809D02*
X51617619Y-22534571D01*
X51617619Y-22344095D01*
X51665238Y-22248857D01*
X51760476Y-22201238D01*
X52141428Y-22201238D01*
X52236666Y-22248857D01*
X52284285Y-22344095D01*
X52284285Y-22534571D01*
X52236666Y-22629809D01*
X52141428Y-22677428D01*
X52046190Y-22677428D01*
X51950952Y-22201238D01*
X52284285Y-22963142D02*
X52284285Y-23344095D01*
X51617619Y-23106000D02*
X52474761Y-23106000D01*
X52570000Y-23153619D01*
X52617619Y-23248857D01*
X52617619Y-23344095D01*
X52284285Y-23534571D02*
X52284285Y-23915523D01*
X52617619Y-23677428D02*
X51760476Y-23677428D01*
X51665238Y-23725047D01*
X51617619Y-23820285D01*
X51617619Y-23915523D01*
X55475238Y-78613380D02*
X55427619Y-78756238D01*
X55427619Y-78994333D01*
X55475238Y-79089571D01*
X55522857Y-79137190D01*
X55618095Y-79184809D01*
X55713333Y-79184809D01*
X55808571Y-79137190D01*
X55856190Y-79089571D01*
X55903809Y-78994333D01*
X55951428Y-78803857D01*
X55999047Y-78708619D01*
X56046666Y-78661000D01*
X56141904Y-78613380D01*
X56237142Y-78613380D01*
X56332380Y-78661000D01*
X56380000Y-78708619D01*
X56427619Y-78803857D01*
X56427619Y-79041952D01*
X56380000Y-79184809D01*
X56094285Y-79518142D02*
X55427619Y-79708619D01*
X55903809Y-79899095D01*
X55427619Y-80089571D01*
X56094285Y-80280047D01*
X55427619Y-80661000D02*
X56094285Y-80661000D01*
X56427619Y-80661000D02*
X56380000Y-80613380D01*
X56332380Y-80661000D01*
X56380000Y-80708619D01*
X56427619Y-80661000D01*
X56332380Y-80661000D01*
X56094285Y-80994333D02*
X56094285Y-81375285D01*
X56427619Y-81137190D02*
X55570476Y-81137190D01*
X55475238Y-81184809D01*
X55427619Y-81280047D01*
X55427619Y-81375285D01*
X55475238Y-82137190D02*
X55427619Y-82041952D01*
X55427619Y-81851476D01*
X55475238Y-81756238D01*
X55522857Y-81708619D01*
X55618095Y-81661000D01*
X55903809Y-81661000D01*
X55999047Y-81708619D01*
X56046666Y-81756238D01*
X56094285Y-81851476D01*
X56094285Y-82041952D01*
X56046666Y-82137190D01*
X55427619Y-82565761D02*
X56427619Y-82565761D01*
X55427619Y-82994333D02*
X55951428Y-82994333D01*
X56046666Y-82946714D01*
X56094285Y-82851476D01*
X56094285Y-82708619D01*
X56046666Y-82613380D01*
X55999047Y-82565761D01*
X55475238Y-83851476D02*
X55427619Y-83756238D01*
X55427619Y-83565761D01*
X55475238Y-83470523D01*
X55570476Y-83422904D01*
X55951428Y-83422904D01*
X56046666Y-83470523D01*
X56094285Y-83565761D01*
X56094285Y-83756238D01*
X56046666Y-83851476D01*
X55951428Y-83899095D01*
X55856190Y-83899095D01*
X55760952Y-83422904D01*
X55475238Y-84280047D02*
X55427619Y-84375285D01*
X55427619Y-84565761D01*
X55475238Y-84661000D01*
X55570476Y-84708619D01*
X55618095Y-84708619D01*
X55713333Y-84661000D01*
X55760952Y-84565761D01*
X55760952Y-84422904D01*
X55808571Y-84327666D01*
X55903809Y-84280047D01*
X55951428Y-84280047D01*
X56046666Y-84327666D01*
X56094285Y-84422904D01*
X56094285Y-84565761D01*
X56046666Y-84661000D01*
X51744619Y-34512380D02*
X51744619Y-34036190D01*
X52744619Y-34036190D01*
X52268428Y-34845714D02*
X52268428Y-35179047D01*
X51744619Y-35321904D02*
X51744619Y-34845714D01*
X52744619Y-34845714D01*
X52744619Y-35321904D01*
X51744619Y-35750476D02*
X52744619Y-35750476D01*
X52744619Y-35988571D01*
X52697000Y-36131428D01*
X52601761Y-36226666D01*
X52506523Y-36274285D01*
X52316047Y-36321904D01*
X52173190Y-36321904D01*
X51982714Y-36274285D01*
X51887476Y-36226666D01*
X51792238Y-36131428D01*
X51744619Y-35988571D01*
X51744619Y-35750476D01*
X51792238Y-36702857D02*
X51744619Y-36798095D01*
X51744619Y-36988571D01*
X51792238Y-37083809D01*
X51887476Y-37131428D01*
X51935095Y-37131428D01*
X52030333Y-37083809D01*
X52077952Y-36988571D01*
X52077952Y-36845714D01*
X52125571Y-36750476D01*
X52220809Y-36702857D01*
X52268428Y-36702857D01*
X52363666Y-36750476D01*
X52411285Y-36845714D01*
X52411285Y-36988571D01*
X52363666Y-37083809D01*
D11*
X50800000Y-66040000D02*
X54864000Y-66040000D01*
X50800000Y-96520000D02*
X50800000Y-66040000D01*
X54864000Y-96520000D02*
X50800000Y-96520000D01*
X54864000Y-65913000D02*
X54864000Y-96520000D01*
X58039000Y-83693000D02*
X58166000Y-83693000D01*
X58039000Y-96520000D02*
X58039000Y-83693000D01*
X71882000Y-96520000D02*
X58039000Y-96520000D01*
X71882000Y-83693000D02*
X71882000Y-96520000D01*
X58166000Y-83693000D02*
X71882000Y-83693000D01*
D10*
X70413619Y-85527142D02*
X70413619Y-84955714D01*
X70413619Y-85241428D02*
X71413619Y-85241428D01*
X71270761Y-85146190D01*
X71175523Y-85050952D01*
X71127904Y-84955714D01*
X70413619Y-88241428D02*
X71413619Y-88241428D01*
X70699333Y-88574761D01*
X71413619Y-88908095D01*
X70413619Y-88908095D01*
X70413619Y-89812857D02*
X70937428Y-89812857D01*
X71032666Y-89765238D01*
X71080285Y-89670000D01*
X71080285Y-89479523D01*
X71032666Y-89384285D01*
X70461238Y-89812857D02*
X70413619Y-89717619D01*
X70413619Y-89479523D01*
X70461238Y-89384285D01*
X70556476Y-89336666D01*
X70651714Y-89336666D01*
X70746952Y-89384285D01*
X70794571Y-89479523D01*
X70794571Y-89717619D01*
X70842190Y-89812857D01*
X71080285Y-90289047D02*
X70080285Y-90289047D01*
X71032666Y-90289047D02*
X71080285Y-90384285D01*
X71080285Y-90574761D01*
X71032666Y-90670000D01*
X70985047Y-90717619D01*
X70889809Y-90765238D01*
X70604095Y-90765238D01*
X70508857Y-90717619D01*
X70461238Y-90670000D01*
X70413619Y-90574761D01*
X70413619Y-90384285D01*
X70461238Y-90289047D01*
X70413619Y-91336666D02*
X70461238Y-91241428D01*
X70556476Y-91193809D01*
X71413619Y-91193809D01*
X70461238Y-92098571D02*
X70413619Y-92003333D01*
X70413619Y-91812857D01*
X70461238Y-91717619D01*
X70556476Y-91670000D01*
X70937428Y-91670000D01*
X71032666Y-91717619D01*
X71080285Y-91812857D01*
X71080285Y-92003333D01*
X71032666Y-92098571D01*
X70937428Y-92146190D01*
X70842190Y-92146190D01*
X70746952Y-91670000D01*
X71413619Y-95336666D02*
X71413619Y-94860476D01*
X70937428Y-94812857D01*
X70985047Y-94860476D01*
X71032666Y-94955714D01*
X71032666Y-95193809D01*
X70985047Y-95289047D01*
X70937428Y-95336666D01*
X70842190Y-95384285D01*
X70604095Y-95384285D01*
X70508857Y-95336666D01*
X70461238Y-95289047D01*
X70413619Y-95193809D01*
X70413619Y-94955714D01*
X70461238Y-94860476D01*
X70508857Y-94812857D01*
D12*
G36*
X54864000Y-65913000D02*
G01*
X50800000Y-65913000D01*
X50800000Y-37846000D01*
X54864000Y-37846000D01*
X54864000Y-65913000D01*
G37*
X54864000Y-65913000D02*
X50800000Y-65913000D01*
X50800000Y-37846000D01*
X54864000Y-37846000D01*
X54864000Y-65913000D01*
D11*
X67620000Y-77599000D02*
X66690000Y-77599000D01*
X64460000Y-77599000D02*
X65390000Y-77599000D01*
X64460000Y-77599000D02*
X64460000Y-79759000D01*
X67620000Y-77599000D02*
X67620000Y-79059000D01*
X67383840Y-73760000D02*
X67783840Y-73760000D01*
X64783840Y-73760000D02*
X65183840Y-73760000D01*
X76783840Y-73760000D02*
X69983840Y-73760000D01*
X76783840Y-63360000D02*
X76783840Y-63760000D01*
X76783840Y-55660000D02*
X76783840Y-56060000D01*
X76783840Y-30260000D02*
X76783840Y-30660000D01*
X76783840Y-22760000D02*
X76783840Y-23060000D01*
X76783840Y-45560000D02*
X76783840Y-45960000D01*
X76783840Y-60760000D02*
X76783840Y-61160000D01*
X76783840Y-40460000D02*
X76783840Y-40860000D01*
X76783840Y-35360000D02*
X76783840Y-35760000D01*
X76783840Y-48060000D02*
X76783840Y-48460000D01*
X76783840Y-53160000D02*
X76783840Y-53560000D01*
X76783840Y-68360000D02*
X76783840Y-68760000D01*
X76783840Y-70960000D02*
X76783840Y-71360000D01*
X76783840Y-65860000D02*
X76783840Y-66260000D01*
X76783840Y-32860000D02*
X76783840Y-33260000D01*
X76783840Y-25160000D02*
X76783840Y-25560000D01*
X76783840Y-27760000D02*
X76783840Y-28160000D01*
X76783840Y-58260000D02*
X76783840Y-58660000D01*
X76783840Y-50560000D02*
X76783840Y-50960000D01*
X76783840Y-42960000D02*
X76783840Y-43360000D01*
X76783840Y-37860000D02*
X76783840Y-38260000D01*
X55783840Y-70960000D02*
X55783840Y-71360000D01*
X55783840Y-68360000D02*
X55783840Y-68760000D01*
X55783840Y-65860000D02*
X55783840Y-66260000D01*
X55783840Y-63360000D02*
X55783840Y-63760000D01*
X55783840Y-60760000D02*
X55783840Y-61160000D01*
X55783840Y-58260000D02*
X55783840Y-58660000D01*
X55783840Y-55660000D02*
X55783840Y-56060000D01*
X55783840Y-53160000D02*
X55783840Y-53560000D01*
X55783840Y-50560000D02*
X55783840Y-50960000D01*
X55783840Y-48060000D02*
X55783840Y-48460000D01*
X55783840Y-45560000D02*
X55783840Y-45960000D01*
X55783840Y-42960000D02*
X55783840Y-43360000D01*
X55783840Y-40460000D02*
X55783840Y-40860000D01*
X55783840Y-37860000D02*
X55783840Y-38260000D01*
X55783840Y-35360000D02*
X55783840Y-35760000D01*
X55783840Y-32860000D02*
X55783840Y-33260000D01*
X55783840Y-30260000D02*
X55783840Y-30660000D01*
X55783840Y-27760000D02*
X55783840Y-28160000D01*
X55783840Y-25160000D02*
X55783840Y-25560000D01*
X55783840Y-22760000D02*
X55783840Y-23060000D01*
X58790840Y-25427000D02*
X58790840Y-22760000D01*
X55783840Y-25427000D02*
X58790840Y-25427000D01*
X62583840Y-73760000D02*
X55783840Y-73760000D01*
X55783840Y-22760000D02*
X76783840Y-22760000D01*
D10*
X65428904Y-81351380D02*
X65428904Y-80351380D01*
X65667000Y-80351380D01*
X65809857Y-80399000D01*
X65905095Y-80494238D01*
X65952714Y-80589476D01*
X66000333Y-80779952D01*
X66000333Y-80922809D01*
X65952714Y-81113285D01*
X65905095Y-81208523D01*
X65809857Y-81303761D01*
X65667000Y-81351380D01*
X65428904Y-81351380D01*
X66952714Y-81351380D02*
X66381285Y-81351380D01*
X66667000Y-81351380D02*
X66667000Y-80351380D01*
X66571761Y-80494238D01*
X66476523Y-80589476D01*
X66381285Y-80637095D01*
X65521935Y-47712380D02*
X65521935Y-48521904D01*
X65569554Y-48617142D01*
X65617173Y-48664761D01*
X65712411Y-48712380D01*
X65902887Y-48712380D01*
X65998125Y-48664761D01*
X66045744Y-48617142D01*
X66093363Y-48521904D01*
X66093363Y-47712380D01*
X67093363Y-48712380D02*
X66521935Y-48712380D01*
X66807649Y-48712380D02*
X66807649Y-47712380D01*
X66712411Y-47855238D01*
X66617173Y-47950476D01*
X66521935Y-47998095D01*
M02*
