G04 #@! TF.GenerationSoftware,KiCad,Pcbnew,(5.1.4-0-10_14)*
G04 #@! TF.CreationDate,2021-03-06T18:41:09+00:00*
G04 #@! TF.ProjectId,DriverBoard,44726976-6572-4426-9f61-72642e6b6963,rev?*
G04 #@! TF.SameCoordinates,Original*
G04 #@! TF.FileFunction,Legend,Bot*
G04 #@! TF.FilePolarity,Positive*
%FSLAX46Y46*%
G04 Gerber Fmt 4.6, Leading zero omitted, Abs format (unit mm)*
G04 Created by KiCad (PCBNEW (5.1.4-0-10_14)) date 2021-03-06 18:41:09*
%MOMM*%
%LPD*%
G04 APERTURE LIST*
%ADD10C,0.150000*%
%ADD11C,0.120000*%
G04 APERTURE END LIST*
D10*
X76096285Y-92169285D02*
X75286761Y-92169285D01*
X75191523Y-92216904D01*
X75143904Y-92264523D01*
X75096285Y-92359761D01*
X75096285Y-92502619D01*
X75143904Y-92597857D01*
X75477238Y-92169285D02*
X75429619Y-92264523D01*
X75429619Y-92455000D01*
X75477238Y-92550238D01*
X75524857Y-92597857D01*
X75620095Y-92645476D01*
X75905809Y-92645476D01*
X76001047Y-92597857D01*
X76048666Y-92550238D01*
X76096285Y-92455000D01*
X76096285Y-92264523D01*
X76048666Y-92169285D01*
X75429619Y-91693095D02*
X76096285Y-91693095D01*
X76429619Y-91693095D02*
X76382000Y-91740714D01*
X76334380Y-91693095D01*
X76382000Y-91645476D01*
X76429619Y-91693095D01*
X76334380Y-91693095D01*
X76096285Y-91359761D02*
X76096285Y-90978809D01*
X76429619Y-91216904D02*
X75572476Y-91216904D01*
X75477238Y-91169285D01*
X75429619Y-91074047D01*
X75429619Y-90978809D01*
X75429619Y-90645476D02*
X76429619Y-90645476D01*
X75429619Y-90216904D02*
X75953428Y-90216904D01*
X76048666Y-90264523D01*
X76096285Y-90359761D01*
X76096285Y-90502619D01*
X76048666Y-90597857D01*
X76001047Y-90645476D01*
X76096285Y-89312142D02*
X75429619Y-89312142D01*
X76096285Y-89740714D02*
X75572476Y-89740714D01*
X75477238Y-89693095D01*
X75429619Y-89597857D01*
X75429619Y-89455000D01*
X75477238Y-89359761D01*
X75524857Y-89312142D01*
X75429619Y-88835952D02*
X76429619Y-88835952D01*
X76048666Y-88835952D02*
X76096285Y-88740714D01*
X76096285Y-88550238D01*
X76048666Y-88455000D01*
X76001047Y-88407380D01*
X75905809Y-88359761D01*
X75620095Y-88359761D01*
X75524857Y-88407380D01*
X75477238Y-88455000D01*
X75429619Y-88550238D01*
X75429619Y-88740714D01*
X75477238Y-88835952D01*
X75524857Y-87931190D02*
X75477238Y-87883571D01*
X75429619Y-87931190D01*
X75477238Y-87978809D01*
X75524857Y-87931190D01*
X75429619Y-87931190D01*
X75477238Y-87026428D02*
X75429619Y-87121666D01*
X75429619Y-87312142D01*
X75477238Y-87407380D01*
X75524857Y-87455000D01*
X75620095Y-87502619D01*
X75905809Y-87502619D01*
X76001047Y-87455000D01*
X76048666Y-87407380D01*
X76096285Y-87312142D01*
X76096285Y-87121666D01*
X76048666Y-87026428D01*
X75429619Y-86455000D02*
X75477238Y-86550238D01*
X75524857Y-86597857D01*
X75620095Y-86645476D01*
X75905809Y-86645476D01*
X76001047Y-86597857D01*
X76048666Y-86550238D01*
X76096285Y-86455000D01*
X76096285Y-86312142D01*
X76048666Y-86216904D01*
X76001047Y-86169285D01*
X75905809Y-86121666D01*
X75620095Y-86121666D01*
X75524857Y-86169285D01*
X75477238Y-86216904D01*
X75429619Y-86312142D01*
X75429619Y-86455000D01*
X75429619Y-85693095D02*
X76096285Y-85693095D01*
X76001047Y-85693095D02*
X76048666Y-85645476D01*
X76096285Y-85550238D01*
X76096285Y-85407380D01*
X76048666Y-85312142D01*
X75953428Y-85264523D01*
X75429619Y-85264523D01*
X75953428Y-85264523D02*
X76048666Y-85216904D01*
X76096285Y-85121666D01*
X76096285Y-84978809D01*
X76048666Y-84883571D01*
X75953428Y-84835952D01*
X75429619Y-84835952D01*
X76477238Y-83645476D02*
X75191523Y-84502619D01*
X75477238Y-82883571D02*
X75429619Y-82978809D01*
X75429619Y-83169285D01*
X75477238Y-83264523D01*
X75524857Y-83312142D01*
X75620095Y-83359761D01*
X75905809Y-83359761D01*
X76001047Y-83312142D01*
X76048666Y-83264523D01*
X76096285Y-83169285D01*
X76096285Y-82978809D01*
X76048666Y-82883571D01*
X75429619Y-82455000D02*
X76429619Y-82455000D01*
X75429619Y-82026428D02*
X75953428Y-82026428D01*
X76048666Y-82074047D01*
X76096285Y-82169285D01*
X76096285Y-82312142D01*
X76048666Y-82407380D01*
X76001047Y-82455000D01*
X75429619Y-81121666D02*
X75953428Y-81121666D01*
X76048666Y-81169285D01*
X76096285Y-81264523D01*
X76096285Y-81455000D01*
X76048666Y-81550238D01*
X75477238Y-81121666D02*
X75429619Y-81216904D01*
X75429619Y-81455000D01*
X75477238Y-81550238D01*
X75572476Y-81597857D01*
X75667714Y-81597857D01*
X75762952Y-81550238D01*
X75810571Y-81455000D01*
X75810571Y-81216904D01*
X75858190Y-81121666D01*
X75429619Y-80645476D02*
X76096285Y-80645476D01*
X75905809Y-80645476D02*
X76001047Y-80597857D01*
X76048666Y-80550238D01*
X76096285Y-80455000D01*
X76096285Y-80359761D01*
X75477238Y-79597857D02*
X75429619Y-79693095D01*
X75429619Y-79883571D01*
X75477238Y-79978809D01*
X75524857Y-80026428D01*
X75620095Y-80074047D01*
X75905809Y-80074047D01*
X76001047Y-80026428D01*
X76048666Y-79978809D01*
X76096285Y-79883571D01*
X76096285Y-79693095D01*
X76048666Y-79597857D01*
X75429619Y-79026428D02*
X75477238Y-79121666D01*
X75524857Y-79169285D01*
X75620095Y-79216904D01*
X75905809Y-79216904D01*
X76001047Y-79169285D01*
X76048666Y-79121666D01*
X76096285Y-79026428D01*
X76096285Y-78883571D01*
X76048666Y-78788333D01*
X76001047Y-78740714D01*
X75905809Y-78693095D01*
X75620095Y-78693095D01*
X75524857Y-78740714D01*
X75477238Y-78788333D01*
X75429619Y-78883571D01*
X75429619Y-79026428D01*
X75429619Y-78121666D02*
X75477238Y-78216904D01*
X75572476Y-78264523D01*
X76429619Y-78264523D01*
X75477238Y-77359761D02*
X75429619Y-77455000D01*
X75429619Y-77645476D01*
X75477238Y-77740714D01*
X75572476Y-77788333D01*
X75953428Y-77788333D01*
X76048666Y-77740714D01*
X76096285Y-77645476D01*
X76096285Y-77455000D01*
X76048666Y-77359761D01*
X75953428Y-77312142D01*
X75858190Y-77312142D01*
X75762952Y-77788333D01*
X76477238Y-76169285D02*
X75191523Y-77026428D01*
X73779619Y-92716904D02*
X74779619Y-92716904D01*
X74779619Y-92478809D01*
X74732000Y-92335952D01*
X74636761Y-92240714D01*
X74541523Y-92193095D01*
X74351047Y-92145476D01*
X74208190Y-92145476D01*
X74017714Y-92193095D01*
X73922476Y-92240714D01*
X73827238Y-92335952D01*
X73779619Y-92478809D01*
X73779619Y-92716904D01*
X73779619Y-91716904D02*
X74446285Y-91716904D01*
X74255809Y-91716904D02*
X74351047Y-91669285D01*
X74398666Y-91621666D01*
X74446285Y-91526428D01*
X74446285Y-91431190D01*
X73827238Y-90716904D02*
X73779619Y-90812142D01*
X73779619Y-91002619D01*
X73827238Y-91097857D01*
X73922476Y-91145476D01*
X74303428Y-91145476D01*
X74398666Y-91097857D01*
X74446285Y-91002619D01*
X74446285Y-90812142D01*
X74398666Y-90716904D01*
X74303428Y-90669285D01*
X74208190Y-90669285D01*
X74112952Y-91145476D01*
X73779619Y-89812142D02*
X74303428Y-89812142D01*
X74398666Y-89859761D01*
X74446285Y-89955000D01*
X74446285Y-90145476D01*
X74398666Y-90240714D01*
X73827238Y-89812142D02*
X73779619Y-89907380D01*
X73779619Y-90145476D01*
X73827238Y-90240714D01*
X73922476Y-90288333D01*
X74017714Y-90288333D01*
X74112952Y-90240714D01*
X74160571Y-90145476D01*
X74160571Y-89907380D01*
X74208190Y-89812142D01*
X73779619Y-89335952D02*
X74446285Y-89335952D01*
X74351047Y-89335952D02*
X74398666Y-89288333D01*
X74446285Y-89193095D01*
X74446285Y-89050238D01*
X74398666Y-88955000D01*
X74303428Y-88907380D01*
X73779619Y-88907380D01*
X74303428Y-88907380D02*
X74398666Y-88859761D01*
X74446285Y-88764523D01*
X74446285Y-88621666D01*
X74398666Y-88526428D01*
X74303428Y-88478809D01*
X73779619Y-88478809D01*
X73827238Y-87574047D02*
X73779619Y-87669285D01*
X73779619Y-87859761D01*
X73827238Y-87955000D01*
X73874857Y-88002619D01*
X73970095Y-88050238D01*
X74255809Y-88050238D01*
X74351047Y-88002619D01*
X74398666Y-87955000D01*
X74446285Y-87859761D01*
X74446285Y-87669285D01*
X74398666Y-87574047D01*
X73779619Y-86716904D02*
X74303428Y-86716904D01*
X74398666Y-86764523D01*
X74446285Y-86859761D01*
X74446285Y-87050238D01*
X74398666Y-87145476D01*
X73827238Y-86716904D02*
X73779619Y-86812142D01*
X73779619Y-87050238D01*
X73827238Y-87145476D01*
X73922476Y-87193095D01*
X74017714Y-87193095D01*
X74112952Y-87145476D01*
X74160571Y-87050238D01*
X74160571Y-86812142D01*
X74208190Y-86716904D01*
X73827238Y-86288333D02*
X73779619Y-86193095D01*
X73779619Y-86002619D01*
X73827238Y-85907380D01*
X73922476Y-85859761D01*
X73970095Y-85859761D01*
X74065333Y-85907380D01*
X74112952Y-86002619D01*
X74112952Y-86145476D01*
X74160571Y-86240714D01*
X74255809Y-86288333D01*
X74303428Y-86288333D01*
X74398666Y-86240714D01*
X74446285Y-86145476D01*
X74446285Y-86002619D01*
X74398666Y-85907380D01*
X74446285Y-85574047D02*
X74446285Y-85193095D01*
X74779619Y-85431190D02*
X73922476Y-85431190D01*
X73827238Y-85383571D01*
X73779619Y-85288333D01*
X73779619Y-85193095D01*
X74160571Y-84859761D02*
X74160571Y-84097857D01*
X73779619Y-83621666D02*
X74779619Y-83621666D01*
X74779619Y-83240714D01*
X74732000Y-83145476D01*
X74684380Y-83097857D01*
X74589142Y-83050238D01*
X74446285Y-83050238D01*
X74351047Y-83097857D01*
X74303428Y-83145476D01*
X74255809Y-83240714D01*
X74255809Y-83621666D01*
X73779619Y-82478809D02*
X73827238Y-82574047D01*
X73874857Y-82621666D01*
X73970095Y-82669285D01*
X74255809Y-82669285D01*
X74351047Y-82621666D01*
X74398666Y-82574047D01*
X74446285Y-82478809D01*
X74446285Y-82335952D01*
X74398666Y-82240714D01*
X74351047Y-82193095D01*
X74255809Y-82145476D01*
X73970095Y-82145476D01*
X73874857Y-82193095D01*
X73827238Y-82240714D01*
X73779619Y-82335952D01*
X73779619Y-82478809D01*
X74446285Y-81716904D02*
X73446285Y-81716904D01*
X74398666Y-81716904D02*
X74446285Y-81621666D01*
X74446285Y-81431190D01*
X74398666Y-81335952D01*
X74351047Y-81288333D01*
X74255809Y-81240714D01*
X73970095Y-81240714D01*
X73874857Y-81288333D01*
X73827238Y-81335952D01*
X73779619Y-81431190D01*
X73779619Y-81621666D01*
X73827238Y-81716904D01*
X74446285Y-80812142D02*
X73779619Y-80812142D01*
X74351047Y-80812142D02*
X74398666Y-80764523D01*
X74446285Y-80669285D01*
X74446285Y-80526428D01*
X74398666Y-80431190D01*
X74303428Y-80383571D01*
X73779619Y-80383571D01*
X73779619Y-79907380D02*
X74779619Y-79907380D01*
X74065333Y-79574047D01*
X74779619Y-79240714D01*
X73779619Y-79240714D01*
X74446285Y-78335952D02*
X73779619Y-78335952D01*
X74446285Y-78764523D02*
X73922476Y-78764523D01*
X73827238Y-78716904D01*
X73779619Y-78621666D01*
X73779619Y-78478809D01*
X73827238Y-78383571D01*
X73874857Y-78335952D01*
X73827238Y-77907380D02*
X73779619Y-77812142D01*
X73779619Y-77621666D01*
X73827238Y-77526428D01*
X73922476Y-77478809D01*
X73970095Y-77478809D01*
X74065333Y-77526428D01*
X74112952Y-77621666D01*
X74112952Y-77764523D01*
X74160571Y-77859761D01*
X74255809Y-77907380D01*
X74303428Y-77907380D01*
X74398666Y-77859761D01*
X74446285Y-77764523D01*
X74446285Y-77621666D01*
X74398666Y-77526428D01*
X73779619Y-77050238D02*
X74446285Y-77050238D01*
X74779619Y-77050238D02*
X74732000Y-77097857D01*
X74684380Y-77050238D01*
X74732000Y-77002619D01*
X74779619Y-77050238D01*
X74684380Y-77050238D01*
X73827238Y-76145476D02*
X73779619Y-76240714D01*
X73779619Y-76431190D01*
X73827238Y-76526428D01*
X73874857Y-76574047D01*
X73970095Y-76621666D01*
X74255809Y-76621666D01*
X74351047Y-76574047D01*
X74398666Y-76526428D01*
X74446285Y-76431190D01*
X74446285Y-76240714D01*
X74398666Y-76145476D01*
X71413619Y-94860476D02*
X71413619Y-95336666D01*
X70937428Y-95384285D01*
X70985047Y-95336666D01*
X71032666Y-95241428D01*
X71032666Y-95003333D01*
X70985047Y-94908095D01*
X70937428Y-94860476D01*
X70842190Y-94812857D01*
X70604095Y-94812857D01*
X70508857Y-94860476D01*
X70461238Y-94908095D01*
X70413619Y-95003333D01*
X70413619Y-95241428D01*
X70461238Y-95336666D01*
X70508857Y-95384285D01*
X70413619Y-92098571D02*
X71413619Y-92098571D01*
X70699333Y-91765238D01*
X71413619Y-91431904D01*
X70413619Y-91431904D01*
X70413619Y-90527142D02*
X70937428Y-90527142D01*
X71032666Y-90574761D01*
X71080285Y-90670000D01*
X71080285Y-90860476D01*
X71032666Y-90955714D01*
X70461238Y-90527142D02*
X70413619Y-90622380D01*
X70413619Y-90860476D01*
X70461238Y-90955714D01*
X70556476Y-91003333D01*
X70651714Y-91003333D01*
X70746952Y-90955714D01*
X70794571Y-90860476D01*
X70794571Y-90622380D01*
X70842190Y-90527142D01*
X71080285Y-90050952D02*
X70080285Y-90050952D01*
X71032666Y-90050952D02*
X71080285Y-89955714D01*
X71080285Y-89765238D01*
X71032666Y-89670000D01*
X70985047Y-89622380D01*
X70889809Y-89574761D01*
X70604095Y-89574761D01*
X70508857Y-89622380D01*
X70461238Y-89670000D01*
X70413619Y-89765238D01*
X70413619Y-89955714D01*
X70461238Y-90050952D01*
X70413619Y-89003333D02*
X70461238Y-89098571D01*
X70556476Y-89146190D01*
X71413619Y-89146190D01*
X70461238Y-88241428D02*
X70413619Y-88336666D01*
X70413619Y-88527142D01*
X70461238Y-88622380D01*
X70556476Y-88670000D01*
X70937428Y-88670000D01*
X71032666Y-88622380D01*
X71080285Y-88527142D01*
X71080285Y-88336666D01*
X71032666Y-88241428D01*
X70937428Y-88193809D01*
X70842190Y-88193809D01*
X70746952Y-88670000D01*
X70413619Y-84955714D02*
X70413619Y-85527142D01*
X70413619Y-85241428D02*
X71413619Y-85241428D01*
X71270761Y-85336666D01*
X71175523Y-85431904D01*
X71127904Y-85527142D01*
D11*
X55372000Y-92456000D02*
X55372000Y-96520000D01*
X55372000Y-84836000D02*
X55372000Y-87884000D01*
X55372000Y-75311000D02*
X55372000Y-78613000D01*
X55372000Y-71628000D02*
X55372000Y-66040000D01*
D10*
X54919619Y-91438857D02*
X55395809Y-91772190D01*
X54919619Y-92010285D02*
X55919619Y-92010285D01*
X55919619Y-91629333D01*
X55872000Y-91534095D01*
X55824380Y-91486476D01*
X55729142Y-91438857D01*
X55586285Y-91438857D01*
X55491047Y-91486476D01*
X55443428Y-91534095D01*
X55395809Y-91629333D01*
X55395809Y-92010285D01*
X54919619Y-91010285D02*
X55586285Y-91010285D01*
X55919619Y-91010285D02*
X55872000Y-91057904D01*
X55824380Y-91010285D01*
X55872000Y-90962666D01*
X55919619Y-91010285D01*
X55824380Y-91010285D01*
X55586285Y-90105523D02*
X54776761Y-90105523D01*
X54681523Y-90153142D01*
X54633904Y-90200761D01*
X54586285Y-90296000D01*
X54586285Y-90438857D01*
X54633904Y-90534095D01*
X54967238Y-90105523D02*
X54919619Y-90200761D01*
X54919619Y-90391238D01*
X54967238Y-90486476D01*
X55014857Y-90534095D01*
X55110095Y-90581714D01*
X55395809Y-90581714D01*
X55491047Y-90534095D01*
X55538666Y-90486476D01*
X55586285Y-90391238D01*
X55586285Y-90200761D01*
X55538666Y-90105523D01*
X54919619Y-89629333D02*
X55919619Y-89629333D01*
X54919619Y-89200761D02*
X55443428Y-89200761D01*
X55538666Y-89248380D01*
X55586285Y-89343619D01*
X55586285Y-89486476D01*
X55538666Y-89581714D01*
X55491047Y-89629333D01*
X55586285Y-88867428D02*
X55586285Y-88486476D01*
X55919619Y-88724571D02*
X55062476Y-88724571D01*
X54967238Y-88676952D01*
X54919619Y-88581714D01*
X54919619Y-88486476D01*
X54967238Y-84391238D02*
X54919619Y-84248380D01*
X54919619Y-84010285D01*
X54967238Y-83915047D01*
X55014857Y-83867428D01*
X55110095Y-83819809D01*
X55205333Y-83819809D01*
X55300571Y-83867428D01*
X55348190Y-83915047D01*
X55395809Y-84010285D01*
X55443428Y-84200761D01*
X55491047Y-84296000D01*
X55538666Y-84343619D01*
X55633904Y-84391238D01*
X55729142Y-84391238D01*
X55824380Y-84343619D01*
X55872000Y-84296000D01*
X55919619Y-84200761D01*
X55919619Y-83962666D01*
X55872000Y-83819809D01*
X55586285Y-83486476D02*
X54919619Y-83296000D01*
X55395809Y-83105523D01*
X54919619Y-82915047D01*
X55586285Y-82724571D01*
X54919619Y-82343619D02*
X55586285Y-82343619D01*
X55919619Y-82343619D02*
X55872000Y-82391238D01*
X55824380Y-82343619D01*
X55872000Y-82296000D01*
X55919619Y-82343619D01*
X55824380Y-82343619D01*
X55586285Y-82010285D02*
X55586285Y-81629333D01*
X55919619Y-81867428D02*
X55062476Y-81867428D01*
X54967238Y-81819809D01*
X54919619Y-81724571D01*
X54919619Y-81629333D01*
X54967238Y-80867428D02*
X54919619Y-80962666D01*
X54919619Y-81153142D01*
X54967238Y-81248380D01*
X55014857Y-81296000D01*
X55110095Y-81343619D01*
X55395809Y-81343619D01*
X55491047Y-81296000D01*
X55538666Y-81248380D01*
X55586285Y-81153142D01*
X55586285Y-80962666D01*
X55538666Y-80867428D01*
X54919619Y-80438857D02*
X55919619Y-80438857D01*
X54919619Y-80010285D02*
X55443428Y-80010285D01*
X55538666Y-80057904D01*
X55586285Y-80153142D01*
X55586285Y-80296000D01*
X55538666Y-80391238D01*
X55491047Y-80438857D01*
X54967238Y-79581714D02*
X54919619Y-79486476D01*
X54919619Y-79296000D01*
X54967238Y-79200761D01*
X55062476Y-79153142D01*
X55110095Y-79153142D01*
X55205333Y-79200761D01*
X55252952Y-79296000D01*
X55252952Y-79438857D01*
X55300571Y-79534095D01*
X55395809Y-79581714D01*
X55443428Y-79581714D01*
X55538666Y-79534095D01*
X55586285Y-79438857D01*
X55586285Y-79296000D01*
X55538666Y-79200761D01*
X54919619Y-74438857D02*
X54919619Y-74915047D01*
X55919619Y-74915047D01*
X54967238Y-73724571D02*
X54919619Y-73819809D01*
X54919619Y-74010285D01*
X54967238Y-74105523D01*
X55062476Y-74153142D01*
X55443428Y-74153142D01*
X55538666Y-74105523D01*
X55586285Y-74010285D01*
X55586285Y-73819809D01*
X55538666Y-73724571D01*
X55443428Y-73676952D01*
X55348190Y-73676952D01*
X55252952Y-74153142D01*
X55586285Y-73391238D02*
X55586285Y-73010285D01*
X54919619Y-73248380D02*
X55776761Y-73248380D01*
X55872000Y-73200761D01*
X55919619Y-73105523D01*
X55919619Y-73010285D01*
X55586285Y-72819809D02*
X55586285Y-72438857D01*
X55919619Y-72676952D02*
X55062476Y-72676952D01*
X54967238Y-72629333D01*
X54919619Y-72534095D01*
X54919619Y-72438857D01*
D11*
X72009000Y-65913000D02*
X63119000Y-65913000D01*
X72009000Y-63119000D02*
X72009000Y-65913000D01*
X72009000Y-53975000D02*
X72009000Y-58420000D01*
X72009000Y-45212000D02*
X72009000Y-49530000D01*
X72009000Y-38100000D02*
X62992000Y-38100000D01*
X72009000Y-41275000D02*
X72009000Y-38100000D01*
D10*
X71556619Y-62070047D02*
X72032809Y-62403380D01*
X71556619Y-62641476D02*
X72556619Y-62641476D01*
X72556619Y-62260523D01*
X72509000Y-62165285D01*
X72461380Y-62117666D01*
X72366142Y-62070047D01*
X72223285Y-62070047D01*
X72128047Y-62117666D01*
X72080428Y-62165285D01*
X72032809Y-62260523D01*
X72032809Y-62641476D01*
X71556619Y-61641476D02*
X72223285Y-61641476D01*
X72556619Y-61641476D02*
X72509000Y-61689095D01*
X72461380Y-61641476D01*
X72509000Y-61593857D01*
X72556619Y-61641476D01*
X72461380Y-61641476D01*
X72223285Y-60736714D02*
X71413761Y-60736714D01*
X71318523Y-60784333D01*
X71270904Y-60831952D01*
X71223285Y-60927190D01*
X71223285Y-61070047D01*
X71270904Y-61165285D01*
X71604238Y-60736714D02*
X71556619Y-60831952D01*
X71556619Y-61022428D01*
X71604238Y-61117666D01*
X71651857Y-61165285D01*
X71747095Y-61212904D01*
X72032809Y-61212904D01*
X72128047Y-61165285D01*
X72175666Y-61117666D01*
X72223285Y-61022428D01*
X72223285Y-60831952D01*
X72175666Y-60736714D01*
X71556619Y-60260523D02*
X72556619Y-60260523D01*
X71556619Y-59831952D02*
X72080428Y-59831952D01*
X72175666Y-59879571D01*
X72223285Y-59974809D01*
X72223285Y-60117666D01*
X72175666Y-60212904D01*
X72128047Y-60260523D01*
X72223285Y-59498619D02*
X72223285Y-59117666D01*
X72556619Y-59355761D02*
X71699476Y-59355761D01*
X71604238Y-59308142D01*
X71556619Y-59212904D01*
X71556619Y-59117666D01*
X71556619Y-52974809D02*
X71556619Y-53451000D01*
X72556619Y-53451000D01*
X72080428Y-52641476D02*
X72080428Y-52308142D01*
X71556619Y-52165285D02*
X71556619Y-52641476D01*
X72556619Y-52641476D01*
X72556619Y-52165285D01*
X71556619Y-51736714D02*
X72556619Y-51736714D01*
X72556619Y-51498619D01*
X72509000Y-51355761D01*
X72413761Y-51260523D01*
X72318523Y-51212904D01*
X72128047Y-51165285D01*
X71985190Y-51165285D01*
X71794714Y-51212904D01*
X71699476Y-51260523D01*
X71604238Y-51355761D01*
X71556619Y-51498619D01*
X71556619Y-51736714D01*
X71604238Y-50784333D02*
X71556619Y-50689095D01*
X71556619Y-50498619D01*
X71604238Y-50403380D01*
X71699476Y-50355761D01*
X71747095Y-50355761D01*
X71842333Y-50403380D01*
X71889952Y-50498619D01*
X71889952Y-50641476D01*
X71937571Y-50736714D01*
X72032809Y-50784333D01*
X72080428Y-50784333D01*
X72175666Y-50736714D01*
X72223285Y-50641476D01*
X72223285Y-50498619D01*
X72175666Y-50403380D01*
X71556619Y-44117666D02*
X71556619Y-44593857D01*
X72556619Y-44593857D01*
X71604238Y-43403380D02*
X71556619Y-43498619D01*
X71556619Y-43689095D01*
X71604238Y-43784333D01*
X71699476Y-43831952D01*
X72080428Y-43831952D01*
X72175666Y-43784333D01*
X72223285Y-43689095D01*
X72223285Y-43498619D01*
X72175666Y-43403380D01*
X72080428Y-43355761D01*
X71985190Y-43355761D01*
X71889952Y-43831952D01*
X72223285Y-43070047D02*
X72223285Y-42689095D01*
X71556619Y-42927190D02*
X72413761Y-42927190D01*
X72509000Y-42879571D01*
X72556619Y-42784333D01*
X72556619Y-42689095D01*
X72223285Y-42498619D02*
X72223285Y-42117666D01*
X72556619Y-42355761D02*
X71699476Y-42355761D01*
X71604238Y-42308142D01*
X71556619Y-42212904D01*
X71556619Y-42117666D01*
D11*
X69399000Y-83880000D02*
X60769000Y-83880000D01*
X69399000Y-83998095D02*
X60769000Y-83998095D01*
X69399000Y-84116190D02*
X60769000Y-84116190D01*
X69399000Y-84234285D02*
X60769000Y-84234285D01*
X69399000Y-84352380D02*
X60769000Y-84352380D01*
X69399000Y-84470475D02*
X60769000Y-84470475D01*
X69399000Y-84588570D02*
X60769000Y-84588570D01*
X69399000Y-84706665D02*
X60769000Y-84706665D01*
X69399000Y-84824760D02*
X60769000Y-84824760D01*
X69399000Y-84942855D02*
X60769000Y-84942855D01*
X69399000Y-85060950D02*
X60769000Y-85060950D01*
X69399000Y-85179045D02*
X60769000Y-85179045D01*
X69399000Y-85297140D02*
X60769000Y-85297140D01*
X69399000Y-85415235D02*
X60769000Y-85415235D01*
X69399000Y-85533330D02*
X60769000Y-85533330D01*
X69399000Y-85651425D02*
X60769000Y-85651425D01*
X69399000Y-85769520D02*
X60769000Y-85769520D01*
X69399000Y-85887615D02*
X60769000Y-85887615D01*
X69399000Y-86005710D02*
X60769000Y-86005710D01*
X69399000Y-86123805D02*
X60769000Y-86123805D01*
X69399000Y-86241900D02*
X60769000Y-86241900D01*
X60769000Y-84730000D02*
X60419000Y-84730000D01*
X60769000Y-85450000D02*
X60419000Y-85450000D01*
X60769000Y-87270000D02*
X60359000Y-87270000D01*
X60769000Y-87990000D02*
X60359000Y-87990000D01*
X60769000Y-89810000D02*
X60359000Y-89810000D01*
X60769000Y-90530000D02*
X60359000Y-90530000D01*
X60769000Y-92350000D02*
X60359000Y-92350000D01*
X60769000Y-93070000D02*
X60359000Y-93070000D01*
X60769000Y-94890000D02*
X60359000Y-94890000D01*
X60769000Y-95610000D02*
X60359000Y-95610000D01*
X69399000Y-86360000D02*
X60769000Y-86360000D01*
X69399000Y-88900000D02*
X60769000Y-88900000D01*
X69399000Y-91440000D02*
X60769000Y-91440000D01*
X69399000Y-93980000D02*
X60769000Y-93980000D01*
X69399000Y-83760000D02*
X60769000Y-83760000D01*
X60769000Y-83760000D02*
X60769000Y-96580000D01*
X69399000Y-96580000D02*
X60769000Y-96580000D01*
X69399000Y-83760000D02*
X69399000Y-96580000D01*
X58199000Y-83760000D02*
X58199000Y-85090000D01*
X59309000Y-83760000D02*
X58199000Y-83760000D01*
X62668000Y-38160000D02*
X54038000Y-38160000D01*
X62668000Y-38278095D02*
X54038000Y-38278095D01*
X62668000Y-38396190D02*
X54038000Y-38396190D01*
X62668000Y-38514285D02*
X54038000Y-38514285D01*
X62668000Y-38632380D02*
X54038000Y-38632380D01*
X62668000Y-38750475D02*
X54038000Y-38750475D01*
X62668000Y-38868570D02*
X54038000Y-38868570D01*
X62668000Y-38986665D02*
X54038000Y-38986665D01*
X62668000Y-39104760D02*
X54038000Y-39104760D01*
X62668000Y-39222855D02*
X54038000Y-39222855D01*
X62668000Y-39340950D02*
X54038000Y-39340950D01*
X62668000Y-39459045D02*
X54038000Y-39459045D01*
X62668000Y-39577140D02*
X54038000Y-39577140D01*
X62668000Y-39695235D02*
X54038000Y-39695235D01*
X62668000Y-39813330D02*
X54038000Y-39813330D01*
X62668000Y-39931425D02*
X54038000Y-39931425D01*
X62668000Y-40049520D02*
X54038000Y-40049520D01*
X62668000Y-40167615D02*
X54038000Y-40167615D01*
X62668000Y-40285710D02*
X54038000Y-40285710D01*
X62668000Y-40403805D02*
X54038000Y-40403805D01*
X62668000Y-40521900D02*
X54038000Y-40521900D01*
X54038000Y-39010000D02*
X53688000Y-39010000D01*
X54038000Y-39730000D02*
X53688000Y-39730000D01*
X54038000Y-41550000D02*
X53628000Y-41550000D01*
X54038000Y-42270000D02*
X53628000Y-42270000D01*
X54038000Y-44090000D02*
X53628000Y-44090000D01*
X54038000Y-44810000D02*
X53628000Y-44810000D01*
X54038000Y-46630000D02*
X53628000Y-46630000D01*
X54038000Y-47350000D02*
X53628000Y-47350000D01*
X54038000Y-49170000D02*
X53628000Y-49170000D01*
X54038000Y-49890000D02*
X53628000Y-49890000D01*
X54038000Y-51710000D02*
X53628000Y-51710000D01*
X54038000Y-52430000D02*
X53628000Y-52430000D01*
X54038000Y-54250000D02*
X53628000Y-54250000D01*
X54038000Y-54970000D02*
X53628000Y-54970000D01*
X54038000Y-56790000D02*
X53628000Y-56790000D01*
X54038000Y-57510000D02*
X53628000Y-57510000D01*
X54038000Y-59330000D02*
X53628000Y-59330000D01*
X54038000Y-60050000D02*
X53628000Y-60050000D01*
X54038000Y-61870000D02*
X53628000Y-61870000D01*
X54038000Y-62590000D02*
X53628000Y-62590000D01*
X54038000Y-64410000D02*
X53628000Y-64410000D01*
X54038000Y-65130000D02*
X53628000Y-65130000D01*
X62668000Y-40640000D02*
X54038000Y-40640000D01*
X62668000Y-43180000D02*
X54038000Y-43180000D01*
X62668000Y-45720000D02*
X54038000Y-45720000D01*
X62668000Y-48260000D02*
X54038000Y-48260000D01*
X62668000Y-50800000D02*
X54038000Y-50800000D01*
X62668000Y-53340000D02*
X54038000Y-53340000D01*
X62668000Y-55880000D02*
X54038000Y-55880000D01*
X62668000Y-58420000D02*
X54038000Y-58420000D01*
X62668000Y-60960000D02*
X54038000Y-60960000D01*
X62668000Y-63500000D02*
X54038000Y-63500000D01*
X62668000Y-38040000D02*
X54038000Y-38040000D01*
X54038000Y-38040000D02*
X54038000Y-66100000D01*
X62668000Y-66100000D02*
X54038000Y-66100000D01*
X62668000Y-38040000D02*
X62668000Y-66100000D01*
X51468000Y-38040000D02*
X51468000Y-39370000D01*
X52578000Y-38040000D02*
X51468000Y-38040000D01*
X62668000Y-66100000D02*
X54038000Y-66100000D01*
X62668000Y-66218095D02*
X54038000Y-66218095D01*
X62668000Y-66336190D02*
X54038000Y-66336190D01*
X62668000Y-66454285D02*
X54038000Y-66454285D01*
X62668000Y-66572380D02*
X54038000Y-66572380D01*
X62668000Y-66690475D02*
X54038000Y-66690475D01*
X62668000Y-66808570D02*
X54038000Y-66808570D01*
X62668000Y-66926665D02*
X54038000Y-66926665D01*
X62668000Y-67044760D02*
X54038000Y-67044760D01*
X62668000Y-67162855D02*
X54038000Y-67162855D01*
X62668000Y-67280950D02*
X54038000Y-67280950D01*
X62668000Y-67399045D02*
X54038000Y-67399045D01*
X62668000Y-67517140D02*
X54038000Y-67517140D01*
X62668000Y-67635235D02*
X54038000Y-67635235D01*
X62668000Y-67753330D02*
X54038000Y-67753330D01*
X62668000Y-67871425D02*
X54038000Y-67871425D01*
X62668000Y-67989520D02*
X54038000Y-67989520D01*
X62668000Y-68107615D02*
X54038000Y-68107615D01*
X62668000Y-68225710D02*
X54038000Y-68225710D01*
X62668000Y-68343805D02*
X54038000Y-68343805D01*
X62668000Y-68461900D02*
X54038000Y-68461900D01*
X54038000Y-66950000D02*
X53688000Y-66950000D01*
X54038000Y-67670000D02*
X53688000Y-67670000D01*
X54038000Y-69490000D02*
X53628000Y-69490000D01*
X54038000Y-70210000D02*
X53628000Y-70210000D01*
X54038000Y-72030000D02*
X53628000Y-72030000D01*
X54038000Y-72750000D02*
X53628000Y-72750000D01*
X54038000Y-74570000D02*
X53628000Y-74570000D01*
X54038000Y-75290000D02*
X53628000Y-75290000D01*
X54038000Y-77110000D02*
X53628000Y-77110000D01*
X54038000Y-77830000D02*
X53628000Y-77830000D01*
X54038000Y-79650000D02*
X53628000Y-79650000D01*
X54038000Y-80370000D02*
X53628000Y-80370000D01*
X54038000Y-82190000D02*
X53628000Y-82190000D01*
X54038000Y-82910000D02*
X53628000Y-82910000D01*
X54038000Y-84730000D02*
X53628000Y-84730000D01*
X54038000Y-85450000D02*
X53628000Y-85450000D01*
X54038000Y-87270000D02*
X53628000Y-87270000D01*
X54038000Y-87990000D02*
X53628000Y-87990000D01*
X54038000Y-89810000D02*
X53628000Y-89810000D01*
X54038000Y-90530000D02*
X53628000Y-90530000D01*
X54038000Y-92350000D02*
X53628000Y-92350000D01*
X54038000Y-93070000D02*
X53628000Y-93070000D01*
X54038000Y-94890000D02*
X53628000Y-94890000D01*
X54038000Y-95610000D02*
X53628000Y-95610000D01*
X62668000Y-68580000D02*
X54038000Y-68580000D01*
X62668000Y-71120000D02*
X54038000Y-71120000D01*
X62668000Y-73660000D02*
X54038000Y-73660000D01*
X62668000Y-76200000D02*
X54038000Y-76200000D01*
X62668000Y-78740000D02*
X54038000Y-78740000D01*
X62668000Y-81280000D02*
X54038000Y-81280000D01*
X62668000Y-83820000D02*
X54038000Y-83820000D01*
X62668000Y-86360000D02*
X54038000Y-86360000D01*
X62668000Y-88900000D02*
X54038000Y-88900000D01*
X62668000Y-91440000D02*
X54038000Y-91440000D01*
X62668000Y-93980000D02*
X54038000Y-93980000D01*
X62668000Y-65980000D02*
X54038000Y-65980000D01*
X54038000Y-65980000D02*
X54038000Y-96580000D01*
X62668000Y-96580000D02*
X54038000Y-96580000D01*
X62668000Y-65980000D02*
X62668000Y-96580000D01*
X51468000Y-65980000D02*
X51468000Y-67310000D01*
X52578000Y-65980000D02*
X51468000Y-65980000D01*
X67375000Y-65930000D02*
X65475000Y-65930000D01*
X65975000Y-63610000D02*
X67375000Y-63610000D01*
X62422000Y-63390000D02*
X60522000Y-63390000D01*
X61022000Y-61070000D02*
X62422000Y-61070000D01*
X67375000Y-60850000D02*
X65475000Y-60850000D01*
X65975000Y-58530000D02*
X67375000Y-58530000D01*
X61022000Y-55990000D02*
X62422000Y-55990000D01*
X62422000Y-58310000D02*
X60522000Y-58310000D01*
X65975000Y-50910000D02*
X67375000Y-50910000D01*
X67375000Y-53230000D02*
X65475000Y-53230000D01*
X61022000Y-38210000D02*
X62422000Y-38210000D01*
X62422000Y-40530000D02*
X60522000Y-40530000D01*
X61022000Y-43290000D02*
X62422000Y-43290000D01*
X62422000Y-45610000D02*
X60522000Y-45610000D01*
X67435000Y-48150000D02*
X65535000Y-48150000D01*
X66035000Y-45830000D02*
X67435000Y-45830000D01*
X62422000Y-50690000D02*
X60522000Y-50690000D01*
X61022000Y-48370000D02*
X62422000Y-48370000D01*
D10*
X68913333Y-82383380D02*
X68913333Y-83097666D01*
X68960952Y-83240523D01*
X69056190Y-83335761D01*
X69199047Y-83383380D01*
X69294285Y-83383380D01*
X68484761Y-82478619D02*
X68437142Y-82431000D01*
X68341904Y-82383380D01*
X68103809Y-82383380D01*
X68008571Y-82431000D01*
X67960952Y-82478619D01*
X67913333Y-82573857D01*
X67913333Y-82669095D01*
X67960952Y-82811952D01*
X68532380Y-83383380D01*
X67913333Y-83383380D01*
X62182333Y-36536380D02*
X62182333Y-37250666D01*
X62229952Y-37393523D01*
X62325190Y-37488761D01*
X62468047Y-37536380D01*
X62563285Y-37536380D01*
X61182333Y-37536380D02*
X61753761Y-37536380D01*
X61468047Y-37536380D02*
X61468047Y-36536380D01*
X61563285Y-36679238D01*
X61658523Y-36774476D01*
X61753761Y-36822095D01*
X64087333Y-66127380D02*
X64087333Y-66841666D01*
X64134952Y-66984523D01*
X64230190Y-67079761D01*
X64373047Y-67127380D01*
X64468285Y-67127380D01*
X63182571Y-66460714D02*
X63182571Y-67127380D01*
X63420666Y-66079761D02*
X63658761Y-66794047D01*
X63039714Y-66794047D01*
X70072238Y-65317619D02*
X70167476Y-65270000D01*
X70262714Y-65174761D01*
X70405571Y-65031904D01*
X70500809Y-64984285D01*
X70596047Y-64984285D01*
X70548428Y-65222380D02*
X70643666Y-65174761D01*
X70738904Y-65079523D01*
X70786523Y-64889047D01*
X70786523Y-64555714D01*
X70738904Y-64365238D01*
X70643666Y-64270000D01*
X70548428Y-64222380D01*
X70357952Y-64222380D01*
X70262714Y-64270000D01*
X70167476Y-64365238D01*
X70119857Y-64555714D01*
X70119857Y-64889047D01*
X70167476Y-65079523D01*
X70262714Y-65174761D01*
X70357952Y-65222380D01*
X70548428Y-65222380D01*
X69167476Y-65222380D02*
X69738904Y-65222380D01*
X69453190Y-65222380D02*
X69453190Y-64222380D01*
X69548428Y-64365238D01*
X69643666Y-64460476D01*
X69738904Y-64508095D01*
X65246238Y-62777619D02*
X65341476Y-62730000D01*
X65436714Y-62634761D01*
X65579571Y-62491904D01*
X65674809Y-62444285D01*
X65770047Y-62444285D01*
X65722428Y-62682380D02*
X65817666Y-62634761D01*
X65912904Y-62539523D01*
X65960523Y-62349047D01*
X65960523Y-62015714D01*
X65912904Y-61825238D01*
X65817666Y-61730000D01*
X65722428Y-61682380D01*
X65531952Y-61682380D01*
X65436714Y-61730000D01*
X65341476Y-61825238D01*
X65293857Y-62015714D01*
X65293857Y-62349047D01*
X65341476Y-62539523D01*
X65436714Y-62634761D01*
X65531952Y-62682380D01*
X65722428Y-62682380D01*
X64912904Y-61777619D02*
X64865285Y-61730000D01*
X64770047Y-61682380D01*
X64531952Y-61682380D01*
X64436714Y-61730000D01*
X64389095Y-61777619D01*
X64341476Y-61872857D01*
X64341476Y-61968095D01*
X64389095Y-62110952D01*
X64960523Y-62682380D01*
X64341476Y-62682380D01*
X70199238Y-60237619D02*
X70294476Y-60190000D01*
X70389714Y-60094761D01*
X70532571Y-59951904D01*
X70627809Y-59904285D01*
X70723047Y-59904285D01*
X70675428Y-60142380D02*
X70770666Y-60094761D01*
X70865904Y-59999523D01*
X70913523Y-59809047D01*
X70913523Y-59475714D01*
X70865904Y-59285238D01*
X70770666Y-59190000D01*
X70675428Y-59142380D01*
X70484952Y-59142380D01*
X70389714Y-59190000D01*
X70294476Y-59285238D01*
X70246857Y-59475714D01*
X70246857Y-59809047D01*
X70294476Y-59999523D01*
X70389714Y-60094761D01*
X70484952Y-60142380D01*
X70675428Y-60142380D01*
X69913523Y-59142380D02*
X69294476Y-59142380D01*
X69627809Y-59523333D01*
X69484952Y-59523333D01*
X69389714Y-59570952D01*
X69342095Y-59618571D01*
X69294476Y-59713809D01*
X69294476Y-59951904D01*
X69342095Y-60047142D01*
X69389714Y-60094761D01*
X69484952Y-60142380D01*
X69770666Y-60142380D01*
X69865904Y-60094761D01*
X69913523Y-60047142D01*
X65246238Y-57697619D02*
X65341476Y-57650000D01*
X65436714Y-57554761D01*
X65579571Y-57411904D01*
X65674809Y-57364285D01*
X65770047Y-57364285D01*
X65722428Y-57602380D02*
X65817666Y-57554761D01*
X65912904Y-57459523D01*
X65960523Y-57269047D01*
X65960523Y-56935714D01*
X65912904Y-56745238D01*
X65817666Y-56650000D01*
X65722428Y-56602380D01*
X65531952Y-56602380D01*
X65436714Y-56650000D01*
X65341476Y-56745238D01*
X65293857Y-56935714D01*
X65293857Y-57269047D01*
X65341476Y-57459523D01*
X65436714Y-57554761D01*
X65531952Y-57602380D01*
X65722428Y-57602380D01*
X64436714Y-56935714D02*
X64436714Y-57602380D01*
X64674809Y-56554761D02*
X64912904Y-57269047D01*
X64293857Y-57269047D01*
X70199238Y-52617619D02*
X70294476Y-52570000D01*
X70389714Y-52474761D01*
X70532571Y-52331904D01*
X70627809Y-52284285D01*
X70723047Y-52284285D01*
X70675428Y-52522380D02*
X70770666Y-52474761D01*
X70865904Y-52379523D01*
X70913523Y-52189047D01*
X70913523Y-51855714D01*
X70865904Y-51665238D01*
X70770666Y-51570000D01*
X70675428Y-51522380D01*
X70484952Y-51522380D01*
X70389714Y-51570000D01*
X70294476Y-51665238D01*
X70246857Y-51855714D01*
X70246857Y-52189047D01*
X70294476Y-52379523D01*
X70389714Y-52474761D01*
X70484952Y-52522380D01*
X70675428Y-52522380D01*
X69342095Y-51522380D02*
X69818285Y-51522380D01*
X69865904Y-51998571D01*
X69818285Y-51950952D01*
X69723047Y-51903333D01*
X69484952Y-51903333D01*
X69389714Y-51950952D01*
X69342095Y-51998571D01*
X69294476Y-52093809D01*
X69294476Y-52331904D01*
X69342095Y-52427142D01*
X69389714Y-52474761D01*
X69484952Y-52522380D01*
X69723047Y-52522380D01*
X69818285Y-52474761D01*
X69865904Y-52427142D01*
X65373238Y-40044619D02*
X65468476Y-39997000D01*
X65563714Y-39901761D01*
X65706571Y-39758904D01*
X65801809Y-39711285D01*
X65897047Y-39711285D01*
X65849428Y-39949380D02*
X65944666Y-39901761D01*
X66039904Y-39806523D01*
X66087523Y-39616047D01*
X66087523Y-39282714D01*
X66039904Y-39092238D01*
X65944666Y-38997000D01*
X65849428Y-38949380D01*
X65658952Y-38949380D01*
X65563714Y-38997000D01*
X65468476Y-39092238D01*
X65420857Y-39282714D01*
X65420857Y-39616047D01*
X65468476Y-39806523D01*
X65563714Y-39901761D01*
X65658952Y-39949380D01*
X65849428Y-39949380D01*
X64563714Y-38949380D02*
X64754190Y-38949380D01*
X64849428Y-38997000D01*
X64897047Y-39044619D01*
X64992285Y-39187476D01*
X65039904Y-39377952D01*
X65039904Y-39758904D01*
X64992285Y-39854142D01*
X64944666Y-39901761D01*
X64849428Y-39949380D01*
X64658952Y-39949380D01*
X64563714Y-39901761D01*
X64516095Y-39854142D01*
X64468476Y-39758904D01*
X64468476Y-39520809D01*
X64516095Y-39425571D01*
X64563714Y-39377952D01*
X64658952Y-39330333D01*
X64849428Y-39330333D01*
X64944666Y-39377952D01*
X64992285Y-39425571D01*
X65039904Y-39520809D01*
X65373238Y-45124619D02*
X65468476Y-45077000D01*
X65563714Y-44981761D01*
X65706571Y-44838904D01*
X65801809Y-44791285D01*
X65897047Y-44791285D01*
X65849428Y-45029380D02*
X65944666Y-44981761D01*
X66039904Y-44886523D01*
X66087523Y-44696047D01*
X66087523Y-44362714D01*
X66039904Y-44172238D01*
X65944666Y-44077000D01*
X65849428Y-44029380D01*
X65658952Y-44029380D01*
X65563714Y-44077000D01*
X65468476Y-44172238D01*
X65420857Y-44362714D01*
X65420857Y-44696047D01*
X65468476Y-44886523D01*
X65563714Y-44981761D01*
X65658952Y-45029380D01*
X65849428Y-45029380D01*
X65087523Y-44029380D02*
X64420857Y-44029380D01*
X64849428Y-45029380D01*
X70199238Y-47537619D02*
X70294476Y-47490000D01*
X70389714Y-47394761D01*
X70532571Y-47251904D01*
X70627809Y-47204285D01*
X70723047Y-47204285D01*
X70675428Y-47442380D02*
X70770666Y-47394761D01*
X70865904Y-47299523D01*
X70913523Y-47109047D01*
X70913523Y-46775714D01*
X70865904Y-46585238D01*
X70770666Y-46490000D01*
X70675428Y-46442380D01*
X70484952Y-46442380D01*
X70389714Y-46490000D01*
X70294476Y-46585238D01*
X70246857Y-46775714D01*
X70246857Y-47109047D01*
X70294476Y-47299523D01*
X70389714Y-47394761D01*
X70484952Y-47442380D01*
X70675428Y-47442380D01*
X69675428Y-46870952D02*
X69770666Y-46823333D01*
X69818285Y-46775714D01*
X69865904Y-46680476D01*
X69865904Y-46632857D01*
X69818285Y-46537619D01*
X69770666Y-46490000D01*
X69675428Y-46442380D01*
X69484952Y-46442380D01*
X69389714Y-46490000D01*
X69342095Y-46537619D01*
X69294476Y-46632857D01*
X69294476Y-46680476D01*
X69342095Y-46775714D01*
X69389714Y-46823333D01*
X69484952Y-46870952D01*
X69675428Y-46870952D01*
X69770666Y-46918571D01*
X69818285Y-46966190D01*
X69865904Y-47061428D01*
X69865904Y-47251904D01*
X69818285Y-47347142D01*
X69770666Y-47394761D01*
X69675428Y-47442380D01*
X69484952Y-47442380D01*
X69389714Y-47394761D01*
X69342095Y-47347142D01*
X69294476Y-47251904D01*
X69294476Y-47061428D01*
X69342095Y-46966190D01*
X69389714Y-46918571D01*
X69484952Y-46870952D01*
X65246238Y-50077619D02*
X65341476Y-50030000D01*
X65436714Y-49934761D01*
X65579571Y-49791904D01*
X65674809Y-49744285D01*
X65770047Y-49744285D01*
X65722428Y-49982380D02*
X65817666Y-49934761D01*
X65912904Y-49839523D01*
X65960523Y-49649047D01*
X65960523Y-49315714D01*
X65912904Y-49125238D01*
X65817666Y-49030000D01*
X65722428Y-48982380D01*
X65531952Y-48982380D01*
X65436714Y-49030000D01*
X65341476Y-49125238D01*
X65293857Y-49315714D01*
X65293857Y-49649047D01*
X65341476Y-49839523D01*
X65436714Y-49934761D01*
X65531952Y-49982380D01*
X65722428Y-49982380D01*
X64817666Y-49982380D02*
X64627190Y-49982380D01*
X64531952Y-49934761D01*
X64484333Y-49887142D01*
X64389095Y-49744285D01*
X64341476Y-49553809D01*
X64341476Y-49172857D01*
X64389095Y-49077619D01*
X64436714Y-49030000D01*
X64531952Y-48982380D01*
X64722428Y-48982380D01*
X64817666Y-49030000D01*
X64865285Y-49077619D01*
X64912904Y-49172857D01*
X64912904Y-49410952D01*
X64865285Y-49506190D01*
X64817666Y-49553809D01*
X64722428Y-49601428D01*
X64531952Y-49601428D01*
X64436714Y-49553809D01*
X64389095Y-49506190D01*
X64341476Y-49410952D01*
M02*
