G04 #@! TF.GenerationSoftware,KiCad,Pcbnew,(5.1.4-0-10_14)*
G04 #@! TF.CreationDate,2021-03-06T18:41:09+00:00*
G04 #@! TF.ProjectId,DriverBoard,44726976-6572-4426-9f61-72642e6b6963,rev?*
G04 #@! TF.SameCoordinates,Original*
G04 #@! TF.FileFunction,Soldermask,Bot*
G04 #@! TF.FilePolarity,Negative*
%FSLAX46Y46*%
G04 Gerber Fmt 4.6, Leading zero omitted, Abs format (unit mm)*
G04 Created by KiCad (PCBNEW (5.1.4-0-10_14)) date 2021-03-06 18:41:09*
%MOMM*%
%LPD*%
G04 APERTURE LIST*
%ADD10C,0.100000*%
G04 APERTURE END LIST*
D10*
G36*
X59419442Y-94355518D02*
G01*
X59485627Y-94362037D01*
X59655466Y-94413557D01*
X59811991Y-94497222D01*
X59847729Y-94526552D01*
X59949186Y-94609814D01*
X60032448Y-94711271D01*
X60061778Y-94747009D01*
X60145443Y-94903534D01*
X60196963Y-95073373D01*
X60214359Y-95250000D01*
X60196963Y-95426627D01*
X60145443Y-95596466D01*
X60061778Y-95752991D01*
X60032448Y-95788729D01*
X59949186Y-95890186D01*
X59847729Y-95973448D01*
X59811991Y-96002778D01*
X59655466Y-96086443D01*
X59485627Y-96137963D01*
X59419442Y-96144482D01*
X59353260Y-96151000D01*
X59264740Y-96151000D01*
X59198558Y-96144482D01*
X59132373Y-96137963D01*
X58962534Y-96086443D01*
X58806009Y-96002778D01*
X58770271Y-95973448D01*
X58668814Y-95890186D01*
X58585552Y-95788729D01*
X58556222Y-95752991D01*
X58472557Y-95596466D01*
X58421037Y-95426627D01*
X58403641Y-95250000D01*
X58421037Y-95073373D01*
X58472557Y-94903534D01*
X58556222Y-94747009D01*
X58585552Y-94711271D01*
X58668814Y-94609814D01*
X58770271Y-94526552D01*
X58806009Y-94497222D01*
X58962534Y-94413557D01*
X59132373Y-94362037D01*
X59198558Y-94355518D01*
X59264740Y-94349000D01*
X59353260Y-94349000D01*
X59419442Y-94355518D01*
X59419442Y-94355518D01*
G37*
G36*
X52688442Y-94355518D02*
G01*
X52754627Y-94362037D01*
X52924466Y-94413557D01*
X53080991Y-94497222D01*
X53116729Y-94526552D01*
X53218186Y-94609814D01*
X53301448Y-94711271D01*
X53330778Y-94747009D01*
X53414443Y-94903534D01*
X53465963Y-95073373D01*
X53483359Y-95250000D01*
X53465963Y-95426627D01*
X53414443Y-95596466D01*
X53330778Y-95752991D01*
X53301448Y-95788729D01*
X53218186Y-95890186D01*
X53116729Y-95973448D01*
X53080991Y-96002778D01*
X52924466Y-96086443D01*
X52754627Y-96137963D01*
X52688442Y-96144482D01*
X52622260Y-96151000D01*
X52533740Y-96151000D01*
X52467558Y-96144482D01*
X52401373Y-96137963D01*
X52231534Y-96086443D01*
X52075009Y-96002778D01*
X52039271Y-95973448D01*
X51937814Y-95890186D01*
X51854552Y-95788729D01*
X51825222Y-95752991D01*
X51741557Y-95596466D01*
X51690037Y-95426627D01*
X51672641Y-95250000D01*
X51690037Y-95073373D01*
X51741557Y-94903534D01*
X51825222Y-94747009D01*
X51854552Y-94711271D01*
X51937814Y-94609814D01*
X52039271Y-94526552D01*
X52075009Y-94497222D01*
X52231534Y-94413557D01*
X52401373Y-94362037D01*
X52467558Y-94355518D01*
X52533740Y-94349000D01*
X52622260Y-94349000D01*
X52688442Y-94355518D01*
X52688442Y-94355518D01*
G37*
G36*
X59419442Y-91815518D02*
G01*
X59485627Y-91822037D01*
X59655466Y-91873557D01*
X59811991Y-91957222D01*
X59847729Y-91986552D01*
X59949186Y-92069814D01*
X60032448Y-92171271D01*
X60061778Y-92207009D01*
X60145443Y-92363534D01*
X60196963Y-92533373D01*
X60214359Y-92710000D01*
X60196963Y-92886627D01*
X60145443Y-93056466D01*
X60061778Y-93212991D01*
X60032448Y-93248729D01*
X59949186Y-93350186D01*
X59847729Y-93433448D01*
X59811991Y-93462778D01*
X59655466Y-93546443D01*
X59485627Y-93597963D01*
X59419443Y-93604481D01*
X59353260Y-93611000D01*
X59264740Y-93611000D01*
X59198557Y-93604481D01*
X59132373Y-93597963D01*
X58962534Y-93546443D01*
X58806009Y-93462778D01*
X58770271Y-93433448D01*
X58668814Y-93350186D01*
X58585552Y-93248729D01*
X58556222Y-93212991D01*
X58472557Y-93056466D01*
X58421037Y-92886627D01*
X58403641Y-92710000D01*
X58421037Y-92533373D01*
X58472557Y-92363534D01*
X58556222Y-92207009D01*
X58585552Y-92171271D01*
X58668814Y-92069814D01*
X58770271Y-91986552D01*
X58806009Y-91957222D01*
X58962534Y-91873557D01*
X59132373Y-91822037D01*
X59198558Y-91815518D01*
X59264740Y-91809000D01*
X59353260Y-91809000D01*
X59419442Y-91815518D01*
X59419442Y-91815518D01*
G37*
G36*
X52688442Y-91815518D02*
G01*
X52754627Y-91822037D01*
X52924466Y-91873557D01*
X53080991Y-91957222D01*
X53116729Y-91986552D01*
X53218186Y-92069814D01*
X53301448Y-92171271D01*
X53330778Y-92207009D01*
X53414443Y-92363534D01*
X53465963Y-92533373D01*
X53483359Y-92710000D01*
X53465963Y-92886627D01*
X53414443Y-93056466D01*
X53330778Y-93212991D01*
X53301448Y-93248729D01*
X53218186Y-93350186D01*
X53116729Y-93433448D01*
X53080991Y-93462778D01*
X52924466Y-93546443D01*
X52754627Y-93597963D01*
X52688443Y-93604481D01*
X52622260Y-93611000D01*
X52533740Y-93611000D01*
X52467557Y-93604481D01*
X52401373Y-93597963D01*
X52231534Y-93546443D01*
X52075009Y-93462778D01*
X52039271Y-93433448D01*
X51937814Y-93350186D01*
X51854552Y-93248729D01*
X51825222Y-93212991D01*
X51741557Y-93056466D01*
X51690037Y-92886627D01*
X51672641Y-92710000D01*
X51690037Y-92533373D01*
X51741557Y-92363534D01*
X51825222Y-92207009D01*
X51854552Y-92171271D01*
X51937814Y-92069814D01*
X52039271Y-91986552D01*
X52075009Y-91957222D01*
X52231534Y-91873557D01*
X52401373Y-91822037D01*
X52467558Y-91815518D01*
X52533740Y-91809000D01*
X52622260Y-91809000D01*
X52688442Y-91815518D01*
X52688442Y-91815518D01*
G37*
G36*
X59419443Y-89275519D02*
G01*
X59485627Y-89282037D01*
X59655466Y-89333557D01*
X59811991Y-89417222D01*
X59847729Y-89446552D01*
X59949186Y-89529814D01*
X60032448Y-89631271D01*
X60061778Y-89667009D01*
X60145443Y-89823534D01*
X60196963Y-89993373D01*
X60214359Y-90170000D01*
X60196963Y-90346627D01*
X60145443Y-90516466D01*
X60061778Y-90672991D01*
X60032448Y-90708729D01*
X59949186Y-90810186D01*
X59847729Y-90893448D01*
X59811991Y-90922778D01*
X59655466Y-91006443D01*
X59485627Y-91057963D01*
X59419442Y-91064482D01*
X59353260Y-91071000D01*
X59264740Y-91071000D01*
X59198558Y-91064482D01*
X59132373Y-91057963D01*
X58962534Y-91006443D01*
X58806009Y-90922778D01*
X58770271Y-90893448D01*
X58668814Y-90810186D01*
X58585552Y-90708729D01*
X58556222Y-90672991D01*
X58472557Y-90516466D01*
X58421037Y-90346627D01*
X58403641Y-90170000D01*
X58421037Y-89993373D01*
X58472557Y-89823534D01*
X58556222Y-89667009D01*
X58585552Y-89631271D01*
X58668814Y-89529814D01*
X58770271Y-89446552D01*
X58806009Y-89417222D01*
X58962534Y-89333557D01*
X59132373Y-89282037D01*
X59198557Y-89275519D01*
X59264740Y-89269000D01*
X59353260Y-89269000D01*
X59419443Y-89275519D01*
X59419443Y-89275519D01*
G37*
G36*
X52688443Y-89275519D02*
G01*
X52754627Y-89282037D01*
X52924466Y-89333557D01*
X53080991Y-89417222D01*
X53116729Y-89446552D01*
X53218186Y-89529814D01*
X53301448Y-89631271D01*
X53330778Y-89667009D01*
X53414443Y-89823534D01*
X53465963Y-89993373D01*
X53483359Y-90170000D01*
X53465963Y-90346627D01*
X53414443Y-90516466D01*
X53330778Y-90672991D01*
X53301448Y-90708729D01*
X53218186Y-90810186D01*
X53116729Y-90893448D01*
X53080991Y-90922778D01*
X52924466Y-91006443D01*
X52754627Y-91057963D01*
X52688442Y-91064482D01*
X52622260Y-91071000D01*
X52533740Y-91071000D01*
X52467558Y-91064482D01*
X52401373Y-91057963D01*
X52231534Y-91006443D01*
X52075009Y-90922778D01*
X52039271Y-90893448D01*
X51937814Y-90810186D01*
X51854552Y-90708729D01*
X51825222Y-90672991D01*
X51741557Y-90516466D01*
X51690037Y-90346627D01*
X51672641Y-90170000D01*
X51690037Y-89993373D01*
X51741557Y-89823534D01*
X51825222Y-89667009D01*
X51854552Y-89631271D01*
X51937814Y-89529814D01*
X52039271Y-89446552D01*
X52075009Y-89417222D01*
X52231534Y-89333557D01*
X52401373Y-89282037D01*
X52467557Y-89275519D01*
X52533740Y-89269000D01*
X52622260Y-89269000D01*
X52688443Y-89275519D01*
X52688443Y-89275519D01*
G37*
G36*
X59419442Y-86735518D02*
G01*
X59485627Y-86742037D01*
X59655466Y-86793557D01*
X59811991Y-86877222D01*
X59847729Y-86906552D01*
X59949186Y-86989814D01*
X60032448Y-87091271D01*
X60061778Y-87127009D01*
X60145443Y-87283534D01*
X60196963Y-87453373D01*
X60214359Y-87630000D01*
X60196963Y-87806627D01*
X60145443Y-87976466D01*
X60061778Y-88132991D01*
X60032448Y-88168729D01*
X59949186Y-88270186D01*
X59847729Y-88353448D01*
X59811991Y-88382778D01*
X59655466Y-88466443D01*
X59485627Y-88517963D01*
X59419442Y-88524482D01*
X59353260Y-88531000D01*
X59264740Y-88531000D01*
X59198558Y-88524482D01*
X59132373Y-88517963D01*
X58962534Y-88466443D01*
X58806009Y-88382778D01*
X58770271Y-88353448D01*
X58668814Y-88270186D01*
X58585552Y-88168729D01*
X58556222Y-88132991D01*
X58472557Y-87976466D01*
X58421037Y-87806627D01*
X58403641Y-87630000D01*
X58421037Y-87453373D01*
X58472557Y-87283534D01*
X58556222Y-87127009D01*
X58585552Y-87091271D01*
X58668814Y-86989814D01*
X58770271Y-86906552D01*
X58806009Y-86877222D01*
X58962534Y-86793557D01*
X59132373Y-86742037D01*
X59198558Y-86735518D01*
X59264740Y-86729000D01*
X59353260Y-86729000D01*
X59419442Y-86735518D01*
X59419442Y-86735518D01*
G37*
G36*
X52688442Y-86735518D02*
G01*
X52754627Y-86742037D01*
X52924466Y-86793557D01*
X53080991Y-86877222D01*
X53116729Y-86906552D01*
X53218186Y-86989814D01*
X53301448Y-87091271D01*
X53330778Y-87127009D01*
X53414443Y-87283534D01*
X53465963Y-87453373D01*
X53483359Y-87630000D01*
X53465963Y-87806627D01*
X53414443Y-87976466D01*
X53330778Y-88132991D01*
X53301448Y-88168729D01*
X53218186Y-88270186D01*
X53116729Y-88353448D01*
X53080991Y-88382778D01*
X52924466Y-88466443D01*
X52754627Y-88517963D01*
X52688442Y-88524482D01*
X52622260Y-88531000D01*
X52533740Y-88531000D01*
X52467558Y-88524482D01*
X52401373Y-88517963D01*
X52231534Y-88466443D01*
X52075009Y-88382778D01*
X52039271Y-88353448D01*
X51937814Y-88270186D01*
X51854552Y-88168729D01*
X51825222Y-88132991D01*
X51741557Y-87976466D01*
X51690037Y-87806627D01*
X51672641Y-87630000D01*
X51690037Y-87453373D01*
X51741557Y-87283534D01*
X51825222Y-87127009D01*
X51854552Y-87091271D01*
X51937814Y-86989814D01*
X52039271Y-86906552D01*
X52075009Y-86877222D01*
X52231534Y-86793557D01*
X52401373Y-86742037D01*
X52467558Y-86735518D01*
X52533740Y-86729000D01*
X52622260Y-86729000D01*
X52688442Y-86735518D01*
X52688442Y-86735518D01*
G37*
G36*
X60210000Y-85991000D02*
G01*
X58408000Y-85991000D01*
X58408000Y-84189000D01*
X60210000Y-84189000D01*
X60210000Y-85991000D01*
X60210000Y-85991000D01*
G37*
G36*
X52688442Y-84195518D02*
G01*
X52754627Y-84202037D01*
X52924466Y-84253557D01*
X53080991Y-84337222D01*
X53116729Y-84366552D01*
X53218186Y-84449814D01*
X53301448Y-84551271D01*
X53330778Y-84587009D01*
X53414443Y-84743534D01*
X53465963Y-84913373D01*
X53483359Y-85090000D01*
X53465963Y-85266627D01*
X53414443Y-85436466D01*
X53330778Y-85592991D01*
X53301448Y-85628729D01*
X53218186Y-85730186D01*
X53116729Y-85813448D01*
X53080991Y-85842778D01*
X52924466Y-85926443D01*
X52754627Y-85977963D01*
X52688442Y-85984482D01*
X52622260Y-85991000D01*
X52533740Y-85991000D01*
X52467558Y-85984482D01*
X52401373Y-85977963D01*
X52231534Y-85926443D01*
X52075009Y-85842778D01*
X52039271Y-85813448D01*
X51937814Y-85730186D01*
X51854552Y-85628729D01*
X51825222Y-85592991D01*
X51741557Y-85436466D01*
X51690037Y-85266627D01*
X51672641Y-85090000D01*
X51690037Y-84913373D01*
X51741557Y-84743534D01*
X51825222Y-84587009D01*
X51854552Y-84551271D01*
X51937814Y-84449814D01*
X52039271Y-84366552D01*
X52075009Y-84337222D01*
X52231534Y-84253557D01*
X52401373Y-84202037D01*
X52467558Y-84195518D01*
X52533740Y-84189000D01*
X52622260Y-84189000D01*
X52688442Y-84195518D01*
X52688442Y-84195518D01*
G37*
G36*
X52688443Y-81655519D02*
G01*
X52754627Y-81662037D01*
X52924466Y-81713557D01*
X53080991Y-81797222D01*
X53116729Y-81826552D01*
X53218186Y-81909814D01*
X53301448Y-82011271D01*
X53330778Y-82047009D01*
X53414443Y-82203534D01*
X53465963Y-82373373D01*
X53483359Y-82550000D01*
X53465963Y-82726627D01*
X53414443Y-82896466D01*
X53330778Y-83052991D01*
X53301448Y-83088729D01*
X53218186Y-83190186D01*
X53116729Y-83273448D01*
X53080991Y-83302778D01*
X52924466Y-83386443D01*
X52754627Y-83437963D01*
X52688443Y-83444481D01*
X52622260Y-83451000D01*
X52533740Y-83451000D01*
X52467557Y-83444481D01*
X52401373Y-83437963D01*
X52231534Y-83386443D01*
X52075009Y-83302778D01*
X52039271Y-83273448D01*
X51937814Y-83190186D01*
X51854552Y-83088729D01*
X51825222Y-83052991D01*
X51741557Y-82896466D01*
X51690037Y-82726627D01*
X51672641Y-82550000D01*
X51690037Y-82373373D01*
X51741557Y-82203534D01*
X51825222Y-82047009D01*
X51854552Y-82011271D01*
X51937814Y-81909814D01*
X52039271Y-81826552D01*
X52075009Y-81797222D01*
X52231534Y-81713557D01*
X52401373Y-81662037D01*
X52467557Y-81655519D01*
X52533740Y-81649000D01*
X52622260Y-81649000D01*
X52688443Y-81655519D01*
X52688443Y-81655519D01*
G37*
G36*
X52688443Y-79115519D02*
G01*
X52754627Y-79122037D01*
X52924466Y-79173557D01*
X53080991Y-79257222D01*
X53116729Y-79286552D01*
X53218186Y-79369814D01*
X53301448Y-79471271D01*
X53330778Y-79507009D01*
X53414443Y-79663534D01*
X53465963Y-79833373D01*
X53483359Y-80010000D01*
X53465963Y-80186627D01*
X53414443Y-80356466D01*
X53330778Y-80512991D01*
X53301448Y-80548729D01*
X53218186Y-80650186D01*
X53116729Y-80733448D01*
X53080991Y-80762778D01*
X52924466Y-80846443D01*
X52754627Y-80897963D01*
X52688442Y-80904482D01*
X52622260Y-80911000D01*
X52533740Y-80911000D01*
X52467558Y-80904482D01*
X52401373Y-80897963D01*
X52231534Y-80846443D01*
X52075009Y-80762778D01*
X52039271Y-80733448D01*
X51937814Y-80650186D01*
X51854552Y-80548729D01*
X51825222Y-80512991D01*
X51741557Y-80356466D01*
X51690037Y-80186627D01*
X51672641Y-80010000D01*
X51690037Y-79833373D01*
X51741557Y-79663534D01*
X51825222Y-79507009D01*
X51854552Y-79471271D01*
X51937814Y-79369814D01*
X52039271Y-79286552D01*
X52075009Y-79257222D01*
X52231534Y-79173557D01*
X52401373Y-79122037D01*
X52467557Y-79115519D01*
X52533740Y-79109000D01*
X52622260Y-79109000D01*
X52688443Y-79115519D01*
X52688443Y-79115519D01*
G37*
G36*
X52688443Y-76575519D02*
G01*
X52754627Y-76582037D01*
X52924466Y-76633557D01*
X53080991Y-76717222D01*
X53116729Y-76746552D01*
X53218186Y-76829814D01*
X53301448Y-76931271D01*
X53330778Y-76967009D01*
X53414443Y-77123534D01*
X53465963Y-77293373D01*
X53483359Y-77470000D01*
X53465963Y-77646627D01*
X53414443Y-77816466D01*
X53330778Y-77972991D01*
X53301448Y-78008729D01*
X53218186Y-78110186D01*
X53116729Y-78193448D01*
X53080991Y-78222778D01*
X52924466Y-78306443D01*
X52754627Y-78357963D01*
X52688443Y-78364481D01*
X52622260Y-78371000D01*
X52533740Y-78371000D01*
X52467557Y-78364481D01*
X52401373Y-78357963D01*
X52231534Y-78306443D01*
X52075009Y-78222778D01*
X52039271Y-78193448D01*
X51937814Y-78110186D01*
X51854552Y-78008729D01*
X51825222Y-77972991D01*
X51741557Y-77816466D01*
X51690037Y-77646627D01*
X51672641Y-77470000D01*
X51690037Y-77293373D01*
X51741557Y-77123534D01*
X51825222Y-76967009D01*
X51854552Y-76931271D01*
X51937814Y-76829814D01*
X52039271Y-76746552D01*
X52075009Y-76717222D01*
X52231534Y-76633557D01*
X52401373Y-76582037D01*
X52467557Y-76575519D01*
X52533740Y-76569000D01*
X52622260Y-76569000D01*
X52688443Y-76575519D01*
X52688443Y-76575519D01*
G37*
G36*
X52688442Y-74035518D02*
G01*
X52754627Y-74042037D01*
X52924466Y-74093557D01*
X53080991Y-74177222D01*
X53116729Y-74206552D01*
X53218186Y-74289814D01*
X53301448Y-74391271D01*
X53330778Y-74427009D01*
X53414443Y-74583534D01*
X53465963Y-74753373D01*
X53483359Y-74930000D01*
X53465963Y-75106627D01*
X53414443Y-75276466D01*
X53330778Y-75432991D01*
X53301448Y-75468729D01*
X53218186Y-75570186D01*
X53116729Y-75653448D01*
X53080991Y-75682778D01*
X52924466Y-75766443D01*
X52754627Y-75817963D01*
X52688442Y-75824482D01*
X52622260Y-75831000D01*
X52533740Y-75831000D01*
X52467558Y-75824482D01*
X52401373Y-75817963D01*
X52231534Y-75766443D01*
X52075009Y-75682778D01*
X52039271Y-75653448D01*
X51937814Y-75570186D01*
X51854552Y-75468729D01*
X51825222Y-75432991D01*
X51741557Y-75276466D01*
X51690037Y-75106627D01*
X51672641Y-74930000D01*
X51690037Y-74753373D01*
X51741557Y-74583534D01*
X51825222Y-74427009D01*
X51854552Y-74391271D01*
X51937814Y-74289814D01*
X52039271Y-74206552D01*
X52075009Y-74177222D01*
X52231534Y-74093557D01*
X52401373Y-74042037D01*
X52467558Y-74035518D01*
X52533740Y-74029000D01*
X52622260Y-74029000D01*
X52688442Y-74035518D01*
X52688442Y-74035518D01*
G37*
G36*
X75284283Y-71495519D02*
G01*
X75350467Y-71502037D01*
X75520306Y-71553557D01*
X75676831Y-71637222D01*
X75700941Y-71657009D01*
X75814026Y-71749814D01*
X75897288Y-71851271D01*
X75926618Y-71887009D01*
X76010283Y-72043534D01*
X76061803Y-72213373D01*
X76079199Y-72390000D01*
X76061803Y-72566627D01*
X76010283Y-72736466D01*
X75926618Y-72892991D01*
X75910379Y-72912778D01*
X75814026Y-73030186D01*
X75712569Y-73113448D01*
X75676831Y-73142778D01*
X75520306Y-73226443D01*
X75350467Y-73277963D01*
X75284283Y-73284481D01*
X75218100Y-73291000D01*
X75129580Y-73291000D01*
X75063397Y-73284481D01*
X74997213Y-73277963D01*
X74827374Y-73226443D01*
X74670849Y-73142778D01*
X74635111Y-73113448D01*
X74533654Y-73030186D01*
X74437301Y-72912778D01*
X74421062Y-72892991D01*
X74337397Y-72736466D01*
X74285877Y-72566627D01*
X74268481Y-72390000D01*
X74285877Y-72213373D01*
X74337397Y-72043534D01*
X74421062Y-71887009D01*
X74450392Y-71851271D01*
X74533654Y-71749814D01*
X74646739Y-71657009D01*
X74670849Y-71637222D01*
X74827374Y-71553557D01*
X74997213Y-71502037D01*
X75063397Y-71495519D01*
X75129580Y-71489000D01*
X75218100Y-71489000D01*
X75284283Y-71495519D01*
X75284283Y-71495519D01*
G37*
G36*
X57504283Y-71495519D02*
G01*
X57570467Y-71502037D01*
X57740306Y-71553557D01*
X57896831Y-71637222D01*
X57920941Y-71657009D01*
X58034026Y-71749814D01*
X58117288Y-71851271D01*
X58146618Y-71887009D01*
X58230283Y-72043534D01*
X58281803Y-72213373D01*
X58299199Y-72390000D01*
X58281803Y-72566627D01*
X58230283Y-72736466D01*
X58146618Y-72892991D01*
X58130379Y-72912778D01*
X58034026Y-73030186D01*
X57932569Y-73113448D01*
X57896831Y-73142778D01*
X57740306Y-73226443D01*
X57570467Y-73277963D01*
X57504283Y-73284481D01*
X57438100Y-73291000D01*
X57349580Y-73291000D01*
X57283397Y-73284481D01*
X57217213Y-73277963D01*
X57047374Y-73226443D01*
X56890849Y-73142778D01*
X56855111Y-73113448D01*
X56753654Y-73030186D01*
X56657301Y-72912778D01*
X56641062Y-72892991D01*
X56557397Y-72736466D01*
X56505877Y-72566627D01*
X56488481Y-72390000D01*
X56505877Y-72213373D01*
X56557397Y-72043534D01*
X56641062Y-71887009D01*
X56670392Y-71851271D01*
X56753654Y-71749814D01*
X56866739Y-71657009D01*
X56890849Y-71637222D01*
X57047374Y-71553557D01*
X57217213Y-71502037D01*
X57283397Y-71495519D01*
X57349580Y-71489000D01*
X57438100Y-71489000D01*
X57504283Y-71495519D01*
X57504283Y-71495519D01*
G37*
G36*
X52688443Y-71495519D02*
G01*
X52754627Y-71502037D01*
X52924466Y-71553557D01*
X53080991Y-71637222D01*
X53105101Y-71657009D01*
X53218186Y-71749814D01*
X53301448Y-71851271D01*
X53330778Y-71887009D01*
X53414443Y-72043534D01*
X53465963Y-72213373D01*
X53483359Y-72390000D01*
X53465963Y-72566627D01*
X53414443Y-72736466D01*
X53330778Y-72892991D01*
X53314539Y-72912778D01*
X53218186Y-73030186D01*
X53116729Y-73113448D01*
X53080991Y-73142778D01*
X52924466Y-73226443D01*
X52754627Y-73277963D01*
X52688443Y-73284481D01*
X52622260Y-73291000D01*
X52533740Y-73291000D01*
X52467557Y-73284481D01*
X52401373Y-73277963D01*
X52231534Y-73226443D01*
X52075009Y-73142778D01*
X52039271Y-73113448D01*
X51937814Y-73030186D01*
X51841461Y-72912778D01*
X51825222Y-72892991D01*
X51741557Y-72736466D01*
X51690037Y-72566627D01*
X51672641Y-72390000D01*
X51690037Y-72213373D01*
X51741557Y-72043534D01*
X51825222Y-71887009D01*
X51854552Y-71851271D01*
X51937814Y-71749814D01*
X52050899Y-71657009D01*
X52075009Y-71637222D01*
X52231534Y-71553557D01*
X52401373Y-71502037D01*
X52467557Y-71495519D01*
X52533740Y-71489000D01*
X52622260Y-71489000D01*
X52688443Y-71495519D01*
X52688443Y-71495519D01*
G37*
G36*
X68934283Y-71265519D02*
G01*
X69000467Y-71272037D01*
X69170306Y-71323557D01*
X69326831Y-71407222D01*
X69362569Y-71436552D01*
X69464026Y-71519814D01*
X69547288Y-71621271D01*
X69576618Y-71657009D01*
X69660283Y-71813534D01*
X69711803Y-71983373D01*
X69729199Y-72160000D01*
X69711803Y-72336627D01*
X69660283Y-72506466D01*
X69576618Y-72662991D01*
X69547288Y-72698729D01*
X69464026Y-72800186D01*
X69362569Y-72883448D01*
X69326831Y-72912778D01*
X69170306Y-72996443D01*
X69000467Y-73047963D01*
X68934282Y-73054482D01*
X68868100Y-73061000D01*
X68779580Y-73061000D01*
X68713398Y-73054482D01*
X68647213Y-73047963D01*
X68477374Y-72996443D01*
X68320849Y-72912778D01*
X68285111Y-72883448D01*
X68183654Y-72800186D01*
X68100392Y-72698729D01*
X68071062Y-72662991D01*
X67987397Y-72506466D01*
X67935877Y-72336627D01*
X67918481Y-72160000D01*
X67935877Y-71983373D01*
X67987397Y-71813534D01*
X68071062Y-71657009D01*
X68100392Y-71621271D01*
X68183654Y-71519814D01*
X68285111Y-71436552D01*
X68320849Y-71407222D01*
X68477374Y-71323557D01*
X68647213Y-71272037D01*
X68713397Y-71265519D01*
X68779580Y-71259000D01*
X68868100Y-71259000D01*
X68934283Y-71265519D01*
X68934283Y-71265519D01*
G37*
G36*
X63854283Y-71265519D02*
G01*
X63920467Y-71272037D01*
X64090306Y-71323557D01*
X64246831Y-71407222D01*
X64282569Y-71436552D01*
X64384026Y-71519814D01*
X64467288Y-71621271D01*
X64496618Y-71657009D01*
X64580283Y-71813534D01*
X64631803Y-71983373D01*
X64649199Y-72160000D01*
X64631803Y-72336627D01*
X64580283Y-72506466D01*
X64496618Y-72662991D01*
X64467288Y-72698729D01*
X64384026Y-72800186D01*
X64282569Y-72883448D01*
X64246831Y-72912778D01*
X64090306Y-72996443D01*
X63920467Y-73047963D01*
X63854282Y-73054482D01*
X63788100Y-73061000D01*
X63699580Y-73061000D01*
X63633398Y-73054482D01*
X63567213Y-73047963D01*
X63397374Y-72996443D01*
X63240849Y-72912778D01*
X63205111Y-72883448D01*
X63103654Y-72800186D01*
X63020392Y-72698729D01*
X62991062Y-72662991D01*
X62907397Y-72506466D01*
X62855877Y-72336627D01*
X62838481Y-72160000D01*
X62855877Y-71983373D01*
X62907397Y-71813534D01*
X62991062Y-71657009D01*
X63020392Y-71621271D01*
X63103654Y-71519814D01*
X63205111Y-71436552D01*
X63240849Y-71407222D01*
X63397374Y-71323557D01*
X63567213Y-71272037D01*
X63633397Y-71265519D01*
X63699580Y-71259000D01*
X63788100Y-71259000D01*
X63854283Y-71265519D01*
X63854283Y-71265519D01*
G37*
G36*
X67184840Y-73061000D02*
G01*
X65382840Y-73061000D01*
X65382840Y-71259000D01*
X67184840Y-71259000D01*
X67184840Y-73061000D01*
X67184840Y-73061000D01*
G37*
G36*
X57504283Y-68955519D02*
G01*
X57570467Y-68962037D01*
X57740306Y-69013557D01*
X57896831Y-69097222D01*
X57932569Y-69126552D01*
X58034026Y-69209814D01*
X58117288Y-69311271D01*
X58146618Y-69347009D01*
X58230283Y-69503534D01*
X58281803Y-69673373D01*
X58299199Y-69850000D01*
X58281803Y-70026627D01*
X58230283Y-70196466D01*
X58146618Y-70352991D01*
X58117288Y-70388729D01*
X58034026Y-70490186D01*
X57932569Y-70573448D01*
X57896831Y-70602778D01*
X57740306Y-70686443D01*
X57570467Y-70737963D01*
X57504283Y-70744481D01*
X57438100Y-70751000D01*
X57349580Y-70751000D01*
X57283397Y-70744481D01*
X57217213Y-70737963D01*
X57047374Y-70686443D01*
X56890849Y-70602778D01*
X56855111Y-70573448D01*
X56753654Y-70490186D01*
X56670392Y-70388729D01*
X56641062Y-70352991D01*
X56557397Y-70196466D01*
X56505877Y-70026627D01*
X56488481Y-69850000D01*
X56505877Y-69673373D01*
X56557397Y-69503534D01*
X56641062Y-69347009D01*
X56670392Y-69311271D01*
X56753654Y-69209814D01*
X56855111Y-69126552D01*
X56890849Y-69097222D01*
X57047374Y-69013557D01*
X57217213Y-68962037D01*
X57283397Y-68955519D01*
X57349580Y-68949000D01*
X57438100Y-68949000D01*
X57504283Y-68955519D01*
X57504283Y-68955519D01*
G37*
G36*
X52688443Y-68955519D02*
G01*
X52754627Y-68962037D01*
X52924466Y-69013557D01*
X53080991Y-69097222D01*
X53116729Y-69126552D01*
X53218186Y-69209814D01*
X53301448Y-69311271D01*
X53330778Y-69347009D01*
X53414443Y-69503534D01*
X53465963Y-69673373D01*
X53483359Y-69850000D01*
X53465963Y-70026627D01*
X53414443Y-70196466D01*
X53330778Y-70352991D01*
X53301448Y-70388729D01*
X53218186Y-70490186D01*
X53116729Y-70573448D01*
X53080991Y-70602778D01*
X52924466Y-70686443D01*
X52754627Y-70737963D01*
X52688443Y-70744481D01*
X52622260Y-70751000D01*
X52533740Y-70751000D01*
X52467557Y-70744481D01*
X52401373Y-70737963D01*
X52231534Y-70686443D01*
X52075009Y-70602778D01*
X52039271Y-70573448D01*
X51937814Y-70490186D01*
X51854552Y-70388729D01*
X51825222Y-70352991D01*
X51741557Y-70196466D01*
X51690037Y-70026627D01*
X51672641Y-69850000D01*
X51690037Y-69673373D01*
X51741557Y-69503534D01*
X51825222Y-69347009D01*
X51854552Y-69311271D01*
X51937814Y-69209814D01*
X52039271Y-69126552D01*
X52075009Y-69097222D01*
X52231534Y-69013557D01*
X52401373Y-68962037D01*
X52467557Y-68955519D01*
X52533740Y-68949000D01*
X52622260Y-68949000D01*
X52688443Y-68955519D01*
X52688443Y-68955519D01*
G37*
G36*
X75284283Y-68955519D02*
G01*
X75350467Y-68962037D01*
X75520306Y-69013557D01*
X75676831Y-69097222D01*
X75712569Y-69126552D01*
X75814026Y-69209814D01*
X75897288Y-69311271D01*
X75926618Y-69347009D01*
X76010283Y-69503534D01*
X76061803Y-69673373D01*
X76079199Y-69850000D01*
X76061803Y-70026627D01*
X76010283Y-70196466D01*
X75926618Y-70352991D01*
X75897288Y-70388729D01*
X75814026Y-70490186D01*
X75712569Y-70573448D01*
X75676831Y-70602778D01*
X75520306Y-70686443D01*
X75350467Y-70737963D01*
X75284283Y-70744481D01*
X75218100Y-70751000D01*
X75129580Y-70751000D01*
X75063397Y-70744481D01*
X74997213Y-70737963D01*
X74827374Y-70686443D01*
X74670849Y-70602778D01*
X74635111Y-70573448D01*
X74533654Y-70490186D01*
X74450392Y-70388729D01*
X74421062Y-70352991D01*
X74337397Y-70196466D01*
X74285877Y-70026627D01*
X74268481Y-69850000D01*
X74285877Y-69673373D01*
X74337397Y-69503534D01*
X74421062Y-69347009D01*
X74450392Y-69311271D01*
X74533654Y-69209814D01*
X74635111Y-69126552D01*
X74670849Y-69097222D01*
X74827374Y-69013557D01*
X74997213Y-68962037D01*
X75063397Y-68955519D01*
X75129580Y-68949000D01*
X75218100Y-68949000D01*
X75284283Y-68955519D01*
X75284283Y-68955519D01*
G37*
G36*
X58294840Y-68211000D02*
G01*
X56492840Y-68211000D01*
X56492840Y-66409000D01*
X58294840Y-66409000D01*
X58294840Y-68211000D01*
X58294840Y-68211000D01*
G37*
G36*
X76074840Y-68211000D02*
G01*
X74272840Y-68211000D01*
X74272840Y-66409000D01*
X76074840Y-66409000D01*
X76074840Y-68211000D01*
X76074840Y-68211000D01*
G37*
G36*
X53479000Y-68211000D02*
G01*
X51677000Y-68211000D01*
X51677000Y-66409000D01*
X53479000Y-66409000D01*
X53479000Y-68211000D01*
X53479000Y-68211000D01*
G37*
G36*
X57504282Y-63875518D02*
G01*
X57570467Y-63882037D01*
X57740306Y-63933557D01*
X57896831Y-64017222D01*
X57932569Y-64046552D01*
X58034026Y-64129814D01*
X58117288Y-64231271D01*
X58146618Y-64267009D01*
X58230283Y-64423534D01*
X58281803Y-64593373D01*
X58299199Y-64770000D01*
X58281803Y-64946627D01*
X58230283Y-65116466D01*
X58146618Y-65272991D01*
X58117288Y-65308729D01*
X58034026Y-65410186D01*
X57932569Y-65493448D01*
X57896831Y-65522778D01*
X57740306Y-65606443D01*
X57570467Y-65657963D01*
X57504282Y-65664482D01*
X57438100Y-65671000D01*
X57349580Y-65671000D01*
X57283398Y-65664482D01*
X57217213Y-65657963D01*
X57047374Y-65606443D01*
X56890849Y-65522778D01*
X56855111Y-65493448D01*
X56753654Y-65410186D01*
X56670392Y-65308729D01*
X56641062Y-65272991D01*
X56557397Y-65116466D01*
X56505877Y-64946627D01*
X56488481Y-64770000D01*
X56505877Y-64593373D01*
X56557397Y-64423534D01*
X56641062Y-64267009D01*
X56670392Y-64231271D01*
X56753654Y-64129814D01*
X56855111Y-64046552D01*
X56890849Y-64017222D01*
X57047374Y-63933557D01*
X57217213Y-63882037D01*
X57283398Y-63875518D01*
X57349580Y-63869000D01*
X57438100Y-63869000D01*
X57504282Y-63875518D01*
X57504282Y-63875518D01*
G37*
G36*
X66146000Y-65671000D02*
G01*
X64544000Y-65671000D01*
X64544000Y-63869000D01*
X66146000Y-63869000D01*
X66146000Y-65671000D01*
X66146000Y-65671000D01*
G37*
G36*
X52688442Y-63875518D02*
G01*
X52754627Y-63882037D01*
X52924466Y-63933557D01*
X53080991Y-64017222D01*
X53116729Y-64046552D01*
X53218186Y-64129814D01*
X53301448Y-64231271D01*
X53330778Y-64267009D01*
X53414443Y-64423534D01*
X53465963Y-64593373D01*
X53483359Y-64770000D01*
X53465963Y-64946627D01*
X53414443Y-65116466D01*
X53330778Y-65272991D01*
X53301448Y-65308729D01*
X53218186Y-65410186D01*
X53116729Y-65493448D01*
X53080991Y-65522778D01*
X52924466Y-65606443D01*
X52754627Y-65657963D01*
X52688442Y-65664482D01*
X52622260Y-65671000D01*
X52533740Y-65671000D01*
X52467558Y-65664482D01*
X52401373Y-65657963D01*
X52231534Y-65606443D01*
X52075009Y-65522778D01*
X52039271Y-65493448D01*
X51937814Y-65410186D01*
X51854552Y-65308729D01*
X51825222Y-65272991D01*
X51741557Y-65116466D01*
X51690037Y-64946627D01*
X51672641Y-64770000D01*
X51690037Y-64593373D01*
X51741557Y-64423534D01*
X51825222Y-64267009D01*
X51854552Y-64231271D01*
X51937814Y-64129814D01*
X52039271Y-64046552D01*
X52075009Y-64017222D01*
X52231534Y-63933557D01*
X52401373Y-63882037D01*
X52467558Y-63875518D01*
X52533740Y-63869000D01*
X52622260Y-63869000D01*
X52688442Y-63875518D01*
X52688442Y-63875518D01*
G37*
G36*
X75284282Y-63875518D02*
G01*
X75350467Y-63882037D01*
X75520306Y-63933557D01*
X75676831Y-64017222D01*
X75712569Y-64046552D01*
X75814026Y-64129814D01*
X75897288Y-64231271D01*
X75926618Y-64267009D01*
X76010283Y-64423534D01*
X76061803Y-64593373D01*
X76079199Y-64770000D01*
X76061803Y-64946627D01*
X76010283Y-65116466D01*
X75926618Y-65272991D01*
X75897288Y-65308729D01*
X75814026Y-65410186D01*
X75712569Y-65493448D01*
X75676831Y-65522778D01*
X75520306Y-65606443D01*
X75350467Y-65657963D01*
X75284282Y-65664482D01*
X75218100Y-65671000D01*
X75129580Y-65671000D01*
X75063398Y-65664482D01*
X74997213Y-65657963D01*
X74827374Y-65606443D01*
X74670849Y-65522778D01*
X74635111Y-65493448D01*
X74533654Y-65410186D01*
X74450392Y-65308729D01*
X74421062Y-65272991D01*
X74337397Y-65116466D01*
X74285877Y-64946627D01*
X74268481Y-64770000D01*
X74285877Y-64593373D01*
X74337397Y-64423534D01*
X74421062Y-64267009D01*
X74450392Y-64231271D01*
X74533654Y-64129814D01*
X74635111Y-64046552D01*
X74670849Y-64017222D01*
X74827374Y-63933557D01*
X74997213Y-63882037D01*
X75063398Y-63875518D01*
X75129580Y-63869000D01*
X75218100Y-63869000D01*
X75284282Y-63875518D01*
X75284282Y-63875518D01*
G37*
G36*
X68806000Y-65671000D02*
G01*
X67204000Y-65671000D01*
X67204000Y-63869000D01*
X68806000Y-63869000D01*
X68806000Y-65671000D01*
X68806000Y-65671000D01*
G37*
G36*
X61193000Y-63131000D02*
G01*
X59591000Y-63131000D01*
X59591000Y-61329000D01*
X61193000Y-61329000D01*
X61193000Y-63131000D01*
X61193000Y-63131000D01*
G37*
G36*
X52688443Y-61335519D02*
G01*
X52754627Y-61342037D01*
X52924466Y-61393557D01*
X53080991Y-61477222D01*
X53116729Y-61506552D01*
X53218186Y-61589814D01*
X53301448Y-61691271D01*
X53330778Y-61727009D01*
X53414443Y-61883534D01*
X53465963Y-62053373D01*
X53483359Y-62230000D01*
X53465963Y-62406627D01*
X53414443Y-62576466D01*
X53330778Y-62732991D01*
X53301448Y-62768729D01*
X53218186Y-62870186D01*
X53116729Y-62953448D01*
X53080991Y-62982778D01*
X52924466Y-63066443D01*
X52754627Y-63117963D01*
X52688443Y-63124481D01*
X52622260Y-63131000D01*
X52533740Y-63131000D01*
X52467557Y-63124481D01*
X52401373Y-63117963D01*
X52231534Y-63066443D01*
X52075009Y-62982778D01*
X52039271Y-62953448D01*
X51937814Y-62870186D01*
X51854552Y-62768729D01*
X51825222Y-62732991D01*
X51741557Y-62576466D01*
X51690037Y-62406627D01*
X51672641Y-62230000D01*
X51690037Y-62053373D01*
X51741557Y-61883534D01*
X51825222Y-61727009D01*
X51854552Y-61691271D01*
X51937814Y-61589814D01*
X52039271Y-61506552D01*
X52075009Y-61477222D01*
X52231534Y-61393557D01*
X52401373Y-61342037D01*
X52467557Y-61335519D01*
X52533740Y-61329000D01*
X52622260Y-61329000D01*
X52688443Y-61335519D01*
X52688443Y-61335519D01*
G37*
G36*
X75284283Y-61335519D02*
G01*
X75350467Y-61342037D01*
X75520306Y-61393557D01*
X75676831Y-61477222D01*
X75712569Y-61506552D01*
X75814026Y-61589814D01*
X75897288Y-61691271D01*
X75926618Y-61727009D01*
X76010283Y-61883534D01*
X76061803Y-62053373D01*
X76079199Y-62230000D01*
X76061803Y-62406627D01*
X76010283Y-62576466D01*
X75926618Y-62732991D01*
X75897288Y-62768729D01*
X75814026Y-62870186D01*
X75712569Y-62953448D01*
X75676831Y-62982778D01*
X75520306Y-63066443D01*
X75350467Y-63117963D01*
X75284283Y-63124481D01*
X75218100Y-63131000D01*
X75129580Y-63131000D01*
X75063397Y-63124481D01*
X74997213Y-63117963D01*
X74827374Y-63066443D01*
X74670849Y-62982778D01*
X74635111Y-62953448D01*
X74533654Y-62870186D01*
X74450392Y-62768729D01*
X74421062Y-62732991D01*
X74337397Y-62576466D01*
X74285877Y-62406627D01*
X74268481Y-62230000D01*
X74285877Y-62053373D01*
X74337397Y-61883534D01*
X74421062Y-61727009D01*
X74450392Y-61691271D01*
X74533654Y-61589814D01*
X74635111Y-61506552D01*
X74670849Y-61477222D01*
X74827374Y-61393557D01*
X74997213Y-61342037D01*
X75063397Y-61335519D01*
X75129580Y-61329000D01*
X75218100Y-61329000D01*
X75284283Y-61335519D01*
X75284283Y-61335519D01*
G37*
G36*
X57504283Y-61335519D02*
G01*
X57570467Y-61342037D01*
X57740306Y-61393557D01*
X57896831Y-61477222D01*
X57932569Y-61506552D01*
X58034026Y-61589814D01*
X58117288Y-61691271D01*
X58146618Y-61727009D01*
X58230283Y-61883534D01*
X58281803Y-62053373D01*
X58299199Y-62230000D01*
X58281803Y-62406627D01*
X58230283Y-62576466D01*
X58146618Y-62732991D01*
X58117288Y-62768729D01*
X58034026Y-62870186D01*
X57932569Y-62953448D01*
X57896831Y-62982778D01*
X57740306Y-63066443D01*
X57570467Y-63117963D01*
X57504283Y-63124481D01*
X57438100Y-63131000D01*
X57349580Y-63131000D01*
X57283397Y-63124481D01*
X57217213Y-63117963D01*
X57047374Y-63066443D01*
X56890849Y-62982778D01*
X56855111Y-62953448D01*
X56753654Y-62870186D01*
X56670392Y-62768729D01*
X56641062Y-62732991D01*
X56557397Y-62576466D01*
X56505877Y-62406627D01*
X56488481Y-62230000D01*
X56505877Y-62053373D01*
X56557397Y-61883534D01*
X56641062Y-61727009D01*
X56670392Y-61691271D01*
X56753654Y-61589814D01*
X56855111Y-61506552D01*
X56890849Y-61477222D01*
X57047374Y-61393557D01*
X57217213Y-61342037D01*
X57283397Y-61335519D01*
X57349580Y-61329000D01*
X57438100Y-61329000D01*
X57504283Y-61335519D01*
X57504283Y-61335519D01*
G37*
G36*
X63853000Y-63131000D02*
G01*
X62251000Y-63131000D01*
X62251000Y-61329000D01*
X63853000Y-61329000D01*
X63853000Y-63131000D01*
X63853000Y-63131000D01*
G37*
G36*
X66146000Y-60591000D02*
G01*
X64544000Y-60591000D01*
X64544000Y-58789000D01*
X66146000Y-58789000D01*
X66146000Y-60591000D01*
X66146000Y-60591000D01*
G37*
G36*
X52688442Y-58795518D02*
G01*
X52754627Y-58802037D01*
X52924466Y-58853557D01*
X53080991Y-58937222D01*
X53116729Y-58966552D01*
X53218186Y-59049814D01*
X53301448Y-59151271D01*
X53330778Y-59187009D01*
X53414443Y-59343534D01*
X53465963Y-59513373D01*
X53483359Y-59690000D01*
X53465963Y-59866627D01*
X53414443Y-60036466D01*
X53330778Y-60192991D01*
X53301448Y-60228729D01*
X53218186Y-60330186D01*
X53116729Y-60413448D01*
X53080991Y-60442778D01*
X52924466Y-60526443D01*
X52754627Y-60577963D01*
X52688443Y-60584481D01*
X52622260Y-60591000D01*
X52533740Y-60591000D01*
X52467557Y-60584481D01*
X52401373Y-60577963D01*
X52231534Y-60526443D01*
X52075009Y-60442778D01*
X52039271Y-60413448D01*
X51937814Y-60330186D01*
X51854552Y-60228729D01*
X51825222Y-60192991D01*
X51741557Y-60036466D01*
X51690037Y-59866627D01*
X51672641Y-59690000D01*
X51690037Y-59513373D01*
X51741557Y-59343534D01*
X51825222Y-59187009D01*
X51854552Y-59151271D01*
X51937814Y-59049814D01*
X52039271Y-58966552D01*
X52075009Y-58937222D01*
X52231534Y-58853557D01*
X52401373Y-58802037D01*
X52467558Y-58795518D01*
X52533740Y-58789000D01*
X52622260Y-58789000D01*
X52688442Y-58795518D01*
X52688442Y-58795518D01*
G37*
G36*
X75284282Y-58795518D02*
G01*
X75350467Y-58802037D01*
X75520306Y-58853557D01*
X75676831Y-58937222D01*
X75712569Y-58966552D01*
X75814026Y-59049814D01*
X75897288Y-59151271D01*
X75926618Y-59187009D01*
X76010283Y-59343534D01*
X76061803Y-59513373D01*
X76079199Y-59690000D01*
X76061803Y-59866627D01*
X76010283Y-60036466D01*
X75926618Y-60192991D01*
X75897288Y-60228729D01*
X75814026Y-60330186D01*
X75712569Y-60413448D01*
X75676831Y-60442778D01*
X75520306Y-60526443D01*
X75350467Y-60577963D01*
X75284283Y-60584481D01*
X75218100Y-60591000D01*
X75129580Y-60591000D01*
X75063397Y-60584481D01*
X74997213Y-60577963D01*
X74827374Y-60526443D01*
X74670849Y-60442778D01*
X74635111Y-60413448D01*
X74533654Y-60330186D01*
X74450392Y-60228729D01*
X74421062Y-60192991D01*
X74337397Y-60036466D01*
X74285877Y-59866627D01*
X74268481Y-59690000D01*
X74285877Y-59513373D01*
X74337397Y-59343534D01*
X74421062Y-59187009D01*
X74450392Y-59151271D01*
X74533654Y-59049814D01*
X74635111Y-58966552D01*
X74670849Y-58937222D01*
X74827374Y-58853557D01*
X74997213Y-58802037D01*
X75063398Y-58795518D01*
X75129580Y-58789000D01*
X75218100Y-58789000D01*
X75284282Y-58795518D01*
X75284282Y-58795518D01*
G37*
G36*
X68806000Y-60591000D02*
G01*
X67204000Y-60591000D01*
X67204000Y-58789000D01*
X68806000Y-58789000D01*
X68806000Y-60591000D01*
X68806000Y-60591000D01*
G37*
G36*
X57504282Y-58795518D02*
G01*
X57570467Y-58802037D01*
X57740306Y-58853557D01*
X57896831Y-58937222D01*
X57932569Y-58966552D01*
X58034026Y-59049814D01*
X58117288Y-59151271D01*
X58146618Y-59187009D01*
X58230283Y-59343534D01*
X58281803Y-59513373D01*
X58299199Y-59690000D01*
X58281803Y-59866627D01*
X58230283Y-60036466D01*
X58146618Y-60192991D01*
X58117288Y-60228729D01*
X58034026Y-60330186D01*
X57932569Y-60413448D01*
X57896831Y-60442778D01*
X57740306Y-60526443D01*
X57570467Y-60577963D01*
X57504283Y-60584481D01*
X57438100Y-60591000D01*
X57349580Y-60591000D01*
X57283397Y-60584481D01*
X57217213Y-60577963D01*
X57047374Y-60526443D01*
X56890849Y-60442778D01*
X56855111Y-60413448D01*
X56753654Y-60330186D01*
X56670392Y-60228729D01*
X56641062Y-60192991D01*
X56557397Y-60036466D01*
X56505877Y-59866627D01*
X56488481Y-59690000D01*
X56505877Y-59513373D01*
X56557397Y-59343534D01*
X56641062Y-59187009D01*
X56670392Y-59151271D01*
X56753654Y-59049814D01*
X56855111Y-58966552D01*
X56890849Y-58937222D01*
X57047374Y-58853557D01*
X57217213Y-58802037D01*
X57283398Y-58795518D01*
X57349580Y-58789000D01*
X57438100Y-58789000D01*
X57504282Y-58795518D01*
X57504282Y-58795518D01*
G37*
G36*
X57504283Y-56255519D02*
G01*
X57570467Y-56262037D01*
X57740306Y-56313557D01*
X57896831Y-56397222D01*
X57932569Y-56426552D01*
X58034026Y-56509814D01*
X58117288Y-56611271D01*
X58146618Y-56647009D01*
X58230283Y-56803534D01*
X58281803Y-56973373D01*
X58299199Y-57150000D01*
X58281803Y-57326627D01*
X58230283Y-57496466D01*
X58146618Y-57652991D01*
X58117288Y-57688729D01*
X58034026Y-57790186D01*
X57932569Y-57873448D01*
X57896831Y-57902778D01*
X57740306Y-57986443D01*
X57570467Y-58037963D01*
X57504282Y-58044482D01*
X57438100Y-58051000D01*
X57349580Y-58051000D01*
X57283398Y-58044482D01*
X57217213Y-58037963D01*
X57047374Y-57986443D01*
X56890849Y-57902778D01*
X56855111Y-57873448D01*
X56753654Y-57790186D01*
X56670392Y-57688729D01*
X56641062Y-57652991D01*
X56557397Y-57496466D01*
X56505877Y-57326627D01*
X56488481Y-57150000D01*
X56505877Y-56973373D01*
X56557397Y-56803534D01*
X56641062Y-56647009D01*
X56670392Y-56611271D01*
X56753654Y-56509814D01*
X56855111Y-56426552D01*
X56890849Y-56397222D01*
X57047374Y-56313557D01*
X57217213Y-56262037D01*
X57283397Y-56255519D01*
X57349580Y-56249000D01*
X57438100Y-56249000D01*
X57504283Y-56255519D01*
X57504283Y-56255519D01*
G37*
G36*
X63853000Y-58051000D02*
G01*
X62251000Y-58051000D01*
X62251000Y-56249000D01*
X63853000Y-56249000D01*
X63853000Y-58051000D01*
X63853000Y-58051000D01*
G37*
G36*
X52688443Y-56255519D02*
G01*
X52754627Y-56262037D01*
X52924466Y-56313557D01*
X53080991Y-56397222D01*
X53116729Y-56426552D01*
X53218186Y-56509814D01*
X53301448Y-56611271D01*
X53330778Y-56647009D01*
X53414443Y-56803534D01*
X53465963Y-56973373D01*
X53483359Y-57150000D01*
X53465963Y-57326627D01*
X53414443Y-57496466D01*
X53330778Y-57652991D01*
X53301448Y-57688729D01*
X53218186Y-57790186D01*
X53116729Y-57873448D01*
X53080991Y-57902778D01*
X52924466Y-57986443D01*
X52754627Y-58037963D01*
X52688442Y-58044482D01*
X52622260Y-58051000D01*
X52533740Y-58051000D01*
X52467558Y-58044482D01*
X52401373Y-58037963D01*
X52231534Y-57986443D01*
X52075009Y-57902778D01*
X52039271Y-57873448D01*
X51937814Y-57790186D01*
X51854552Y-57688729D01*
X51825222Y-57652991D01*
X51741557Y-57496466D01*
X51690037Y-57326627D01*
X51672641Y-57150000D01*
X51690037Y-56973373D01*
X51741557Y-56803534D01*
X51825222Y-56647009D01*
X51854552Y-56611271D01*
X51937814Y-56509814D01*
X52039271Y-56426552D01*
X52075009Y-56397222D01*
X52231534Y-56313557D01*
X52401373Y-56262037D01*
X52467557Y-56255519D01*
X52533740Y-56249000D01*
X52622260Y-56249000D01*
X52688443Y-56255519D01*
X52688443Y-56255519D01*
G37*
G36*
X61193000Y-58051000D02*
G01*
X59591000Y-58051000D01*
X59591000Y-56249000D01*
X61193000Y-56249000D01*
X61193000Y-58051000D01*
X61193000Y-58051000D01*
G37*
G36*
X75284283Y-56255519D02*
G01*
X75350467Y-56262037D01*
X75520306Y-56313557D01*
X75676831Y-56397222D01*
X75712569Y-56426552D01*
X75814026Y-56509814D01*
X75897288Y-56611271D01*
X75926618Y-56647009D01*
X76010283Y-56803534D01*
X76061803Y-56973373D01*
X76079199Y-57150000D01*
X76061803Y-57326627D01*
X76010283Y-57496466D01*
X75926618Y-57652991D01*
X75897288Y-57688729D01*
X75814026Y-57790186D01*
X75712569Y-57873448D01*
X75676831Y-57902778D01*
X75520306Y-57986443D01*
X75350467Y-58037963D01*
X75284282Y-58044482D01*
X75218100Y-58051000D01*
X75129580Y-58051000D01*
X75063398Y-58044482D01*
X74997213Y-58037963D01*
X74827374Y-57986443D01*
X74670849Y-57902778D01*
X74635111Y-57873448D01*
X74533654Y-57790186D01*
X74450392Y-57688729D01*
X74421062Y-57652991D01*
X74337397Y-57496466D01*
X74285877Y-57326627D01*
X74268481Y-57150000D01*
X74285877Y-56973373D01*
X74337397Y-56803534D01*
X74421062Y-56647009D01*
X74450392Y-56611271D01*
X74533654Y-56509814D01*
X74635111Y-56426552D01*
X74670849Y-56397222D01*
X74827374Y-56313557D01*
X74997213Y-56262037D01*
X75063397Y-56255519D01*
X75129580Y-56249000D01*
X75218100Y-56249000D01*
X75284283Y-56255519D01*
X75284283Y-56255519D01*
G37*
G36*
X76074840Y-55511000D02*
G01*
X74272840Y-55511000D01*
X74272840Y-53709000D01*
X76074840Y-53709000D01*
X76074840Y-55511000D01*
X76074840Y-55511000D01*
G37*
G36*
X58294840Y-55511000D02*
G01*
X56492840Y-55511000D01*
X56492840Y-53709000D01*
X58294840Y-53709000D01*
X58294840Y-55511000D01*
X58294840Y-55511000D01*
G37*
G36*
X52688442Y-53715518D02*
G01*
X52754627Y-53722037D01*
X52924466Y-53773557D01*
X53080991Y-53857222D01*
X53116729Y-53886552D01*
X53218186Y-53969814D01*
X53301448Y-54071271D01*
X53330778Y-54107009D01*
X53414443Y-54263534D01*
X53465963Y-54433373D01*
X53483359Y-54610000D01*
X53465963Y-54786627D01*
X53414443Y-54956466D01*
X53330778Y-55112991D01*
X53301448Y-55148729D01*
X53218186Y-55250186D01*
X53116729Y-55333448D01*
X53080991Y-55362778D01*
X52924466Y-55446443D01*
X52754627Y-55497963D01*
X52688442Y-55504482D01*
X52622260Y-55511000D01*
X52533740Y-55511000D01*
X52467558Y-55504482D01*
X52401373Y-55497963D01*
X52231534Y-55446443D01*
X52075009Y-55362778D01*
X52039271Y-55333448D01*
X51937814Y-55250186D01*
X51854552Y-55148729D01*
X51825222Y-55112991D01*
X51741557Y-54956466D01*
X51690037Y-54786627D01*
X51672641Y-54610000D01*
X51690037Y-54433373D01*
X51741557Y-54263534D01*
X51825222Y-54107009D01*
X51854552Y-54071271D01*
X51937814Y-53969814D01*
X52039271Y-53886552D01*
X52075009Y-53857222D01*
X52231534Y-53773557D01*
X52401373Y-53722037D01*
X52467558Y-53715518D01*
X52533740Y-53709000D01*
X52622260Y-53709000D01*
X52688442Y-53715518D01*
X52688442Y-53715518D01*
G37*
G36*
X57504283Y-51175519D02*
G01*
X57570467Y-51182037D01*
X57740306Y-51233557D01*
X57896831Y-51317222D01*
X57932569Y-51346552D01*
X58034026Y-51429814D01*
X58117288Y-51531271D01*
X58146618Y-51567009D01*
X58230283Y-51723534D01*
X58281803Y-51893373D01*
X58299199Y-52070000D01*
X58281803Y-52246627D01*
X58230283Y-52416466D01*
X58146618Y-52572991D01*
X58117288Y-52608729D01*
X58034026Y-52710186D01*
X57932569Y-52793448D01*
X57896831Y-52822778D01*
X57740306Y-52906443D01*
X57570467Y-52957963D01*
X57504282Y-52964482D01*
X57438100Y-52971000D01*
X57349580Y-52971000D01*
X57283398Y-52964482D01*
X57217213Y-52957963D01*
X57047374Y-52906443D01*
X56890849Y-52822778D01*
X56855111Y-52793448D01*
X56753654Y-52710186D01*
X56670392Y-52608729D01*
X56641062Y-52572991D01*
X56557397Y-52416466D01*
X56505877Y-52246627D01*
X56488481Y-52070000D01*
X56505877Y-51893373D01*
X56557397Y-51723534D01*
X56641062Y-51567009D01*
X56670392Y-51531271D01*
X56753654Y-51429814D01*
X56855111Y-51346552D01*
X56890849Y-51317222D01*
X57047374Y-51233557D01*
X57217213Y-51182037D01*
X57283397Y-51175519D01*
X57349580Y-51169000D01*
X57438100Y-51169000D01*
X57504283Y-51175519D01*
X57504283Y-51175519D01*
G37*
G36*
X68806000Y-52971000D02*
G01*
X67204000Y-52971000D01*
X67204000Y-51169000D01*
X68806000Y-51169000D01*
X68806000Y-52971000D01*
X68806000Y-52971000D01*
G37*
G36*
X75284283Y-51175519D02*
G01*
X75350467Y-51182037D01*
X75520306Y-51233557D01*
X75676831Y-51317222D01*
X75712569Y-51346552D01*
X75814026Y-51429814D01*
X75897288Y-51531271D01*
X75926618Y-51567009D01*
X76010283Y-51723534D01*
X76061803Y-51893373D01*
X76079199Y-52070000D01*
X76061803Y-52246627D01*
X76010283Y-52416466D01*
X75926618Y-52572991D01*
X75897288Y-52608729D01*
X75814026Y-52710186D01*
X75712569Y-52793448D01*
X75676831Y-52822778D01*
X75520306Y-52906443D01*
X75350467Y-52957963D01*
X75284282Y-52964482D01*
X75218100Y-52971000D01*
X75129580Y-52971000D01*
X75063398Y-52964482D01*
X74997213Y-52957963D01*
X74827374Y-52906443D01*
X74670849Y-52822778D01*
X74635111Y-52793448D01*
X74533654Y-52710186D01*
X74450392Y-52608729D01*
X74421062Y-52572991D01*
X74337397Y-52416466D01*
X74285877Y-52246627D01*
X74268481Y-52070000D01*
X74285877Y-51893373D01*
X74337397Y-51723534D01*
X74421062Y-51567009D01*
X74450392Y-51531271D01*
X74533654Y-51429814D01*
X74635111Y-51346552D01*
X74670849Y-51317222D01*
X74827374Y-51233557D01*
X74997213Y-51182037D01*
X75063397Y-51175519D01*
X75129580Y-51169000D01*
X75218100Y-51169000D01*
X75284283Y-51175519D01*
X75284283Y-51175519D01*
G37*
G36*
X66146000Y-52971000D02*
G01*
X64544000Y-52971000D01*
X64544000Y-51169000D01*
X66146000Y-51169000D01*
X66146000Y-52971000D01*
X66146000Y-52971000D01*
G37*
G36*
X52688443Y-51175519D02*
G01*
X52754627Y-51182037D01*
X52924466Y-51233557D01*
X53080991Y-51317222D01*
X53116729Y-51346552D01*
X53218186Y-51429814D01*
X53301448Y-51531271D01*
X53330778Y-51567009D01*
X53414443Y-51723534D01*
X53465963Y-51893373D01*
X53483359Y-52070000D01*
X53465963Y-52246627D01*
X53414443Y-52416466D01*
X53330778Y-52572991D01*
X53301448Y-52608729D01*
X53218186Y-52710186D01*
X53116729Y-52793448D01*
X53080991Y-52822778D01*
X52924466Y-52906443D01*
X52754627Y-52957963D01*
X52688442Y-52964482D01*
X52622260Y-52971000D01*
X52533740Y-52971000D01*
X52467558Y-52964482D01*
X52401373Y-52957963D01*
X52231534Y-52906443D01*
X52075009Y-52822778D01*
X52039271Y-52793448D01*
X51937814Y-52710186D01*
X51854552Y-52608729D01*
X51825222Y-52572991D01*
X51741557Y-52416466D01*
X51690037Y-52246627D01*
X51672641Y-52070000D01*
X51690037Y-51893373D01*
X51741557Y-51723534D01*
X51825222Y-51567009D01*
X51854552Y-51531271D01*
X51937814Y-51429814D01*
X52039271Y-51346552D01*
X52075009Y-51317222D01*
X52231534Y-51233557D01*
X52401373Y-51182037D01*
X52467557Y-51175519D01*
X52533740Y-51169000D01*
X52622260Y-51169000D01*
X52688443Y-51175519D01*
X52688443Y-51175519D01*
G37*
G36*
X63853000Y-50431000D02*
G01*
X62251000Y-50431000D01*
X62251000Y-48629000D01*
X63853000Y-48629000D01*
X63853000Y-50431000D01*
X63853000Y-50431000D01*
G37*
G36*
X75284283Y-48635519D02*
G01*
X75350467Y-48642037D01*
X75520306Y-48693557D01*
X75676831Y-48777222D01*
X75712569Y-48806552D01*
X75814026Y-48889814D01*
X75897288Y-48991271D01*
X75926618Y-49027009D01*
X76010283Y-49183534D01*
X76061803Y-49353373D01*
X76079199Y-49530000D01*
X76061803Y-49706627D01*
X76010283Y-49876466D01*
X75926618Y-50032991D01*
X75897288Y-50068729D01*
X75814026Y-50170186D01*
X75712569Y-50253448D01*
X75676831Y-50282778D01*
X75520306Y-50366443D01*
X75350467Y-50417963D01*
X75284283Y-50424481D01*
X75218100Y-50431000D01*
X75129580Y-50431000D01*
X75063398Y-50424482D01*
X74997213Y-50417963D01*
X74827374Y-50366443D01*
X74670849Y-50282778D01*
X74635111Y-50253448D01*
X74533654Y-50170186D01*
X74450392Y-50068729D01*
X74421062Y-50032991D01*
X74337397Y-49876466D01*
X74285877Y-49706627D01*
X74268481Y-49530000D01*
X74285877Y-49353373D01*
X74337397Y-49183534D01*
X74421062Y-49027009D01*
X74450392Y-48991271D01*
X74533654Y-48889814D01*
X74635111Y-48806552D01*
X74670849Y-48777222D01*
X74827374Y-48693557D01*
X74997213Y-48642037D01*
X75063397Y-48635519D01*
X75129580Y-48629000D01*
X75218100Y-48629000D01*
X75284283Y-48635519D01*
X75284283Y-48635519D01*
G37*
G36*
X57504283Y-48635519D02*
G01*
X57570467Y-48642037D01*
X57740306Y-48693557D01*
X57896831Y-48777222D01*
X57932569Y-48806552D01*
X58034026Y-48889814D01*
X58117288Y-48991271D01*
X58146618Y-49027009D01*
X58230283Y-49183534D01*
X58281803Y-49353373D01*
X58299199Y-49530000D01*
X58281803Y-49706627D01*
X58230283Y-49876466D01*
X58146618Y-50032991D01*
X58117288Y-50068729D01*
X58034026Y-50170186D01*
X57932569Y-50253448D01*
X57896831Y-50282778D01*
X57740306Y-50366443D01*
X57570467Y-50417963D01*
X57504283Y-50424481D01*
X57438100Y-50431000D01*
X57349580Y-50431000D01*
X57283398Y-50424482D01*
X57217213Y-50417963D01*
X57047374Y-50366443D01*
X56890849Y-50282778D01*
X56855111Y-50253448D01*
X56753654Y-50170186D01*
X56670392Y-50068729D01*
X56641062Y-50032991D01*
X56557397Y-49876466D01*
X56505877Y-49706627D01*
X56488481Y-49530000D01*
X56505877Y-49353373D01*
X56557397Y-49183534D01*
X56641062Y-49027009D01*
X56670392Y-48991271D01*
X56753654Y-48889814D01*
X56855111Y-48806552D01*
X56890849Y-48777222D01*
X57047374Y-48693557D01*
X57217213Y-48642037D01*
X57283397Y-48635519D01*
X57349580Y-48629000D01*
X57438100Y-48629000D01*
X57504283Y-48635519D01*
X57504283Y-48635519D01*
G37*
G36*
X61193000Y-50431000D02*
G01*
X59591000Y-50431000D01*
X59591000Y-48629000D01*
X61193000Y-48629000D01*
X61193000Y-50431000D01*
X61193000Y-50431000D01*
G37*
G36*
X52688443Y-48635519D02*
G01*
X52754627Y-48642037D01*
X52924466Y-48693557D01*
X53080991Y-48777222D01*
X53116729Y-48806552D01*
X53218186Y-48889814D01*
X53301448Y-48991271D01*
X53330778Y-49027009D01*
X53414443Y-49183534D01*
X53465963Y-49353373D01*
X53483359Y-49530000D01*
X53465963Y-49706627D01*
X53414443Y-49876466D01*
X53330778Y-50032991D01*
X53301448Y-50068729D01*
X53218186Y-50170186D01*
X53116729Y-50253448D01*
X53080991Y-50282778D01*
X52924466Y-50366443D01*
X52754627Y-50417963D01*
X52688443Y-50424481D01*
X52622260Y-50431000D01*
X52533740Y-50431000D01*
X52467558Y-50424482D01*
X52401373Y-50417963D01*
X52231534Y-50366443D01*
X52075009Y-50282778D01*
X52039271Y-50253448D01*
X51937814Y-50170186D01*
X51854552Y-50068729D01*
X51825222Y-50032991D01*
X51741557Y-49876466D01*
X51690037Y-49706627D01*
X51672641Y-49530000D01*
X51690037Y-49353373D01*
X51741557Y-49183534D01*
X51825222Y-49027009D01*
X51854552Y-48991271D01*
X51937814Y-48889814D01*
X52039271Y-48806552D01*
X52075009Y-48777222D01*
X52231534Y-48693557D01*
X52401373Y-48642037D01*
X52467557Y-48635519D01*
X52533740Y-48629000D01*
X52622260Y-48629000D01*
X52688443Y-48635519D01*
X52688443Y-48635519D01*
G37*
G36*
X75284282Y-46095518D02*
G01*
X75350467Y-46102037D01*
X75520306Y-46153557D01*
X75676831Y-46237222D01*
X75712569Y-46266552D01*
X75814026Y-46349814D01*
X75897288Y-46451271D01*
X75926618Y-46487009D01*
X76010283Y-46643534D01*
X76061803Y-46813373D01*
X76079199Y-46990000D01*
X76061803Y-47166627D01*
X76010283Y-47336466D01*
X75926618Y-47492991D01*
X75897288Y-47528729D01*
X75814026Y-47630186D01*
X75712569Y-47713448D01*
X75676831Y-47742778D01*
X75520306Y-47826443D01*
X75350467Y-47877963D01*
X75284283Y-47884481D01*
X75218100Y-47891000D01*
X75129580Y-47891000D01*
X75063397Y-47884481D01*
X74997213Y-47877963D01*
X74827374Y-47826443D01*
X74670849Y-47742778D01*
X74635111Y-47713448D01*
X74533654Y-47630186D01*
X74450392Y-47528729D01*
X74421062Y-47492991D01*
X74337397Y-47336466D01*
X74285877Y-47166627D01*
X74268481Y-46990000D01*
X74285877Y-46813373D01*
X74337397Y-46643534D01*
X74421062Y-46487009D01*
X74450392Y-46451271D01*
X74533654Y-46349814D01*
X74635111Y-46266552D01*
X74670849Y-46237222D01*
X74827374Y-46153557D01*
X74997213Y-46102037D01*
X75063398Y-46095518D01*
X75129580Y-46089000D01*
X75218100Y-46089000D01*
X75284282Y-46095518D01*
X75284282Y-46095518D01*
G37*
G36*
X57504282Y-46095518D02*
G01*
X57570467Y-46102037D01*
X57740306Y-46153557D01*
X57896831Y-46237222D01*
X57932569Y-46266552D01*
X58034026Y-46349814D01*
X58117288Y-46451271D01*
X58146618Y-46487009D01*
X58230283Y-46643534D01*
X58281803Y-46813373D01*
X58299199Y-46990000D01*
X58281803Y-47166627D01*
X58230283Y-47336466D01*
X58146618Y-47492991D01*
X58117288Y-47528729D01*
X58034026Y-47630186D01*
X57932569Y-47713448D01*
X57896831Y-47742778D01*
X57740306Y-47826443D01*
X57570467Y-47877963D01*
X57504283Y-47884481D01*
X57438100Y-47891000D01*
X57349580Y-47891000D01*
X57283397Y-47884481D01*
X57217213Y-47877963D01*
X57047374Y-47826443D01*
X56890849Y-47742778D01*
X56855111Y-47713448D01*
X56753654Y-47630186D01*
X56670392Y-47528729D01*
X56641062Y-47492991D01*
X56557397Y-47336466D01*
X56505877Y-47166627D01*
X56488481Y-46990000D01*
X56505877Y-46813373D01*
X56557397Y-46643534D01*
X56641062Y-46487009D01*
X56670392Y-46451271D01*
X56753654Y-46349814D01*
X56855111Y-46266552D01*
X56890849Y-46237222D01*
X57047374Y-46153557D01*
X57217213Y-46102037D01*
X57283398Y-46095518D01*
X57349580Y-46089000D01*
X57438100Y-46089000D01*
X57504282Y-46095518D01*
X57504282Y-46095518D01*
G37*
G36*
X66206000Y-47891000D02*
G01*
X64604000Y-47891000D01*
X64604000Y-46089000D01*
X66206000Y-46089000D01*
X66206000Y-47891000D01*
X66206000Y-47891000D01*
G37*
G36*
X68866000Y-47891000D02*
G01*
X67264000Y-47891000D01*
X67264000Y-46089000D01*
X68866000Y-46089000D01*
X68866000Y-47891000D01*
X68866000Y-47891000D01*
G37*
G36*
X52688442Y-46095518D02*
G01*
X52754627Y-46102037D01*
X52924466Y-46153557D01*
X53080991Y-46237222D01*
X53116729Y-46266552D01*
X53218186Y-46349814D01*
X53301448Y-46451271D01*
X53330778Y-46487009D01*
X53414443Y-46643534D01*
X53465963Y-46813373D01*
X53483359Y-46990000D01*
X53465963Y-47166627D01*
X53414443Y-47336466D01*
X53330778Y-47492991D01*
X53301448Y-47528729D01*
X53218186Y-47630186D01*
X53116729Y-47713448D01*
X53080991Y-47742778D01*
X52924466Y-47826443D01*
X52754627Y-47877963D01*
X52688443Y-47884481D01*
X52622260Y-47891000D01*
X52533740Y-47891000D01*
X52467557Y-47884481D01*
X52401373Y-47877963D01*
X52231534Y-47826443D01*
X52075009Y-47742778D01*
X52039271Y-47713448D01*
X51937814Y-47630186D01*
X51854552Y-47528729D01*
X51825222Y-47492991D01*
X51741557Y-47336466D01*
X51690037Y-47166627D01*
X51672641Y-46990000D01*
X51690037Y-46813373D01*
X51741557Y-46643534D01*
X51825222Y-46487009D01*
X51854552Y-46451271D01*
X51937814Y-46349814D01*
X52039271Y-46266552D01*
X52075009Y-46237222D01*
X52231534Y-46153557D01*
X52401373Y-46102037D01*
X52467558Y-46095518D01*
X52533740Y-46089000D01*
X52622260Y-46089000D01*
X52688442Y-46095518D01*
X52688442Y-46095518D01*
G37*
G36*
X52688443Y-43555519D02*
G01*
X52754627Y-43562037D01*
X52924466Y-43613557D01*
X53080991Y-43697222D01*
X53116729Y-43726552D01*
X53218186Y-43809814D01*
X53301448Y-43911271D01*
X53330778Y-43947009D01*
X53414443Y-44103534D01*
X53465963Y-44273373D01*
X53483359Y-44450000D01*
X53465963Y-44626627D01*
X53414443Y-44796466D01*
X53330778Y-44952991D01*
X53301448Y-44988729D01*
X53218186Y-45090186D01*
X53116729Y-45173448D01*
X53080991Y-45202778D01*
X52924466Y-45286443D01*
X52754627Y-45337963D01*
X52688442Y-45344482D01*
X52622260Y-45351000D01*
X52533740Y-45351000D01*
X52467558Y-45344482D01*
X52401373Y-45337963D01*
X52231534Y-45286443D01*
X52075009Y-45202778D01*
X52039271Y-45173448D01*
X51937814Y-45090186D01*
X51854552Y-44988729D01*
X51825222Y-44952991D01*
X51741557Y-44796466D01*
X51690037Y-44626627D01*
X51672641Y-44450000D01*
X51690037Y-44273373D01*
X51741557Y-44103534D01*
X51825222Y-43947009D01*
X51854552Y-43911271D01*
X51937814Y-43809814D01*
X52039271Y-43726552D01*
X52075009Y-43697222D01*
X52231534Y-43613557D01*
X52401373Y-43562037D01*
X52467557Y-43555519D01*
X52533740Y-43549000D01*
X52622260Y-43549000D01*
X52688443Y-43555519D01*
X52688443Y-43555519D01*
G37*
G36*
X61193000Y-45351000D02*
G01*
X59591000Y-45351000D01*
X59591000Y-43549000D01*
X61193000Y-43549000D01*
X61193000Y-45351000D01*
X61193000Y-45351000D01*
G37*
G36*
X63853000Y-45351000D02*
G01*
X62251000Y-45351000D01*
X62251000Y-43549000D01*
X63853000Y-43549000D01*
X63853000Y-45351000D01*
X63853000Y-45351000D01*
G37*
G36*
X57504283Y-43555519D02*
G01*
X57570467Y-43562037D01*
X57740306Y-43613557D01*
X57896831Y-43697222D01*
X57932569Y-43726552D01*
X58034026Y-43809814D01*
X58117288Y-43911271D01*
X58146618Y-43947009D01*
X58230283Y-44103534D01*
X58281803Y-44273373D01*
X58299199Y-44450000D01*
X58281803Y-44626627D01*
X58230283Y-44796466D01*
X58146618Y-44952991D01*
X58117288Y-44988729D01*
X58034026Y-45090186D01*
X57932569Y-45173448D01*
X57896831Y-45202778D01*
X57740306Y-45286443D01*
X57570467Y-45337963D01*
X57504282Y-45344482D01*
X57438100Y-45351000D01*
X57349580Y-45351000D01*
X57283398Y-45344482D01*
X57217213Y-45337963D01*
X57047374Y-45286443D01*
X56890849Y-45202778D01*
X56855111Y-45173448D01*
X56753654Y-45090186D01*
X56670392Y-44988729D01*
X56641062Y-44952991D01*
X56557397Y-44796466D01*
X56505877Y-44626627D01*
X56488481Y-44450000D01*
X56505877Y-44273373D01*
X56557397Y-44103534D01*
X56641062Y-43947009D01*
X56670392Y-43911271D01*
X56753654Y-43809814D01*
X56855111Y-43726552D01*
X56890849Y-43697222D01*
X57047374Y-43613557D01*
X57217213Y-43562037D01*
X57283397Y-43555519D01*
X57349580Y-43549000D01*
X57438100Y-43549000D01*
X57504283Y-43555519D01*
X57504283Y-43555519D01*
G37*
G36*
X75284283Y-43555519D02*
G01*
X75350467Y-43562037D01*
X75520306Y-43613557D01*
X75676831Y-43697222D01*
X75712569Y-43726552D01*
X75814026Y-43809814D01*
X75897288Y-43911271D01*
X75926618Y-43947009D01*
X76010283Y-44103534D01*
X76061803Y-44273373D01*
X76079199Y-44450000D01*
X76061803Y-44626627D01*
X76010283Y-44796466D01*
X75926618Y-44952991D01*
X75897288Y-44988729D01*
X75814026Y-45090186D01*
X75712569Y-45173448D01*
X75676831Y-45202778D01*
X75520306Y-45286443D01*
X75350467Y-45337963D01*
X75284282Y-45344482D01*
X75218100Y-45351000D01*
X75129580Y-45351000D01*
X75063398Y-45344482D01*
X74997213Y-45337963D01*
X74827374Y-45286443D01*
X74670849Y-45202778D01*
X74635111Y-45173448D01*
X74533654Y-45090186D01*
X74450392Y-44988729D01*
X74421062Y-44952991D01*
X74337397Y-44796466D01*
X74285877Y-44626627D01*
X74268481Y-44450000D01*
X74285877Y-44273373D01*
X74337397Y-44103534D01*
X74421062Y-43947009D01*
X74450392Y-43911271D01*
X74533654Y-43809814D01*
X74635111Y-43726552D01*
X74670849Y-43697222D01*
X74827374Y-43613557D01*
X74997213Y-43562037D01*
X75063397Y-43555519D01*
X75129580Y-43549000D01*
X75218100Y-43549000D01*
X75284283Y-43555519D01*
X75284283Y-43555519D01*
G37*
G36*
X76074840Y-42811000D02*
G01*
X74272840Y-42811000D01*
X74272840Y-41009000D01*
X76074840Y-41009000D01*
X76074840Y-42811000D01*
X76074840Y-42811000D01*
G37*
G36*
X58294840Y-42811000D02*
G01*
X56492840Y-42811000D01*
X56492840Y-41009000D01*
X58294840Y-41009000D01*
X58294840Y-42811000D01*
X58294840Y-42811000D01*
G37*
G36*
X52688442Y-41015518D02*
G01*
X52754627Y-41022037D01*
X52924466Y-41073557D01*
X53080991Y-41157222D01*
X53116729Y-41186552D01*
X53218186Y-41269814D01*
X53301448Y-41371271D01*
X53330778Y-41407009D01*
X53414443Y-41563534D01*
X53465963Y-41733373D01*
X53483359Y-41910000D01*
X53465963Y-42086627D01*
X53414443Y-42256466D01*
X53330778Y-42412991D01*
X53301448Y-42448729D01*
X53218186Y-42550186D01*
X53116729Y-42633448D01*
X53080991Y-42662778D01*
X52924466Y-42746443D01*
X52754627Y-42797963D01*
X52688443Y-42804481D01*
X52622260Y-42811000D01*
X52533740Y-42811000D01*
X52467557Y-42804481D01*
X52401373Y-42797963D01*
X52231534Y-42746443D01*
X52075009Y-42662778D01*
X52039271Y-42633448D01*
X51937814Y-42550186D01*
X51854552Y-42448729D01*
X51825222Y-42412991D01*
X51741557Y-42256466D01*
X51690037Y-42086627D01*
X51672641Y-41910000D01*
X51690037Y-41733373D01*
X51741557Y-41563534D01*
X51825222Y-41407009D01*
X51854552Y-41371271D01*
X51937814Y-41269814D01*
X52039271Y-41186552D01*
X52075009Y-41157222D01*
X52231534Y-41073557D01*
X52401373Y-41022037D01*
X52467558Y-41015518D01*
X52533740Y-41009000D01*
X52622260Y-41009000D01*
X52688442Y-41015518D01*
X52688442Y-41015518D01*
G37*
G36*
X53479000Y-40271000D02*
G01*
X51677000Y-40271000D01*
X51677000Y-38469000D01*
X53479000Y-38469000D01*
X53479000Y-40271000D01*
X53479000Y-40271000D01*
G37*
G36*
X57504283Y-38475519D02*
G01*
X57570467Y-38482037D01*
X57740306Y-38533557D01*
X57896831Y-38617222D01*
X57932569Y-38646552D01*
X58034026Y-38729814D01*
X58117288Y-38831271D01*
X58146618Y-38867009D01*
X58230283Y-39023534D01*
X58281803Y-39193373D01*
X58299199Y-39370000D01*
X58281803Y-39546627D01*
X58230283Y-39716466D01*
X58146618Y-39872991D01*
X58117288Y-39908729D01*
X58034026Y-40010186D01*
X57932569Y-40093448D01*
X57896831Y-40122778D01*
X57740306Y-40206443D01*
X57570467Y-40257963D01*
X57504283Y-40264481D01*
X57438100Y-40271000D01*
X57349580Y-40271000D01*
X57283397Y-40264481D01*
X57217213Y-40257963D01*
X57047374Y-40206443D01*
X56890849Y-40122778D01*
X56855111Y-40093448D01*
X56753654Y-40010186D01*
X56670392Y-39908729D01*
X56641062Y-39872991D01*
X56557397Y-39716466D01*
X56505877Y-39546627D01*
X56488481Y-39370000D01*
X56505877Y-39193373D01*
X56557397Y-39023534D01*
X56641062Y-38867009D01*
X56670392Y-38831271D01*
X56753654Y-38729814D01*
X56855111Y-38646552D01*
X56890849Y-38617222D01*
X57047374Y-38533557D01*
X57217213Y-38482037D01*
X57283397Y-38475519D01*
X57349580Y-38469000D01*
X57438100Y-38469000D01*
X57504283Y-38475519D01*
X57504283Y-38475519D01*
G37*
G36*
X61193000Y-40271000D02*
G01*
X59591000Y-40271000D01*
X59591000Y-38469000D01*
X61193000Y-38469000D01*
X61193000Y-40271000D01*
X61193000Y-40271000D01*
G37*
G36*
X75284283Y-38475519D02*
G01*
X75350467Y-38482037D01*
X75520306Y-38533557D01*
X75676831Y-38617222D01*
X75712569Y-38646552D01*
X75814026Y-38729814D01*
X75897288Y-38831271D01*
X75926618Y-38867009D01*
X76010283Y-39023534D01*
X76061803Y-39193373D01*
X76079199Y-39370000D01*
X76061803Y-39546627D01*
X76010283Y-39716466D01*
X75926618Y-39872991D01*
X75897288Y-39908729D01*
X75814026Y-40010186D01*
X75712569Y-40093448D01*
X75676831Y-40122778D01*
X75520306Y-40206443D01*
X75350467Y-40257963D01*
X75284283Y-40264481D01*
X75218100Y-40271000D01*
X75129580Y-40271000D01*
X75063397Y-40264481D01*
X74997213Y-40257963D01*
X74827374Y-40206443D01*
X74670849Y-40122778D01*
X74635111Y-40093448D01*
X74533654Y-40010186D01*
X74450392Y-39908729D01*
X74421062Y-39872991D01*
X74337397Y-39716466D01*
X74285877Y-39546627D01*
X74268481Y-39370000D01*
X74285877Y-39193373D01*
X74337397Y-39023534D01*
X74421062Y-38867009D01*
X74450392Y-38831271D01*
X74533654Y-38729814D01*
X74635111Y-38646552D01*
X74670849Y-38617222D01*
X74827374Y-38533557D01*
X74997213Y-38482037D01*
X75063397Y-38475519D01*
X75129580Y-38469000D01*
X75218100Y-38469000D01*
X75284283Y-38475519D01*
X75284283Y-38475519D01*
G37*
G36*
X63853000Y-40271000D02*
G01*
X62251000Y-40271000D01*
X62251000Y-38469000D01*
X63853000Y-38469000D01*
X63853000Y-40271000D01*
X63853000Y-40271000D01*
G37*
G36*
X57504282Y-35935518D02*
G01*
X57570467Y-35942037D01*
X57740306Y-35993557D01*
X57896831Y-36077222D01*
X57932569Y-36106552D01*
X58034026Y-36189814D01*
X58117288Y-36291271D01*
X58146618Y-36327009D01*
X58230283Y-36483534D01*
X58281803Y-36653373D01*
X58299199Y-36830000D01*
X58281803Y-37006627D01*
X58230283Y-37176466D01*
X58146618Y-37332991D01*
X58117288Y-37368729D01*
X58034026Y-37470186D01*
X57932569Y-37553448D01*
X57896831Y-37582778D01*
X57740306Y-37666443D01*
X57570467Y-37717963D01*
X57504283Y-37724481D01*
X57438100Y-37731000D01*
X57349580Y-37731000D01*
X57283397Y-37724481D01*
X57217213Y-37717963D01*
X57047374Y-37666443D01*
X56890849Y-37582778D01*
X56855111Y-37553448D01*
X56753654Y-37470186D01*
X56670392Y-37368729D01*
X56641062Y-37332991D01*
X56557397Y-37176466D01*
X56505877Y-37006627D01*
X56488481Y-36830000D01*
X56505877Y-36653373D01*
X56557397Y-36483534D01*
X56641062Y-36327009D01*
X56670392Y-36291271D01*
X56753654Y-36189814D01*
X56855111Y-36106552D01*
X56890849Y-36077222D01*
X57047374Y-35993557D01*
X57217213Y-35942037D01*
X57283398Y-35935518D01*
X57349580Y-35929000D01*
X57438100Y-35929000D01*
X57504282Y-35935518D01*
X57504282Y-35935518D01*
G37*
G36*
X75284282Y-35935518D02*
G01*
X75350467Y-35942037D01*
X75520306Y-35993557D01*
X75676831Y-36077222D01*
X75712569Y-36106552D01*
X75814026Y-36189814D01*
X75897288Y-36291271D01*
X75926618Y-36327009D01*
X76010283Y-36483534D01*
X76061803Y-36653373D01*
X76079199Y-36830000D01*
X76061803Y-37006627D01*
X76010283Y-37176466D01*
X75926618Y-37332991D01*
X75897288Y-37368729D01*
X75814026Y-37470186D01*
X75712569Y-37553448D01*
X75676831Y-37582778D01*
X75520306Y-37666443D01*
X75350467Y-37717963D01*
X75284283Y-37724481D01*
X75218100Y-37731000D01*
X75129580Y-37731000D01*
X75063397Y-37724481D01*
X74997213Y-37717963D01*
X74827374Y-37666443D01*
X74670849Y-37582778D01*
X74635111Y-37553448D01*
X74533654Y-37470186D01*
X74450392Y-37368729D01*
X74421062Y-37332991D01*
X74337397Y-37176466D01*
X74285877Y-37006627D01*
X74268481Y-36830000D01*
X74285877Y-36653373D01*
X74337397Y-36483534D01*
X74421062Y-36327009D01*
X74450392Y-36291271D01*
X74533654Y-36189814D01*
X74635111Y-36106552D01*
X74670849Y-36077222D01*
X74827374Y-35993557D01*
X74997213Y-35942037D01*
X75063398Y-35935518D01*
X75129580Y-35929000D01*
X75218100Y-35929000D01*
X75284282Y-35935518D01*
X75284282Y-35935518D01*
G37*
G36*
X57504282Y-33395518D02*
G01*
X57570467Y-33402037D01*
X57740306Y-33453557D01*
X57896831Y-33537222D01*
X57932569Y-33566552D01*
X58034026Y-33649814D01*
X58117288Y-33751271D01*
X58146618Y-33787009D01*
X58230283Y-33943534D01*
X58281803Y-34113373D01*
X58299199Y-34290000D01*
X58281803Y-34466627D01*
X58230283Y-34636466D01*
X58146618Y-34792991D01*
X58117288Y-34828729D01*
X58034026Y-34930186D01*
X57932569Y-35013448D01*
X57896831Y-35042778D01*
X57740306Y-35126443D01*
X57570467Y-35177963D01*
X57504282Y-35184482D01*
X57438100Y-35191000D01*
X57349580Y-35191000D01*
X57283398Y-35184482D01*
X57217213Y-35177963D01*
X57047374Y-35126443D01*
X56890849Y-35042778D01*
X56855111Y-35013448D01*
X56753654Y-34930186D01*
X56670392Y-34828729D01*
X56641062Y-34792991D01*
X56557397Y-34636466D01*
X56505877Y-34466627D01*
X56488481Y-34290000D01*
X56505877Y-34113373D01*
X56557397Y-33943534D01*
X56641062Y-33787009D01*
X56670392Y-33751271D01*
X56753654Y-33649814D01*
X56855111Y-33566552D01*
X56890849Y-33537222D01*
X57047374Y-33453557D01*
X57217213Y-33402037D01*
X57283398Y-33395518D01*
X57349580Y-33389000D01*
X57438100Y-33389000D01*
X57504282Y-33395518D01*
X57504282Y-33395518D01*
G37*
G36*
X75284282Y-33395518D02*
G01*
X75350467Y-33402037D01*
X75520306Y-33453557D01*
X75676831Y-33537222D01*
X75712569Y-33566552D01*
X75814026Y-33649814D01*
X75897288Y-33751271D01*
X75926618Y-33787009D01*
X76010283Y-33943534D01*
X76061803Y-34113373D01*
X76079199Y-34290000D01*
X76061803Y-34466627D01*
X76010283Y-34636466D01*
X75926618Y-34792991D01*
X75897288Y-34828729D01*
X75814026Y-34930186D01*
X75712569Y-35013448D01*
X75676831Y-35042778D01*
X75520306Y-35126443D01*
X75350467Y-35177963D01*
X75284282Y-35184482D01*
X75218100Y-35191000D01*
X75129580Y-35191000D01*
X75063398Y-35184482D01*
X74997213Y-35177963D01*
X74827374Y-35126443D01*
X74670849Y-35042778D01*
X74635111Y-35013448D01*
X74533654Y-34930186D01*
X74450392Y-34828729D01*
X74421062Y-34792991D01*
X74337397Y-34636466D01*
X74285877Y-34466627D01*
X74268481Y-34290000D01*
X74285877Y-34113373D01*
X74337397Y-33943534D01*
X74421062Y-33787009D01*
X74450392Y-33751271D01*
X74533654Y-33649814D01*
X74635111Y-33566552D01*
X74670849Y-33537222D01*
X74827374Y-33453557D01*
X74997213Y-33402037D01*
X75063398Y-33395518D01*
X75129580Y-33389000D01*
X75218100Y-33389000D01*
X75284282Y-33395518D01*
X75284282Y-33395518D01*
G37*
G36*
X75284283Y-30855519D02*
G01*
X75350467Y-30862037D01*
X75520306Y-30913557D01*
X75676831Y-30997222D01*
X75712569Y-31026552D01*
X75814026Y-31109814D01*
X75897288Y-31211271D01*
X75926618Y-31247009D01*
X76010283Y-31403534D01*
X76061803Y-31573373D01*
X76079199Y-31750000D01*
X76061803Y-31926627D01*
X76010283Y-32096466D01*
X75926618Y-32252991D01*
X75897288Y-32288729D01*
X75814026Y-32390186D01*
X75712569Y-32473448D01*
X75676831Y-32502778D01*
X75520306Y-32586443D01*
X75350467Y-32637963D01*
X75284282Y-32644482D01*
X75218100Y-32651000D01*
X75129580Y-32651000D01*
X75063398Y-32644482D01*
X74997213Y-32637963D01*
X74827374Y-32586443D01*
X74670849Y-32502778D01*
X74635111Y-32473448D01*
X74533654Y-32390186D01*
X74450392Y-32288729D01*
X74421062Y-32252991D01*
X74337397Y-32096466D01*
X74285877Y-31926627D01*
X74268481Y-31750000D01*
X74285877Y-31573373D01*
X74337397Y-31403534D01*
X74421062Y-31247009D01*
X74450392Y-31211271D01*
X74533654Y-31109814D01*
X74635111Y-31026552D01*
X74670849Y-30997222D01*
X74827374Y-30913557D01*
X74997213Y-30862037D01*
X75063397Y-30855519D01*
X75129580Y-30849000D01*
X75218100Y-30849000D01*
X75284283Y-30855519D01*
X75284283Y-30855519D01*
G37*
G36*
X57504283Y-30855519D02*
G01*
X57570467Y-30862037D01*
X57740306Y-30913557D01*
X57896831Y-30997222D01*
X57932569Y-31026552D01*
X58034026Y-31109814D01*
X58117288Y-31211271D01*
X58146618Y-31247009D01*
X58230283Y-31403534D01*
X58281803Y-31573373D01*
X58299199Y-31750000D01*
X58281803Y-31926627D01*
X58230283Y-32096466D01*
X58146618Y-32252991D01*
X58117288Y-32288729D01*
X58034026Y-32390186D01*
X57932569Y-32473448D01*
X57896831Y-32502778D01*
X57740306Y-32586443D01*
X57570467Y-32637963D01*
X57504282Y-32644482D01*
X57438100Y-32651000D01*
X57349580Y-32651000D01*
X57283398Y-32644482D01*
X57217213Y-32637963D01*
X57047374Y-32586443D01*
X56890849Y-32502778D01*
X56855111Y-32473448D01*
X56753654Y-32390186D01*
X56670392Y-32288729D01*
X56641062Y-32252991D01*
X56557397Y-32096466D01*
X56505877Y-31926627D01*
X56488481Y-31750000D01*
X56505877Y-31573373D01*
X56557397Y-31403534D01*
X56641062Y-31247009D01*
X56670392Y-31211271D01*
X56753654Y-31109814D01*
X56855111Y-31026552D01*
X56890849Y-30997222D01*
X57047374Y-30913557D01*
X57217213Y-30862037D01*
X57283397Y-30855519D01*
X57349580Y-30849000D01*
X57438100Y-30849000D01*
X57504283Y-30855519D01*
X57504283Y-30855519D01*
G37*
G36*
X58294840Y-30111000D02*
G01*
X56492840Y-30111000D01*
X56492840Y-28309000D01*
X58294840Y-28309000D01*
X58294840Y-30111000D01*
X58294840Y-30111000D01*
G37*
G36*
X76074840Y-30111000D02*
G01*
X74272840Y-30111000D01*
X74272840Y-28309000D01*
X76074840Y-28309000D01*
X76074840Y-30111000D01*
X76074840Y-30111000D01*
G37*
G36*
X63937411Y-26492863D02*
G01*
X64015863Y-26500590D01*
X64116522Y-26531125D01*
X64166853Y-26546392D01*
X64306005Y-26620771D01*
X64427973Y-26720867D01*
X64528069Y-26842835D01*
X64602448Y-26981987D01*
X64602448Y-26981988D01*
X64648250Y-27132977D01*
X64663715Y-27290000D01*
X64648250Y-27447023D01*
X64630225Y-27506442D01*
X64602448Y-27598013D01*
X64528069Y-27737165D01*
X64427973Y-27859133D01*
X64306005Y-27959229D01*
X64166853Y-28033608D01*
X64116522Y-28048875D01*
X64015863Y-28079410D01*
X63937411Y-28087137D01*
X63898186Y-28091000D01*
X63819494Y-28091000D01*
X63780269Y-28087137D01*
X63701817Y-28079410D01*
X63601158Y-28048875D01*
X63550827Y-28033608D01*
X63411675Y-27959229D01*
X63289707Y-27859133D01*
X63189611Y-27737165D01*
X63115232Y-27598013D01*
X63087455Y-27506442D01*
X63069430Y-27447023D01*
X63053965Y-27290000D01*
X63069430Y-27132977D01*
X63115232Y-26981988D01*
X63115232Y-26981987D01*
X63189611Y-26842835D01*
X63289707Y-26720867D01*
X63411675Y-26620771D01*
X63550827Y-26546392D01*
X63601158Y-26531125D01*
X63701817Y-26500590D01*
X63780269Y-26492863D01*
X63819494Y-26489000D01*
X63898186Y-26489000D01*
X63937411Y-26492863D01*
X63937411Y-26492863D01*
G37*
G36*
X68787411Y-26492863D02*
G01*
X68865863Y-26500590D01*
X68966522Y-26531125D01*
X69016853Y-26546392D01*
X69156005Y-26620771D01*
X69277973Y-26720867D01*
X69378069Y-26842835D01*
X69452448Y-26981987D01*
X69452448Y-26981988D01*
X69498250Y-27132977D01*
X69513715Y-27290000D01*
X69498250Y-27447023D01*
X69480225Y-27506442D01*
X69452448Y-27598013D01*
X69378069Y-27737165D01*
X69277973Y-27859133D01*
X69156005Y-27959229D01*
X69016853Y-28033608D01*
X68966522Y-28048875D01*
X68865863Y-28079410D01*
X68787411Y-28087137D01*
X68748186Y-28091000D01*
X68669494Y-28091000D01*
X68630269Y-28087137D01*
X68551817Y-28079410D01*
X68451158Y-28048875D01*
X68400827Y-28033608D01*
X68261675Y-27959229D01*
X68139707Y-27859133D01*
X68039611Y-27737165D01*
X67965232Y-27598013D01*
X67937455Y-27506442D01*
X67919430Y-27447023D01*
X67903965Y-27290000D01*
X67919430Y-27132977D01*
X67965232Y-26981988D01*
X67965232Y-26981987D01*
X68039611Y-26842835D01*
X68139707Y-26720867D01*
X68261675Y-26620771D01*
X68400827Y-26546392D01*
X68451158Y-26531125D01*
X68551817Y-26500590D01*
X68630269Y-26492863D01*
X68669494Y-26489000D01*
X68748186Y-26489000D01*
X68787411Y-26492863D01*
X68787411Y-26492863D01*
G37*
G36*
X57504282Y-25775518D02*
G01*
X57570467Y-25782037D01*
X57740306Y-25833557D01*
X57896831Y-25917222D01*
X57932569Y-25946552D01*
X58034026Y-26029814D01*
X58117288Y-26131271D01*
X58146618Y-26167009D01*
X58230283Y-26323534D01*
X58281803Y-26493373D01*
X58299199Y-26670000D01*
X58281803Y-26846627D01*
X58230283Y-27016466D01*
X58146618Y-27172991D01*
X58117288Y-27208729D01*
X58034026Y-27310186D01*
X57932569Y-27393448D01*
X57896831Y-27422778D01*
X57740306Y-27506443D01*
X57570467Y-27557963D01*
X57504282Y-27564482D01*
X57438100Y-27571000D01*
X57349580Y-27571000D01*
X57283398Y-27564482D01*
X57217213Y-27557963D01*
X57047374Y-27506443D01*
X56890849Y-27422778D01*
X56855111Y-27393448D01*
X56753654Y-27310186D01*
X56670392Y-27208729D01*
X56641062Y-27172991D01*
X56557397Y-27016466D01*
X56505877Y-26846627D01*
X56488481Y-26670000D01*
X56505877Y-26493373D01*
X56557397Y-26323534D01*
X56641062Y-26167009D01*
X56670392Y-26131271D01*
X56753654Y-26029814D01*
X56855111Y-25946552D01*
X56890849Y-25917222D01*
X57047374Y-25833557D01*
X57217213Y-25782037D01*
X57283397Y-25775519D01*
X57349580Y-25769000D01*
X57438100Y-25769000D01*
X57504282Y-25775518D01*
X57504282Y-25775518D01*
G37*
G36*
X75284282Y-25775518D02*
G01*
X75350467Y-25782037D01*
X75520306Y-25833557D01*
X75676831Y-25917222D01*
X75712569Y-25946552D01*
X75814026Y-26029814D01*
X75897288Y-26131271D01*
X75926618Y-26167009D01*
X76010283Y-26323534D01*
X76061803Y-26493373D01*
X76079199Y-26670000D01*
X76061803Y-26846627D01*
X76010283Y-27016466D01*
X75926618Y-27172991D01*
X75897288Y-27208729D01*
X75814026Y-27310186D01*
X75712569Y-27393448D01*
X75676831Y-27422778D01*
X75520306Y-27506443D01*
X75350467Y-27557963D01*
X75284282Y-27564482D01*
X75218100Y-27571000D01*
X75129580Y-27571000D01*
X75063398Y-27564482D01*
X74997213Y-27557963D01*
X74827374Y-27506443D01*
X74670849Y-27422778D01*
X74635111Y-27393448D01*
X74533654Y-27310186D01*
X74450392Y-27208729D01*
X74421062Y-27172991D01*
X74337397Y-27016466D01*
X74285877Y-26846627D01*
X74268481Y-26670000D01*
X74285877Y-26493373D01*
X74337397Y-26323534D01*
X74421062Y-26167009D01*
X74450392Y-26131271D01*
X74533654Y-26029814D01*
X74635111Y-25946552D01*
X74670849Y-25917222D01*
X74827374Y-25833557D01*
X74997213Y-25782037D01*
X75063397Y-25775519D01*
X75129580Y-25769000D01*
X75218100Y-25769000D01*
X75284282Y-25775518D01*
X75284282Y-25775518D01*
G37*
G36*
X63745265Y-23322760D02*
G01*
X63745268Y-23322761D01*
X63745269Y-23322761D01*
X63924533Y-23377140D01*
X63924536Y-23377142D01*
X63924537Y-23377142D01*
X64089743Y-23465446D01*
X64234552Y-23584288D01*
X64353394Y-23729097D01*
X64441698Y-23894303D01*
X64441700Y-23894307D01*
X64496079Y-24073571D01*
X64496080Y-24073575D01*
X64514441Y-24260000D01*
X64496080Y-24446425D01*
X64496079Y-24446428D01*
X64496079Y-24446429D01*
X64441700Y-24625693D01*
X64441698Y-24625696D01*
X64441698Y-24625697D01*
X64353394Y-24790903D01*
X64234552Y-24935712D01*
X64089743Y-25054554D01*
X63924537Y-25142858D01*
X63924533Y-25142860D01*
X63745269Y-25197239D01*
X63745268Y-25197239D01*
X63745265Y-25197240D01*
X63605558Y-25211000D01*
X63512122Y-25211000D01*
X63372415Y-25197240D01*
X63372412Y-25197239D01*
X63372411Y-25197239D01*
X63193147Y-25142860D01*
X63193143Y-25142858D01*
X63027937Y-25054554D01*
X62883128Y-24935712D01*
X62764286Y-24790903D01*
X62675982Y-24625697D01*
X62675982Y-24625696D01*
X62675980Y-24625693D01*
X62621601Y-24446429D01*
X62621601Y-24446428D01*
X62621600Y-24446425D01*
X62603239Y-24260000D01*
X62621600Y-24073575D01*
X62621601Y-24073571D01*
X62675980Y-23894307D01*
X62675982Y-23894303D01*
X62764286Y-23729097D01*
X62883128Y-23584288D01*
X63027937Y-23465446D01*
X63193143Y-23377142D01*
X63193144Y-23377142D01*
X63193147Y-23377140D01*
X63372411Y-23322761D01*
X63372412Y-23322761D01*
X63372415Y-23322760D01*
X63512122Y-23309000D01*
X63605558Y-23309000D01*
X63745265Y-23322760D01*
X63745265Y-23322760D01*
G37*
G36*
X69195265Y-23322760D02*
G01*
X69195268Y-23322761D01*
X69195269Y-23322761D01*
X69374533Y-23377140D01*
X69374536Y-23377142D01*
X69374537Y-23377142D01*
X69539743Y-23465446D01*
X69684552Y-23584288D01*
X69803394Y-23729097D01*
X69891698Y-23894303D01*
X69891700Y-23894307D01*
X69946079Y-24073571D01*
X69946080Y-24073575D01*
X69964441Y-24260000D01*
X69946080Y-24446425D01*
X69946079Y-24446428D01*
X69946079Y-24446429D01*
X69891700Y-24625693D01*
X69891698Y-24625696D01*
X69891698Y-24625697D01*
X69803394Y-24790903D01*
X69684552Y-24935712D01*
X69539743Y-25054554D01*
X69374537Y-25142858D01*
X69374533Y-25142860D01*
X69195269Y-25197239D01*
X69195268Y-25197239D01*
X69195265Y-25197240D01*
X69055558Y-25211000D01*
X68962122Y-25211000D01*
X68822415Y-25197240D01*
X68822412Y-25197239D01*
X68822411Y-25197239D01*
X68643147Y-25142860D01*
X68643143Y-25142858D01*
X68477937Y-25054554D01*
X68333128Y-24935712D01*
X68214286Y-24790903D01*
X68125982Y-24625697D01*
X68125982Y-24625696D01*
X68125980Y-24625693D01*
X68071601Y-24446429D01*
X68071601Y-24446428D01*
X68071600Y-24446425D01*
X68053239Y-24260000D01*
X68071600Y-24073575D01*
X68071601Y-24073571D01*
X68125980Y-23894307D01*
X68125982Y-23894303D01*
X68214286Y-23729097D01*
X68333128Y-23584288D01*
X68477937Y-23465446D01*
X68643143Y-23377142D01*
X68643144Y-23377142D01*
X68643147Y-23377140D01*
X68822411Y-23322761D01*
X68822412Y-23322761D01*
X68822415Y-23322760D01*
X68962122Y-23309000D01*
X69055558Y-23309000D01*
X69195265Y-23322760D01*
X69195265Y-23322760D01*
G37*
G36*
X57504282Y-23235518D02*
G01*
X57570467Y-23242037D01*
X57740306Y-23293557D01*
X57896831Y-23377222D01*
X57932569Y-23406552D01*
X58034026Y-23489814D01*
X58111558Y-23584288D01*
X58146618Y-23627009D01*
X58230283Y-23783534D01*
X58281803Y-23953373D01*
X58299199Y-24130000D01*
X58281803Y-24306627D01*
X58230283Y-24476466D01*
X58146618Y-24632991D01*
X58117288Y-24668729D01*
X58034026Y-24770186D01*
X57932569Y-24853448D01*
X57896831Y-24882778D01*
X57740306Y-24966443D01*
X57570467Y-25017963D01*
X57504283Y-25024481D01*
X57438100Y-25031000D01*
X57349580Y-25031000D01*
X57283397Y-25024481D01*
X57217213Y-25017963D01*
X57047374Y-24966443D01*
X56890849Y-24882778D01*
X56855111Y-24853448D01*
X56753654Y-24770186D01*
X56670392Y-24668729D01*
X56641062Y-24632991D01*
X56557397Y-24476466D01*
X56505877Y-24306627D01*
X56488481Y-24130000D01*
X56505877Y-23953373D01*
X56557397Y-23783534D01*
X56641062Y-23627009D01*
X56676122Y-23584288D01*
X56753654Y-23489814D01*
X56855111Y-23406552D01*
X56890849Y-23377222D01*
X57047374Y-23293557D01*
X57217213Y-23242037D01*
X57283398Y-23235518D01*
X57349580Y-23229000D01*
X57438100Y-23229000D01*
X57504282Y-23235518D01*
X57504282Y-23235518D01*
G37*
G36*
X75284282Y-23235518D02*
G01*
X75350467Y-23242037D01*
X75520306Y-23293557D01*
X75676831Y-23377222D01*
X75712569Y-23406552D01*
X75814026Y-23489814D01*
X75891558Y-23584288D01*
X75926618Y-23627009D01*
X76010283Y-23783534D01*
X76061803Y-23953373D01*
X76079199Y-24130000D01*
X76061803Y-24306627D01*
X76010283Y-24476466D01*
X75926618Y-24632991D01*
X75897288Y-24668729D01*
X75814026Y-24770186D01*
X75712569Y-24853448D01*
X75676831Y-24882778D01*
X75520306Y-24966443D01*
X75350467Y-25017963D01*
X75284283Y-25024481D01*
X75218100Y-25031000D01*
X75129580Y-25031000D01*
X75063397Y-25024481D01*
X74997213Y-25017963D01*
X74827374Y-24966443D01*
X74670849Y-24882778D01*
X74635111Y-24853448D01*
X74533654Y-24770186D01*
X74450392Y-24668729D01*
X74421062Y-24632991D01*
X74337397Y-24476466D01*
X74285877Y-24306627D01*
X74268481Y-24130000D01*
X74285877Y-23953373D01*
X74337397Y-23783534D01*
X74421062Y-23627009D01*
X74456122Y-23584288D01*
X74533654Y-23489814D01*
X74635111Y-23406552D01*
X74670849Y-23377222D01*
X74827374Y-23293557D01*
X74997213Y-23242037D01*
X75063398Y-23235518D01*
X75129580Y-23229000D01*
X75218100Y-23229000D01*
X75284282Y-23235518D01*
X75284282Y-23235518D01*
G37*
M02*
