G04 #@! TF.GenerationSoftware,KiCad,Pcbnew,(5.1.4-0-10_14)*
G04 #@! TF.CreationDate,2021-03-20T15:06:32+00:00*
G04 #@! TF.ProjectId,DriverBoard,44726976-6572-4426-9f61-72642e6b6963,rev?*
G04 #@! TF.SameCoordinates,Original*
G04 #@! TF.FileFunction,Copper,L1,Top*
G04 #@! TF.FilePolarity,Positive*
%FSLAX46Y46*%
G04 Gerber Fmt 4.6, Leading zero omitted, Abs format (unit mm)*
G04 Created by KiCad (PCBNEW (5.1.4-0-10_14)) date 2021-03-20 15:06:32*
%MOMM*%
%LPD*%
G04 APERTURE LIST*
%ADD10R,0.800000X0.900000*%
%ADD11R,1.700000X1.700000*%
%ADD12O,1.700000X1.700000*%
%ADD13R,3.500000X1.700000*%
%ADD14R,1.700000X3.500000*%
%ADD15C,0.800000*%
%ADD16C,0.250000*%
%ADD17C,0.254000*%
G04 APERTURE END LIST*
D10*
X65090000Y-79359000D03*
X66990000Y-79359000D03*
X66040000Y-77359000D03*
D11*
X59309000Y-85090000D03*
D12*
X59309000Y-87630000D03*
X59309000Y-90170000D03*
X59309000Y-92710000D03*
X59309000Y-95250000D03*
X57393840Y-24130000D03*
X57393840Y-26670000D03*
D11*
X57393840Y-29210000D03*
D12*
X57393840Y-31750000D03*
X57393840Y-34290000D03*
X57393840Y-36830000D03*
X57393840Y-39370000D03*
D11*
X57393840Y-41910000D03*
D12*
X57393840Y-44450000D03*
X57393840Y-46990000D03*
X57393840Y-49530000D03*
X57393840Y-52070000D03*
D11*
X57393840Y-54610000D03*
D12*
X57393840Y-57150000D03*
X57393840Y-59690000D03*
X57393840Y-62230000D03*
X57393840Y-64770000D03*
D11*
X57393840Y-67310000D03*
D12*
X57393840Y-69850000D03*
X57393840Y-72390000D03*
X75173840Y-72390000D03*
X75173840Y-69850000D03*
D11*
X75173840Y-67310000D03*
D12*
X75173840Y-64770000D03*
X75173840Y-62230000D03*
X75173840Y-59690000D03*
X75173840Y-57150000D03*
D11*
X75173840Y-54610000D03*
D12*
X75173840Y-52070000D03*
X75173840Y-49530000D03*
X75173840Y-46990000D03*
X75173840Y-44450000D03*
D11*
X75173840Y-41910000D03*
D12*
X75173840Y-39370000D03*
X75173840Y-36830000D03*
X75173840Y-34290000D03*
X75173840Y-31750000D03*
D11*
X75173840Y-29210000D03*
D12*
X75173840Y-26670000D03*
X75173840Y-24130000D03*
D13*
X56493840Y-24130000D03*
X56493840Y-26670000D03*
X56493840Y-29210000D03*
X56493840Y-31750000D03*
X56493840Y-34290000D03*
X56493840Y-36830000D03*
X56493840Y-39370000D03*
X56493840Y-41910000D03*
X56493840Y-44450000D03*
X56493840Y-46990000D03*
X56493840Y-49530000D03*
X56493840Y-52070000D03*
X56493840Y-54610000D03*
X56493840Y-57150000D03*
X56493840Y-59690000D03*
X56493840Y-62230000D03*
X56493840Y-64770000D03*
X56493840Y-67310000D03*
X56493840Y-69850000D03*
X56493840Y-72390000D03*
X76073840Y-24130000D03*
X76073840Y-26670000D03*
X76073840Y-29210000D03*
X76073840Y-31750000D03*
X76073840Y-34290000D03*
X76073840Y-36830000D03*
X76073840Y-39370000D03*
X76073840Y-41910000D03*
X76073840Y-44450000D03*
X76073840Y-46990000D03*
X76073840Y-49530000D03*
X76073840Y-52070000D03*
X76073840Y-54610000D03*
X76073840Y-57150000D03*
X76073840Y-59690000D03*
X76073840Y-62230000D03*
X76073840Y-64770000D03*
X76073840Y-67310000D03*
X76073840Y-69850000D03*
X76073840Y-72390000D03*
D14*
X63743840Y-73060000D03*
D12*
X63743840Y-72160000D03*
D14*
X66283840Y-73060000D03*
D11*
X66283840Y-72160000D03*
D14*
X68823840Y-73060000D03*
D12*
X68823840Y-72160000D03*
D11*
X52578000Y-39370000D03*
D12*
X52578000Y-41910000D03*
X52578000Y-44450000D03*
X52578000Y-46990000D03*
X52578000Y-49530000D03*
X52578000Y-52070000D03*
X52578000Y-54610000D03*
X52578000Y-57150000D03*
X52578000Y-59690000D03*
X52578000Y-62230000D03*
X52578000Y-64770000D03*
D11*
X52578000Y-67310000D03*
D12*
X52578000Y-69850000D03*
X52578000Y-72390000D03*
X52578000Y-74930000D03*
X52578000Y-77470000D03*
X52578000Y-80010000D03*
X52578000Y-82550000D03*
X52578000Y-85090000D03*
X52578000Y-87630000D03*
X52578000Y-90170000D03*
X52578000Y-92710000D03*
X52578000Y-95250000D03*
D15*
X67437000Y-75692000D03*
X72009000Y-71120000D03*
D16*
X65090000Y-81849000D02*
X65090000Y-79359000D01*
X59309000Y-87630000D02*
X65090000Y-81849000D01*
X65090000Y-76873998D02*
X65090000Y-77409000D01*
X66271998Y-75692000D02*
X65090000Y-76873998D01*
X67437000Y-75692000D02*
X66271998Y-75692000D01*
X65090000Y-79359000D02*
X65090000Y-77409000D01*
X76375921Y-26670000D02*
X75173840Y-26670000D01*
X72009000Y-73059842D02*
X72009000Y-71120000D01*
X67709842Y-77359000D02*
X72009000Y-73059842D01*
X66040000Y-77359000D02*
X67709842Y-77359000D01*
X52578000Y-66210000D02*
X52578000Y-67310000D01*
X52653001Y-66134999D02*
X52578000Y-66210000D01*
X58313843Y-66134999D02*
X52653001Y-66134999D01*
X58568841Y-65880001D02*
X58313843Y-66134999D01*
X58568841Y-61054999D02*
X58568841Y-65880001D01*
X75173840Y-44450000D02*
X58568841Y-61054999D01*
X57393840Y-41910000D02*
X52578000Y-41910000D01*
X57393840Y-54610000D02*
X52578000Y-54610000D01*
X68379842Y-29210000D02*
X75173840Y-29210000D01*
X57393840Y-29210000D02*
X68379842Y-29210000D01*
X66283840Y-72160000D02*
X66283840Y-71384160D01*
X70358000Y-67310000D02*
X75173840Y-67310000D01*
X66283840Y-71384160D02*
X70358000Y-67310000D01*
X53086000Y-69850000D02*
X52578000Y-69850000D01*
X55531001Y-68674999D02*
X54261001Y-68674999D01*
X55720999Y-68485001D02*
X55531001Y-68674999D01*
X59018851Y-67969991D02*
X58503841Y-68485001D01*
X58503841Y-68485001D02*
X55720999Y-68485001D01*
X59018851Y-63144989D02*
X59018851Y-67969991D01*
X54261001Y-68674999D02*
X53086000Y-69850000D01*
X75173840Y-46990000D02*
X59018851Y-63144989D01*
X53427999Y-74080001D02*
X52578000Y-74930000D01*
X53753001Y-71945837D02*
X53753001Y-73754999D01*
X54673837Y-71025001D02*
X53753001Y-71945837D01*
X53753001Y-73754999D02*
X53427999Y-74080001D01*
X58503841Y-71025001D02*
X54673837Y-71025001D01*
X59468860Y-70059982D02*
X58503841Y-71025001D01*
X59468860Y-67774980D02*
X59468860Y-70059982D01*
X75173840Y-52070000D02*
X59468860Y-67774980D01*
X58568841Y-73754999D02*
X74323841Y-57999999D01*
X74323841Y-57999999D02*
X75173840Y-57150000D01*
X58568841Y-74019159D02*
X58568841Y-73754999D01*
X52578000Y-80010000D02*
X58568841Y-74019159D01*
X73971759Y-59690000D02*
X75173840Y-59690000D01*
X62118829Y-70863599D02*
X73292428Y-59690000D01*
X73292428Y-59690000D02*
X73971759Y-59690000D01*
X62118830Y-73009170D02*
X62118829Y-70863599D01*
X52578000Y-82550000D02*
X62118830Y-73009170D01*
X73971759Y-62230000D02*
X75173840Y-62230000D01*
X62568839Y-75099161D02*
X62568839Y-71049999D01*
X71388838Y-62230000D02*
X73971759Y-62230000D01*
X62568839Y-71049999D02*
X71388838Y-62230000D01*
X52578000Y-85090000D02*
X62568839Y-75099161D01*
X71388838Y-64770000D02*
X73971759Y-64770000D01*
X73971759Y-64770000D02*
X75173840Y-64770000D01*
X64918841Y-71239997D02*
X71388838Y-64770000D01*
X64918841Y-75289159D02*
X64918841Y-71239997D01*
X52578000Y-87630000D02*
X64918841Y-75289159D01*
X74323841Y-70699999D02*
X75173840Y-69850000D01*
X73998839Y-71025001D02*
X74323841Y-70699999D01*
X73998839Y-74679163D02*
X73998839Y-71025001D01*
X59683003Y-88994999D02*
X73998839Y-74679163D01*
X56293001Y-88994999D02*
X59683003Y-88994999D01*
X52578000Y-92710000D02*
X56293001Y-88994999D01*
X75173840Y-76044162D02*
X75173840Y-73592081D01*
X75173840Y-73592081D02*
X75173840Y-72390000D01*
X59873001Y-91345001D02*
X75173840Y-76044162D01*
X55029998Y-95250000D02*
X58934997Y-91345001D01*
X58934997Y-91345001D02*
X59873001Y-91345001D01*
X52578000Y-95250000D02*
X55029998Y-95250000D01*
D17*
G36*
X78107940Y-97777700D02*
G01*
X51388880Y-97777700D01*
X51388880Y-96141872D01*
X51522866Y-96305134D01*
X51748986Y-96490706D01*
X52006966Y-96628599D01*
X52286889Y-96713513D01*
X52505050Y-96735000D01*
X52650950Y-96735000D01*
X52869111Y-96713513D01*
X53149034Y-96628599D01*
X53407014Y-96490706D01*
X53633134Y-96305134D01*
X53818706Y-96079014D01*
X53855595Y-96010000D01*
X54992676Y-96010000D01*
X55029998Y-96013676D01*
X55067320Y-96010000D01*
X55067331Y-96010000D01*
X55178984Y-95999003D01*
X55322245Y-95955546D01*
X55454274Y-95884974D01*
X55569999Y-95790001D01*
X55593802Y-95760997D01*
X57985905Y-93368894D01*
X58037359Y-93476920D01*
X58211412Y-93710269D01*
X58427645Y-93905178D01*
X58544523Y-93974799D01*
X58479986Y-94009294D01*
X58253866Y-94194866D01*
X58068294Y-94420986D01*
X57930401Y-94678966D01*
X57845487Y-94958889D01*
X57816815Y-95250000D01*
X57845487Y-95541111D01*
X57930401Y-95821034D01*
X58068294Y-96079014D01*
X58253866Y-96305134D01*
X58479986Y-96490706D01*
X58737966Y-96628599D01*
X59017889Y-96713513D01*
X59236050Y-96735000D01*
X59381950Y-96735000D01*
X59600111Y-96713513D01*
X59880034Y-96628599D01*
X60138014Y-96490706D01*
X60364134Y-96305134D01*
X60549706Y-96079014D01*
X60687599Y-95821034D01*
X60772513Y-95541111D01*
X60801185Y-95250000D01*
X60772513Y-94958889D01*
X60687599Y-94678966D01*
X60549706Y-94420986D01*
X60364134Y-94194866D01*
X60138014Y-94009294D01*
X60073477Y-93974799D01*
X60190355Y-93905178D01*
X60406588Y-93710269D01*
X60580641Y-93476920D01*
X60705825Y-93214099D01*
X60750476Y-93066890D01*
X60629155Y-92837000D01*
X59436000Y-92837000D01*
X59436000Y-92857000D01*
X59182000Y-92857000D01*
X59182000Y-92837000D01*
X59162000Y-92837000D01*
X59162000Y-92583000D01*
X59182000Y-92583000D01*
X59182000Y-92563000D01*
X59436000Y-92563000D01*
X59436000Y-92583000D01*
X60629155Y-92583000D01*
X60750476Y-92353110D01*
X60705825Y-92205901D01*
X60580641Y-91943080D01*
X60481987Y-91810816D01*
X75684844Y-76607960D01*
X75713841Y-76584163D01*
X75740172Y-76552079D01*
X75808814Y-76468439D01*
X75879386Y-76336409D01*
X75899249Y-76270928D01*
X75922843Y-76193148D01*
X75933840Y-76081495D01*
X75933840Y-76081486D01*
X75937516Y-76044163D01*
X75933840Y-76006840D01*
X75933840Y-73878072D01*
X77823840Y-73878072D01*
X77948322Y-73865812D01*
X78068020Y-73829502D01*
X78107940Y-73808164D01*
X78107940Y-97777700D01*
X78107940Y-97777700D01*
G37*
X78107940Y-97777700D02*
X51388880Y-97777700D01*
X51388880Y-96141872D01*
X51522866Y-96305134D01*
X51748986Y-96490706D01*
X52006966Y-96628599D01*
X52286889Y-96713513D01*
X52505050Y-96735000D01*
X52650950Y-96735000D01*
X52869111Y-96713513D01*
X53149034Y-96628599D01*
X53407014Y-96490706D01*
X53633134Y-96305134D01*
X53818706Y-96079014D01*
X53855595Y-96010000D01*
X54992676Y-96010000D01*
X55029998Y-96013676D01*
X55067320Y-96010000D01*
X55067331Y-96010000D01*
X55178984Y-95999003D01*
X55322245Y-95955546D01*
X55454274Y-95884974D01*
X55569999Y-95790001D01*
X55593802Y-95760997D01*
X57985905Y-93368894D01*
X58037359Y-93476920D01*
X58211412Y-93710269D01*
X58427645Y-93905178D01*
X58544523Y-93974799D01*
X58479986Y-94009294D01*
X58253866Y-94194866D01*
X58068294Y-94420986D01*
X57930401Y-94678966D01*
X57845487Y-94958889D01*
X57816815Y-95250000D01*
X57845487Y-95541111D01*
X57930401Y-95821034D01*
X58068294Y-96079014D01*
X58253866Y-96305134D01*
X58479986Y-96490706D01*
X58737966Y-96628599D01*
X59017889Y-96713513D01*
X59236050Y-96735000D01*
X59381950Y-96735000D01*
X59600111Y-96713513D01*
X59880034Y-96628599D01*
X60138014Y-96490706D01*
X60364134Y-96305134D01*
X60549706Y-96079014D01*
X60687599Y-95821034D01*
X60772513Y-95541111D01*
X60801185Y-95250000D01*
X60772513Y-94958889D01*
X60687599Y-94678966D01*
X60549706Y-94420986D01*
X60364134Y-94194866D01*
X60138014Y-94009294D01*
X60073477Y-93974799D01*
X60190355Y-93905178D01*
X60406588Y-93710269D01*
X60580641Y-93476920D01*
X60705825Y-93214099D01*
X60750476Y-93066890D01*
X60629155Y-92837000D01*
X59436000Y-92837000D01*
X59436000Y-92857000D01*
X59182000Y-92857000D01*
X59182000Y-92837000D01*
X59162000Y-92837000D01*
X59162000Y-92583000D01*
X59182000Y-92583000D01*
X59182000Y-92563000D01*
X59436000Y-92563000D01*
X59436000Y-92583000D01*
X60629155Y-92583000D01*
X60750476Y-92353110D01*
X60705825Y-92205901D01*
X60580641Y-91943080D01*
X60481987Y-91810816D01*
X75684844Y-76607960D01*
X75713841Y-76584163D01*
X75740172Y-76552079D01*
X75808814Y-76468439D01*
X75879386Y-76336409D01*
X75899249Y-76270928D01*
X75922843Y-76193148D01*
X75933840Y-76081495D01*
X75933840Y-76081486D01*
X75937516Y-76044163D01*
X75933840Y-76006840D01*
X75933840Y-73878072D01*
X77823840Y-73878072D01*
X77948322Y-73865812D01*
X78068020Y-73829502D01*
X78107940Y-73808164D01*
X78107940Y-97777700D01*
G36*
X57867524Y-89813110D02*
G01*
X57988845Y-90043000D01*
X59182000Y-90043000D01*
X59182000Y-90023000D01*
X59436000Y-90023000D01*
X59436000Y-90043000D01*
X59456000Y-90043000D01*
X59456000Y-90297000D01*
X59436000Y-90297000D01*
X59436000Y-90317000D01*
X59182000Y-90317000D01*
X59182000Y-90297000D01*
X57988845Y-90297000D01*
X57867524Y-90526890D01*
X57912175Y-90674099D01*
X58037359Y-90936920D01*
X58136013Y-91069183D01*
X54715197Y-94490000D01*
X53855595Y-94490000D01*
X53818706Y-94420986D01*
X53633134Y-94194866D01*
X53407014Y-94009294D01*
X53352209Y-93980000D01*
X53407014Y-93950706D01*
X53633134Y-93765134D01*
X53818706Y-93539014D01*
X53956599Y-93281034D01*
X54041513Y-93001111D01*
X54070185Y-92710000D01*
X54041513Y-92418889D01*
X54018797Y-92344004D01*
X56607803Y-89754999D01*
X57885150Y-89754999D01*
X57867524Y-89813110D01*
X57867524Y-89813110D01*
G37*
X57867524Y-89813110D02*
X57988845Y-90043000D01*
X59182000Y-90043000D01*
X59182000Y-90023000D01*
X59436000Y-90023000D01*
X59436000Y-90043000D01*
X59456000Y-90043000D01*
X59456000Y-90297000D01*
X59436000Y-90297000D01*
X59436000Y-90317000D01*
X59182000Y-90317000D01*
X59182000Y-90297000D01*
X57988845Y-90297000D01*
X57867524Y-90526890D01*
X57912175Y-90674099D01*
X58037359Y-90936920D01*
X58136013Y-91069183D01*
X54715197Y-94490000D01*
X53855595Y-94490000D01*
X53818706Y-94420986D01*
X53633134Y-94194866D01*
X53407014Y-94009294D01*
X53352209Y-93980000D01*
X53407014Y-93950706D01*
X53633134Y-93765134D01*
X53818706Y-93539014D01*
X53956599Y-93281034D01*
X54041513Y-93001111D01*
X54070185Y-92710000D01*
X54041513Y-92418889D01*
X54018797Y-92344004D01*
X56607803Y-89754999D01*
X57885150Y-89754999D01*
X57867524Y-89813110D01*
G36*
X52705000Y-90043000D02*
G01*
X52725000Y-90043000D01*
X52725000Y-90297000D01*
X52705000Y-90297000D01*
X52705000Y-90317000D01*
X52451000Y-90317000D01*
X52451000Y-90297000D01*
X52431000Y-90297000D01*
X52431000Y-90043000D01*
X52451000Y-90043000D01*
X52451000Y-90023000D01*
X52705000Y-90023000D01*
X52705000Y-90043000D01*
X52705000Y-90043000D01*
G37*
X52705000Y-90043000D02*
X52725000Y-90043000D01*
X52725000Y-90297000D01*
X52705000Y-90297000D01*
X52705000Y-90317000D01*
X52451000Y-90317000D01*
X52451000Y-90297000D01*
X52431000Y-90297000D01*
X52431000Y-90043000D01*
X52451000Y-90043000D01*
X52451000Y-90023000D01*
X52705000Y-90023000D01*
X52705000Y-90043000D01*
G36*
X73685768Y-65620000D02*
G01*
X73698028Y-65744482D01*
X73734338Y-65864180D01*
X73793303Y-65974494D01*
X73847062Y-66040000D01*
X73793303Y-66105506D01*
X73734338Y-66215820D01*
X73698028Y-66335518D01*
X73685768Y-66460000D01*
X73688840Y-67024250D01*
X73847590Y-67183000D01*
X76220840Y-67183000D01*
X76220840Y-67437000D01*
X73847590Y-67437000D01*
X73688840Y-67595750D01*
X73685768Y-68160000D01*
X73698028Y-68284482D01*
X73734338Y-68404180D01*
X73793303Y-68514494D01*
X73847062Y-68580000D01*
X73793303Y-68645506D01*
X73734338Y-68755820D01*
X73698028Y-68875518D01*
X73685768Y-69000000D01*
X73685768Y-69808240D01*
X73681655Y-69850000D01*
X73685768Y-69891760D01*
X73685768Y-70263271D01*
X73487837Y-70461202D01*
X73458839Y-70485000D01*
X73435041Y-70513998D01*
X73435040Y-70513999D01*
X73363865Y-70600725D01*
X73293293Y-70732755D01*
X73283352Y-70765528D01*
X73253604Y-70863599D01*
X73249837Y-70876016D01*
X73235163Y-71025001D01*
X73238840Y-71062333D01*
X73238839Y-74364360D01*
X68028072Y-79575128D01*
X68028072Y-78909000D01*
X68015812Y-78784518D01*
X67979502Y-78664820D01*
X67920537Y-78554506D01*
X67841185Y-78457815D01*
X67744494Y-78378463D01*
X67634180Y-78319498D01*
X67514482Y-78283188D01*
X67390000Y-78270928D01*
X66878095Y-78270928D01*
X66891185Y-78260185D01*
X66970537Y-78163494D01*
X66994320Y-78119000D01*
X67672520Y-78119000D01*
X67709842Y-78122676D01*
X67747164Y-78119000D01*
X67747175Y-78119000D01*
X67858828Y-78108003D01*
X68002089Y-78064546D01*
X68134118Y-77993974D01*
X68249843Y-77899001D01*
X68273646Y-77869997D01*
X72520004Y-73623640D01*
X72549001Y-73599843D01*
X72643974Y-73484118D01*
X72714546Y-73352089D01*
X72758003Y-73208828D01*
X72769000Y-73097175D01*
X72769000Y-73097174D01*
X72772677Y-73059842D01*
X72769000Y-73022509D01*
X72769000Y-71823711D01*
X72812937Y-71779774D01*
X72926205Y-71610256D01*
X73004226Y-71421898D01*
X73044000Y-71221939D01*
X73044000Y-71018061D01*
X73004226Y-70818102D01*
X72926205Y-70629744D01*
X72812937Y-70460226D01*
X72668774Y-70316063D01*
X72499256Y-70202795D01*
X72310898Y-70124774D01*
X72110939Y-70085000D01*
X71907061Y-70085000D01*
X71707102Y-70124774D01*
X71518744Y-70202795D01*
X71349226Y-70316063D01*
X71205063Y-70460226D01*
X71091795Y-70629744D01*
X71013774Y-70818102D01*
X70974000Y-71018061D01*
X70974000Y-71221939D01*
X71013774Y-71421898D01*
X71091795Y-71610256D01*
X71205063Y-71779774D01*
X71249001Y-71823712D01*
X71249000Y-72745040D01*
X70311912Y-73682128D01*
X70311912Y-72201760D01*
X70316025Y-72160000D01*
X70311912Y-72118240D01*
X70311912Y-71310000D01*
X70299652Y-71185518D01*
X70263342Y-71065820D01*
X70204377Y-70955506D01*
X70125025Y-70858815D01*
X70028334Y-70779463D01*
X69918020Y-70720498D01*
X69798322Y-70684188D01*
X69673840Y-70671928D01*
X67973840Y-70671928D01*
X67849358Y-70684188D01*
X67729660Y-70720498D01*
X67619346Y-70779463D01*
X67553840Y-70833222D01*
X67488334Y-70779463D01*
X67378020Y-70720498D01*
X67258322Y-70684188D01*
X67133840Y-70671928D01*
X66569590Y-70675000D01*
X66410842Y-70833748D01*
X66410842Y-70822797D01*
X71703640Y-65530000D01*
X73685768Y-65530000D01*
X73685768Y-65620000D01*
X73685768Y-65620000D01*
G37*
X73685768Y-65620000D02*
X73698028Y-65744482D01*
X73734338Y-65864180D01*
X73793303Y-65974494D01*
X73847062Y-66040000D01*
X73793303Y-66105506D01*
X73734338Y-66215820D01*
X73698028Y-66335518D01*
X73685768Y-66460000D01*
X73688840Y-67024250D01*
X73847590Y-67183000D01*
X76220840Y-67183000D01*
X76220840Y-67437000D01*
X73847590Y-67437000D01*
X73688840Y-67595750D01*
X73685768Y-68160000D01*
X73698028Y-68284482D01*
X73734338Y-68404180D01*
X73793303Y-68514494D01*
X73847062Y-68580000D01*
X73793303Y-68645506D01*
X73734338Y-68755820D01*
X73698028Y-68875518D01*
X73685768Y-69000000D01*
X73685768Y-69808240D01*
X73681655Y-69850000D01*
X73685768Y-69891760D01*
X73685768Y-70263271D01*
X73487837Y-70461202D01*
X73458839Y-70485000D01*
X73435041Y-70513998D01*
X73435040Y-70513999D01*
X73363865Y-70600725D01*
X73293293Y-70732755D01*
X73283352Y-70765528D01*
X73253604Y-70863599D01*
X73249837Y-70876016D01*
X73235163Y-71025001D01*
X73238840Y-71062333D01*
X73238839Y-74364360D01*
X68028072Y-79575128D01*
X68028072Y-78909000D01*
X68015812Y-78784518D01*
X67979502Y-78664820D01*
X67920537Y-78554506D01*
X67841185Y-78457815D01*
X67744494Y-78378463D01*
X67634180Y-78319498D01*
X67514482Y-78283188D01*
X67390000Y-78270928D01*
X66878095Y-78270928D01*
X66891185Y-78260185D01*
X66970537Y-78163494D01*
X66994320Y-78119000D01*
X67672520Y-78119000D01*
X67709842Y-78122676D01*
X67747164Y-78119000D01*
X67747175Y-78119000D01*
X67858828Y-78108003D01*
X68002089Y-78064546D01*
X68134118Y-77993974D01*
X68249843Y-77899001D01*
X68273646Y-77869997D01*
X72520004Y-73623640D01*
X72549001Y-73599843D01*
X72643974Y-73484118D01*
X72714546Y-73352089D01*
X72758003Y-73208828D01*
X72769000Y-73097175D01*
X72769000Y-73097174D01*
X72772677Y-73059842D01*
X72769000Y-73022509D01*
X72769000Y-71823711D01*
X72812937Y-71779774D01*
X72926205Y-71610256D01*
X73004226Y-71421898D01*
X73044000Y-71221939D01*
X73044000Y-71018061D01*
X73004226Y-70818102D01*
X72926205Y-70629744D01*
X72812937Y-70460226D01*
X72668774Y-70316063D01*
X72499256Y-70202795D01*
X72310898Y-70124774D01*
X72110939Y-70085000D01*
X71907061Y-70085000D01*
X71707102Y-70124774D01*
X71518744Y-70202795D01*
X71349226Y-70316063D01*
X71205063Y-70460226D01*
X71091795Y-70629744D01*
X71013774Y-70818102D01*
X70974000Y-71018061D01*
X70974000Y-71221939D01*
X71013774Y-71421898D01*
X71091795Y-71610256D01*
X71205063Y-71779774D01*
X71249001Y-71823712D01*
X71249000Y-72745040D01*
X70311912Y-73682128D01*
X70311912Y-72201760D01*
X70316025Y-72160000D01*
X70311912Y-72118240D01*
X70311912Y-71310000D01*
X70299652Y-71185518D01*
X70263342Y-71065820D01*
X70204377Y-70955506D01*
X70125025Y-70858815D01*
X70028334Y-70779463D01*
X69918020Y-70720498D01*
X69798322Y-70684188D01*
X69673840Y-70671928D01*
X67973840Y-70671928D01*
X67849358Y-70684188D01*
X67729660Y-70720498D01*
X67619346Y-70779463D01*
X67553840Y-70833222D01*
X67488334Y-70779463D01*
X67378020Y-70720498D01*
X67258322Y-70684188D01*
X67133840Y-70671928D01*
X66569590Y-70675000D01*
X66410842Y-70833748D01*
X66410842Y-70822797D01*
X71703640Y-65530000D01*
X73685768Y-65530000D01*
X73685768Y-65620000D01*
G36*
X52705000Y-77343000D02*
G01*
X52725000Y-77343000D01*
X52725000Y-77597000D01*
X52705000Y-77597000D01*
X52705000Y-77617000D01*
X52451000Y-77617000D01*
X52451000Y-77597000D01*
X52431000Y-77597000D01*
X52431000Y-77343000D01*
X52451000Y-77343000D01*
X52451000Y-77323000D01*
X52705000Y-77323000D01*
X52705000Y-77343000D01*
X52705000Y-77343000D01*
G37*
X52705000Y-77343000D02*
X52725000Y-77343000D01*
X52725000Y-77597000D01*
X52705000Y-77597000D01*
X52705000Y-77617000D01*
X52451000Y-77617000D01*
X52451000Y-77597000D01*
X52431000Y-77597000D01*
X52431000Y-77343000D01*
X52451000Y-77343000D01*
X52451000Y-77323000D01*
X52705000Y-77323000D01*
X52705000Y-77343000D01*
G36*
X66410840Y-73207000D02*
G01*
X66156840Y-73207000D01*
X66156840Y-72913000D01*
X66410840Y-72913000D01*
X66410840Y-73207000D01*
X66410840Y-73207000D01*
G37*
X66410840Y-73207000D02*
X66156840Y-73207000D01*
X66156840Y-72913000D01*
X66410840Y-72913000D01*
X66410840Y-73207000D01*
G36*
X54108840Y-67024250D02*
G01*
X54267590Y-67183000D01*
X56640840Y-67183000D01*
X56640840Y-67437000D01*
X54267590Y-67437000D01*
X54108840Y-67595750D01*
X54107034Y-67927507D01*
X54066072Y-67939932D01*
X54066072Y-66894999D01*
X54108136Y-66894999D01*
X54108840Y-67024250D01*
X54108840Y-67024250D01*
G37*
X54108840Y-67024250D02*
X54267590Y-67183000D01*
X56640840Y-67183000D01*
X56640840Y-67437000D01*
X54267590Y-67437000D01*
X54108840Y-67595750D01*
X54107034Y-67927507D01*
X54066072Y-67939932D01*
X54066072Y-66894999D01*
X54108136Y-66894999D01*
X54108840Y-67024250D01*
G36*
X78107941Y-22711837D02*
G01*
X78068020Y-22690498D01*
X77948322Y-22654188D01*
X77823840Y-22641928D01*
X74323840Y-22641928D01*
X74199358Y-22654188D01*
X74079660Y-22690498D01*
X73969346Y-22749463D01*
X73872655Y-22828815D01*
X73793303Y-22925506D01*
X73734338Y-23035820D01*
X73698028Y-23155518D01*
X73685768Y-23280000D01*
X73685768Y-24088240D01*
X73681655Y-24130000D01*
X73685768Y-24171760D01*
X73685768Y-24980000D01*
X73698028Y-25104482D01*
X73734338Y-25224180D01*
X73793303Y-25334494D01*
X73847062Y-25400000D01*
X73793303Y-25465506D01*
X73734338Y-25575820D01*
X73698028Y-25695518D01*
X73685768Y-25820000D01*
X73685768Y-26628240D01*
X73681655Y-26670000D01*
X73685768Y-26711760D01*
X73685768Y-27520000D01*
X73698028Y-27644482D01*
X73734338Y-27764180D01*
X73793303Y-27874494D01*
X73847062Y-27940000D01*
X73793303Y-28005506D01*
X73734338Y-28115820D01*
X73698028Y-28235518D01*
X73685768Y-28360000D01*
X73688840Y-28924250D01*
X73847590Y-29083000D01*
X76220840Y-29083000D01*
X76220840Y-29337000D01*
X73847590Y-29337000D01*
X73688840Y-29495750D01*
X73685768Y-30060000D01*
X73698028Y-30184482D01*
X73734338Y-30304180D01*
X73793303Y-30414494D01*
X73847062Y-30480000D01*
X73793303Y-30545506D01*
X73734338Y-30655820D01*
X73698028Y-30775518D01*
X73685768Y-30900000D01*
X73685768Y-31708240D01*
X73681655Y-31750000D01*
X73685768Y-31791760D01*
X73685768Y-32600000D01*
X73698028Y-32724482D01*
X73734338Y-32844180D01*
X73793303Y-32954494D01*
X73847062Y-33020000D01*
X73793303Y-33085506D01*
X73734338Y-33195820D01*
X73698028Y-33315518D01*
X73685768Y-33440000D01*
X73685768Y-34248240D01*
X73681655Y-34290000D01*
X73685768Y-34331760D01*
X73685768Y-35140000D01*
X73698028Y-35264482D01*
X73734338Y-35384180D01*
X73793303Y-35494494D01*
X73847062Y-35560000D01*
X73793303Y-35625506D01*
X73734338Y-35735820D01*
X73698028Y-35855518D01*
X73685768Y-35980000D01*
X73685768Y-36788240D01*
X73681655Y-36830000D01*
X73685768Y-36871760D01*
X73685768Y-37680000D01*
X73698028Y-37804482D01*
X73734338Y-37924180D01*
X73793303Y-38034494D01*
X73847062Y-38100000D01*
X73793303Y-38165506D01*
X73734338Y-38275820D01*
X73698028Y-38395518D01*
X73685768Y-38520000D01*
X73685768Y-39328240D01*
X73681655Y-39370000D01*
X73685768Y-39411760D01*
X73685768Y-40220000D01*
X73698028Y-40344482D01*
X73734338Y-40464180D01*
X73793303Y-40574494D01*
X73847062Y-40640000D01*
X73793303Y-40705506D01*
X73734338Y-40815820D01*
X73698028Y-40935518D01*
X73685768Y-41060000D01*
X73685768Y-42760000D01*
X73698028Y-42884482D01*
X73734338Y-43004180D01*
X73793303Y-43114494D01*
X73847062Y-43180000D01*
X73793303Y-43245506D01*
X73734338Y-43355820D01*
X73698028Y-43475518D01*
X73685768Y-43600000D01*
X73685768Y-44408240D01*
X73681655Y-44450000D01*
X73685768Y-44491760D01*
X73685768Y-44863270D01*
X58883605Y-59665434D01*
X58881912Y-59648240D01*
X58881912Y-58840000D01*
X58869652Y-58715518D01*
X58833342Y-58595820D01*
X58774377Y-58485506D01*
X58720618Y-58420000D01*
X58774377Y-58354494D01*
X58833342Y-58244180D01*
X58869652Y-58124482D01*
X58881912Y-58000000D01*
X58881912Y-57191760D01*
X58886025Y-57150000D01*
X58881912Y-57108240D01*
X58881912Y-56300000D01*
X58869652Y-56175518D01*
X58833342Y-56055820D01*
X58774377Y-55945506D01*
X58720618Y-55880000D01*
X58774377Y-55814494D01*
X58833342Y-55704180D01*
X58869652Y-55584482D01*
X58881912Y-55460000D01*
X58878840Y-54895750D01*
X58720090Y-54737000D01*
X54267590Y-54737000D01*
X54108840Y-54895750D01*
X54105768Y-55460000D01*
X54118028Y-55584482D01*
X54154338Y-55704180D01*
X54213303Y-55814494D01*
X54267062Y-55880000D01*
X54213303Y-55945506D01*
X54154338Y-56055820D01*
X54118028Y-56175518D01*
X54105768Y-56300000D01*
X54105768Y-58000000D01*
X54118028Y-58124482D01*
X54154338Y-58244180D01*
X54213303Y-58354494D01*
X54267062Y-58420000D01*
X54213303Y-58485506D01*
X54154338Y-58595820D01*
X54118028Y-58715518D01*
X54105768Y-58840000D01*
X54105768Y-60540000D01*
X54118028Y-60664482D01*
X54154338Y-60784180D01*
X54213303Y-60894494D01*
X54267062Y-60960000D01*
X54213303Y-61025506D01*
X54154338Y-61135820D01*
X54118028Y-61255518D01*
X54105768Y-61380000D01*
X54105768Y-63080000D01*
X54118028Y-63204482D01*
X54154338Y-63324180D01*
X54213303Y-63434494D01*
X54267062Y-63500000D01*
X54213303Y-63565506D01*
X54154338Y-63675820D01*
X54118028Y-63795518D01*
X54105768Y-63920000D01*
X54105768Y-65374999D01*
X53938444Y-65374999D01*
X53956599Y-65341034D01*
X54041513Y-65061111D01*
X54070185Y-64770000D01*
X54041513Y-64478889D01*
X53956599Y-64198966D01*
X53818706Y-63940986D01*
X53633134Y-63714866D01*
X53407014Y-63529294D01*
X53352209Y-63500000D01*
X53407014Y-63470706D01*
X53633134Y-63285134D01*
X53818706Y-63059014D01*
X53956599Y-62801034D01*
X54041513Y-62521111D01*
X54070185Y-62230000D01*
X54041513Y-61938889D01*
X53956599Y-61658966D01*
X53818706Y-61400986D01*
X53633134Y-61174866D01*
X53407014Y-60989294D01*
X53352209Y-60960000D01*
X53407014Y-60930706D01*
X53633134Y-60745134D01*
X53818706Y-60519014D01*
X53956599Y-60261034D01*
X54041513Y-59981111D01*
X54070185Y-59690000D01*
X54041513Y-59398889D01*
X53956599Y-59118966D01*
X53818706Y-58860986D01*
X53633134Y-58634866D01*
X53407014Y-58449294D01*
X53352209Y-58420000D01*
X53407014Y-58390706D01*
X53633134Y-58205134D01*
X53818706Y-57979014D01*
X53956599Y-57721034D01*
X54041513Y-57441111D01*
X54070185Y-57150000D01*
X54041513Y-56858889D01*
X53956599Y-56578966D01*
X53818706Y-56320986D01*
X53633134Y-56094866D01*
X53407014Y-55909294D01*
X53342477Y-55874799D01*
X53459355Y-55805178D01*
X53675588Y-55610269D01*
X53849641Y-55376920D01*
X53974825Y-55114099D01*
X54019476Y-54966890D01*
X53898155Y-54737000D01*
X52705000Y-54737000D01*
X52705000Y-54757000D01*
X52451000Y-54757000D01*
X52451000Y-54737000D01*
X52431000Y-54737000D01*
X52431000Y-54483000D01*
X52451000Y-54483000D01*
X52451000Y-54463000D01*
X52705000Y-54463000D01*
X52705000Y-54483000D01*
X53898155Y-54483000D01*
X54019476Y-54253110D01*
X53974825Y-54105901D01*
X53849641Y-53843080D01*
X53675588Y-53609731D01*
X53459355Y-53414822D01*
X53342477Y-53345201D01*
X53407014Y-53310706D01*
X53633134Y-53125134D01*
X53818706Y-52899014D01*
X53956599Y-52641034D01*
X54041513Y-52361111D01*
X54070185Y-52070000D01*
X54041513Y-51778889D01*
X53956599Y-51498966D01*
X53818706Y-51240986D01*
X53633134Y-51014866D01*
X53407014Y-50829294D01*
X53352209Y-50800000D01*
X53407014Y-50770706D01*
X53633134Y-50585134D01*
X53818706Y-50359014D01*
X53956599Y-50101034D01*
X54041513Y-49821111D01*
X54070185Y-49530000D01*
X54041513Y-49238889D01*
X53956599Y-48958966D01*
X53818706Y-48700986D01*
X53633134Y-48474866D01*
X53407014Y-48289294D01*
X53352209Y-48260000D01*
X53407014Y-48230706D01*
X53633134Y-48045134D01*
X53818706Y-47819014D01*
X53956599Y-47561034D01*
X54041513Y-47281111D01*
X54070185Y-46990000D01*
X54041513Y-46698889D01*
X53956599Y-46418966D01*
X53818706Y-46160986D01*
X53633134Y-45934866D01*
X53407014Y-45749294D01*
X53352209Y-45720000D01*
X53407014Y-45690706D01*
X53633134Y-45505134D01*
X53818706Y-45279014D01*
X53956599Y-45021034D01*
X54041513Y-44741111D01*
X54070185Y-44450000D01*
X54041513Y-44158889D01*
X53956599Y-43878966D01*
X53818706Y-43620986D01*
X53633134Y-43394866D01*
X53407014Y-43209294D01*
X53342477Y-43174799D01*
X53459355Y-43105178D01*
X53675588Y-42910269D01*
X53787672Y-42760000D01*
X54105768Y-42760000D01*
X54118028Y-42884482D01*
X54154338Y-43004180D01*
X54213303Y-43114494D01*
X54267062Y-43180000D01*
X54213303Y-43245506D01*
X54154338Y-43355820D01*
X54118028Y-43475518D01*
X54105768Y-43600000D01*
X54105768Y-45300000D01*
X54118028Y-45424482D01*
X54154338Y-45544180D01*
X54213303Y-45654494D01*
X54267062Y-45720000D01*
X54213303Y-45785506D01*
X54154338Y-45895820D01*
X54118028Y-46015518D01*
X54105768Y-46140000D01*
X54105768Y-47840000D01*
X54118028Y-47964482D01*
X54154338Y-48084180D01*
X54213303Y-48194494D01*
X54267062Y-48260000D01*
X54213303Y-48325506D01*
X54154338Y-48435820D01*
X54118028Y-48555518D01*
X54105768Y-48680000D01*
X54105768Y-50380000D01*
X54118028Y-50504482D01*
X54154338Y-50624180D01*
X54213303Y-50734494D01*
X54267062Y-50800000D01*
X54213303Y-50865506D01*
X54154338Y-50975820D01*
X54118028Y-51095518D01*
X54105768Y-51220000D01*
X54105768Y-52920000D01*
X54118028Y-53044482D01*
X54154338Y-53164180D01*
X54213303Y-53274494D01*
X54267062Y-53340000D01*
X54213303Y-53405506D01*
X54154338Y-53515820D01*
X54118028Y-53635518D01*
X54105768Y-53760000D01*
X54108840Y-54324250D01*
X54267590Y-54483000D01*
X58720090Y-54483000D01*
X58878840Y-54324250D01*
X58881912Y-53760000D01*
X58869652Y-53635518D01*
X58833342Y-53515820D01*
X58774377Y-53405506D01*
X58720618Y-53340000D01*
X58774377Y-53274494D01*
X58833342Y-53164180D01*
X58869652Y-53044482D01*
X58881912Y-52920000D01*
X58881912Y-52111760D01*
X58886025Y-52070000D01*
X58881912Y-52028240D01*
X58881912Y-51220000D01*
X58869652Y-51095518D01*
X58833342Y-50975820D01*
X58774377Y-50865506D01*
X58720618Y-50800000D01*
X58774377Y-50734494D01*
X58833342Y-50624180D01*
X58869652Y-50504482D01*
X58881912Y-50380000D01*
X58881912Y-49571760D01*
X58886025Y-49530000D01*
X58881912Y-49488240D01*
X58881912Y-48680000D01*
X58869652Y-48555518D01*
X58833342Y-48435820D01*
X58774377Y-48325506D01*
X58720618Y-48260000D01*
X58774377Y-48194494D01*
X58833342Y-48084180D01*
X58869652Y-47964482D01*
X58881912Y-47840000D01*
X58881912Y-47031760D01*
X58886025Y-46990000D01*
X58881912Y-46948240D01*
X58881912Y-46140000D01*
X58869652Y-46015518D01*
X58833342Y-45895820D01*
X58774377Y-45785506D01*
X58720618Y-45720000D01*
X58774377Y-45654494D01*
X58833342Y-45544180D01*
X58869652Y-45424482D01*
X58881912Y-45300000D01*
X58881912Y-44491760D01*
X58886025Y-44450000D01*
X58881912Y-44408240D01*
X58881912Y-43600000D01*
X58869652Y-43475518D01*
X58833342Y-43355820D01*
X58774377Y-43245506D01*
X58720618Y-43180000D01*
X58774377Y-43114494D01*
X58833342Y-43004180D01*
X58869652Y-42884482D01*
X58881912Y-42760000D01*
X58878840Y-42195750D01*
X58720090Y-42037000D01*
X54267590Y-42037000D01*
X54108840Y-42195750D01*
X54105768Y-42760000D01*
X53787672Y-42760000D01*
X53849641Y-42676920D01*
X53974825Y-42414099D01*
X54019476Y-42266890D01*
X53898155Y-42037000D01*
X52705000Y-42037000D01*
X52705000Y-42057000D01*
X52451000Y-42057000D01*
X52451000Y-42037000D01*
X52431000Y-42037000D01*
X52431000Y-41783000D01*
X52451000Y-41783000D01*
X52451000Y-41763000D01*
X52705000Y-41763000D01*
X52705000Y-41783000D01*
X53898155Y-41783000D01*
X54019476Y-41553110D01*
X53974825Y-41405901D01*
X53849641Y-41143080D01*
X53675588Y-40909731D01*
X53591534Y-40833966D01*
X53672180Y-40809502D01*
X53782494Y-40750537D01*
X53879185Y-40671185D01*
X53958537Y-40574494D01*
X54017502Y-40464180D01*
X54053812Y-40344482D01*
X54066072Y-40220000D01*
X54066072Y-38520000D01*
X54053812Y-38395518D01*
X54017502Y-38275820D01*
X53958537Y-38165506D01*
X53879185Y-38068815D01*
X53782494Y-37989463D01*
X53672180Y-37930498D01*
X53552482Y-37894188D01*
X53428000Y-37881928D01*
X51728000Y-37881928D01*
X51603518Y-37894188D01*
X51483820Y-37930498D01*
X51388880Y-37981245D01*
X51388880Y-30060000D01*
X54105768Y-30060000D01*
X54118028Y-30184482D01*
X54154338Y-30304180D01*
X54213303Y-30414494D01*
X54267062Y-30480000D01*
X54213303Y-30545506D01*
X54154338Y-30655820D01*
X54118028Y-30775518D01*
X54105768Y-30900000D01*
X54105768Y-32600000D01*
X54118028Y-32724482D01*
X54154338Y-32844180D01*
X54213303Y-32954494D01*
X54267062Y-33020000D01*
X54213303Y-33085506D01*
X54154338Y-33195820D01*
X54118028Y-33315518D01*
X54105768Y-33440000D01*
X54105768Y-35140000D01*
X54118028Y-35264482D01*
X54154338Y-35384180D01*
X54213303Y-35494494D01*
X54267062Y-35560000D01*
X54213303Y-35625506D01*
X54154338Y-35735820D01*
X54118028Y-35855518D01*
X54105768Y-35980000D01*
X54105768Y-37680000D01*
X54118028Y-37804482D01*
X54154338Y-37924180D01*
X54213303Y-38034494D01*
X54267062Y-38100000D01*
X54213303Y-38165506D01*
X54154338Y-38275820D01*
X54118028Y-38395518D01*
X54105768Y-38520000D01*
X54105768Y-40220000D01*
X54118028Y-40344482D01*
X54154338Y-40464180D01*
X54213303Y-40574494D01*
X54267062Y-40640000D01*
X54213303Y-40705506D01*
X54154338Y-40815820D01*
X54118028Y-40935518D01*
X54105768Y-41060000D01*
X54108840Y-41624250D01*
X54267590Y-41783000D01*
X58720090Y-41783000D01*
X58878840Y-41624250D01*
X58881912Y-41060000D01*
X58869652Y-40935518D01*
X58833342Y-40815820D01*
X58774377Y-40705506D01*
X58720618Y-40640000D01*
X58774377Y-40574494D01*
X58833342Y-40464180D01*
X58869652Y-40344482D01*
X58881912Y-40220000D01*
X58881912Y-39411760D01*
X58886025Y-39370000D01*
X58881912Y-39328240D01*
X58881912Y-38520000D01*
X58869652Y-38395518D01*
X58833342Y-38275820D01*
X58774377Y-38165506D01*
X58720618Y-38100000D01*
X58774377Y-38034494D01*
X58833342Y-37924180D01*
X58869652Y-37804482D01*
X58881912Y-37680000D01*
X58881912Y-36871760D01*
X58886025Y-36830000D01*
X58881912Y-36788240D01*
X58881912Y-35980000D01*
X58869652Y-35855518D01*
X58833342Y-35735820D01*
X58774377Y-35625506D01*
X58720618Y-35560000D01*
X58774377Y-35494494D01*
X58833342Y-35384180D01*
X58869652Y-35264482D01*
X58881912Y-35140000D01*
X58881912Y-34331760D01*
X58886025Y-34290000D01*
X58881912Y-34248240D01*
X58881912Y-33440000D01*
X58869652Y-33315518D01*
X58833342Y-33195820D01*
X58774377Y-33085506D01*
X58720618Y-33020000D01*
X58774377Y-32954494D01*
X58833342Y-32844180D01*
X58869652Y-32724482D01*
X58881912Y-32600000D01*
X58881912Y-31791760D01*
X58886025Y-31750000D01*
X58881912Y-31708240D01*
X58881912Y-30900000D01*
X58869652Y-30775518D01*
X58833342Y-30655820D01*
X58774377Y-30545506D01*
X58720618Y-30480000D01*
X58774377Y-30414494D01*
X58833342Y-30304180D01*
X58869652Y-30184482D01*
X58881912Y-30060000D01*
X58878840Y-29495750D01*
X58720090Y-29337000D01*
X54267590Y-29337000D01*
X54108840Y-29495750D01*
X54105768Y-30060000D01*
X51388880Y-30060000D01*
X51388880Y-23280000D01*
X54105768Y-23280000D01*
X54105768Y-24980000D01*
X54118028Y-25104482D01*
X54154338Y-25224180D01*
X54213303Y-25334494D01*
X54267062Y-25400000D01*
X54213303Y-25465506D01*
X54154338Y-25575820D01*
X54118028Y-25695518D01*
X54105768Y-25820000D01*
X54105768Y-27520000D01*
X54118028Y-27644482D01*
X54154338Y-27764180D01*
X54213303Y-27874494D01*
X54267062Y-27940000D01*
X54213303Y-28005506D01*
X54154338Y-28115820D01*
X54118028Y-28235518D01*
X54105768Y-28360000D01*
X54108840Y-28924250D01*
X54267590Y-29083000D01*
X58720090Y-29083000D01*
X58878840Y-28924250D01*
X58881912Y-28360000D01*
X58869652Y-28235518D01*
X58833342Y-28115820D01*
X58774377Y-28005506D01*
X58720618Y-27940000D01*
X58774377Y-27874494D01*
X58833342Y-27764180D01*
X58869652Y-27644482D01*
X58881912Y-27520000D01*
X58881912Y-27290000D01*
X62467139Y-27290000D01*
X62493880Y-27561507D01*
X62573076Y-27822581D01*
X62701683Y-28063188D01*
X62874759Y-28274081D01*
X63085652Y-28447157D01*
X63326259Y-28575764D01*
X63587333Y-28654960D01*
X63790803Y-28675000D01*
X63926877Y-28675000D01*
X64130347Y-28654960D01*
X64391421Y-28575764D01*
X64632028Y-28447157D01*
X64842921Y-28274081D01*
X65015997Y-28063188D01*
X65144604Y-27822581D01*
X65223800Y-27561507D01*
X65250541Y-27290000D01*
X67317139Y-27290000D01*
X67343880Y-27561507D01*
X67423076Y-27822581D01*
X67551683Y-28063188D01*
X67724759Y-28274081D01*
X67935652Y-28447157D01*
X68176259Y-28575764D01*
X68437333Y-28654960D01*
X68640803Y-28675000D01*
X68776877Y-28675000D01*
X68980347Y-28654960D01*
X69241421Y-28575764D01*
X69482028Y-28447157D01*
X69692921Y-28274081D01*
X69865997Y-28063188D01*
X69994604Y-27822581D01*
X70073800Y-27561507D01*
X70100541Y-27290000D01*
X70073800Y-27018493D01*
X69994604Y-26757419D01*
X69865997Y-26516812D01*
X69692921Y-26305919D01*
X69482028Y-26132843D01*
X69241421Y-26004236D01*
X68980347Y-25925040D01*
X68776877Y-25905000D01*
X68640803Y-25905000D01*
X68437333Y-25925040D01*
X68176259Y-26004236D01*
X67935652Y-26132843D01*
X67724759Y-26305919D01*
X67551683Y-26516812D01*
X67423076Y-26757419D01*
X67343880Y-27018493D01*
X67317139Y-27290000D01*
X65250541Y-27290000D01*
X65223800Y-27018493D01*
X65144604Y-26757419D01*
X65015997Y-26516812D01*
X64842921Y-26305919D01*
X64632028Y-26132843D01*
X64391421Y-26004236D01*
X64130347Y-25925040D01*
X63926877Y-25905000D01*
X63790803Y-25905000D01*
X63587333Y-25925040D01*
X63326259Y-26004236D01*
X63085652Y-26132843D01*
X62874759Y-26305919D01*
X62701683Y-26516812D01*
X62573076Y-26757419D01*
X62493880Y-27018493D01*
X62467139Y-27290000D01*
X58881912Y-27290000D01*
X58881912Y-26711760D01*
X58886025Y-26670000D01*
X58881912Y-26628240D01*
X58881912Y-25820000D01*
X58869652Y-25695518D01*
X58833342Y-25575820D01*
X58774377Y-25465506D01*
X58720618Y-25400000D01*
X58774377Y-25334494D01*
X58833342Y-25224180D01*
X58869652Y-25104482D01*
X58881912Y-24980000D01*
X58881912Y-24260000D01*
X62016413Y-24260000D01*
X62046050Y-24560913D01*
X62133823Y-24850261D01*
X62276359Y-25116927D01*
X62468179Y-25350661D01*
X62701913Y-25542481D01*
X62968579Y-25685017D01*
X63257927Y-25772790D01*
X63483432Y-25795000D01*
X63634248Y-25795000D01*
X63859753Y-25772790D01*
X64149101Y-25685017D01*
X64415767Y-25542481D01*
X64649501Y-25350661D01*
X64841321Y-25116927D01*
X64983857Y-24850261D01*
X65071630Y-24560913D01*
X65101267Y-24260000D01*
X67466413Y-24260000D01*
X67496050Y-24560913D01*
X67583823Y-24850261D01*
X67726359Y-25116927D01*
X67918179Y-25350661D01*
X68151913Y-25542481D01*
X68418579Y-25685017D01*
X68707927Y-25772790D01*
X68933432Y-25795000D01*
X69084248Y-25795000D01*
X69309753Y-25772790D01*
X69599101Y-25685017D01*
X69865767Y-25542481D01*
X70099501Y-25350661D01*
X70291321Y-25116927D01*
X70433857Y-24850261D01*
X70521630Y-24560913D01*
X70551267Y-24260000D01*
X70521630Y-23959087D01*
X70433857Y-23669739D01*
X70291321Y-23403073D01*
X70099501Y-23169339D01*
X69865767Y-22977519D01*
X69599101Y-22834983D01*
X69309753Y-22747210D01*
X69084248Y-22725000D01*
X68933432Y-22725000D01*
X68707927Y-22747210D01*
X68418579Y-22834983D01*
X68151913Y-22977519D01*
X67918179Y-23169339D01*
X67726359Y-23403073D01*
X67583823Y-23669739D01*
X67496050Y-23959087D01*
X67466413Y-24260000D01*
X65101267Y-24260000D01*
X65071630Y-23959087D01*
X64983857Y-23669739D01*
X64841321Y-23403073D01*
X64649501Y-23169339D01*
X64415767Y-22977519D01*
X64149101Y-22834983D01*
X63859753Y-22747210D01*
X63634248Y-22725000D01*
X63483432Y-22725000D01*
X63257927Y-22747210D01*
X62968579Y-22834983D01*
X62701913Y-22977519D01*
X62468179Y-23169339D01*
X62276359Y-23403073D01*
X62133823Y-23669739D01*
X62046050Y-23959087D01*
X62016413Y-24260000D01*
X58881912Y-24260000D01*
X58881912Y-24171760D01*
X58886025Y-24130000D01*
X58881912Y-24088240D01*
X58881912Y-23280000D01*
X58869652Y-23155518D01*
X58833342Y-23035820D01*
X58774377Y-22925506D01*
X58695025Y-22828815D01*
X58598334Y-22749463D01*
X58488020Y-22690498D01*
X58368322Y-22654188D01*
X58243840Y-22641928D01*
X54743840Y-22641928D01*
X54619358Y-22654188D01*
X54499660Y-22690498D01*
X54389346Y-22749463D01*
X54292655Y-22828815D01*
X54213303Y-22925506D01*
X54154338Y-23035820D01*
X54118028Y-23155518D01*
X54105768Y-23280000D01*
X51388880Y-23280000D01*
X51388880Y-21002860D01*
X78107941Y-21002860D01*
X78107941Y-22711837D01*
X78107941Y-22711837D01*
G37*
X78107941Y-22711837D02*
X78068020Y-22690498D01*
X77948322Y-22654188D01*
X77823840Y-22641928D01*
X74323840Y-22641928D01*
X74199358Y-22654188D01*
X74079660Y-22690498D01*
X73969346Y-22749463D01*
X73872655Y-22828815D01*
X73793303Y-22925506D01*
X73734338Y-23035820D01*
X73698028Y-23155518D01*
X73685768Y-23280000D01*
X73685768Y-24088240D01*
X73681655Y-24130000D01*
X73685768Y-24171760D01*
X73685768Y-24980000D01*
X73698028Y-25104482D01*
X73734338Y-25224180D01*
X73793303Y-25334494D01*
X73847062Y-25400000D01*
X73793303Y-25465506D01*
X73734338Y-25575820D01*
X73698028Y-25695518D01*
X73685768Y-25820000D01*
X73685768Y-26628240D01*
X73681655Y-26670000D01*
X73685768Y-26711760D01*
X73685768Y-27520000D01*
X73698028Y-27644482D01*
X73734338Y-27764180D01*
X73793303Y-27874494D01*
X73847062Y-27940000D01*
X73793303Y-28005506D01*
X73734338Y-28115820D01*
X73698028Y-28235518D01*
X73685768Y-28360000D01*
X73688840Y-28924250D01*
X73847590Y-29083000D01*
X76220840Y-29083000D01*
X76220840Y-29337000D01*
X73847590Y-29337000D01*
X73688840Y-29495750D01*
X73685768Y-30060000D01*
X73698028Y-30184482D01*
X73734338Y-30304180D01*
X73793303Y-30414494D01*
X73847062Y-30480000D01*
X73793303Y-30545506D01*
X73734338Y-30655820D01*
X73698028Y-30775518D01*
X73685768Y-30900000D01*
X73685768Y-31708240D01*
X73681655Y-31750000D01*
X73685768Y-31791760D01*
X73685768Y-32600000D01*
X73698028Y-32724482D01*
X73734338Y-32844180D01*
X73793303Y-32954494D01*
X73847062Y-33020000D01*
X73793303Y-33085506D01*
X73734338Y-33195820D01*
X73698028Y-33315518D01*
X73685768Y-33440000D01*
X73685768Y-34248240D01*
X73681655Y-34290000D01*
X73685768Y-34331760D01*
X73685768Y-35140000D01*
X73698028Y-35264482D01*
X73734338Y-35384180D01*
X73793303Y-35494494D01*
X73847062Y-35560000D01*
X73793303Y-35625506D01*
X73734338Y-35735820D01*
X73698028Y-35855518D01*
X73685768Y-35980000D01*
X73685768Y-36788240D01*
X73681655Y-36830000D01*
X73685768Y-36871760D01*
X73685768Y-37680000D01*
X73698028Y-37804482D01*
X73734338Y-37924180D01*
X73793303Y-38034494D01*
X73847062Y-38100000D01*
X73793303Y-38165506D01*
X73734338Y-38275820D01*
X73698028Y-38395518D01*
X73685768Y-38520000D01*
X73685768Y-39328240D01*
X73681655Y-39370000D01*
X73685768Y-39411760D01*
X73685768Y-40220000D01*
X73698028Y-40344482D01*
X73734338Y-40464180D01*
X73793303Y-40574494D01*
X73847062Y-40640000D01*
X73793303Y-40705506D01*
X73734338Y-40815820D01*
X73698028Y-40935518D01*
X73685768Y-41060000D01*
X73685768Y-42760000D01*
X73698028Y-42884482D01*
X73734338Y-43004180D01*
X73793303Y-43114494D01*
X73847062Y-43180000D01*
X73793303Y-43245506D01*
X73734338Y-43355820D01*
X73698028Y-43475518D01*
X73685768Y-43600000D01*
X73685768Y-44408240D01*
X73681655Y-44450000D01*
X73685768Y-44491760D01*
X73685768Y-44863270D01*
X58883605Y-59665434D01*
X58881912Y-59648240D01*
X58881912Y-58840000D01*
X58869652Y-58715518D01*
X58833342Y-58595820D01*
X58774377Y-58485506D01*
X58720618Y-58420000D01*
X58774377Y-58354494D01*
X58833342Y-58244180D01*
X58869652Y-58124482D01*
X58881912Y-58000000D01*
X58881912Y-57191760D01*
X58886025Y-57150000D01*
X58881912Y-57108240D01*
X58881912Y-56300000D01*
X58869652Y-56175518D01*
X58833342Y-56055820D01*
X58774377Y-55945506D01*
X58720618Y-55880000D01*
X58774377Y-55814494D01*
X58833342Y-55704180D01*
X58869652Y-55584482D01*
X58881912Y-55460000D01*
X58878840Y-54895750D01*
X58720090Y-54737000D01*
X54267590Y-54737000D01*
X54108840Y-54895750D01*
X54105768Y-55460000D01*
X54118028Y-55584482D01*
X54154338Y-55704180D01*
X54213303Y-55814494D01*
X54267062Y-55880000D01*
X54213303Y-55945506D01*
X54154338Y-56055820D01*
X54118028Y-56175518D01*
X54105768Y-56300000D01*
X54105768Y-58000000D01*
X54118028Y-58124482D01*
X54154338Y-58244180D01*
X54213303Y-58354494D01*
X54267062Y-58420000D01*
X54213303Y-58485506D01*
X54154338Y-58595820D01*
X54118028Y-58715518D01*
X54105768Y-58840000D01*
X54105768Y-60540000D01*
X54118028Y-60664482D01*
X54154338Y-60784180D01*
X54213303Y-60894494D01*
X54267062Y-60960000D01*
X54213303Y-61025506D01*
X54154338Y-61135820D01*
X54118028Y-61255518D01*
X54105768Y-61380000D01*
X54105768Y-63080000D01*
X54118028Y-63204482D01*
X54154338Y-63324180D01*
X54213303Y-63434494D01*
X54267062Y-63500000D01*
X54213303Y-63565506D01*
X54154338Y-63675820D01*
X54118028Y-63795518D01*
X54105768Y-63920000D01*
X54105768Y-65374999D01*
X53938444Y-65374999D01*
X53956599Y-65341034D01*
X54041513Y-65061111D01*
X54070185Y-64770000D01*
X54041513Y-64478889D01*
X53956599Y-64198966D01*
X53818706Y-63940986D01*
X53633134Y-63714866D01*
X53407014Y-63529294D01*
X53352209Y-63500000D01*
X53407014Y-63470706D01*
X53633134Y-63285134D01*
X53818706Y-63059014D01*
X53956599Y-62801034D01*
X54041513Y-62521111D01*
X54070185Y-62230000D01*
X54041513Y-61938889D01*
X53956599Y-61658966D01*
X53818706Y-61400986D01*
X53633134Y-61174866D01*
X53407014Y-60989294D01*
X53352209Y-60960000D01*
X53407014Y-60930706D01*
X53633134Y-60745134D01*
X53818706Y-60519014D01*
X53956599Y-60261034D01*
X54041513Y-59981111D01*
X54070185Y-59690000D01*
X54041513Y-59398889D01*
X53956599Y-59118966D01*
X53818706Y-58860986D01*
X53633134Y-58634866D01*
X53407014Y-58449294D01*
X53352209Y-58420000D01*
X53407014Y-58390706D01*
X53633134Y-58205134D01*
X53818706Y-57979014D01*
X53956599Y-57721034D01*
X54041513Y-57441111D01*
X54070185Y-57150000D01*
X54041513Y-56858889D01*
X53956599Y-56578966D01*
X53818706Y-56320986D01*
X53633134Y-56094866D01*
X53407014Y-55909294D01*
X53342477Y-55874799D01*
X53459355Y-55805178D01*
X53675588Y-55610269D01*
X53849641Y-55376920D01*
X53974825Y-55114099D01*
X54019476Y-54966890D01*
X53898155Y-54737000D01*
X52705000Y-54737000D01*
X52705000Y-54757000D01*
X52451000Y-54757000D01*
X52451000Y-54737000D01*
X52431000Y-54737000D01*
X52431000Y-54483000D01*
X52451000Y-54483000D01*
X52451000Y-54463000D01*
X52705000Y-54463000D01*
X52705000Y-54483000D01*
X53898155Y-54483000D01*
X54019476Y-54253110D01*
X53974825Y-54105901D01*
X53849641Y-53843080D01*
X53675588Y-53609731D01*
X53459355Y-53414822D01*
X53342477Y-53345201D01*
X53407014Y-53310706D01*
X53633134Y-53125134D01*
X53818706Y-52899014D01*
X53956599Y-52641034D01*
X54041513Y-52361111D01*
X54070185Y-52070000D01*
X54041513Y-51778889D01*
X53956599Y-51498966D01*
X53818706Y-51240986D01*
X53633134Y-51014866D01*
X53407014Y-50829294D01*
X53352209Y-50800000D01*
X53407014Y-50770706D01*
X53633134Y-50585134D01*
X53818706Y-50359014D01*
X53956599Y-50101034D01*
X54041513Y-49821111D01*
X54070185Y-49530000D01*
X54041513Y-49238889D01*
X53956599Y-48958966D01*
X53818706Y-48700986D01*
X53633134Y-48474866D01*
X53407014Y-48289294D01*
X53352209Y-48260000D01*
X53407014Y-48230706D01*
X53633134Y-48045134D01*
X53818706Y-47819014D01*
X53956599Y-47561034D01*
X54041513Y-47281111D01*
X54070185Y-46990000D01*
X54041513Y-46698889D01*
X53956599Y-46418966D01*
X53818706Y-46160986D01*
X53633134Y-45934866D01*
X53407014Y-45749294D01*
X53352209Y-45720000D01*
X53407014Y-45690706D01*
X53633134Y-45505134D01*
X53818706Y-45279014D01*
X53956599Y-45021034D01*
X54041513Y-44741111D01*
X54070185Y-44450000D01*
X54041513Y-44158889D01*
X53956599Y-43878966D01*
X53818706Y-43620986D01*
X53633134Y-43394866D01*
X53407014Y-43209294D01*
X53342477Y-43174799D01*
X53459355Y-43105178D01*
X53675588Y-42910269D01*
X53787672Y-42760000D01*
X54105768Y-42760000D01*
X54118028Y-42884482D01*
X54154338Y-43004180D01*
X54213303Y-43114494D01*
X54267062Y-43180000D01*
X54213303Y-43245506D01*
X54154338Y-43355820D01*
X54118028Y-43475518D01*
X54105768Y-43600000D01*
X54105768Y-45300000D01*
X54118028Y-45424482D01*
X54154338Y-45544180D01*
X54213303Y-45654494D01*
X54267062Y-45720000D01*
X54213303Y-45785506D01*
X54154338Y-45895820D01*
X54118028Y-46015518D01*
X54105768Y-46140000D01*
X54105768Y-47840000D01*
X54118028Y-47964482D01*
X54154338Y-48084180D01*
X54213303Y-48194494D01*
X54267062Y-48260000D01*
X54213303Y-48325506D01*
X54154338Y-48435820D01*
X54118028Y-48555518D01*
X54105768Y-48680000D01*
X54105768Y-50380000D01*
X54118028Y-50504482D01*
X54154338Y-50624180D01*
X54213303Y-50734494D01*
X54267062Y-50800000D01*
X54213303Y-50865506D01*
X54154338Y-50975820D01*
X54118028Y-51095518D01*
X54105768Y-51220000D01*
X54105768Y-52920000D01*
X54118028Y-53044482D01*
X54154338Y-53164180D01*
X54213303Y-53274494D01*
X54267062Y-53340000D01*
X54213303Y-53405506D01*
X54154338Y-53515820D01*
X54118028Y-53635518D01*
X54105768Y-53760000D01*
X54108840Y-54324250D01*
X54267590Y-54483000D01*
X58720090Y-54483000D01*
X58878840Y-54324250D01*
X58881912Y-53760000D01*
X58869652Y-53635518D01*
X58833342Y-53515820D01*
X58774377Y-53405506D01*
X58720618Y-53340000D01*
X58774377Y-53274494D01*
X58833342Y-53164180D01*
X58869652Y-53044482D01*
X58881912Y-52920000D01*
X58881912Y-52111760D01*
X58886025Y-52070000D01*
X58881912Y-52028240D01*
X58881912Y-51220000D01*
X58869652Y-51095518D01*
X58833342Y-50975820D01*
X58774377Y-50865506D01*
X58720618Y-50800000D01*
X58774377Y-50734494D01*
X58833342Y-50624180D01*
X58869652Y-50504482D01*
X58881912Y-50380000D01*
X58881912Y-49571760D01*
X58886025Y-49530000D01*
X58881912Y-49488240D01*
X58881912Y-48680000D01*
X58869652Y-48555518D01*
X58833342Y-48435820D01*
X58774377Y-48325506D01*
X58720618Y-48260000D01*
X58774377Y-48194494D01*
X58833342Y-48084180D01*
X58869652Y-47964482D01*
X58881912Y-47840000D01*
X58881912Y-47031760D01*
X58886025Y-46990000D01*
X58881912Y-46948240D01*
X58881912Y-46140000D01*
X58869652Y-46015518D01*
X58833342Y-45895820D01*
X58774377Y-45785506D01*
X58720618Y-45720000D01*
X58774377Y-45654494D01*
X58833342Y-45544180D01*
X58869652Y-45424482D01*
X58881912Y-45300000D01*
X58881912Y-44491760D01*
X58886025Y-44450000D01*
X58881912Y-44408240D01*
X58881912Y-43600000D01*
X58869652Y-43475518D01*
X58833342Y-43355820D01*
X58774377Y-43245506D01*
X58720618Y-43180000D01*
X58774377Y-43114494D01*
X58833342Y-43004180D01*
X58869652Y-42884482D01*
X58881912Y-42760000D01*
X58878840Y-42195750D01*
X58720090Y-42037000D01*
X54267590Y-42037000D01*
X54108840Y-42195750D01*
X54105768Y-42760000D01*
X53787672Y-42760000D01*
X53849641Y-42676920D01*
X53974825Y-42414099D01*
X54019476Y-42266890D01*
X53898155Y-42037000D01*
X52705000Y-42037000D01*
X52705000Y-42057000D01*
X52451000Y-42057000D01*
X52451000Y-42037000D01*
X52431000Y-42037000D01*
X52431000Y-41783000D01*
X52451000Y-41783000D01*
X52451000Y-41763000D01*
X52705000Y-41763000D01*
X52705000Y-41783000D01*
X53898155Y-41783000D01*
X54019476Y-41553110D01*
X53974825Y-41405901D01*
X53849641Y-41143080D01*
X53675588Y-40909731D01*
X53591534Y-40833966D01*
X53672180Y-40809502D01*
X53782494Y-40750537D01*
X53879185Y-40671185D01*
X53958537Y-40574494D01*
X54017502Y-40464180D01*
X54053812Y-40344482D01*
X54066072Y-40220000D01*
X54066072Y-38520000D01*
X54053812Y-38395518D01*
X54017502Y-38275820D01*
X53958537Y-38165506D01*
X53879185Y-38068815D01*
X53782494Y-37989463D01*
X53672180Y-37930498D01*
X53552482Y-37894188D01*
X53428000Y-37881928D01*
X51728000Y-37881928D01*
X51603518Y-37894188D01*
X51483820Y-37930498D01*
X51388880Y-37981245D01*
X51388880Y-30060000D01*
X54105768Y-30060000D01*
X54118028Y-30184482D01*
X54154338Y-30304180D01*
X54213303Y-30414494D01*
X54267062Y-30480000D01*
X54213303Y-30545506D01*
X54154338Y-30655820D01*
X54118028Y-30775518D01*
X54105768Y-30900000D01*
X54105768Y-32600000D01*
X54118028Y-32724482D01*
X54154338Y-32844180D01*
X54213303Y-32954494D01*
X54267062Y-33020000D01*
X54213303Y-33085506D01*
X54154338Y-33195820D01*
X54118028Y-33315518D01*
X54105768Y-33440000D01*
X54105768Y-35140000D01*
X54118028Y-35264482D01*
X54154338Y-35384180D01*
X54213303Y-35494494D01*
X54267062Y-35560000D01*
X54213303Y-35625506D01*
X54154338Y-35735820D01*
X54118028Y-35855518D01*
X54105768Y-35980000D01*
X54105768Y-37680000D01*
X54118028Y-37804482D01*
X54154338Y-37924180D01*
X54213303Y-38034494D01*
X54267062Y-38100000D01*
X54213303Y-38165506D01*
X54154338Y-38275820D01*
X54118028Y-38395518D01*
X54105768Y-38520000D01*
X54105768Y-40220000D01*
X54118028Y-40344482D01*
X54154338Y-40464180D01*
X54213303Y-40574494D01*
X54267062Y-40640000D01*
X54213303Y-40705506D01*
X54154338Y-40815820D01*
X54118028Y-40935518D01*
X54105768Y-41060000D01*
X54108840Y-41624250D01*
X54267590Y-41783000D01*
X58720090Y-41783000D01*
X58878840Y-41624250D01*
X58881912Y-41060000D01*
X58869652Y-40935518D01*
X58833342Y-40815820D01*
X58774377Y-40705506D01*
X58720618Y-40640000D01*
X58774377Y-40574494D01*
X58833342Y-40464180D01*
X58869652Y-40344482D01*
X58881912Y-40220000D01*
X58881912Y-39411760D01*
X58886025Y-39370000D01*
X58881912Y-39328240D01*
X58881912Y-38520000D01*
X58869652Y-38395518D01*
X58833342Y-38275820D01*
X58774377Y-38165506D01*
X58720618Y-38100000D01*
X58774377Y-38034494D01*
X58833342Y-37924180D01*
X58869652Y-37804482D01*
X58881912Y-37680000D01*
X58881912Y-36871760D01*
X58886025Y-36830000D01*
X58881912Y-36788240D01*
X58881912Y-35980000D01*
X58869652Y-35855518D01*
X58833342Y-35735820D01*
X58774377Y-35625506D01*
X58720618Y-35560000D01*
X58774377Y-35494494D01*
X58833342Y-35384180D01*
X58869652Y-35264482D01*
X58881912Y-35140000D01*
X58881912Y-34331760D01*
X58886025Y-34290000D01*
X58881912Y-34248240D01*
X58881912Y-33440000D01*
X58869652Y-33315518D01*
X58833342Y-33195820D01*
X58774377Y-33085506D01*
X58720618Y-33020000D01*
X58774377Y-32954494D01*
X58833342Y-32844180D01*
X58869652Y-32724482D01*
X58881912Y-32600000D01*
X58881912Y-31791760D01*
X58886025Y-31750000D01*
X58881912Y-31708240D01*
X58881912Y-30900000D01*
X58869652Y-30775518D01*
X58833342Y-30655820D01*
X58774377Y-30545506D01*
X58720618Y-30480000D01*
X58774377Y-30414494D01*
X58833342Y-30304180D01*
X58869652Y-30184482D01*
X58881912Y-30060000D01*
X58878840Y-29495750D01*
X58720090Y-29337000D01*
X54267590Y-29337000D01*
X54108840Y-29495750D01*
X54105768Y-30060000D01*
X51388880Y-30060000D01*
X51388880Y-23280000D01*
X54105768Y-23280000D01*
X54105768Y-24980000D01*
X54118028Y-25104482D01*
X54154338Y-25224180D01*
X54213303Y-25334494D01*
X54267062Y-25400000D01*
X54213303Y-25465506D01*
X54154338Y-25575820D01*
X54118028Y-25695518D01*
X54105768Y-25820000D01*
X54105768Y-27520000D01*
X54118028Y-27644482D01*
X54154338Y-27764180D01*
X54213303Y-27874494D01*
X54267062Y-27940000D01*
X54213303Y-28005506D01*
X54154338Y-28115820D01*
X54118028Y-28235518D01*
X54105768Y-28360000D01*
X54108840Y-28924250D01*
X54267590Y-29083000D01*
X58720090Y-29083000D01*
X58878840Y-28924250D01*
X58881912Y-28360000D01*
X58869652Y-28235518D01*
X58833342Y-28115820D01*
X58774377Y-28005506D01*
X58720618Y-27940000D01*
X58774377Y-27874494D01*
X58833342Y-27764180D01*
X58869652Y-27644482D01*
X58881912Y-27520000D01*
X58881912Y-27290000D01*
X62467139Y-27290000D01*
X62493880Y-27561507D01*
X62573076Y-27822581D01*
X62701683Y-28063188D01*
X62874759Y-28274081D01*
X63085652Y-28447157D01*
X63326259Y-28575764D01*
X63587333Y-28654960D01*
X63790803Y-28675000D01*
X63926877Y-28675000D01*
X64130347Y-28654960D01*
X64391421Y-28575764D01*
X64632028Y-28447157D01*
X64842921Y-28274081D01*
X65015997Y-28063188D01*
X65144604Y-27822581D01*
X65223800Y-27561507D01*
X65250541Y-27290000D01*
X67317139Y-27290000D01*
X67343880Y-27561507D01*
X67423076Y-27822581D01*
X67551683Y-28063188D01*
X67724759Y-28274081D01*
X67935652Y-28447157D01*
X68176259Y-28575764D01*
X68437333Y-28654960D01*
X68640803Y-28675000D01*
X68776877Y-28675000D01*
X68980347Y-28654960D01*
X69241421Y-28575764D01*
X69482028Y-28447157D01*
X69692921Y-28274081D01*
X69865997Y-28063188D01*
X69994604Y-27822581D01*
X70073800Y-27561507D01*
X70100541Y-27290000D01*
X70073800Y-27018493D01*
X69994604Y-26757419D01*
X69865997Y-26516812D01*
X69692921Y-26305919D01*
X69482028Y-26132843D01*
X69241421Y-26004236D01*
X68980347Y-25925040D01*
X68776877Y-25905000D01*
X68640803Y-25905000D01*
X68437333Y-25925040D01*
X68176259Y-26004236D01*
X67935652Y-26132843D01*
X67724759Y-26305919D01*
X67551683Y-26516812D01*
X67423076Y-26757419D01*
X67343880Y-27018493D01*
X67317139Y-27290000D01*
X65250541Y-27290000D01*
X65223800Y-27018493D01*
X65144604Y-26757419D01*
X65015997Y-26516812D01*
X64842921Y-26305919D01*
X64632028Y-26132843D01*
X64391421Y-26004236D01*
X64130347Y-25925040D01*
X63926877Y-25905000D01*
X63790803Y-25905000D01*
X63587333Y-25925040D01*
X63326259Y-26004236D01*
X63085652Y-26132843D01*
X62874759Y-26305919D01*
X62701683Y-26516812D01*
X62573076Y-26757419D01*
X62493880Y-27018493D01*
X62467139Y-27290000D01*
X58881912Y-27290000D01*
X58881912Y-26711760D01*
X58886025Y-26670000D01*
X58881912Y-26628240D01*
X58881912Y-25820000D01*
X58869652Y-25695518D01*
X58833342Y-25575820D01*
X58774377Y-25465506D01*
X58720618Y-25400000D01*
X58774377Y-25334494D01*
X58833342Y-25224180D01*
X58869652Y-25104482D01*
X58881912Y-24980000D01*
X58881912Y-24260000D01*
X62016413Y-24260000D01*
X62046050Y-24560913D01*
X62133823Y-24850261D01*
X62276359Y-25116927D01*
X62468179Y-25350661D01*
X62701913Y-25542481D01*
X62968579Y-25685017D01*
X63257927Y-25772790D01*
X63483432Y-25795000D01*
X63634248Y-25795000D01*
X63859753Y-25772790D01*
X64149101Y-25685017D01*
X64415767Y-25542481D01*
X64649501Y-25350661D01*
X64841321Y-25116927D01*
X64983857Y-24850261D01*
X65071630Y-24560913D01*
X65101267Y-24260000D01*
X67466413Y-24260000D01*
X67496050Y-24560913D01*
X67583823Y-24850261D01*
X67726359Y-25116927D01*
X67918179Y-25350661D01*
X68151913Y-25542481D01*
X68418579Y-25685017D01*
X68707927Y-25772790D01*
X68933432Y-25795000D01*
X69084248Y-25795000D01*
X69309753Y-25772790D01*
X69599101Y-25685017D01*
X69865767Y-25542481D01*
X70099501Y-25350661D01*
X70291321Y-25116927D01*
X70433857Y-24850261D01*
X70521630Y-24560913D01*
X70551267Y-24260000D01*
X70521630Y-23959087D01*
X70433857Y-23669739D01*
X70291321Y-23403073D01*
X70099501Y-23169339D01*
X69865767Y-22977519D01*
X69599101Y-22834983D01*
X69309753Y-22747210D01*
X69084248Y-22725000D01*
X68933432Y-22725000D01*
X68707927Y-22747210D01*
X68418579Y-22834983D01*
X68151913Y-22977519D01*
X67918179Y-23169339D01*
X67726359Y-23403073D01*
X67583823Y-23669739D01*
X67496050Y-23959087D01*
X67466413Y-24260000D01*
X65101267Y-24260000D01*
X65071630Y-23959087D01*
X64983857Y-23669739D01*
X64841321Y-23403073D01*
X64649501Y-23169339D01*
X64415767Y-22977519D01*
X64149101Y-22834983D01*
X63859753Y-22747210D01*
X63634248Y-22725000D01*
X63483432Y-22725000D01*
X63257927Y-22747210D01*
X62968579Y-22834983D01*
X62701913Y-22977519D01*
X62468179Y-23169339D01*
X62276359Y-23403073D01*
X62133823Y-23669739D01*
X62046050Y-23959087D01*
X62016413Y-24260000D01*
X58881912Y-24260000D01*
X58881912Y-24171760D01*
X58886025Y-24130000D01*
X58881912Y-24088240D01*
X58881912Y-23280000D01*
X58869652Y-23155518D01*
X58833342Y-23035820D01*
X58774377Y-22925506D01*
X58695025Y-22828815D01*
X58598334Y-22749463D01*
X58488020Y-22690498D01*
X58368322Y-22654188D01*
X58243840Y-22641928D01*
X54743840Y-22641928D01*
X54619358Y-22654188D01*
X54499660Y-22690498D01*
X54389346Y-22749463D01*
X54292655Y-22828815D01*
X54213303Y-22925506D01*
X54154338Y-23035820D01*
X54118028Y-23155518D01*
X54105768Y-23280000D01*
X51388880Y-23280000D01*
X51388880Y-21002860D01*
X78107941Y-21002860D01*
X78107941Y-22711837D01*
G36*
X76220840Y-54737000D02*
G01*
X75926840Y-54737000D01*
X75926840Y-54483000D01*
X76220840Y-54483000D01*
X76220840Y-54737000D01*
X76220840Y-54737000D01*
G37*
X76220840Y-54737000D02*
X75926840Y-54737000D01*
X75926840Y-54483000D01*
X76220840Y-54483000D01*
X76220840Y-54737000D01*
M02*
