M48
INCH,TZ
T1C0.0157
T2C0.0394
T3C0.0402
%
G90
G05
T1
X26550Y-29800
X28350Y-28000
T2
X20700Y-26500
X20700Y-27500
X20700Y-28500
X20700Y-29500
X20700Y-30500
X20700Y-31500
X20700Y-32500
X20700Y-33500
X20700Y-34500
X20700Y-35500
X20700Y-36500
X20700Y-37500
X20700Y-15500
X20700Y-16500
X20700Y-17500
X20700Y-18500
X20700Y-19500
X20700Y-20500
X20700Y-21500
X20700Y-22500
X20700Y-23500
X20700Y-24500
X20700Y-25500
X23350Y-33500
X23350Y-34500
X23350Y-35500
X23350Y-36500
X23350Y-37500
T3
X22596Y-9500
X22596Y-10500
X22596Y-11500
X22596Y-12500
X22596Y-13500
X22596Y-14500
X22596Y-15500
X22596Y-16500
X22596Y-17500
X22596Y-18500
X22596Y-19500
X22596Y-20500
X22596Y-21500
X22596Y-22500
X22596Y-23500
X22596Y-24500
X22596Y-25500
X22596Y-26500
X22596Y-27500
X22596Y-28500
X25096Y-28409
X26096Y-28409
X27096Y-28409
X29596Y-9500
X29596Y-10500
X29596Y-11500
X29596Y-12500
X29596Y-13500
X29596Y-14500
X29596Y-15500
X29596Y-16500
X29596Y-17500
X29596Y-18500
X29596Y-19500
X29596Y-20500
X29596Y-21500
X29596Y-22500
X29596Y-23500
X29596Y-24500
X29596Y-25500
X29596Y-26500
X29596Y-27500
X29596Y-28500
T0
M30
